M48
;DRILL file {KiCad no-vcs-found-4011ed4~58~ubuntu16.04.1} date Wed Mar 29 23:34:39 2017
;FORMAT={-:-/ absolute / metric / decimal}
FMAT,2
METRIC,TZ
T1C0.600
T2C0.762
T3C0.800
T4C0.900
T5C1.000
T6C1.200
T7C1.700
T8C2.600
T9C3.200
%
G90
G05
M71
T1
X46.Y-60.
X46.Y-60.
X46.Y-77.
X46.5Y-113.5
X48.5Y-113.5
X54.Y-66.
X57.5Y-77.
X58.Y-59.6
X59.5Y-68.
X60.9Y-155.2
X65.Y-138.5
X67.4Y-59.6
X68.Y-77.
X69.9Y-73.6
X70.Y-143.5
X71.Y-151.
X71.4Y-68.6
X75.5Y-127.5
X77.4Y-59.6
X78.Y-77.
X78.Y-155.5
X80.4Y-73.6
X81.9Y-68.1
X85.Y-150.
X87.Y-133.
X87.4Y-59.6
X88.Y-77.
X88.Y-131.
X90.4Y-73.6
X90.9Y-67.1
X96.Y-134.
X97.Y-132.
X97.Y-148.
X97.4Y-59.6
X98.Y-77.
X100.2Y-71.7
X100.4Y-66.1
X107.4Y-59.6
X108.Y-77.
X109.9Y-65.1
X109.9Y-71.6
X115.Y-96.5
X116.5Y-109.
X116.9Y-59.6
X117.4Y-86.2
X117.4Y-88.1
X119.4Y-97.1
X121.5Y-124.
X122.718Y-96.745
X123.9Y-71.1
X127.Y-118.
X127.Y-122.
X127.1Y-129.5
X127.6Y-71.1
X127.9Y-86.9
X128.9Y-89.6
X133.4Y-71.1
X134.5Y-84.2
X134.5Y-100.
X136.5Y-100.
X137.Y-77.
X138.5Y-100.
X141.4Y-59.6
X141.5Y-130.5
X141.6Y-57.3
X143.9Y-105.3
X145.5Y-104.
X146.32Y-77.68
X146.4Y-57.6
X147.Y-102.5
X147.Y-140.
X147.7Y-68.
X151.4Y-59.6
X151.9Y-146.1
X152.3Y-142.8
X155.Y-116.5
X155.Y-123.5
X157.Y-116.5
X157.Y-123.5
X158.Y-127.5
X158.4Y-91.2
X158.4Y-94.2
X158.4Y-100.6
X158.92Y-142.584
X159.5Y-135.
X164.5Y-120.
X164.5Y-124.
X165.Y-151.5
X166.Y-77.
X170.9Y-59.6
X173.9Y-71.6
X174.4Y-68.1
X175.3Y-77.
X181.Y-59.6
X181.Y-118.
X181.Y-126.
X183.4Y-67.1
X183.4Y-71.1
X183.5Y-91.2
X184.Y-118.
X184.Y-122.
X188.4Y-98.1
X190.9Y-59.6
X193.Y-131.
X193.9Y-72.1
X194.5Y-66.
X194.6Y-75.
X195.9Y-59.6
X197.4Y-86.6
X198.7Y-101.9
X199.031Y-132.069
X199.3Y-139.4
X201.3Y-101.5
X201.804Y-88.572
X202.181Y-96.919
X202.9Y-90.1
X203.2Y-98.6
X204.473Y-88.908
X205.3Y-99.1
X206.1Y-90.2
X206.8Y-86.2
X207.5Y-88.9
X207.9Y-71.1
X210.Y-148.
X210.Y-150.
X210.1Y-141.7
X214.Y-71.3
X215.Y-148.
X215.Y-150.
X217.4Y-72.6
X217.5Y-89.1
X218.45Y-141.45
X219.4Y-69.1
X220.2Y-93.6
X221.1Y-78.1
X221.32Y-67.
X224.4Y-66.6
X225.9Y-72.1
X226.4Y-59.6
X226.4Y-129.1
X226.6Y-83.6
X226.6Y-137.1
X227.Y-148.
X227.5Y-128.
X227.5Y-129.5
X227.5Y-136.5
X227.5Y-138.
X228.5Y-143.8
X229.9Y-65.6
X230.8Y-145.1
X231.7Y-146.4
X233.3Y-146.4
X234.5Y-145.3
X236.4Y-59.6
X241.4Y-66.6
X241.4Y-69.6
X242.8Y-76.8
X243.Y-153.5
X246.4Y-59.6
X247.Y-150.
X248.4Y-83.1
X249.4Y-95.1
X251.4Y-93.7
X252.Y-150.
X253.781Y-95.481
X253.9Y-75.6
X255.347Y-93.973
X256.4Y-59.6
X258.3Y-66.6
X261.6Y-101.5
X262.5Y-150.5
X262.5Y-152.
X262.6Y-66.1
X263.Y-149.
X263.4Y-62.
X264.Y-63.95
X264.5Y-149.
X264.9Y-70.6
X265.2Y-101.5
X265.7Y-107.8
X267.8Y-83.6
X268.1Y-109.1
X273.6Y-100.8
X273.7Y-75.6
X274.Y-59.5
T2
X114.32Y-112.1
X114.32Y-127.34
X116.86Y-112.1
X116.86Y-127.34
X119.4Y-112.1
X119.4Y-127.34
X121.94Y-112.1
X121.94Y-127.34
X124.48Y-112.1
X124.48Y-127.34
X127.02Y-112.1
X127.02Y-127.34
X129.56Y-112.1
X129.56Y-127.34
X132.1Y-112.1
X132.1Y-127.34
X134.64Y-112.1
X134.64Y-127.34
X137.18Y-112.1
X137.18Y-127.34
X139.72Y-112.1
X139.72Y-127.34
X142.26Y-112.1
X142.26Y-127.34
X144.8Y-112.1
X144.8Y-127.34
X147.34Y-112.1
X147.34Y-127.34
X149.88Y-112.1
X149.88Y-127.34
T3
X241.9Y-87.02
X241.9Y-89.56
X241.9Y-92.1
X247.9Y-87.06
X247.9Y-89.6
X247.9Y-92.14
X255.46Y-112.6
X255.46Y-115.14
X255.46Y-117.68
X261.49Y-112.53
X261.49Y-115.07
X261.49Y-117.61
X261.5Y-87.
X261.5Y-89.54
X261.5Y-92.08
X267.49Y-112.57
X267.49Y-115.11
X267.49Y-117.65
X267.5Y-86.96
X267.5Y-89.5
X267.5Y-92.04
X273.4Y-94.1
T4
X63.56Y-86.7
X66.1Y-86.7
X73.96Y-86.7
X76.5Y-86.7
X78.Y-130.46
X78.Y-133.
X78.4Y-159.6
X80.9Y-159.6
X83.4Y-159.6
X83.56Y-86.7
X85.9Y-159.6
X86.1Y-86.7
X93.56Y-86.7
X96.1Y-86.7
X103.5Y-86.7
X106.04Y-86.7
X137.6Y-86.7
X140.14Y-86.7
X147.56Y-86.7
X150.1Y-86.7
X159.542Y-127.382
X162.042Y-127.382
X167.36Y-86.6
X169.9Y-86.6
X177.36Y-86.6
X179.9Y-86.6
X200.86Y-143.
X200.9Y-122.7
X203.4Y-143.
X203.44Y-122.7
X229.36Y-86.6
X231.9Y-86.6
X234.76Y-91.3
X237.3Y-91.3
X253.9Y-156.6
X254.5Y-106.8
X255.7Y-85.2
X255.7Y-87.74
X256.44Y-156.6
X257.04Y-106.8
X259.9Y-128.06
X259.9Y-130.6
X259.9Y-134.6
X259.9Y-137.14
T5
X44.5Y-111.42
X44.5Y-113.96
X44.5Y-116.5
X62.32Y-54.48
X62.32Y-62.1
X62.32Y-64.64
X62.32Y-71.94
X62.32Y-79.56
X62.32Y-82.1
X67.4Y-54.48
X67.4Y-62.1
X67.4Y-64.64
X67.4Y-71.94
X67.4Y-79.56
X67.4Y-82.1
X72.32Y-54.48
X72.32Y-62.1
X72.32Y-64.64
X72.32Y-71.94
X72.32Y-79.56
X72.32Y-82.1
X77.4Y-54.48
X77.4Y-62.1
X77.4Y-64.64
X77.4Y-71.94
X77.4Y-79.56
X77.4Y-82.1
X82.32Y-54.48
X82.32Y-62.1
X82.32Y-64.64
X82.32Y-71.94
X82.32Y-79.56
X82.32Y-82.1
X87.4Y-54.48
X87.4Y-62.1
X87.4Y-64.64
X87.4Y-71.94
X87.4Y-79.56
X87.4Y-82.1
X92.32Y-54.44
X92.32Y-62.06
X92.32Y-64.6
X92.32Y-71.94
X92.32Y-79.56
X92.32Y-82.1
X97.4Y-54.44
X97.4Y-62.06
X97.4Y-64.6
X97.4Y-71.94
X97.4Y-79.56
X97.4Y-82.1
X102.32Y-54.44
X102.32Y-62.06
X102.32Y-64.6
X102.32Y-71.94
X102.32Y-79.56
X102.32Y-82.1
X107.4Y-54.44
X107.4Y-62.06
X107.4Y-64.6
X107.4Y-71.94
X107.4Y-79.56
X107.4Y-82.1
X111.9Y-54.48
X111.9Y-62.1
X111.9Y-64.64
X116.98Y-54.48
X116.98Y-62.1
X116.98Y-64.64
X136.32Y-54.44
X136.32Y-62.06
X136.32Y-64.6
X136.32Y-71.94
X136.32Y-79.56
X136.32Y-82.1
X141.4Y-54.44
X141.4Y-62.06
X141.4Y-64.6
X141.4Y-71.94
X141.4Y-79.56
X141.4Y-82.1
X146.32Y-54.44
X146.32Y-62.06
X146.32Y-64.6
X146.32Y-71.94
X146.32Y-79.56
X146.32Y-82.1
X150.Y-137.
X151.4Y-54.44
X151.4Y-62.06
X151.4Y-64.6
X151.4Y-71.94
X151.4Y-79.56
X151.4Y-82.1
X152.54Y-137.
X155.08Y-137.
X157.62Y-137.
X160.16Y-137.
X162.7Y-137.
X165.82Y-54.44
X165.82Y-62.06
X165.82Y-64.6
X165.82Y-71.94
X165.82Y-79.56
X165.82Y-82.1
X170.9Y-54.44
X170.9Y-62.06
X170.9Y-64.6
X170.9Y-71.94
X170.9Y-79.56
X170.9Y-82.1
X175.82Y-54.44
X175.82Y-62.06
X175.82Y-64.6
X175.82Y-71.94
X175.82Y-79.56
X175.82Y-82.1
X180.9Y-54.44
X180.9Y-62.06
X180.9Y-64.6
X180.9Y-71.94
X180.9Y-79.56
X180.9Y-82.1
X185.82Y-54.44
X185.82Y-62.06
X185.82Y-64.6
X190.9Y-54.44
X190.9Y-62.06
X190.9Y-64.6
X195.82Y-54.44
X195.82Y-62.06
X195.82Y-64.6
X200.9Y-54.44
X200.9Y-62.06
X200.9Y-64.6
X221.32Y-54.44
X221.32Y-62.06
X221.32Y-64.6
X226.4Y-54.44
X226.4Y-62.06
X226.4Y-64.6
X227.5Y-144.5
X228.32Y-71.94
X228.32Y-79.56
X228.32Y-82.1
X231.32Y-54.44
X231.32Y-62.06
X231.32Y-64.6
X232.58Y-144.5
X233.4Y-71.94
X233.4Y-79.56
X233.4Y-82.1
X236.4Y-54.44
X236.4Y-62.06
X236.4Y-64.6
X241.32Y-54.44
X241.32Y-62.06
X241.32Y-64.6
X246.4Y-54.44
X246.4Y-62.06
X246.4Y-64.6
X251.32Y-54.44
X251.32Y-62.06
X251.32Y-64.6
X256.4Y-54.44
X256.4Y-62.06
X256.4Y-64.6
T6
X48.4Y-77.1
X48.6Y-60.1
X55.9Y-77.1
X56.1Y-60.1
X60.9Y-128.6
X60.9Y-136.1
X96.8Y-150.8
X96.8Y-158.3
X230.9Y-129.1
X230.9Y-136.6
X245.9Y-146.1
X245.9Y-153.6
X247.9Y-129.1
X247.9Y-136.6
X263.4Y-59.6
X270.9Y-59.6
T7
X52.4Y-46.6
X57.48Y-46.6
X62.56Y-46.6
X65.92Y-154.6
X67.64Y-46.6
X71.Y-154.6
X72.72Y-46.6
X77.8Y-46.6
X82.88Y-46.6
X87.96Y-46.6
X93.04Y-46.6
X98.12Y-46.6
X104.9Y-46.6
X109.98Y-46.6
X115.06Y-46.6
X115.92Y-154.6
X120.14Y-46.6
X121.Y-154.6
X125.22Y-46.6
X130.3Y-46.6
X135.38Y-46.6
X140.46Y-46.6
X144.68Y-154.6
X145.54Y-46.6
X149.76Y-154.6
X150.62Y-46.6
X154.84Y-154.6
X157.4Y-46.6
X159.92Y-154.6
X162.48Y-46.6
X165.Y-154.6
X167.56Y-46.6
X172.64Y-46.6
X177.72Y-46.6
X182.8Y-46.6
X187.88Y-46.6
X192.96Y-46.6
X198.04Y-46.6
X203.12Y-46.6
X209.9Y-46.6
X214.98Y-46.6
X220.06Y-46.6
X225.14Y-46.6
X230.22Y-46.6
X235.3Y-46.6
X240.38Y-46.6
X245.46Y-46.6
X250.54Y-46.6
X255.62Y-46.6
X270.Y-129.92
X270.Y-135.
X270.2Y-146.
X270.2Y-151.08
T8
X51.9Y-148.6
X56.9Y-148.6
X60.9Y-148.6
X65.9Y-148.6
X108.1Y-143.9
X108.1Y-148.9
X108.1Y-152.9
X108.1Y-157.9
T9
X43.9Y-158.6
X44.9Y-43.6
X130.Y-135.
X130.Y-160.
X180.Y-135.
X180.Y-160.
X273.9Y-43.6
X274.9Y-159.6
T0
M30
