G04 #@! TF.FileFunction,Copper,L1,Top,Signal*
%FSLAX46Y46*%
G04 Gerber Fmt 4.6, Leading zero omitted, Abs format (unit mm)*
G04 Created by KiCad (PCBNEW 4.0.5) date 03/23/17 14:15:55*
%MOMM*%
%LPD*%
G01*
G04 APERTURE LIST*
%ADD10C,0.100000*%
%ADD11C,0.300000*%
%ADD12C,0.010000*%
%ADD13C,0.381000*%
%ADD14R,3.000000X1.600000*%
%ADD15R,1.700000X2.000000*%
%ADD16R,1.700000X2.500000*%
%ADD17O,1.700000X2.500000*%
%ADD18R,1.500000X1.300000*%
%ADD19R,1.300000X1.500000*%
%ADD20R,2.032000X1.524000*%
%ADD21R,1.143000X0.508000*%
%ADD22R,0.900000X0.800000*%
%ADD23O,2.500000X3.500000*%
%ADD24R,2.500000X3.500000*%
%ADD25R,0.800000X0.900000*%
%ADD26C,6.400000*%
%ADD27C,0.500000*%
%ADD28C,0.350000*%
%ADD29C,0.700000*%
%ADD30C,1.000000*%
%ADD31C,0.250000*%
G04 APERTURE END LIST*
D10*
D11*
X133874716Y-137760143D02*
X133946145Y-137703000D01*
X134089002Y-137645857D01*
X134446145Y-137645857D01*
X134589002Y-137703000D01*
X134660431Y-137760143D01*
X134731859Y-137874429D01*
X134731859Y-137988714D01*
X134660431Y-138160143D01*
X133803288Y-138845857D01*
X134731859Y-138845857D01*
X135660430Y-137645857D02*
X135803287Y-137645857D01*
X135946144Y-137703000D01*
X136017573Y-137760143D01*
X136089002Y-137874429D01*
X136160430Y-138103000D01*
X136160430Y-138388714D01*
X136089002Y-138617286D01*
X136017573Y-138731571D01*
X135946144Y-138788714D01*
X135803287Y-138845857D01*
X135660430Y-138845857D01*
X135517573Y-138788714D01*
X135446144Y-138731571D01*
X135374716Y-138617286D01*
X135303287Y-138388714D01*
X135303287Y-138103000D01*
X135374716Y-137874429D01*
X135446144Y-137760143D01*
X135517573Y-137703000D01*
X135660430Y-137645857D01*
X137589001Y-138845857D02*
X136731858Y-138845857D01*
X137160430Y-138845857D02*
X137160430Y-137645857D01*
X137017573Y-137817286D01*
X136874715Y-137931571D01*
X136731858Y-137988714D01*
X138089001Y-137645857D02*
X139089001Y-137645857D01*
X138446144Y-138845857D01*
X139660429Y-138388714D02*
X140803286Y-138388714D01*
X141803286Y-137645857D02*
X141946143Y-137645857D01*
X142089000Y-137703000D01*
X142160429Y-137760143D01*
X142231858Y-137874429D01*
X142303286Y-138103000D01*
X142303286Y-138388714D01*
X142231858Y-138617286D01*
X142160429Y-138731571D01*
X142089000Y-138788714D01*
X141946143Y-138845857D01*
X141803286Y-138845857D01*
X141660429Y-138788714D01*
X141589000Y-138731571D01*
X141517572Y-138617286D01*
X141446143Y-138388714D01*
X141446143Y-138103000D01*
X141517572Y-137874429D01*
X141589000Y-137760143D01*
X141660429Y-137703000D01*
X141803286Y-137645857D01*
X143589000Y-138045857D02*
X143589000Y-138845857D01*
X143231857Y-137588714D02*
X142874714Y-138445857D01*
X143803286Y-138445857D01*
X144374714Y-138731571D02*
X144446142Y-138788714D01*
X144374714Y-138845857D01*
X144303285Y-138788714D01*
X144374714Y-138731571D01*
X144374714Y-138845857D01*
X145374714Y-137645857D02*
X145517571Y-137645857D01*
X145660428Y-137703000D01*
X145731857Y-137760143D01*
X145803286Y-137874429D01*
X145874714Y-138103000D01*
X145874714Y-138388714D01*
X145803286Y-138617286D01*
X145731857Y-138731571D01*
X145660428Y-138788714D01*
X145517571Y-138845857D01*
X145374714Y-138845857D01*
X145231857Y-138788714D01*
X145160428Y-138731571D01*
X145089000Y-138617286D01*
X145017571Y-138388714D01*
X145017571Y-138103000D01*
X145089000Y-137874429D01*
X145160428Y-137760143D01*
X145231857Y-137703000D01*
X145374714Y-137645857D01*
X147160428Y-138045857D02*
X147160428Y-138845857D01*
X146803285Y-137588714D02*
X146446142Y-138445857D01*
X147374714Y-138445857D01*
D12*
G36*
X144573814Y-131580931D02*
X144657635Y-132025555D01*
X144966920Y-132153053D01*
X145276206Y-132280551D01*
X145647246Y-132028246D01*
X145751157Y-131957996D01*
X145845087Y-131895272D01*
X145924652Y-131842938D01*
X145985470Y-131803857D01*
X146023157Y-131780893D01*
X146033421Y-131775942D01*
X146051910Y-131788676D01*
X146091420Y-131823882D01*
X146147522Y-131877062D01*
X146215787Y-131943718D01*
X146291786Y-132019354D01*
X146371092Y-132099472D01*
X146449275Y-132179574D01*
X146521907Y-132255164D01*
X146584559Y-132321745D01*
X146632803Y-132374818D01*
X146662210Y-132409887D01*
X146669241Y-132421623D01*
X146659123Y-132443260D01*
X146630759Y-132490662D01*
X146587129Y-132559193D01*
X146531218Y-132644215D01*
X146466006Y-132741093D01*
X146428219Y-132796350D01*
X146359343Y-132897248D01*
X146298140Y-132988299D01*
X146247578Y-133064970D01*
X146210628Y-133122728D01*
X146190258Y-133157043D01*
X146187197Y-133164254D01*
X146194136Y-133184748D01*
X146213051Y-133232513D01*
X146241087Y-133300832D01*
X146275391Y-133382989D01*
X146313109Y-133472270D01*
X146351387Y-133561958D01*
X146387370Y-133645338D01*
X146418206Y-133715694D01*
X146441039Y-133766310D01*
X146453017Y-133790471D01*
X146453724Y-133791422D01*
X146472531Y-133796036D01*
X146522618Y-133806328D01*
X146598793Y-133821287D01*
X146695865Y-133839901D01*
X146808643Y-133861159D01*
X146874442Y-133873418D01*
X146994950Y-133896362D01*
X147103797Y-133918195D01*
X147195476Y-133937722D01*
X147264481Y-133953748D01*
X147305304Y-133965079D01*
X147313511Y-133968674D01*
X147321548Y-133993006D01*
X147328033Y-134047959D01*
X147332970Y-134127108D01*
X147336364Y-134224026D01*
X147338218Y-134332287D01*
X147338538Y-134445465D01*
X147337327Y-134557135D01*
X147334590Y-134660868D01*
X147330331Y-134750241D01*
X147324555Y-134818826D01*
X147317267Y-134860197D01*
X147312895Y-134868810D01*
X147286764Y-134879133D01*
X147231393Y-134893892D01*
X147154107Y-134911352D01*
X147062230Y-134929780D01*
X147030158Y-134935741D01*
X146875524Y-134964066D01*
X146753375Y-134986876D01*
X146659673Y-135005080D01*
X146590384Y-135019583D01*
X146541471Y-135031292D01*
X146508897Y-135041115D01*
X146488628Y-135049956D01*
X146476626Y-135058724D01*
X146474947Y-135060457D01*
X146458184Y-135088371D01*
X146432614Y-135142695D01*
X146400788Y-135216777D01*
X146365260Y-135303965D01*
X146328583Y-135397608D01*
X146293311Y-135491052D01*
X146261996Y-135577647D01*
X146237193Y-135650740D01*
X146221454Y-135703678D01*
X146217332Y-135729811D01*
X146217676Y-135730726D01*
X146231641Y-135752086D01*
X146263322Y-135799084D01*
X146309391Y-135866827D01*
X146366518Y-135950423D01*
X146431373Y-136044982D01*
X146449843Y-136071854D01*
X146515699Y-136169275D01*
X146573650Y-136258163D01*
X146620538Y-136333412D01*
X146653207Y-136389920D01*
X146668500Y-136422581D01*
X146669241Y-136426593D01*
X146656392Y-136447684D01*
X146620888Y-136489464D01*
X146567293Y-136547445D01*
X146500171Y-136617135D01*
X146424087Y-136694045D01*
X146343604Y-136773683D01*
X146263287Y-136851561D01*
X146187699Y-136923186D01*
X146121405Y-136984070D01*
X146068969Y-137029721D01*
X146034955Y-137055650D01*
X146025545Y-137059883D01*
X146003643Y-137049912D01*
X145958800Y-137023020D01*
X145898321Y-136983736D01*
X145851789Y-136952117D01*
X145767475Y-136894098D01*
X145667626Y-136825784D01*
X145567473Y-136757579D01*
X145513627Y-136721075D01*
X145331371Y-136597800D01*
X145178381Y-136680520D01*
X145108682Y-136716759D01*
X145049414Y-136744926D01*
X145009311Y-136760991D01*
X144999103Y-136763226D01*
X144986829Y-136746722D01*
X144962613Y-136700082D01*
X144928263Y-136627609D01*
X144885588Y-136533606D01*
X144836394Y-136422374D01*
X144782490Y-136298215D01*
X144725684Y-136165432D01*
X144667782Y-136028327D01*
X144610593Y-135891202D01*
X144555924Y-135758358D01*
X144505584Y-135634098D01*
X144461380Y-135522725D01*
X144425119Y-135428539D01*
X144398609Y-135355844D01*
X144383658Y-135308941D01*
X144381254Y-135292833D01*
X144400311Y-135272286D01*
X144442036Y-135238933D01*
X144497706Y-135199702D01*
X144502378Y-135196599D01*
X144646264Y-135081423D01*
X144762283Y-134947053D01*
X144849430Y-134797784D01*
X144906699Y-134637913D01*
X144933086Y-134471737D01*
X144927585Y-134303552D01*
X144889190Y-134137655D01*
X144816895Y-133978342D01*
X144795626Y-133943487D01*
X144684996Y-133802737D01*
X144554302Y-133689714D01*
X144408064Y-133605003D01*
X144250808Y-133549194D01*
X144087057Y-133522874D01*
X143921333Y-133526630D01*
X143758162Y-133561050D01*
X143602065Y-133626723D01*
X143457567Y-133724235D01*
X143412869Y-133763813D01*
X143299112Y-133887703D01*
X143216218Y-134018124D01*
X143159356Y-134164315D01*
X143127687Y-134309088D01*
X143119869Y-134471860D01*
X143145938Y-134635440D01*
X143203245Y-134794298D01*
X143289144Y-134942906D01*
X143400986Y-135075735D01*
X143536123Y-135187256D01*
X143553883Y-135199011D01*
X143610150Y-135237508D01*
X143652923Y-135270863D01*
X143673372Y-135292160D01*
X143673669Y-135292833D01*
X143669279Y-135315871D01*
X143651876Y-135368157D01*
X143623268Y-135445390D01*
X143585265Y-135543268D01*
X143539674Y-135657491D01*
X143488303Y-135783758D01*
X143432962Y-135917767D01*
X143375458Y-136055218D01*
X143317601Y-136191808D01*
X143261198Y-136323237D01*
X143208058Y-136445205D01*
X143159990Y-136553409D01*
X143118801Y-136643549D01*
X143086301Y-136711323D01*
X143064297Y-136752430D01*
X143055436Y-136763226D01*
X143028360Y-136754819D01*
X142977697Y-136732272D01*
X142912183Y-136699613D01*
X142876159Y-136680520D01*
X142723168Y-136597800D01*
X142540912Y-136721075D01*
X142447875Y-136784228D01*
X142346015Y-136853727D01*
X142250562Y-136919165D01*
X142202750Y-136952117D01*
X142135505Y-136997273D01*
X142078564Y-137033057D01*
X142039354Y-137054938D01*
X142026619Y-137059563D01*
X142008083Y-137047085D01*
X141967059Y-137012252D01*
X141907525Y-136958678D01*
X141833458Y-136889983D01*
X141748835Y-136809781D01*
X141695315Y-136758286D01*
X141601681Y-136666286D01*
X141520759Y-136583999D01*
X141455823Y-136514945D01*
X141410142Y-136462644D01*
X141386989Y-136430616D01*
X141384768Y-136424116D01*
X141395076Y-136399394D01*
X141423561Y-136349405D01*
X141467063Y-136279212D01*
X141522423Y-136193875D01*
X141586480Y-136098456D01*
X141604697Y-136071854D01*
X141671073Y-135975167D01*
X141730622Y-135888117D01*
X141780016Y-135815595D01*
X141815925Y-135762493D01*
X141835019Y-135733703D01*
X141836864Y-135730726D01*
X141834105Y-135707782D01*
X141819462Y-135657336D01*
X141795487Y-135586041D01*
X141764734Y-135500547D01*
X141729756Y-135407507D01*
X141693107Y-135313574D01*
X141657339Y-135225399D01*
X141625006Y-135149634D01*
X141598662Y-135092931D01*
X141580858Y-135061943D01*
X141579593Y-135060457D01*
X141568706Y-135051601D01*
X141550318Y-135042843D01*
X141520394Y-135033277D01*
X141474897Y-135021996D01*
X141409791Y-135008093D01*
X141321039Y-134990663D01*
X141204607Y-134968798D01*
X141056458Y-134941591D01*
X141024382Y-134935741D01*
X140929314Y-134917374D01*
X140846435Y-134899405D01*
X140783070Y-134883569D01*
X140746542Y-134871600D01*
X140741644Y-134868810D01*
X140733573Y-134844072D01*
X140727013Y-134788790D01*
X140721967Y-134709389D01*
X140718441Y-134612296D01*
X140716439Y-134503938D01*
X140715964Y-134390740D01*
X140717023Y-134279128D01*
X140719618Y-134175529D01*
X140723754Y-134086368D01*
X140729437Y-134018072D01*
X140736669Y-133977066D01*
X140741029Y-133968674D01*
X140765302Y-133960208D01*
X140820574Y-133946435D01*
X140901338Y-133928550D01*
X141002088Y-133907748D01*
X141117317Y-133885223D01*
X141180098Y-133873418D01*
X141299213Y-133851151D01*
X141405435Y-133830979D01*
X141493573Y-133813915D01*
X141558434Y-133800969D01*
X141594826Y-133793155D01*
X141600816Y-133791422D01*
X141610939Y-133771890D01*
X141632338Y-133724843D01*
X141662161Y-133657003D01*
X141697555Y-133575091D01*
X141735668Y-133485828D01*
X141773647Y-133395935D01*
X141808640Y-133312135D01*
X141837794Y-133241147D01*
X141858257Y-133189694D01*
X141867177Y-133164497D01*
X141867343Y-133163396D01*
X141857231Y-133143519D01*
X141828883Y-133097777D01*
X141785277Y-133030717D01*
X141729394Y-132946884D01*
X141664213Y-132850826D01*
X141626321Y-132795650D01*
X141557275Y-132694481D01*
X141495950Y-132602630D01*
X141445337Y-132524744D01*
X141408429Y-132465469D01*
X141388218Y-132429451D01*
X141385299Y-132421377D01*
X141397847Y-132402584D01*
X141432537Y-132362457D01*
X141484937Y-132305493D01*
X141550616Y-132236185D01*
X141625144Y-132159031D01*
X141704087Y-132078525D01*
X141783017Y-131999163D01*
X141857500Y-131925440D01*
X141923106Y-131861852D01*
X141975404Y-131812894D01*
X142009961Y-131783061D01*
X142021522Y-131775942D01*
X142040346Y-131785953D01*
X142085369Y-131814078D01*
X142152213Y-131857454D01*
X142236501Y-131913218D01*
X142333856Y-131978506D01*
X142407293Y-132028246D01*
X142778333Y-132280551D01*
X143396905Y-132025555D01*
X143480725Y-131580931D01*
X143564546Y-131136307D01*
X144489994Y-131136307D01*
X144573814Y-131580931D01*
X144573814Y-131580931D01*
G37*
X144573814Y-131580931D02*
X144657635Y-132025555D01*
X144966920Y-132153053D01*
X145276206Y-132280551D01*
X145647246Y-132028246D01*
X145751157Y-131957996D01*
X145845087Y-131895272D01*
X145924652Y-131842938D01*
X145985470Y-131803857D01*
X146023157Y-131780893D01*
X146033421Y-131775942D01*
X146051910Y-131788676D01*
X146091420Y-131823882D01*
X146147522Y-131877062D01*
X146215787Y-131943718D01*
X146291786Y-132019354D01*
X146371092Y-132099472D01*
X146449275Y-132179574D01*
X146521907Y-132255164D01*
X146584559Y-132321745D01*
X146632803Y-132374818D01*
X146662210Y-132409887D01*
X146669241Y-132421623D01*
X146659123Y-132443260D01*
X146630759Y-132490662D01*
X146587129Y-132559193D01*
X146531218Y-132644215D01*
X146466006Y-132741093D01*
X146428219Y-132796350D01*
X146359343Y-132897248D01*
X146298140Y-132988299D01*
X146247578Y-133064970D01*
X146210628Y-133122728D01*
X146190258Y-133157043D01*
X146187197Y-133164254D01*
X146194136Y-133184748D01*
X146213051Y-133232513D01*
X146241087Y-133300832D01*
X146275391Y-133382989D01*
X146313109Y-133472270D01*
X146351387Y-133561958D01*
X146387370Y-133645338D01*
X146418206Y-133715694D01*
X146441039Y-133766310D01*
X146453017Y-133790471D01*
X146453724Y-133791422D01*
X146472531Y-133796036D01*
X146522618Y-133806328D01*
X146598793Y-133821287D01*
X146695865Y-133839901D01*
X146808643Y-133861159D01*
X146874442Y-133873418D01*
X146994950Y-133896362D01*
X147103797Y-133918195D01*
X147195476Y-133937722D01*
X147264481Y-133953748D01*
X147305304Y-133965079D01*
X147313511Y-133968674D01*
X147321548Y-133993006D01*
X147328033Y-134047959D01*
X147332970Y-134127108D01*
X147336364Y-134224026D01*
X147338218Y-134332287D01*
X147338538Y-134445465D01*
X147337327Y-134557135D01*
X147334590Y-134660868D01*
X147330331Y-134750241D01*
X147324555Y-134818826D01*
X147317267Y-134860197D01*
X147312895Y-134868810D01*
X147286764Y-134879133D01*
X147231393Y-134893892D01*
X147154107Y-134911352D01*
X147062230Y-134929780D01*
X147030158Y-134935741D01*
X146875524Y-134964066D01*
X146753375Y-134986876D01*
X146659673Y-135005080D01*
X146590384Y-135019583D01*
X146541471Y-135031292D01*
X146508897Y-135041115D01*
X146488628Y-135049956D01*
X146476626Y-135058724D01*
X146474947Y-135060457D01*
X146458184Y-135088371D01*
X146432614Y-135142695D01*
X146400788Y-135216777D01*
X146365260Y-135303965D01*
X146328583Y-135397608D01*
X146293311Y-135491052D01*
X146261996Y-135577647D01*
X146237193Y-135650740D01*
X146221454Y-135703678D01*
X146217332Y-135729811D01*
X146217676Y-135730726D01*
X146231641Y-135752086D01*
X146263322Y-135799084D01*
X146309391Y-135866827D01*
X146366518Y-135950423D01*
X146431373Y-136044982D01*
X146449843Y-136071854D01*
X146515699Y-136169275D01*
X146573650Y-136258163D01*
X146620538Y-136333412D01*
X146653207Y-136389920D01*
X146668500Y-136422581D01*
X146669241Y-136426593D01*
X146656392Y-136447684D01*
X146620888Y-136489464D01*
X146567293Y-136547445D01*
X146500171Y-136617135D01*
X146424087Y-136694045D01*
X146343604Y-136773683D01*
X146263287Y-136851561D01*
X146187699Y-136923186D01*
X146121405Y-136984070D01*
X146068969Y-137029721D01*
X146034955Y-137055650D01*
X146025545Y-137059883D01*
X146003643Y-137049912D01*
X145958800Y-137023020D01*
X145898321Y-136983736D01*
X145851789Y-136952117D01*
X145767475Y-136894098D01*
X145667626Y-136825784D01*
X145567473Y-136757579D01*
X145513627Y-136721075D01*
X145331371Y-136597800D01*
X145178381Y-136680520D01*
X145108682Y-136716759D01*
X145049414Y-136744926D01*
X145009311Y-136760991D01*
X144999103Y-136763226D01*
X144986829Y-136746722D01*
X144962613Y-136700082D01*
X144928263Y-136627609D01*
X144885588Y-136533606D01*
X144836394Y-136422374D01*
X144782490Y-136298215D01*
X144725684Y-136165432D01*
X144667782Y-136028327D01*
X144610593Y-135891202D01*
X144555924Y-135758358D01*
X144505584Y-135634098D01*
X144461380Y-135522725D01*
X144425119Y-135428539D01*
X144398609Y-135355844D01*
X144383658Y-135308941D01*
X144381254Y-135292833D01*
X144400311Y-135272286D01*
X144442036Y-135238933D01*
X144497706Y-135199702D01*
X144502378Y-135196599D01*
X144646264Y-135081423D01*
X144762283Y-134947053D01*
X144849430Y-134797784D01*
X144906699Y-134637913D01*
X144933086Y-134471737D01*
X144927585Y-134303552D01*
X144889190Y-134137655D01*
X144816895Y-133978342D01*
X144795626Y-133943487D01*
X144684996Y-133802737D01*
X144554302Y-133689714D01*
X144408064Y-133605003D01*
X144250808Y-133549194D01*
X144087057Y-133522874D01*
X143921333Y-133526630D01*
X143758162Y-133561050D01*
X143602065Y-133626723D01*
X143457567Y-133724235D01*
X143412869Y-133763813D01*
X143299112Y-133887703D01*
X143216218Y-134018124D01*
X143159356Y-134164315D01*
X143127687Y-134309088D01*
X143119869Y-134471860D01*
X143145938Y-134635440D01*
X143203245Y-134794298D01*
X143289144Y-134942906D01*
X143400986Y-135075735D01*
X143536123Y-135187256D01*
X143553883Y-135199011D01*
X143610150Y-135237508D01*
X143652923Y-135270863D01*
X143673372Y-135292160D01*
X143673669Y-135292833D01*
X143669279Y-135315871D01*
X143651876Y-135368157D01*
X143623268Y-135445390D01*
X143585265Y-135543268D01*
X143539674Y-135657491D01*
X143488303Y-135783758D01*
X143432962Y-135917767D01*
X143375458Y-136055218D01*
X143317601Y-136191808D01*
X143261198Y-136323237D01*
X143208058Y-136445205D01*
X143159990Y-136553409D01*
X143118801Y-136643549D01*
X143086301Y-136711323D01*
X143064297Y-136752430D01*
X143055436Y-136763226D01*
X143028360Y-136754819D01*
X142977697Y-136732272D01*
X142912183Y-136699613D01*
X142876159Y-136680520D01*
X142723168Y-136597800D01*
X142540912Y-136721075D01*
X142447875Y-136784228D01*
X142346015Y-136853727D01*
X142250562Y-136919165D01*
X142202750Y-136952117D01*
X142135505Y-136997273D01*
X142078564Y-137033057D01*
X142039354Y-137054938D01*
X142026619Y-137059563D01*
X142008083Y-137047085D01*
X141967059Y-137012252D01*
X141907525Y-136958678D01*
X141833458Y-136889983D01*
X141748835Y-136809781D01*
X141695315Y-136758286D01*
X141601681Y-136666286D01*
X141520759Y-136583999D01*
X141455823Y-136514945D01*
X141410142Y-136462644D01*
X141386989Y-136430616D01*
X141384768Y-136424116D01*
X141395076Y-136399394D01*
X141423561Y-136349405D01*
X141467063Y-136279212D01*
X141522423Y-136193875D01*
X141586480Y-136098456D01*
X141604697Y-136071854D01*
X141671073Y-135975167D01*
X141730622Y-135888117D01*
X141780016Y-135815595D01*
X141815925Y-135762493D01*
X141835019Y-135733703D01*
X141836864Y-135730726D01*
X141834105Y-135707782D01*
X141819462Y-135657336D01*
X141795487Y-135586041D01*
X141764734Y-135500547D01*
X141729756Y-135407507D01*
X141693107Y-135313574D01*
X141657339Y-135225399D01*
X141625006Y-135149634D01*
X141598662Y-135092931D01*
X141580858Y-135061943D01*
X141579593Y-135060457D01*
X141568706Y-135051601D01*
X141550318Y-135042843D01*
X141520394Y-135033277D01*
X141474897Y-135021996D01*
X141409791Y-135008093D01*
X141321039Y-134990663D01*
X141204607Y-134968798D01*
X141056458Y-134941591D01*
X141024382Y-134935741D01*
X140929314Y-134917374D01*
X140846435Y-134899405D01*
X140783070Y-134883569D01*
X140746542Y-134871600D01*
X140741644Y-134868810D01*
X140733573Y-134844072D01*
X140727013Y-134788790D01*
X140721967Y-134709389D01*
X140718441Y-134612296D01*
X140716439Y-134503938D01*
X140715964Y-134390740D01*
X140717023Y-134279128D01*
X140719618Y-134175529D01*
X140723754Y-134086368D01*
X140729437Y-134018072D01*
X140736669Y-133977066D01*
X140741029Y-133968674D01*
X140765302Y-133960208D01*
X140820574Y-133946435D01*
X140901338Y-133928550D01*
X141002088Y-133907748D01*
X141117317Y-133885223D01*
X141180098Y-133873418D01*
X141299213Y-133851151D01*
X141405435Y-133830979D01*
X141493573Y-133813915D01*
X141558434Y-133800969D01*
X141594826Y-133793155D01*
X141600816Y-133791422D01*
X141610939Y-133771890D01*
X141632338Y-133724843D01*
X141662161Y-133657003D01*
X141697555Y-133575091D01*
X141735668Y-133485828D01*
X141773647Y-133395935D01*
X141808640Y-133312135D01*
X141837794Y-133241147D01*
X141858257Y-133189694D01*
X141867177Y-133164497D01*
X141867343Y-133163396D01*
X141857231Y-133143519D01*
X141828883Y-133097777D01*
X141785277Y-133030717D01*
X141729394Y-132946884D01*
X141664213Y-132850826D01*
X141626321Y-132795650D01*
X141557275Y-132694481D01*
X141495950Y-132602630D01*
X141445337Y-132524744D01*
X141408429Y-132465469D01*
X141388218Y-132429451D01*
X141385299Y-132421377D01*
X141397847Y-132402584D01*
X141432537Y-132362457D01*
X141484937Y-132305493D01*
X141550616Y-132236185D01*
X141625144Y-132159031D01*
X141704087Y-132078525D01*
X141783017Y-131999163D01*
X141857500Y-131925440D01*
X141923106Y-131861852D01*
X141975404Y-131812894D01*
X142009961Y-131783061D01*
X142021522Y-131775942D01*
X142040346Y-131785953D01*
X142085369Y-131814078D01*
X142152213Y-131857454D01*
X142236501Y-131913218D01*
X142333856Y-131978506D01*
X142407293Y-132028246D01*
X142778333Y-132280551D01*
X143396905Y-132025555D01*
X143480725Y-131580931D01*
X143564546Y-131136307D01*
X144489994Y-131136307D01*
X144573814Y-131580931D01*
D13*
X139037200Y-133465900D02*
X138938140Y-133366840D01*
X138938140Y-133366840D02*
X138737480Y-133265240D01*
X138737480Y-133265240D02*
X138437760Y-133265240D01*
X138437760Y-133265240D02*
X138138040Y-133366840D01*
X138138040Y-133366840D02*
X137937380Y-133765620D01*
X137937380Y-133765620D02*
X137835780Y-134266000D01*
X137835780Y-134266000D02*
X137835780Y-134664780D01*
X137835780Y-134664780D02*
X138036440Y-135066100D01*
X138036440Y-135066100D02*
X138437760Y-135266760D01*
X138437760Y-135266760D02*
X138635880Y-135266760D01*
X138635880Y-135266760D02*
X138938140Y-135266760D01*
X138938140Y-135266760D02*
X139037200Y-135066100D01*
X137038220Y-133465900D02*
X136936620Y-133366840D01*
X136936620Y-133366840D02*
X136636900Y-133265240D01*
X136636900Y-133265240D02*
X136238120Y-133366840D01*
X136238120Y-133366840D02*
X135935860Y-133564960D01*
X135935860Y-133564960D02*
X135836800Y-133966280D01*
X135836800Y-133966280D02*
X135836800Y-134365060D01*
X135836800Y-134365060D02*
X135935860Y-134865440D01*
X135935860Y-134865440D02*
X136136520Y-135165160D01*
X136136520Y-135165160D02*
X136436240Y-135266760D01*
X136436240Y-135266760D02*
X136837560Y-135266760D01*
X136837560Y-135266760D02*
X137038220Y-135066100D01*
X137437000Y-131766640D02*
X137337940Y-131766640D01*
X137337940Y-131766640D02*
X136735960Y-131865700D01*
X136735960Y-131865700D02*
X136238120Y-132066360D01*
X136238120Y-132066360D02*
X135737740Y-132465140D01*
X135737740Y-132465140D02*
X135237360Y-133067120D01*
X135237360Y-133067120D02*
X135036700Y-133465900D01*
X135036700Y-133465900D02*
X134937640Y-133966280D01*
X134937640Y-133966280D02*
X134937640Y-134565720D01*
X134937640Y-134565720D02*
X135135760Y-135365820D01*
X135135760Y-135365820D02*
X135737740Y-136066860D01*
X135737740Y-136066860D02*
X136238120Y-136465640D01*
X136238120Y-136465640D02*
X136936620Y-136765360D01*
X136936620Y-136765360D02*
X137736720Y-136765360D01*
X137736720Y-136765360D02*
X138336160Y-136567240D01*
X138336160Y-136567240D02*
X138938140Y-136264980D01*
X138938140Y-136264980D02*
X139435980Y-135767140D01*
X139435980Y-135767140D02*
X139837300Y-135066100D01*
X139837300Y-135066100D02*
X139936360Y-134466660D01*
X139936360Y-134466660D02*
X139936360Y-133867220D01*
X139936360Y-133867220D02*
X139738240Y-133265240D01*
X139738240Y-133265240D02*
X139435980Y-132764860D01*
X139435980Y-132764860D02*
X138938140Y-132267020D01*
X138938140Y-132267020D02*
X138437760Y-131964760D01*
X138437760Y-131964760D02*
X138036440Y-131865700D01*
X138036440Y-131865700D02*
X137437000Y-131766640D01*
D14*
X160614000Y-148336000D03*
X165014000Y-148336000D03*
X136185000Y-148336000D03*
X131785000Y-148336000D03*
D15*
X143256000Y-145701000D03*
X143256000Y-149701000D03*
D16*
X150000000Y-137000000D03*
D17*
X152540000Y-137000000D03*
X155080000Y-137000000D03*
X157620000Y-137000000D03*
X160160000Y-137000000D03*
X162700000Y-137000000D03*
D18*
X154606000Y-133731000D03*
X157306000Y-133731000D03*
X162386000Y-133731000D03*
X159686000Y-133731000D03*
D19*
X174371000Y-142193000D03*
X174371000Y-139493000D03*
X177165000Y-142193000D03*
X177165000Y-139493000D03*
D18*
X169371000Y-159258000D03*
X166671000Y-159258000D03*
X136732000Y-142367000D03*
X134032000Y-142367000D03*
D19*
X156591000Y-148797000D03*
X156591000Y-146097000D03*
X139700000Y-148797000D03*
X139700000Y-146097000D03*
X136017000Y-158035000D03*
X136017000Y-160735000D03*
X139573000Y-160862000D03*
X139573000Y-158162000D03*
D20*
X180086000Y-152908000D03*
X180086000Y-150368000D03*
X180086000Y-147828000D03*
X180086000Y-145288000D03*
X172466000Y-145288000D03*
X172466000Y-147828000D03*
X172466000Y-150368000D03*
X172466000Y-152908000D03*
D21*
X152781000Y-145923000D03*
X152781000Y-147193000D03*
X152781000Y-148463000D03*
X152781000Y-149733000D03*
X146431000Y-149733000D03*
X146431000Y-148463000D03*
X146431000Y-147193000D03*
X146431000Y-145923000D03*
D22*
X167148000Y-133670000D03*
X167148000Y-135570000D03*
X169148000Y-134620000D03*
D23*
X167900000Y-154650800D03*
X162820000Y-154600000D03*
X157740000Y-154600000D03*
X152660000Y-154600000D03*
D24*
X142500000Y-154600000D03*
D23*
X147580000Y-154600000D03*
D19*
X139700000Y-143717000D03*
X139700000Y-141017000D03*
D25*
X156784000Y-160258000D03*
X158684000Y-160258000D03*
X157734000Y-158258000D03*
X151704000Y-160258000D03*
X153604000Y-160258000D03*
X152654000Y-158258000D03*
D26*
X130000000Y-135000000D03*
X180000000Y-135000000D03*
X180000000Y-160000000D03*
X130000000Y-160000000D03*
D27*
X160614000Y-148336000D02*
X157052000Y-148336000D01*
D28*
X157052000Y-148336000D02*
X156591000Y-148797000D01*
D27*
X152781000Y-149733000D02*
X155655000Y-149733000D01*
X155655000Y-149733000D02*
X156591000Y-148797000D01*
D28*
X156798000Y-148590000D02*
X156591000Y-148797000D01*
X156163000Y-149225000D02*
X156591000Y-148797000D01*
D27*
X130000000Y-160000000D02*
X130790000Y-160000000D01*
X130790000Y-160000000D02*
X133223000Y-162433000D01*
X133223000Y-162433000D02*
X147447000Y-162433000D01*
X147447000Y-162433000D02*
X148082000Y-161798000D01*
X162052000Y-161925000D02*
X178075000Y-161925000D01*
X178075000Y-161925000D02*
X180000000Y-160000000D01*
D29*
X158877000Y-161925000D02*
X162052000Y-161925000D01*
X156210000Y-161925000D02*
X158877000Y-161925000D01*
D27*
X162052000Y-161925000D02*
X164719000Y-159258000D01*
X165227000Y-149860000D02*
X165227000Y-158750000D01*
X165227000Y-158750000D02*
X164719000Y-159258000D01*
D29*
X165227000Y-148549000D02*
X165227000Y-149860000D01*
D27*
X166671000Y-159258000D02*
X164719000Y-159258000D01*
D30*
X147580000Y-158883000D02*
X147580000Y-161296000D01*
D27*
X147580000Y-161296000D02*
X148082000Y-161798000D01*
X148082000Y-161798000D02*
X148209000Y-161925000D01*
D30*
X141351000Y-158162000D02*
X146859000Y-158162000D01*
X146859000Y-158162000D02*
X147580000Y-158883000D01*
X147580000Y-154600000D02*
X147580000Y-158883000D01*
D29*
X147580000Y-158883000D02*
X148955000Y-160258000D01*
X147580000Y-154600000D02*
X147580000Y-152406000D01*
X146812000Y-151638000D02*
X145161000Y-151638000D01*
X147580000Y-152406000D02*
X146812000Y-151638000D01*
X143256000Y-149701000D02*
X143256000Y-151638000D01*
X143256000Y-151638000D02*
X143256000Y-151511000D01*
X143256000Y-151511000D02*
X143256000Y-151638000D01*
X147580000Y-154600000D02*
X147580000Y-154057000D01*
X145161000Y-151638000D02*
X143256000Y-151638000D01*
X131785000Y-148336000D02*
X131785000Y-149565000D01*
X143256000Y-151638000D02*
X133858000Y-151638000D01*
X133858000Y-151638000D02*
X131785000Y-149565000D01*
X147580000Y-156458000D02*
X147580000Y-154600000D01*
D30*
X139573000Y-158162000D02*
X141351000Y-158162000D01*
X141351000Y-158162000D02*
X141398000Y-158162000D01*
D29*
X147580000Y-154600000D02*
X147580000Y-154184000D01*
X146431000Y-149733000D02*
X143288000Y-149733000D01*
X143288000Y-149733000D02*
X143256000Y-149701000D01*
X156210000Y-161925000D02*
X153035000Y-161925000D01*
X153035000Y-161925000D02*
X148209000Y-161925000D01*
X134032000Y-142367000D02*
X132715000Y-142367000D01*
X131785000Y-143297000D02*
X131785000Y-148336000D01*
X132715000Y-142367000D02*
X131785000Y-143297000D01*
X165227000Y-148549000D02*
X165014000Y-148336000D01*
X156784000Y-161351000D02*
X156210000Y-161925000D01*
X156784000Y-160258000D02*
X156784000Y-161351000D01*
X148955000Y-160258000D02*
X151704000Y-160258000D01*
D27*
X146431000Y-148463000D02*
X145288000Y-148463000D01*
X141017000Y-148543000D02*
X139700000Y-148543000D01*
X141859000Y-147701000D02*
X141017000Y-148543000D01*
D28*
X144526000Y-147701000D02*
X141859000Y-147701000D01*
D27*
X145288000Y-148463000D02*
X144526000Y-147701000D01*
X136185000Y-148336000D02*
X139493000Y-148336000D01*
D28*
X139493000Y-148336000D02*
X139700000Y-148543000D01*
D29*
X139700000Y-143717000D02*
X140288000Y-143717000D01*
X140288000Y-143717000D02*
X142272000Y-145701000D01*
X142272000Y-145701000D02*
X143256000Y-145701000D01*
X143256000Y-145701000D02*
X144367000Y-145701000D01*
X144367000Y-145701000D02*
X145923000Y-144145000D01*
D30*
X142500000Y-154600000D02*
X139573000Y-154600000D01*
X139573000Y-154600000D02*
X137500000Y-154600000D01*
X137500000Y-154600000D02*
X136017000Y-154600000D01*
D29*
X172466000Y-147828000D02*
X173990000Y-147828000D01*
X174117000Y-152908000D02*
X172466000Y-152908000D01*
D30*
X174752000Y-152273000D02*
X174117000Y-152908000D01*
X174752000Y-148590000D02*
X174752000Y-152273000D01*
X173990000Y-147828000D02*
X174752000Y-148590000D01*
D29*
X172466000Y-147828000D02*
X170254428Y-147828000D01*
X158496000Y-144145000D02*
X159512000Y-145161000D01*
D30*
X159512000Y-145161000D02*
X167005000Y-145161000D01*
D29*
X158496000Y-144145000D02*
X152400000Y-144145000D01*
D30*
X167587428Y-145161000D02*
X167005000Y-145161000D01*
X170254428Y-147828000D02*
X167587428Y-145161000D01*
D27*
X152781000Y-145923000D02*
X152781000Y-144526000D01*
X152781000Y-144526000D02*
X152400000Y-144145000D01*
D29*
X152400000Y-144145000D02*
X145923000Y-144145000D01*
D30*
X137922000Y-140335000D02*
X138764000Y-140335000D01*
X137922000Y-140335000D02*
X131826000Y-140335000D01*
X131826000Y-140335000D02*
X128524000Y-143637000D01*
X128524000Y-143637000D02*
X128524000Y-152527000D01*
X128524000Y-152527000D02*
X130597000Y-154600000D01*
X136017000Y-154600000D02*
X130597000Y-154600000D01*
X138764000Y-140335000D02*
X139700000Y-141017000D01*
X136017000Y-154600000D02*
X136017000Y-156083000D01*
D29*
X136017000Y-156083000D02*
X136017000Y-158035000D01*
X136017000Y-154600000D02*
X136017000Y-154559000D01*
X136017000Y-154559000D02*
X136017000Y-154600000D01*
X139747000Y-143764000D02*
X139700000Y-143717000D01*
X139874000Y-143891000D02*
X139700000Y-143717000D01*
D30*
X182626000Y-148590000D02*
X182626000Y-143510000D01*
X149987000Y-139319000D02*
X150000000Y-137808000D01*
X149987000Y-139319000D02*
X170942000Y-139319000D01*
D29*
X170942000Y-139319000D02*
X171196000Y-139319000D01*
D28*
X171323000Y-139319000D02*
X171196000Y-139319000D01*
D30*
X172847000Y-140843000D02*
X171323000Y-139319000D01*
D28*
X179959000Y-140843000D02*
X172847000Y-140843000D01*
D30*
X182626000Y-143510000D02*
X179959000Y-140843000D01*
D27*
X180086000Y-152908000D02*
X181610000Y-152908000D01*
X181864000Y-147828000D02*
X180086000Y-147828000D01*
D30*
X182626000Y-148590000D02*
X181864000Y-147828000D01*
X182626000Y-151892000D02*
X182626000Y-148590000D01*
X181610000Y-152908000D02*
X182626000Y-151892000D01*
D29*
X150000000Y-137000000D02*
X150000000Y-137808000D01*
D27*
X157620000Y-137000000D02*
X157620000Y-134045000D01*
D28*
X157620000Y-134045000D02*
X157306000Y-133731000D01*
X157620000Y-137000000D02*
X157620000Y-136512000D01*
D27*
X162386000Y-133731000D02*
X163957000Y-133731000D01*
X165796000Y-135570000D02*
X167148000Y-135570000D01*
X163957000Y-133731000D02*
X165796000Y-135570000D01*
D30*
X160160000Y-137000000D02*
X160160000Y-135957000D01*
D29*
X160160000Y-135957000D02*
X162386000Y-133731000D01*
D27*
X167148000Y-133670000D02*
X166436000Y-133670000D01*
X166436000Y-133670000D02*
X164719000Y-131953000D01*
X159686000Y-133731000D02*
X159686000Y-131953000D01*
D28*
X159639000Y-132080000D02*
X159639000Y-131953000D01*
X159639000Y-132000000D02*
X159639000Y-132080000D01*
X159686000Y-131953000D02*
X159639000Y-132000000D01*
X160160000Y-133765000D02*
X160194000Y-133731000D01*
D27*
X154606000Y-133731000D02*
X154606000Y-132922000D01*
X155575000Y-131953000D02*
X159639000Y-131953000D01*
X159639000Y-131953000D02*
X164719000Y-131953000D01*
X154606000Y-132922000D02*
X155575000Y-131953000D01*
X174371000Y-142193000D02*
X174371000Y-142875000D01*
X174371000Y-142875000D02*
X175133000Y-143637000D01*
X175133000Y-143637000D02*
X178054000Y-146558000D01*
X178054000Y-146558000D02*
X178054000Y-149733000D01*
X178054000Y-149733000D02*
X178689000Y-150368000D01*
X178689000Y-150368000D02*
X180086000Y-150368000D01*
X178007000Y-142193000D02*
X179150000Y-142193000D01*
X177165000Y-142193000D02*
X178007000Y-142193000D01*
X180848000Y-143891000D02*
X180848000Y-144526000D01*
X179150000Y-142193000D02*
X180848000Y-143891000D01*
D28*
X180848000Y-144526000D02*
X180086000Y-145288000D01*
D27*
X170942000Y-156638000D02*
X170942000Y-158623000D01*
D28*
X170053000Y-150368000D02*
X170053000Y-150495000D01*
D27*
X170053000Y-153924000D02*
X170053000Y-150495000D01*
X170942000Y-154813000D02*
X170053000Y-153924000D01*
X170942000Y-156638000D02*
X170942000Y-154813000D01*
D28*
X170307000Y-159258000D02*
X169371000Y-159258000D01*
D27*
X170942000Y-158623000D02*
X170307000Y-159258000D01*
X169164000Y-148844000D02*
X170053000Y-149733000D01*
X170053000Y-149733000D02*
X170053000Y-150368000D01*
X172466000Y-150368000D02*
X170053000Y-150368000D01*
X158623000Y-146431000D02*
X166751000Y-146431000D01*
X167894000Y-147574000D02*
X166751000Y-146431000D01*
X158623000Y-146431000D02*
X156925000Y-146431000D01*
X169164000Y-148844000D02*
X167894000Y-147574000D01*
D28*
X156925000Y-146431000D02*
X156591000Y-146097000D01*
D27*
X169926000Y-145288000D02*
X167640000Y-143002000D01*
D28*
X141605000Y-142367000D02*
X136732000Y-142367000D01*
D27*
X167640000Y-143002000D02*
X142240000Y-143002000D01*
X141605000Y-142367000D02*
X142240000Y-143002000D01*
X141605000Y-142367000D02*
X141605000Y-142367000D01*
X172466000Y-145288000D02*
X169926000Y-145288000D01*
X139700000Y-146097000D02*
X138604000Y-146097000D01*
X138604000Y-146097000D02*
X136732000Y-144225000D01*
X136732000Y-144225000D02*
X136732000Y-142367000D01*
X139573000Y-160862000D02*
X136144000Y-160862000D01*
D28*
X136144000Y-160862000D02*
X136017000Y-160735000D01*
D27*
X157740000Y-158252000D02*
X157740000Y-156966000D01*
X157740000Y-156966000D02*
X157740000Y-154600000D01*
D28*
X157740000Y-158252000D02*
X157734000Y-158258000D01*
D27*
X152273000Y-151384000D02*
X150876000Y-149987000D01*
D28*
X157740000Y-154600000D02*
X157740000Y-153549000D01*
D27*
X157740000Y-153549000D02*
X155575000Y-151384000D01*
X155575000Y-151384000D02*
X152273000Y-151384000D01*
X152781000Y-147193000D02*
X151257000Y-147193000D01*
X151257000Y-147193000D02*
X150876000Y-147574000D01*
X152781000Y-148463000D02*
X151384000Y-148463000D01*
X151384000Y-148463000D02*
X150876000Y-148971000D01*
X150876000Y-149987000D02*
X150876000Y-148971000D01*
X150876000Y-148971000D02*
X150876000Y-148209000D01*
X150876000Y-148209000D02*
X150876000Y-147574000D01*
X152654000Y-156845000D02*
X152654000Y-158258000D01*
D28*
X152660000Y-154600000D02*
X152660000Y-154311000D01*
D27*
X152660000Y-154311000D02*
X148209000Y-149860000D01*
D28*
X152654000Y-156972000D02*
X152654000Y-156845000D01*
D27*
X152654000Y-156845000D02*
X152654000Y-154606000D01*
D28*
X152654000Y-154606000D02*
X152660000Y-154600000D01*
D27*
X146431000Y-145923000D02*
X147701000Y-145923000D01*
X147701000Y-145923000D02*
X148209000Y-146431000D01*
X146431000Y-147193000D02*
X147701000Y-147193000D01*
X147701000Y-147193000D02*
X148209000Y-147701000D01*
X148209000Y-146431000D02*
X148209000Y-147193000D01*
X148209000Y-149860000D02*
X148209000Y-147701000D01*
X148209000Y-147701000D02*
X148209000Y-147193000D01*
X169148000Y-134620000D02*
X171323000Y-134620000D01*
X174371000Y-137668000D02*
X174371000Y-139493000D01*
X171323000Y-134620000D02*
X174371000Y-137668000D01*
D28*
X174371000Y-139493000D02*
X174037000Y-139493000D01*
D27*
X177165000Y-139493000D02*
X174371000Y-139493000D01*
D31*
G36*
X132557000Y-142010750D02*
X132738250Y-142192000D01*
X133857000Y-142192000D01*
X133857000Y-142172000D01*
X134207000Y-142172000D01*
X134207000Y-142192000D01*
X134227000Y-142192000D01*
X134227000Y-142542000D01*
X134207000Y-142542000D01*
X134207000Y-143560750D01*
X134388250Y-143742000D01*
X134926212Y-143742000D01*
X135072634Y-143681350D01*
X135159793Y-143816798D01*
X135357000Y-143951543D01*
X135357000Y-144225000D01*
X135461666Y-144751190D01*
X135665333Y-145056000D01*
X135759728Y-145197272D01*
X136951416Y-146388960D01*
X134685000Y-146388960D01*
X134268100Y-146467405D01*
X133885202Y-146713793D01*
X133724010Y-146949705D01*
X133695680Y-146921375D01*
X133429212Y-146811000D01*
X132141250Y-146811000D01*
X131960000Y-146992250D01*
X131960000Y-148161000D01*
X131980000Y-148161000D01*
X131980000Y-148511000D01*
X131960000Y-148511000D01*
X131960000Y-149679750D01*
X132141250Y-149861000D01*
X133429212Y-149861000D01*
X133695680Y-149750625D01*
X133724860Y-149721445D01*
X133862793Y-149935798D01*
X134238737Y-150192669D01*
X134685000Y-150283040D01*
X137685000Y-150283040D01*
X138101900Y-150204595D01*
X138484798Y-149958207D01*
X138487570Y-149954150D01*
X138489405Y-149963900D01*
X138735793Y-150346798D01*
X139111737Y-150603669D01*
X139558000Y-150694040D01*
X140858000Y-150694040D01*
X141274900Y-150615595D01*
X141657798Y-150369207D01*
X141681000Y-150335250D01*
X141681000Y-150845212D01*
X141791375Y-151111680D01*
X141995321Y-151315626D01*
X142261789Y-151426000D01*
X142899750Y-151426000D01*
X143081000Y-151244750D01*
X143081000Y-149876000D01*
X143061000Y-149876000D01*
X143061000Y-149526000D01*
X143081000Y-149526000D01*
X143081000Y-149506000D01*
X143431000Y-149506000D01*
X143431000Y-149526000D01*
X143451000Y-149526000D01*
X143451000Y-149876000D01*
X143431000Y-149876000D01*
X143431000Y-151244750D01*
X143612250Y-151426000D01*
X144250211Y-151426000D01*
X144516679Y-151315626D01*
X144720625Y-151111680D01*
X144831000Y-150845212D01*
X144831000Y-150057250D01*
X144649752Y-149876002D01*
X144831000Y-149876002D01*
X144831000Y-149747097D01*
X145134500Y-149807467D01*
X145134500Y-149908002D01*
X145267748Y-149908002D01*
X145134500Y-150041250D01*
X145134500Y-150131212D01*
X145244875Y-150397680D01*
X145448821Y-150601626D01*
X145715289Y-150712000D01*
X146074750Y-150712000D01*
X146256000Y-150530750D01*
X146256000Y-149864040D01*
X146606000Y-149864040D01*
X146606000Y-150530750D01*
X146787250Y-150712000D01*
X147146711Y-150712000D01*
X147154272Y-150708868D01*
X147236728Y-150832272D01*
X150312065Y-153907609D01*
X150285000Y-154043675D01*
X150285000Y-155156325D01*
X150465786Y-156065198D01*
X150980621Y-156835704D01*
X151279000Y-157035074D01*
X151279000Y-157242210D01*
X151197331Y-157361737D01*
X151106960Y-157808000D01*
X151106960Y-158708000D01*
X151177521Y-159083000D01*
X151159789Y-159083000D01*
X150893321Y-159193374D01*
X150689375Y-159397320D01*
X150579000Y-159663788D01*
X150579000Y-159901750D01*
X150760250Y-160083000D01*
X151529000Y-160083000D01*
X151529000Y-160063000D01*
X151879000Y-160063000D01*
X151879000Y-160083000D01*
X151899000Y-160083000D01*
X151899000Y-160433000D01*
X151879000Y-160433000D01*
X151879000Y-161251750D01*
X152060250Y-161433000D01*
X152248211Y-161433000D01*
X152315679Y-161405054D01*
X152381793Y-161507798D01*
X152757737Y-161764669D01*
X153204000Y-161855040D01*
X154004000Y-161855040D01*
X154420900Y-161776595D01*
X154803798Y-161530207D01*
X155060669Y-161154263D01*
X155151040Y-160708000D01*
X155151040Y-160614250D01*
X155659000Y-160614250D01*
X155659000Y-160852212D01*
X155769375Y-161118680D01*
X155973321Y-161322626D01*
X156239789Y-161433000D01*
X156427750Y-161433000D01*
X156609000Y-161251750D01*
X156609000Y-160433000D01*
X155840250Y-160433000D01*
X155659000Y-160614250D01*
X155151040Y-160614250D01*
X155151040Y-159808000D01*
X155072595Y-159391100D01*
X154826207Y-159008202D01*
X154450263Y-158751331D01*
X154201040Y-158700862D01*
X154201040Y-157808000D01*
X154122595Y-157391100D01*
X154029000Y-157245649D01*
X154029000Y-157043092D01*
X154339379Y-156835704D01*
X154854214Y-156065198D01*
X155035000Y-155156325D01*
X155035000Y-154043675D01*
X154854214Y-153134802D01*
X154603111Y-152759000D01*
X155005456Y-152759000D01*
X155518489Y-153272033D01*
X155365000Y-154043675D01*
X155365000Y-155156325D01*
X155545786Y-156065198D01*
X156060621Y-156835704D01*
X156365000Y-157039083D01*
X156365000Y-157233429D01*
X156277331Y-157361737D01*
X156186960Y-157808000D01*
X156186960Y-158708000D01*
X156257521Y-159083000D01*
X156239789Y-159083000D01*
X155973321Y-159193374D01*
X155769375Y-159397320D01*
X155659000Y-159663788D01*
X155659000Y-159901750D01*
X155840250Y-160083000D01*
X156609000Y-160083000D01*
X156609000Y-160063000D01*
X156959000Y-160063000D01*
X156959000Y-160083000D01*
X156979000Y-160083000D01*
X156979000Y-160433000D01*
X156959000Y-160433000D01*
X156959000Y-161251750D01*
X157140250Y-161433000D01*
X157328211Y-161433000D01*
X157395679Y-161405054D01*
X157461793Y-161507798D01*
X157837737Y-161764669D01*
X158284000Y-161855040D01*
X159084000Y-161855040D01*
X159500900Y-161776595D01*
X159883798Y-161530207D01*
X160140669Y-161154263D01*
X160231040Y-160708000D01*
X160231040Y-159808000D01*
X160194584Y-159614250D01*
X165196000Y-159614250D01*
X165196000Y-160052211D01*
X165306374Y-160318679D01*
X165510320Y-160522625D01*
X165776788Y-160633000D01*
X166314750Y-160633000D01*
X166496000Y-160451750D01*
X166496000Y-159433000D01*
X165377250Y-159433000D01*
X165196000Y-159614250D01*
X160194584Y-159614250D01*
X160152595Y-159391100D01*
X159906207Y-159008202D01*
X159530263Y-158751331D01*
X159281040Y-158700862D01*
X159281040Y-158463789D01*
X165196000Y-158463789D01*
X165196000Y-158901750D01*
X165377250Y-159083000D01*
X166496000Y-159083000D01*
X166496000Y-158064250D01*
X166314750Y-157883000D01*
X165776788Y-157883000D01*
X165510320Y-157993375D01*
X165306374Y-158197321D01*
X165196000Y-158463789D01*
X159281040Y-158463789D01*
X159281040Y-157808000D01*
X159202595Y-157391100D01*
X159115000Y-157254973D01*
X159115000Y-157039083D01*
X159419379Y-156835704D01*
X159934214Y-156065198D01*
X160115000Y-155156325D01*
X160115000Y-154043675D01*
X160445000Y-154043675D01*
X160445000Y-155156325D01*
X160625786Y-156065198D01*
X161140621Y-156835704D01*
X161911127Y-157350539D01*
X162820000Y-157531325D01*
X163728873Y-157350539D01*
X164499379Y-156835704D01*
X165014214Y-156065198D01*
X165195000Y-155156325D01*
X165195000Y-154043675D01*
X165014214Y-153134802D01*
X164499379Y-152364296D01*
X163728873Y-151849461D01*
X162820000Y-151668675D01*
X161911127Y-151849461D01*
X161140621Y-152364296D01*
X160625786Y-153134802D01*
X160445000Y-154043675D01*
X160115000Y-154043675D01*
X159934214Y-153134802D01*
X159419379Y-152364296D01*
X158648873Y-151849461D01*
X157820165Y-151684621D01*
X156829584Y-150694040D01*
X157241000Y-150694040D01*
X157657900Y-150615595D01*
X158040798Y-150369207D01*
X158297669Y-149993263D01*
X158307177Y-149946310D01*
X158667737Y-150192669D01*
X159114000Y-150283040D01*
X162114000Y-150283040D01*
X162530900Y-150204595D01*
X162913798Y-149958207D01*
X163074990Y-149722295D01*
X163103320Y-149750625D01*
X163369788Y-149861000D01*
X164657750Y-149861000D01*
X164839000Y-149679750D01*
X164839000Y-148511000D01*
X164819000Y-148511000D01*
X164819000Y-148161000D01*
X164839000Y-148161000D01*
X164839000Y-148141000D01*
X165189000Y-148141000D01*
X165189000Y-148161000D01*
X165209000Y-148161000D01*
X165209000Y-148511000D01*
X165189000Y-148511000D01*
X165189000Y-149679750D01*
X165370250Y-149861000D01*
X166658212Y-149861000D01*
X166924680Y-149750625D01*
X167128626Y-149546679D01*
X167239000Y-149280211D01*
X167239000Y-148863544D01*
X168678000Y-150302544D01*
X168678000Y-150368000D01*
X168690631Y-150431500D01*
X168678000Y-150495000D01*
X168678000Y-151874229D01*
X167900000Y-151719475D01*
X166991127Y-151900261D01*
X166220621Y-152415096D01*
X165705786Y-153185602D01*
X165525000Y-154094475D01*
X165525000Y-155207125D01*
X165705786Y-156115998D01*
X166220621Y-156886504D01*
X166991127Y-157401339D01*
X167900000Y-157582125D01*
X168808873Y-157401339D01*
X169567000Y-156894775D01*
X169567000Y-157460960D01*
X168621000Y-157460960D01*
X168204100Y-157539405D01*
X167821202Y-157785793D01*
X167712966Y-157944202D01*
X167565212Y-157883000D01*
X167027250Y-157883000D01*
X166846000Y-158064250D01*
X166846000Y-159083000D01*
X166866000Y-159083000D01*
X166866000Y-159433000D01*
X166846000Y-159433000D01*
X166846000Y-160451750D01*
X167027250Y-160633000D01*
X167565212Y-160633000D01*
X167711634Y-160572350D01*
X167798793Y-160707798D01*
X168174737Y-160964669D01*
X168621000Y-161055040D01*
X170121000Y-161055040D01*
X170537900Y-160976595D01*
X170920798Y-160730207D01*
X171177669Y-160354263D01*
X171190808Y-160289382D01*
X171279272Y-160230272D01*
X171914272Y-159595272D01*
X172212335Y-159149189D01*
X172317001Y-158623000D01*
X172317000Y-158622995D01*
X172317000Y-154817040D01*
X173482000Y-154817040D01*
X173898900Y-154738595D01*
X173992000Y-154678687D01*
X173992000Y-156718000D01*
X174001848Y-156766632D01*
X174029841Y-156807601D01*
X174071568Y-156834451D01*
X174117000Y-156843000D01*
X177040696Y-156843000D01*
X176335581Y-157546885D01*
X175675752Y-159135930D01*
X175674251Y-160856521D01*
X176331305Y-162446715D01*
X176953503Y-163070000D01*
X133046456Y-163070000D01*
X133664419Y-162453115D01*
X134219960Y-161115223D01*
X134219960Y-161485000D01*
X134298405Y-161901900D01*
X134544793Y-162284798D01*
X134920737Y-162541669D01*
X135367000Y-162632040D01*
X136667000Y-162632040D01*
X137083900Y-162553595D01*
X137466798Y-162307207D01*
X137514768Y-162237000D01*
X137988314Y-162237000D01*
X138100793Y-162411798D01*
X138476737Y-162668669D01*
X138923000Y-162759040D01*
X140223000Y-162759040D01*
X140639900Y-162680595D01*
X141022798Y-162434207D01*
X141279669Y-162058263D01*
X141370040Y-161612000D01*
X141370040Y-160614250D01*
X150579000Y-160614250D01*
X150579000Y-160852212D01*
X150689375Y-161118680D01*
X150893321Y-161322626D01*
X151159789Y-161433000D01*
X151347750Y-161433000D01*
X151529000Y-161251750D01*
X151529000Y-160433000D01*
X150760250Y-160433000D01*
X150579000Y-160614250D01*
X141370040Y-160614250D01*
X141370040Y-160112000D01*
X141291595Y-159695100D01*
X141045207Y-159312202D01*
X140886798Y-159203966D01*
X140948000Y-159056212D01*
X140948000Y-158518250D01*
X140766750Y-158337000D01*
X139748000Y-158337000D01*
X139748000Y-158357000D01*
X139398000Y-158357000D01*
X139398000Y-158337000D01*
X138379250Y-158337000D01*
X138198000Y-158518250D01*
X138198000Y-159056212D01*
X138258650Y-159202634D01*
X138123202Y-159289793D01*
X137988457Y-159487000D01*
X137683409Y-159487000D01*
X137618187Y-159385642D01*
X137723669Y-159231263D01*
X137814040Y-158785000D01*
X137814040Y-157285000D01*
X137810802Y-157267788D01*
X138198000Y-157267788D01*
X138198000Y-157805750D01*
X138379250Y-157987000D01*
X139398000Y-157987000D01*
X139398000Y-156868250D01*
X139216750Y-156687000D01*
X138778789Y-156687000D01*
X138512321Y-156797374D01*
X138308375Y-157001320D01*
X138198000Y-157267788D01*
X137810802Y-157267788D01*
X137735595Y-156868100D01*
X137544809Y-156571610D01*
X137613754Y-156225000D01*
X140102960Y-156225000D01*
X140102960Y-156350000D01*
X140166371Y-156687000D01*
X139929250Y-156687000D01*
X139748000Y-156868250D01*
X139748000Y-157987000D01*
X140766750Y-157987000D01*
X140948000Y-157805750D01*
X140948000Y-157435883D01*
X141250000Y-157497040D01*
X143750000Y-157497040D01*
X144166900Y-157418595D01*
X144549798Y-157172207D01*
X144806669Y-156796263D01*
X144897040Y-156350000D01*
X144897040Y-154775000D01*
X145605000Y-154775000D01*
X145605000Y-155275000D01*
X145822308Y-156017479D01*
X146307208Y-156620280D01*
X146985879Y-156991632D01*
X147099412Y-157015636D01*
X147405000Y-156885193D01*
X147405000Y-154775000D01*
X147755000Y-154775000D01*
X147755000Y-156885193D01*
X148060588Y-157015636D01*
X148174121Y-156991632D01*
X148852792Y-156620280D01*
X149337692Y-156017479D01*
X149555000Y-155275000D01*
X149555000Y-154775000D01*
X147755000Y-154775000D01*
X147405000Y-154775000D01*
X145605000Y-154775000D01*
X144897040Y-154775000D01*
X144897040Y-153925000D01*
X145605000Y-153925000D01*
X145605000Y-154425000D01*
X147405000Y-154425000D01*
X147405000Y-152314807D01*
X147755000Y-152314807D01*
X147755000Y-154425000D01*
X149555000Y-154425000D01*
X149555000Y-153925000D01*
X149337692Y-153182521D01*
X148852792Y-152579720D01*
X148174121Y-152208368D01*
X148060588Y-152184364D01*
X147755000Y-152314807D01*
X147405000Y-152314807D01*
X147099412Y-152184364D01*
X146985879Y-152208368D01*
X146307208Y-152579720D01*
X145822308Y-153182521D01*
X145605000Y-153925000D01*
X144897040Y-153925000D01*
X144897040Y-152850000D01*
X144818595Y-152433100D01*
X144572207Y-152050202D01*
X144196263Y-151793331D01*
X143750000Y-151702960D01*
X141250000Y-151702960D01*
X140833100Y-151781405D01*
X140450202Y-152027793D01*
X140193331Y-152403737D01*
X140102960Y-152850000D01*
X140102960Y-152975000D01*
X131270097Y-152975000D01*
X130149000Y-151853902D01*
X130149000Y-149861000D01*
X131428750Y-149861000D01*
X131610000Y-149679750D01*
X131610000Y-148511000D01*
X131590000Y-148511000D01*
X131590000Y-148161000D01*
X131610000Y-148161000D01*
X131610000Y-146992250D01*
X131428750Y-146811000D01*
X130149000Y-146811000D01*
X130149000Y-144310098D01*
X131735847Y-142723250D01*
X132557000Y-142723250D01*
X132557000Y-143161211D01*
X132667374Y-143427679D01*
X132871320Y-143631625D01*
X133137788Y-143742000D01*
X133675750Y-143742000D01*
X133857000Y-143560750D01*
X133857000Y-142542000D01*
X132738250Y-142542000D01*
X132557000Y-142723250D01*
X131735847Y-142723250D01*
X132499097Y-141960000D01*
X132557000Y-141960000D01*
X132557000Y-142010750D01*
X132557000Y-142010750D01*
G37*
X132557000Y-142010750D02*
X132738250Y-142192000D01*
X133857000Y-142192000D01*
X133857000Y-142172000D01*
X134207000Y-142172000D01*
X134207000Y-142192000D01*
X134227000Y-142192000D01*
X134227000Y-142542000D01*
X134207000Y-142542000D01*
X134207000Y-143560750D01*
X134388250Y-143742000D01*
X134926212Y-143742000D01*
X135072634Y-143681350D01*
X135159793Y-143816798D01*
X135357000Y-143951543D01*
X135357000Y-144225000D01*
X135461666Y-144751190D01*
X135665333Y-145056000D01*
X135759728Y-145197272D01*
X136951416Y-146388960D01*
X134685000Y-146388960D01*
X134268100Y-146467405D01*
X133885202Y-146713793D01*
X133724010Y-146949705D01*
X133695680Y-146921375D01*
X133429212Y-146811000D01*
X132141250Y-146811000D01*
X131960000Y-146992250D01*
X131960000Y-148161000D01*
X131980000Y-148161000D01*
X131980000Y-148511000D01*
X131960000Y-148511000D01*
X131960000Y-149679750D01*
X132141250Y-149861000D01*
X133429212Y-149861000D01*
X133695680Y-149750625D01*
X133724860Y-149721445D01*
X133862793Y-149935798D01*
X134238737Y-150192669D01*
X134685000Y-150283040D01*
X137685000Y-150283040D01*
X138101900Y-150204595D01*
X138484798Y-149958207D01*
X138487570Y-149954150D01*
X138489405Y-149963900D01*
X138735793Y-150346798D01*
X139111737Y-150603669D01*
X139558000Y-150694040D01*
X140858000Y-150694040D01*
X141274900Y-150615595D01*
X141657798Y-150369207D01*
X141681000Y-150335250D01*
X141681000Y-150845212D01*
X141791375Y-151111680D01*
X141995321Y-151315626D01*
X142261789Y-151426000D01*
X142899750Y-151426000D01*
X143081000Y-151244750D01*
X143081000Y-149876000D01*
X143061000Y-149876000D01*
X143061000Y-149526000D01*
X143081000Y-149526000D01*
X143081000Y-149506000D01*
X143431000Y-149506000D01*
X143431000Y-149526000D01*
X143451000Y-149526000D01*
X143451000Y-149876000D01*
X143431000Y-149876000D01*
X143431000Y-151244750D01*
X143612250Y-151426000D01*
X144250211Y-151426000D01*
X144516679Y-151315626D01*
X144720625Y-151111680D01*
X144831000Y-150845212D01*
X144831000Y-150057250D01*
X144649752Y-149876002D01*
X144831000Y-149876002D01*
X144831000Y-149747097D01*
X145134500Y-149807467D01*
X145134500Y-149908002D01*
X145267748Y-149908002D01*
X145134500Y-150041250D01*
X145134500Y-150131212D01*
X145244875Y-150397680D01*
X145448821Y-150601626D01*
X145715289Y-150712000D01*
X146074750Y-150712000D01*
X146256000Y-150530750D01*
X146256000Y-149864040D01*
X146606000Y-149864040D01*
X146606000Y-150530750D01*
X146787250Y-150712000D01*
X147146711Y-150712000D01*
X147154272Y-150708868D01*
X147236728Y-150832272D01*
X150312065Y-153907609D01*
X150285000Y-154043675D01*
X150285000Y-155156325D01*
X150465786Y-156065198D01*
X150980621Y-156835704D01*
X151279000Y-157035074D01*
X151279000Y-157242210D01*
X151197331Y-157361737D01*
X151106960Y-157808000D01*
X151106960Y-158708000D01*
X151177521Y-159083000D01*
X151159789Y-159083000D01*
X150893321Y-159193374D01*
X150689375Y-159397320D01*
X150579000Y-159663788D01*
X150579000Y-159901750D01*
X150760250Y-160083000D01*
X151529000Y-160083000D01*
X151529000Y-160063000D01*
X151879000Y-160063000D01*
X151879000Y-160083000D01*
X151899000Y-160083000D01*
X151899000Y-160433000D01*
X151879000Y-160433000D01*
X151879000Y-161251750D01*
X152060250Y-161433000D01*
X152248211Y-161433000D01*
X152315679Y-161405054D01*
X152381793Y-161507798D01*
X152757737Y-161764669D01*
X153204000Y-161855040D01*
X154004000Y-161855040D01*
X154420900Y-161776595D01*
X154803798Y-161530207D01*
X155060669Y-161154263D01*
X155151040Y-160708000D01*
X155151040Y-160614250D01*
X155659000Y-160614250D01*
X155659000Y-160852212D01*
X155769375Y-161118680D01*
X155973321Y-161322626D01*
X156239789Y-161433000D01*
X156427750Y-161433000D01*
X156609000Y-161251750D01*
X156609000Y-160433000D01*
X155840250Y-160433000D01*
X155659000Y-160614250D01*
X155151040Y-160614250D01*
X155151040Y-159808000D01*
X155072595Y-159391100D01*
X154826207Y-159008202D01*
X154450263Y-158751331D01*
X154201040Y-158700862D01*
X154201040Y-157808000D01*
X154122595Y-157391100D01*
X154029000Y-157245649D01*
X154029000Y-157043092D01*
X154339379Y-156835704D01*
X154854214Y-156065198D01*
X155035000Y-155156325D01*
X155035000Y-154043675D01*
X154854214Y-153134802D01*
X154603111Y-152759000D01*
X155005456Y-152759000D01*
X155518489Y-153272033D01*
X155365000Y-154043675D01*
X155365000Y-155156325D01*
X155545786Y-156065198D01*
X156060621Y-156835704D01*
X156365000Y-157039083D01*
X156365000Y-157233429D01*
X156277331Y-157361737D01*
X156186960Y-157808000D01*
X156186960Y-158708000D01*
X156257521Y-159083000D01*
X156239789Y-159083000D01*
X155973321Y-159193374D01*
X155769375Y-159397320D01*
X155659000Y-159663788D01*
X155659000Y-159901750D01*
X155840250Y-160083000D01*
X156609000Y-160083000D01*
X156609000Y-160063000D01*
X156959000Y-160063000D01*
X156959000Y-160083000D01*
X156979000Y-160083000D01*
X156979000Y-160433000D01*
X156959000Y-160433000D01*
X156959000Y-161251750D01*
X157140250Y-161433000D01*
X157328211Y-161433000D01*
X157395679Y-161405054D01*
X157461793Y-161507798D01*
X157837737Y-161764669D01*
X158284000Y-161855040D01*
X159084000Y-161855040D01*
X159500900Y-161776595D01*
X159883798Y-161530207D01*
X160140669Y-161154263D01*
X160231040Y-160708000D01*
X160231040Y-159808000D01*
X160194584Y-159614250D01*
X165196000Y-159614250D01*
X165196000Y-160052211D01*
X165306374Y-160318679D01*
X165510320Y-160522625D01*
X165776788Y-160633000D01*
X166314750Y-160633000D01*
X166496000Y-160451750D01*
X166496000Y-159433000D01*
X165377250Y-159433000D01*
X165196000Y-159614250D01*
X160194584Y-159614250D01*
X160152595Y-159391100D01*
X159906207Y-159008202D01*
X159530263Y-158751331D01*
X159281040Y-158700862D01*
X159281040Y-158463789D01*
X165196000Y-158463789D01*
X165196000Y-158901750D01*
X165377250Y-159083000D01*
X166496000Y-159083000D01*
X166496000Y-158064250D01*
X166314750Y-157883000D01*
X165776788Y-157883000D01*
X165510320Y-157993375D01*
X165306374Y-158197321D01*
X165196000Y-158463789D01*
X159281040Y-158463789D01*
X159281040Y-157808000D01*
X159202595Y-157391100D01*
X159115000Y-157254973D01*
X159115000Y-157039083D01*
X159419379Y-156835704D01*
X159934214Y-156065198D01*
X160115000Y-155156325D01*
X160115000Y-154043675D01*
X160445000Y-154043675D01*
X160445000Y-155156325D01*
X160625786Y-156065198D01*
X161140621Y-156835704D01*
X161911127Y-157350539D01*
X162820000Y-157531325D01*
X163728873Y-157350539D01*
X164499379Y-156835704D01*
X165014214Y-156065198D01*
X165195000Y-155156325D01*
X165195000Y-154043675D01*
X165014214Y-153134802D01*
X164499379Y-152364296D01*
X163728873Y-151849461D01*
X162820000Y-151668675D01*
X161911127Y-151849461D01*
X161140621Y-152364296D01*
X160625786Y-153134802D01*
X160445000Y-154043675D01*
X160115000Y-154043675D01*
X159934214Y-153134802D01*
X159419379Y-152364296D01*
X158648873Y-151849461D01*
X157820165Y-151684621D01*
X156829584Y-150694040D01*
X157241000Y-150694040D01*
X157657900Y-150615595D01*
X158040798Y-150369207D01*
X158297669Y-149993263D01*
X158307177Y-149946310D01*
X158667737Y-150192669D01*
X159114000Y-150283040D01*
X162114000Y-150283040D01*
X162530900Y-150204595D01*
X162913798Y-149958207D01*
X163074990Y-149722295D01*
X163103320Y-149750625D01*
X163369788Y-149861000D01*
X164657750Y-149861000D01*
X164839000Y-149679750D01*
X164839000Y-148511000D01*
X164819000Y-148511000D01*
X164819000Y-148161000D01*
X164839000Y-148161000D01*
X164839000Y-148141000D01*
X165189000Y-148141000D01*
X165189000Y-148161000D01*
X165209000Y-148161000D01*
X165209000Y-148511000D01*
X165189000Y-148511000D01*
X165189000Y-149679750D01*
X165370250Y-149861000D01*
X166658212Y-149861000D01*
X166924680Y-149750625D01*
X167128626Y-149546679D01*
X167239000Y-149280211D01*
X167239000Y-148863544D01*
X168678000Y-150302544D01*
X168678000Y-150368000D01*
X168690631Y-150431500D01*
X168678000Y-150495000D01*
X168678000Y-151874229D01*
X167900000Y-151719475D01*
X166991127Y-151900261D01*
X166220621Y-152415096D01*
X165705786Y-153185602D01*
X165525000Y-154094475D01*
X165525000Y-155207125D01*
X165705786Y-156115998D01*
X166220621Y-156886504D01*
X166991127Y-157401339D01*
X167900000Y-157582125D01*
X168808873Y-157401339D01*
X169567000Y-156894775D01*
X169567000Y-157460960D01*
X168621000Y-157460960D01*
X168204100Y-157539405D01*
X167821202Y-157785793D01*
X167712966Y-157944202D01*
X167565212Y-157883000D01*
X167027250Y-157883000D01*
X166846000Y-158064250D01*
X166846000Y-159083000D01*
X166866000Y-159083000D01*
X166866000Y-159433000D01*
X166846000Y-159433000D01*
X166846000Y-160451750D01*
X167027250Y-160633000D01*
X167565212Y-160633000D01*
X167711634Y-160572350D01*
X167798793Y-160707798D01*
X168174737Y-160964669D01*
X168621000Y-161055040D01*
X170121000Y-161055040D01*
X170537900Y-160976595D01*
X170920798Y-160730207D01*
X171177669Y-160354263D01*
X171190808Y-160289382D01*
X171279272Y-160230272D01*
X171914272Y-159595272D01*
X172212335Y-159149189D01*
X172317001Y-158623000D01*
X172317000Y-158622995D01*
X172317000Y-154817040D01*
X173482000Y-154817040D01*
X173898900Y-154738595D01*
X173992000Y-154678687D01*
X173992000Y-156718000D01*
X174001848Y-156766632D01*
X174029841Y-156807601D01*
X174071568Y-156834451D01*
X174117000Y-156843000D01*
X177040696Y-156843000D01*
X176335581Y-157546885D01*
X175675752Y-159135930D01*
X175674251Y-160856521D01*
X176331305Y-162446715D01*
X176953503Y-163070000D01*
X133046456Y-163070000D01*
X133664419Y-162453115D01*
X134219960Y-161115223D01*
X134219960Y-161485000D01*
X134298405Y-161901900D01*
X134544793Y-162284798D01*
X134920737Y-162541669D01*
X135367000Y-162632040D01*
X136667000Y-162632040D01*
X137083900Y-162553595D01*
X137466798Y-162307207D01*
X137514768Y-162237000D01*
X137988314Y-162237000D01*
X138100793Y-162411798D01*
X138476737Y-162668669D01*
X138923000Y-162759040D01*
X140223000Y-162759040D01*
X140639900Y-162680595D01*
X141022798Y-162434207D01*
X141279669Y-162058263D01*
X141370040Y-161612000D01*
X141370040Y-160614250D01*
X150579000Y-160614250D01*
X150579000Y-160852212D01*
X150689375Y-161118680D01*
X150893321Y-161322626D01*
X151159789Y-161433000D01*
X151347750Y-161433000D01*
X151529000Y-161251750D01*
X151529000Y-160433000D01*
X150760250Y-160433000D01*
X150579000Y-160614250D01*
X141370040Y-160614250D01*
X141370040Y-160112000D01*
X141291595Y-159695100D01*
X141045207Y-159312202D01*
X140886798Y-159203966D01*
X140948000Y-159056212D01*
X140948000Y-158518250D01*
X140766750Y-158337000D01*
X139748000Y-158337000D01*
X139748000Y-158357000D01*
X139398000Y-158357000D01*
X139398000Y-158337000D01*
X138379250Y-158337000D01*
X138198000Y-158518250D01*
X138198000Y-159056212D01*
X138258650Y-159202634D01*
X138123202Y-159289793D01*
X137988457Y-159487000D01*
X137683409Y-159487000D01*
X137618187Y-159385642D01*
X137723669Y-159231263D01*
X137814040Y-158785000D01*
X137814040Y-157285000D01*
X137810802Y-157267788D01*
X138198000Y-157267788D01*
X138198000Y-157805750D01*
X138379250Y-157987000D01*
X139398000Y-157987000D01*
X139398000Y-156868250D01*
X139216750Y-156687000D01*
X138778789Y-156687000D01*
X138512321Y-156797374D01*
X138308375Y-157001320D01*
X138198000Y-157267788D01*
X137810802Y-157267788D01*
X137735595Y-156868100D01*
X137544809Y-156571610D01*
X137613754Y-156225000D01*
X140102960Y-156225000D01*
X140102960Y-156350000D01*
X140166371Y-156687000D01*
X139929250Y-156687000D01*
X139748000Y-156868250D01*
X139748000Y-157987000D01*
X140766750Y-157987000D01*
X140948000Y-157805750D01*
X140948000Y-157435883D01*
X141250000Y-157497040D01*
X143750000Y-157497040D01*
X144166900Y-157418595D01*
X144549798Y-157172207D01*
X144806669Y-156796263D01*
X144897040Y-156350000D01*
X144897040Y-154775000D01*
X145605000Y-154775000D01*
X145605000Y-155275000D01*
X145822308Y-156017479D01*
X146307208Y-156620280D01*
X146985879Y-156991632D01*
X147099412Y-157015636D01*
X147405000Y-156885193D01*
X147405000Y-154775000D01*
X147755000Y-154775000D01*
X147755000Y-156885193D01*
X148060588Y-157015636D01*
X148174121Y-156991632D01*
X148852792Y-156620280D01*
X149337692Y-156017479D01*
X149555000Y-155275000D01*
X149555000Y-154775000D01*
X147755000Y-154775000D01*
X147405000Y-154775000D01*
X145605000Y-154775000D01*
X144897040Y-154775000D01*
X144897040Y-153925000D01*
X145605000Y-153925000D01*
X145605000Y-154425000D01*
X147405000Y-154425000D01*
X147405000Y-152314807D01*
X147755000Y-152314807D01*
X147755000Y-154425000D01*
X149555000Y-154425000D01*
X149555000Y-153925000D01*
X149337692Y-153182521D01*
X148852792Y-152579720D01*
X148174121Y-152208368D01*
X148060588Y-152184364D01*
X147755000Y-152314807D01*
X147405000Y-152314807D01*
X147099412Y-152184364D01*
X146985879Y-152208368D01*
X146307208Y-152579720D01*
X145822308Y-153182521D01*
X145605000Y-153925000D01*
X144897040Y-153925000D01*
X144897040Y-152850000D01*
X144818595Y-152433100D01*
X144572207Y-152050202D01*
X144196263Y-151793331D01*
X143750000Y-151702960D01*
X141250000Y-151702960D01*
X140833100Y-151781405D01*
X140450202Y-152027793D01*
X140193331Y-152403737D01*
X140102960Y-152850000D01*
X140102960Y-152975000D01*
X131270097Y-152975000D01*
X130149000Y-151853902D01*
X130149000Y-149861000D01*
X131428750Y-149861000D01*
X131610000Y-149679750D01*
X131610000Y-148511000D01*
X131590000Y-148511000D01*
X131590000Y-148161000D01*
X131610000Y-148161000D01*
X131610000Y-146992250D01*
X131428750Y-146811000D01*
X130149000Y-146811000D01*
X130149000Y-144310098D01*
X131735847Y-142723250D01*
X132557000Y-142723250D01*
X132557000Y-143161211D01*
X132667374Y-143427679D01*
X132871320Y-143631625D01*
X133137788Y-143742000D01*
X133675750Y-143742000D01*
X133857000Y-143560750D01*
X133857000Y-142542000D01*
X132738250Y-142542000D01*
X132557000Y-142723250D01*
X131735847Y-142723250D01*
X132499097Y-141960000D01*
X132557000Y-141960000D01*
X132557000Y-142010750D01*
M02*
