G04 #@! TF.FileFunction,Copper,L1,Top,Signal*
%FSLAX46Y46*%
G04 Gerber Fmt 4.6, Leading zero omitted, Abs format (unit mm)*
G04 Created by KiCad (PCBNEW 4.0.5) date 03/21/17 09:35:26*
%MOMM*%
%LPD*%
G01*
G04 APERTURE LIST*
%ADD10C,0.100000*%
%ADD11R,3.000000X1.600000*%
%ADD12R,1.700000X2.000000*%
%ADD13R,1.700000X2.500000*%
%ADD14O,1.700000X2.500000*%
%ADD15R,1.500000X1.300000*%
%ADD16R,1.300000X1.500000*%
%ADD17R,2.032000X1.524000*%
%ADD18R,1.143000X0.508000*%
%ADD19R,0.900000X0.800000*%
%ADD20O,2.500000X3.500000*%
%ADD21R,2.500000X3.500000*%
%ADD22R,0.800000X0.900000*%
%ADD23C,0.500000*%
%ADD24C,0.350000*%
%ADD25C,1.000000*%
%ADD26C,0.700000*%
%ADD27C,0.250000*%
G04 APERTURE END LIST*
D10*
D11*
X160614000Y-148336000D03*
X165014000Y-148336000D03*
X136185000Y-148336000D03*
X131785000Y-148336000D03*
D12*
X143256000Y-145701000D03*
X143256000Y-149701000D03*
D13*
X150000000Y-137000000D03*
D14*
X152540000Y-137000000D03*
X155080000Y-137000000D03*
X157620000Y-137000000D03*
X160160000Y-137000000D03*
X162700000Y-137000000D03*
D15*
X154606000Y-133731000D03*
X157306000Y-133731000D03*
X162386000Y-133731000D03*
X159686000Y-133731000D03*
D16*
X174371000Y-142193000D03*
X174371000Y-139493000D03*
X177165000Y-142193000D03*
X177165000Y-139493000D03*
X170942000Y-156638000D03*
X170942000Y-159338000D03*
D15*
X136732000Y-142367000D03*
X134032000Y-142367000D03*
D16*
X156591000Y-148797000D03*
X156591000Y-146097000D03*
X140208000Y-148797000D03*
X140208000Y-146097000D03*
X136017000Y-158035000D03*
X136017000Y-160735000D03*
X139573000Y-160862000D03*
X139573000Y-158162000D03*
D17*
X180086000Y-152908000D03*
X180086000Y-150368000D03*
X180086000Y-147828000D03*
X180086000Y-145288000D03*
X172466000Y-145288000D03*
X172466000Y-147828000D03*
X172466000Y-150368000D03*
X172466000Y-152908000D03*
D18*
X152781000Y-145923000D03*
X152781000Y-147193000D03*
X152781000Y-148463000D03*
X152781000Y-149733000D03*
X146431000Y-149733000D03*
X146431000Y-148463000D03*
X146431000Y-147193000D03*
X146431000Y-145923000D03*
D19*
X167148000Y-133670000D03*
X167148000Y-135570000D03*
X169148000Y-134620000D03*
D20*
X167900000Y-154650800D03*
X162820000Y-154600000D03*
X157740000Y-154600000D03*
X152660000Y-154600000D03*
D21*
X142500000Y-154600000D03*
D20*
X147580000Y-154600000D03*
D16*
X140208000Y-143717000D03*
X140208000Y-141017000D03*
D22*
X156784000Y-160258000D03*
X158684000Y-160258000D03*
X157734000Y-158258000D03*
X151704000Y-160258000D03*
X153604000Y-160258000D03*
X152654000Y-158258000D03*
D23*
X160614000Y-148336000D02*
X157052000Y-148336000D01*
D24*
X157052000Y-148336000D02*
X156591000Y-148797000D01*
D23*
X152781000Y-149733000D02*
X155655000Y-149733000D01*
X155655000Y-149733000D02*
X156591000Y-148797000D01*
D24*
X156798000Y-148590000D02*
X156591000Y-148797000D01*
X156163000Y-149225000D02*
X156591000Y-148797000D01*
D25*
X147580000Y-158883000D02*
X147580000Y-161296000D01*
D23*
X147580000Y-161296000D02*
X148209000Y-161925000D01*
D25*
X141351000Y-158162000D02*
X146859000Y-158162000D01*
X146859000Y-158162000D02*
X147580000Y-158883000D01*
D26*
X156784000Y-160258000D02*
X156784000Y-161351000D01*
X156784000Y-161351000D02*
X156210000Y-161925000D01*
D25*
X147580000Y-154600000D02*
X147580000Y-158883000D01*
D26*
X148955000Y-160258000D02*
X151704000Y-160258000D01*
X147580000Y-158883000D02*
X148955000Y-160258000D01*
X147580000Y-154600000D02*
X147580000Y-152406000D01*
X146812000Y-151638000D02*
X145161000Y-151638000D01*
X147580000Y-152406000D02*
X146812000Y-151638000D01*
X143256000Y-149701000D02*
X143256000Y-151638000D01*
X143256000Y-151638000D02*
X143256000Y-151511000D01*
X143256000Y-151511000D02*
X143256000Y-151638000D01*
X147580000Y-154600000D02*
X147580000Y-154057000D01*
X145161000Y-151638000D02*
X143256000Y-151638000D01*
X131785000Y-148336000D02*
X131785000Y-149565000D01*
X143256000Y-151638000D02*
X133858000Y-151638000D01*
X133858000Y-151638000D02*
X131785000Y-149565000D01*
X165227000Y-149860000D02*
X165227000Y-159639000D01*
X165227000Y-159639000D02*
X165227000Y-159512000D01*
X165227000Y-159512000D02*
X165227000Y-159639000D01*
X147580000Y-156458000D02*
X147580000Y-154600000D01*
D25*
X139573000Y-158162000D02*
X141351000Y-158162000D01*
X141351000Y-158162000D02*
X141398000Y-158162000D01*
D26*
X147580000Y-154600000D02*
X147580000Y-154184000D01*
X146431000Y-149733000D02*
X143288000Y-149733000D01*
X143288000Y-149733000D02*
X143256000Y-149701000D01*
X170942000Y-159338000D02*
X170942000Y-159639000D01*
X167386000Y-159639000D02*
X165227000Y-159639000D01*
X170942000Y-159639000D02*
X167386000Y-159639000D01*
X165227000Y-159639000D02*
X160488000Y-159639000D01*
X160488000Y-159639000D02*
X160488000Y-159044000D01*
X160488000Y-159639000D02*
X160488000Y-160314000D01*
X160488000Y-160314000D02*
X158877000Y-161925000D01*
X158877000Y-161925000D02*
X156210000Y-161925000D01*
X156210000Y-161925000D02*
X148209000Y-161925000D01*
X134032000Y-142367000D02*
X132715000Y-142367000D01*
X131785000Y-143297000D02*
X131785000Y-148336000D01*
X132715000Y-142367000D02*
X131785000Y-143297000D01*
X165227000Y-149860000D02*
X165227000Y-148549000D01*
X165227000Y-148549000D02*
X165014000Y-148336000D01*
D23*
X146431000Y-148463000D02*
X145288000Y-148463000D01*
X141017000Y-148543000D02*
X140208000Y-148543000D01*
X141859000Y-147701000D02*
X141017000Y-148543000D01*
D24*
X144526000Y-147701000D02*
X141859000Y-147701000D01*
D23*
X145288000Y-148463000D02*
X144526000Y-147701000D01*
X136185000Y-148336000D02*
X140001000Y-148336000D01*
D24*
X140001000Y-148336000D02*
X140208000Y-148543000D01*
D25*
X142500000Y-154600000D02*
X139573000Y-154600000D01*
X139573000Y-154600000D02*
X137500000Y-154600000D01*
X137500000Y-154600000D02*
X136017000Y-154600000D01*
D26*
X172466000Y-147828000D02*
X173990000Y-147828000D01*
X174117000Y-152908000D02*
X172466000Y-152908000D01*
D25*
X174752000Y-152273000D02*
X174117000Y-152908000D01*
X174752000Y-148590000D02*
X174752000Y-152273000D01*
X173990000Y-147828000D02*
X174752000Y-148590000D01*
D26*
X172466000Y-147828000D02*
X170254428Y-147828000D01*
X158496000Y-144145000D02*
X159512000Y-145161000D01*
D25*
X159512000Y-145161000D02*
X167005000Y-145161000D01*
D26*
X158496000Y-144145000D02*
X152400000Y-144145000D01*
D25*
X167587428Y-145161000D02*
X167005000Y-145161000D01*
X170254428Y-147828000D02*
X167587428Y-145161000D01*
D23*
X152781000Y-145923000D02*
X152781000Y-144526000D01*
X152781000Y-144526000D02*
X152400000Y-144145000D01*
D26*
X152400000Y-144145000D02*
X144526000Y-144145000D01*
D25*
X144145000Y-143764000D02*
X143383000Y-143764000D01*
D26*
X144526000Y-144145000D02*
X144145000Y-143764000D01*
D25*
X138684000Y-140335000D02*
X139526000Y-140335000D01*
X138684000Y-140335000D02*
X131826000Y-140335000D01*
X131826000Y-140335000D02*
X128524000Y-143637000D01*
X128524000Y-143637000D02*
X128524000Y-152527000D01*
X128524000Y-152527000D02*
X130597000Y-154600000D01*
X136017000Y-154600000D02*
X130597000Y-154600000D01*
X139526000Y-140335000D02*
X140208000Y-141017000D01*
X136017000Y-154600000D02*
X136017000Y-156083000D01*
D26*
X136017000Y-156083000D02*
X136017000Y-158035000D01*
X136017000Y-154600000D02*
X136017000Y-154559000D01*
X136017000Y-154559000D02*
X136017000Y-154600000D01*
D25*
X143383000Y-143764000D02*
X140255000Y-143764000D01*
D26*
X140255000Y-143764000D02*
X140208000Y-143717000D01*
X140382000Y-143891000D02*
X140208000Y-143717000D01*
X143256000Y-145701000D02*
X143256000Y-143891000D01*
X143256000Y-143891000D02*
X143383000Y-143764000D01*
D25*
X182626000Y-148590000D02*
X182626000Y-143510000D01*
X149987000Y-139319000D02*
X150000000Y-137808000D01*
X149987000Y-139319000D02*
X170942000Y-139319000D01*
D26*
X170942000Y-139319000D02*
X171196000Y-139319000D01*
D24*
X171323000Y-139319000D02*
X171196000Y-139319000D01*
D25*
X172847000Y-140843000D02*
X171323000Y-139319000D01*
D24*
X179959000Y-140843000D02*
X172847000Y-140843000D01*
D25*
X182626000Y-143510000D02*
X179959000Y-140843000D01*
D23*
X180086000Y-152908000D02*
X181610000Y-152908000D01*
X181864000Y-147828000D02*
X180086000Y-147828000D01*
D25*
X182626000Y-148590000D02*
X181864000Y-147828000D01*
X182626000Y-151892000D02*
X182626000Y-148590000D01*
X181610000Y-152908000D02*
X182626000Y-151892000D01*
D26*
X150000000Y-137000000D02*
X150000000Y-137808000D01*
D23*
X157620000Y-137000000D02*
X157620000Y-134045000D01*
D24*
X157620000Y-134045000D02*
X157306000Y-133731000D01*
X157620000Y-137000000D02*
X157620000Y-136512000D01*
D23*
X162386000Y-133731000D02*
X164338000Y-133731000D01*
D24*
X165227000Y-134620000D02*
X169148000Y-134620000D01*
D23*
X164338000Y-133731000D02*
X165227000Y-134620000D01*
D25*
X160160000Y-137000000D02*
X160160000Y-135957000D01*
D26*
X160160000Y-135957000D02*
X162386000Y-133731000D01*
D23*
X167148000Y-133670000D02*
X166436000Y-133670000D01*
X166436000Y-133670000D02*
X164719000Y-131953000D01*
X159686000Y-133731000D02*
X159686000Y-131953000D01*
D24*
X159639000Y-132080000D02*
X159639000Y-131953000D01*
X159639000Y-132000000D02*
X159639000Y-132080000D01*
X159686000Y-131953000D02*
X159639000Y-132000000D01*
X160160000Y-133765000D02*
X160194000Y-133731000D01*
D23*
X154606000Y-133731000D02*
X154606000Y-132922000D01*
X155575000Y-131953000D02*
X159639000Y-131953000D01*
X159639000Y-131953000D02*
X164719000Y-131953000D01*
X154606000Y-132922000D02*
X155575000Y-131953000D01*
X174371000Y-142193000D02*
X174371000Y-142875000D01*
X174371000Y-142875000D02*
X175133000Y-143637000D01*
X175133000Y-143637000D02*
X178054000Y-146558000D01*
X178054000Y-146558000D02*
X178054000Y-149733000D01*
X178054000Y-149733000D02*
X178689000Y-150368000D01*
X178689000Y-150368000D02*
X180086000Y-150368000D01*
D24*
X174371000Y-139493000D02*
X174037000Y-139493000D01*
D23*
X174037000Y-139493000D02*
X171450000Y-136906000D01*
D24*
X167148000Y-136160000D02*
X167148000Y-135570000D01*
D23*
X167894000Y-136906000D02*
X167148000Y-136160000D01*
X171450000Y-136906000D02*
X167894000Y-136906000D01*
X177165000Y-139493000D02*
X174371000Y-139493000D01*
X178007000Y-142193000D02*
X179150000Y-142193000D01*
X177165000Y-142193000D02*
X178007000Y-142193000D01*
X180848000Y-143891000D02*
X180848000Y-144526000D01*
X179150000Y-142193000D02*
X180848000Y-143891000D01*
D24*
X180848000Y-144526000D02*
X180086000Y-145288000D01*
D23*
X169164000Y-148844000D02*
X170053000Y-149733000D01*
X170053000Y-149733000D02*
X170053000Y-150368000D01*
X170942000Y-156638000D02*
X170942000Y-154813000D01*
X170053000Y-153924000D02*
X170053000Y-150495000D01*
D24*
X170053000Y-150495000D02*
X170053000Y-150368000D01*
D23*
X170942000Y-154813000D02*
X170053000Y-153924000D01*
X172466000Y-150368000D02*
X170053000Y-150368000D01*
X158623000Y-146431000D02*
X166751000Y-146431000D01*
X167894000Y-147574000D02*
X166751000Y-146431000D01*
X158623000Y-146431000D02*
X156925000Y-146431000D01*
X169164000Y-148844000D02*
X167894000Y-147574000D01*
D24*
X156925000Y-146431000D02*
X156591000Y-146097000D01*
D23*
X169926000Y-145288000D02*
X167640000Y-143002000D01*
D24*
X141605000Y-142367000D02*
X136732000Y-142367000D01*
D23*
X167640000Y-143002000D02*
X145161000Y-143002000D01*
X144526000Y-142367000D02*
X145161000Y-143002000D01*
X141605000Y-142367000D02*
X144526000Y-142367000D01*
X172466000Y-145288000D02*
X169926000Y-145288000D01*
X140208000Y-146097000D02*
X138604000Y-146097000D01*
X138604000Y-146097000D02*
X136732000Y-144225000D01*
X136732000Y-144225000D02*
X136732000Y-142367000D01*
X139573000Y-160862000D02*
X136144000Y-160862000D01*
D24*
X136144000Y-160862000D02*
X136017000Y-160735000D01*
D23*
X157740000Y-158252000D02*
X157740000Y-156966000D01*
X157740000Y-156966000D02*
X157740000Y-154600000D01*
D24*
X157740000Y-158252000D02*
X157734000Y-158258000D01*
D23*
X152273000Y-151384000D02*
X150876000Y-149987000D01*
D24*
X157740000Y-154600000D02*
X157740000Y-153549000D01*
D23*
X157740000Y-153549000D02*
X155575000Y-151384000D01*
X155575000Y-151384000D02*
X152273000Y-151384000D01*
X152781000Y-147193000D02*
X151257000Y-147193000D01*
X151257000Y-147193000D02*
X150876000Y-147574000D01*
X152781000Y-148463000D02*
X151384000Y-148463000D01*
X151384000Y-148463000D02*
X150876000Y-148971000D01*
X150876000Y-149987000D02*
X150876000Y-148971000D01*
X150876000Y-148971000D02*
X150876000Y-148209000D01*
X150876000Y-148209000D02*
X150876000Y-147574000D01*
X152654000Y-156845000D02*
X152654000Y-158258000D01*
D24*
X152660000Y-154600000D02*
X152660000Y-154311000D01*
D23*
X152660000Y-154311000D02*
X148209000Y-149860000D01*
D24*
X152654000Y-156972000D02*
X152654000Y-156845000D01*
D23*
X152654000Y-156845000D02*
X152654000Y-154606000D01*
D24*
X152654000Y-154606000D02*
X152660000Y-154600000D01*
D23*
X146431000Y-145923000D02*
X147701000Y-145923000D01*
X147701000Y-145923000D02*
X148209000Y-146431000D01*
X146431000Y-147193000D02*
X147701000Y-147193000D01*
X147701000Y-147193000D02*
X148209000Y-147701000D01*
X148209000Y-146431000D02*
X148209000Y-147193000D01*
X148209000Y-149860000D02*
X148209000Y-147701000D01*
X148209000Y-147701000D02*
X148209000Y-147193000D01*
D27*
G36*
X132557000Y-142010750D02*
X132738250Y-142192000D01*
X133857000Y-142192000D01*
X133857000Y-142172000D01*
X134207000Y-142172000D01*
X134207000Y-142192000D01*
X134227000Y-142192000D01*
X134227000Y-142542000D01*
X134207000Y-142542000D01*
X134207000Y-143560750D01*
X134388250Y-143742000D01*
X134926212Y-143742000D01*
X135072634Y-143681350D01*
X135159793Y-143816798D01*
X135357000Y-143951543D01*
X135357000Y-144225000D01*
X135461666Y-144751190D01*
X135662787Y-145052189D01*
X135759728Y-145197272D01*
X136951416Y-146388960D01*
X134685000Y-146388960D01*
X134268100Y-146467405D01*
X133885202Y-146713793D01*
X133724010Y-146949705D01*
X133695680Y-146921375D01*
X133429212Y-146811000D01*
X132141250Y-146811000D01*
X131960000Y-146992250D01*
X131960000Y-148161000D01*
X131980000Y-148161000D01*
X131980000Y-148511000D01*
X131960000Y-148511000D01*
X131960000Y-149679750D01*
X132141250Y-149861000D01*
X133429212Y-149861000D01*
X133695680Y-149750625D01*
X133724860Y-149721445D01*
X133862793Y-149935798D01*
X134238737Y-150192669D01*
X134685000Y-150283040D01*
X137685000Y-150283040D01*
X138101900Y-150204595D01*
X138484798Y-149958207D01*
X138487570Y-149954150D01*
X138489405Y-149963900D01*
X138735793Y-150346798D01*
X139111737Y-150603669D01*
X139558000Y-150694040D01*
X140858000Y-150694040D01*
X141274900Y-150615595D01*
X141657798Y-150369207D01*
X141681000Y-150335250D01*
X141681000Y-150845212D01*
X141791375Y-151111680D01*
X141995321Y-151315626D01*
X142261789Y-151426000D01*
X142899750Y-151426000D01*
X143081000Y-151244750D01*
X143081000Y-149876000D01*
X143061000Y-149876000D01*
X143061000Y-149526000D01*
X143081000Y-149526000D01*
X143081000Y-149506000D01*
X143431000Y-149506000D01*
X143431000Y-149526000D01*
X143451000Y-149526000D01*
X143451000Y-149876000D01*
X143431000Y-149876000D01*
X143431000Y-151244750D01*
X143612250Y-151426000D01*
X144250211Y-151426000D01*
X144516679Y-151315626D01*
X144720625Y-151111680D01*
X144831000Y-150845212D01*
X144831000Y-150057250D01*
X144649752Y-149876002D01*
X144831000Y-149876002D01*
X144831000Y-149747097D01*
X145134500Y-149807467D01*
X145134500Y-149908002D01*
X145267748Y-149908002D01*
X145134500Y-150041250D01*
X145134500Y-150131212D01*
X145244875Y-150397680D01*
X145448821Y-150601626D01*
X145715289Y-150712000D01*
X146074750Y-150712000D01*
X146256000Y-150530750D01*
X146256000Y-149864040D01*
X146606000Y-149864040D01*
X146606000Y-150530750D01*
X146787250Y-150712000D01*
X147146711Y-150712000D01*
X147154272Y-150708868D01*
X147236728Y-150832272D01*
X150312065Y-153907609D01*
X150285000Y-154043675D01*
X150285000Y-155156325D01*
X150465786Y-156065198D01*
X150980621Y-156835704D01*
X151279000Y-157035074D01*
X151279000Y-157242210D01*
X151197331Y-157361737D01*
X151106960Y-157808000D01*
X151106960Y-158708000D01*
X151177521Y-159083000D01*
X151159789Y-159083000D01*
X150893321Y-159193374D01*
X150689375Y-159397320D01*
X150579000Y-159663788D01*
X150579000Y-159901750D01*
X150760250Y-160083000D01*
X151529000Y-160083000D01*
X151529000Y-160063000D01*
X151879000Y-160063000D01*
X151879000Y-160083000D01*
X151899000Y-160083000D01*
X151899000Y-160433000D01*
X151879000Y-160433000D01*
X151879000Y-161251750D01*
X152060250Y-161433000D01*
X152248211Y-161433000D01*
X152315679Y-161405054D01*
X152381793Y-161507798D01*
X152757737Y-161764669D01*
X153204000Y-161855040D01*
X154004000Y-161855040D01*
X154420900Y-161776595D01*
X154803798Y-161530207D01*
X155060669Y-161154263D01*
X155151040Y-160708000D01*
X155151040Y-160614250D01*
X155659000Y-160614250D01*
X155659000Y-160852212D01*
X155769375Y-161118680D01*
X155973321Y-161322626D01*
X156239789Y-161433000D01*
X156427750Y-161433000D01*
X156609000Y-161251750D01*
X156609000Y-160433000D01*
X155840250Y-160433000D01*
X155659000Y-160614250D01*
X155151040Y-160614250D01*
X155151040Y-159808000D01*
X155072595Y-159391100D01*
X154826207Y-159008202D01*
X154450263Y-158751331D01*
X154201040Y-158700862D01*
X154201040Y-157808000D01*
X154122595Y-157391100D01*
X154029000Y-157245649D01*
X154029000Y-157043092D01*
X154339379Y-156835704D01*
X154854214Y-156065198D01*
X155035000Y-155156325D01*
X155035000Y-154043675D01*
X154854214Y-153134802D01*
X154603111Y-152759000D01*
X155005456Y-152759000D01*
X155518489Y-153272033D01*
X155365000Y-154043675D01*
X155365000Y-155156325D01*
X155545786Y-156065198D01*
X156060621Y-156835704D01*
X156365000Y-157039083D01*
X156365000Y-157233429D01*
X156277331Y-157361737D01*
X156186960Y-157808000D01*
X156186960Y-158708000D01*
X156257521Y-159083000D01*
X156239789Y-159083000D01*
X155973321Y-159193374D01*
X155769375Y-159397320D01*
X155659000Y-159663788D01*
X155659000Y-159901750D01*
X155840250Y-160083000D01*
X156609000Y-160083000D01*
X156609000Y-160063000D01*
X156959000Y-160063000D01*
X156959000Y-160083000D01*
X156979000Y-160083000D01*
X156979000Y-160433000D01*
X156959000Y-160433000D01*
X156959000Y-161251750D01*
X157140250Y-161433000D01*
X157328211Y-161433000D01*
X157395679Y-161405054D01*
X157461793Y-161507798D01*
X157837737Y-161764669D01*
X158284000Y-161855040D01*
X159084000Y-161855040D01*
X159500900Y-161776595D01*
X159883798Y-161530207D01*
X160140669Y-161154263D01*
X160231040Y-160708000D01*
X160231040Y-159808000D01*
X160209637Y-159694250D01*
X169567000Y-159694250D01*
X169567000Y-160232212D01*
X169677375Y-160498680D01*
X169881321Y-160702626D01*
X170147789Y-160813000D01*
X170585750Y-160813000D01*
X170767000Y-160631750D01*
X170767000Y-159513000D01*
X171117000Y-159513000D01*
X171117000Y-160631750D01*
X171298250Y-160813000D01*
X171736211Y-160813000D01*
X172002679Y-160702626D01*
X172206625Y-160498680D01*
X172317000Y-160232212D01*
X172317000Y-159694250D01*
X172135750Y-159513000D01*
X171117000Y-159513000D01*
X170767000Y-159513000D01*
X169748250Y-159513000D01*
X169567000Y-159694250D01*
X160209637Y-159694250D01*
X160152595Y-159391100D01*
X159906207Y-159008202D01*
X159530263Y-158751331D01*
X159281040Y-158700862D01*
X159281040Y-157808000D01*
X159202595Y-157391100D01*
X159115000Y-157254973D01*
X159115000Y-157039083D01*
X159419379Y-156835704D01*
X159934214Y-156065198D01*
X160115000Y-155156325D01*
X160115000Y-154043675D01*
X160445000Y-154043675D01*
X160445000Y-155156325D01*
X160625786Y-156065198D01*
X161140621Y-156835704D01*
X161911127Y-157350539D01*
X162820000Y-157531325D01*
X163728873Y-157350539D01*
X164499379Y-156835704D01*
X165014214Y-156065198D01*
X165195000Y-155156325D01*
X165195000Y-154043675D01*
X165014214Y-153134802D01*
X164499379Y-152364296D01*
X163728873Y-151849461D01*
X162820000Y-151668675D01*
X161911127Y-151849461D01*
X161140621Y-152364296D01*
X160625786Y-153134802D01*
X160445000Y-154043675D01*
X160115000Y-154043675D01*
X159934214Y-153134802D01*
X159419379Y-152364296D01*
X158648873Y-151849461D01*
X157820165Y-151684621D01*
X156829584Y-150694040D01*
X157241000Y-150694040D01*
X157657900Y-150615595D01*
X158040798Y-150369207D01*
X158297669Y-149993263D01*
X158307177Y-149946310D01*
X158667737Y-150192669D01*
X159114000Y-150283040D01*
X162114000Y-150283040D01*
X162530900Y-150204595D01*
X162913798Y-149958207D01*
X163074990Y-149722295D01*
X163103320Y-149750625D01*
X163369788Y-149861000D01*
X164657750Y-149861000D01*
X164839000Y-149679750D01*
X164839000Y-148511000D01*
X164819000Y-148511000D01*
X164819000Y-148161000D01*
X164839000Y-148161000D01*
X164839000Y-148141000D01*
X165189000Y-148141000D01*
X165189000Y-148161000D01*
X165209000Y-148161000D01*
X165209000Y-148511000D01*
X165189000Y-148511000D01*
X165189000Y-149679750D01*
X165370250Y-149861000D01*
X166658212Y-149861000D01*
X166924680Y-149750625D01*
X167128626Y-149546679D01*
X167239000Y-149280211D01*
X167239000Y-148863544D01*
X168678000Y-150302544D01*
X168678000Y-150368000D01*
X168690631Y-150431500D01*
X168678000Y-150495000D01*
X168678000Y-151874229D01*
X167900000Y-151719475D01*
X166991127Y-151900261D01*
X166220621Y-152415096D01*
X165705786Y-153185602D01*
X165525000Y-154094475D01*
X165525000Y-155207125D01*
X165705786Y-156115998D01*
X166220621Y-156886504D01*
X166991127Y-157401339D01*
X167900000Y-157582125D01*
X168808873Y-157401339D01*
X169144960Y-157176773D01*
X169144960Y-157388000D01*
X169223405Y-157804900D01*
X169469793Y-158187798D01*
X169628202Y-158296034D01*
X169567000Y-158443788D01*
X169567000Y-158981750D01*
X169748250Y-159163000D01*
X170767000Y-159163000D01*
X170767000Y-159143000D01*
X171117000Y-159143000D01*
X171117000Y-159163000D01*
X172135750Y-159163000D01*
X172317000Y-158981750D01*
X172317000Y-158443788D01*
X172256350Y-158297366D01*
X172391798Y-158210207D01*
X172648669Y-157834263D01*
X172739040Y-157388000D01*
X172739040Y-155888000D01*
X172660595Y-155471100D01*
X172414207Y-155088202D01*
X172317000Y-155021783D01*
X172317000Y-154817040D01*
X173482000Y-154817040D01*
X173898900Y-154738595D01*
X174246000Y-154515243D01*
X174246000Y-162306982D01*
X141283425Y-162039718D01*
X141370040Y-161612000D01*
X141370040Y-160614250D01*
X150579000Y-160614250D01*
X150579000Y-160852212D01*
X150689375Y-161118680D01*
X150893321Y-161322626D01*
X151159789Y-161433000D01*
X151347750Y-161433000D01*
X151529000Y-161251750D01*
X151529000Y-160433000D01*
X150760250Y-160433000D01*
X150579000Y-160614250D01*
X141370040Y-160614250D01*
X141370040Y-160112000D01*
X141291595Y-159695100D01*
X141045207Y-159312202D01*
X140886798Y-159203966D01*
X140948000Y-159056212D01*
X140948000Y-158518250D01*
X140766750Y-158337000D01*
X139748000Y-158337000D01*
X139748000Y-158357000D01*
X139398000Y-158357000D01*
X139398000Y-158337000D01*
X138379250Y-158337000D01*
X138198000Y-158518250D01*
X138198000Y-159056212D01*
X138258650Y-159202634D01*
X138123202Y-159289793D01*
X137988457Y-159487000D01*
X137683409Y-159487000D01*
X137618187Y-159385642D01*
X137723669Y-159231263D01*
X137814040Y-158785000D01*
X137814040Y-157285000D01*
X137810802Y-157267788D01*
X138198000Y-157267788D01*
X138198000Y-157805750D01*
X138379250Y-157987000D01*
X139398000Y-157987000D01*
X139398000Y-156868250D01*
X139216750Y-156687000D01*
X138778789Y-156687000D01*
X138512321Y-156797374D01*
X138308375Y-157001320D01*
X138198000Y-157267788D01*
X137810802Y-157267788D01*
X137735595Y-156868100D01*
X137544809Y-156571610D01*
X137613754Y-156225000D01*
X140102960Y-156225000D01*
X140102960Y-156350000D01*
X140166371Y-156687000D01*
X139929250Y-156687000D01*
X139748000Y-156868250D01*
X139748000Y-157987000D01*
X140766750Y-157987000D01*
X140948000Y-157805750D01*
X140948000Y-157435883D01*
X141250000Y-157497040D01*
X143750000Y-157497040D01*
X144166900Y-157418595D01*
X144549798Y-157172207D01*
X144806669Y-156796263D01*
X144897040Y-156350000D01*
X144897040Y-154775000D01*
X145605000Y-154775000D01*
X145605000Y-155275000D01*
X145822308Y-156017479D01*
X146307208Y-156620280D01*
X146985879Y-156991632D01*
X147099412Y-157015636D01*
X147405000Y-156885193D01*
X147405000Y-154775000D01*
X147755000Y-154775000D01*
X147755000Y-156885193D01*
X148060588Y-157015636D01*
X148174121Y-156991632D01*
X148852792Y-156620280D01*
X149337692Y-156017479D01*
X149555000Y-155275000D01*
X149555000Y-154775000D01*
X147755000Y-154775000D01*
X147405000Y-154775000D01*
X145605000Y-154775000D01*
X144897040Y-154775000D01*
X144897040Y-153925000D01*
X145605000Y-153925000D01*
X145605000Y-154425000D01*
X147405000Y-154425000D01*
X147405000Y-152314807D01*
X147755000Y-152314807D01*
X147755000Y-154425000D01*
X149555000Y-154425000D01*
X149555000Y-153925000D01*
X149337692Y-153182521D01*
X148852792Y-152579720D01*
X148174121Y-152208368D01*
X148060588Y-152184364D01*
X147755000Y-152314807D01*
X147405000Y-152314807D01*
X147099412Y-152184364D01*
X146985879Y-152208368D01*
X146307208Y-152579720D01*
X145822308Y-153182521D01*
X145605000Y-153925000D01*
X144897040Y-153925000D01*
X144897040Y-152850000D01*
X144818595Y-152433100D01*
X144572207Y-152050202D01*
X144196263Y-151793331D01*
X143750000Y-151702960D01*
X141250000Y-151702960D01*
X140833100Y-151781405D01*
X140450202Y-152027793D01*
X140193331Y-152403737D01*
X140102960Y-152850000D01*
X140102960Y-152975000D01*
X131270097Y-152975000D01*
X130149000Y-151853902D01*
X130149000Y-149861000D01*
X131428750Y-149861000D01*
X131610000Y-149679750D01*
X131610000Y-148511000D01*
X131590000Y-148511000D01*
X131590000Y-148161000D01*
X131610000Y-148161000D01*
X131610000Y-146992250D01*
X131428750Y-146811000D01*
X130149000Y-146811000D01*
X130149000Y-144310098D01*
X131735847Y-142723250D01*
X132557000Y-142723250D01*
X132557000Y-143161211D01*
X132667374Y-143427679D01*
X132871320Y-143631625D01*
X133137788Y-143742000D01*
X133675750Y-143742000D01*
X133857000Y-143560750D01*
X133857000Y-142542000D01*
X132738250Y-142542000D01*
X132557000Y-142723250D01*
X131735847Y-142723250D01*
X132499097Y-141960000D01*
X132557000Y-141960000D01*
X132557000Y-142010750D01*
X132557000Y-142010750D01*
G37*
X132557000Y-142010750D02*
X132738250Y-142192000D01*
X133857000Y-142192000D01*
X133857000Y-142172000D01*
X134207000Y-142172000D01*
X134207000Y-142192000D01*
X134227000Y-142192000D01*
X134227000Y-142542000D01*
X134207000Y-142542000D01*
X134207000Y-143560750D01*
X134388250Y-143742000D01*
X134926212Y-143742000D01*
X135072634Y-143681350D01*
X135159793Y-143816798D01*
X135357000Y-143951543D01*
X135357000Y-144225000D01*
X135461666Y-144751190D01*
X135662787Y-145052189D01*
X135759728Y-145197272D01*
X136951416Y-146388960D01*
X134685000Y-146388960D01*
X134268100Y-146467405D01*
X133885202Y-146713793D01*
X133724010Y-146949705D01*
X133695680Y-146921375D01*
X133429212Y-146811000D01*
X132141250Y-146811000D01*
X131960000Y-146992250D01*
X131960000Y-148161000D01*
X131980000Y-148161000D01*
X131980000Y-148511000D01*
X131960000Y-148511000D01*
X131960000Y-149679750D01*
X132141250Y-149861000D01*
X133429212Y-149861000D01*
X133695680Y-149750625D01*
X133724860Y-149721445D01*
X133862793Y-149935798D01*
X134238737Y-150192669D01*
X134685000Y-150283040D01*
X137685000Y-150283040D01*
X138101900Y-150204595D01*
X138484798Y-149958207D01*
X138487570Y-149954150D01*
X138489405Y-149963900D01*
X138735793Y-150346798D01*
X139111737Y-150603669D01*
X139558000Y-150694040D01*
X140858000Y-150694040D01*
X141274900Y-150615595D01*
X141657798Y-150369207D01*
X141681000Y-150335250D01*
X141681000Y-150845212D01*
X141791375Y-151111680D01*
X141995321Y-151315626D01*
X142261789Y-151426000D01*
X142899750Y-151426000D01*
X143081000Y-151244750D01*
X143081000Y-149876000D01*
X143061000Y-149876000D01*
X143061000Y-149526000D01*
X143081000Y-149526000D01*
X143081000Y-149506000D01*
X143431000Y-149506000D01*
X143431000Y-149526000D01*
X143451000Y-149526000D01*
X143451000Y-149876000D01*
X143431000Y-149876000D01*
X143431000Y-151244750D01*
X143612250Y-151426000D01*
X144250211Y-151426000D01*
X144516679Y-151315626D01*
X144720625Y-151111680D01*
X144831000Y-150845212D01*
X144831000Y-150057250D01*
X144649752Y-149876002D01*
X144831000Y-149876002D01*
X144831000Y-149747097D01*
X145134500Y-149807467D01*
X145134500Y-149908002D01*
X145267748Y-149908002D01*
X145134500Y-150041250D01*
X145134500Y-150131212D01*
X145244875Y-150397680D01*
X145448821Y-150601626D01*
X145715289Y-150712000D01*
X146074750Y-150712000D01*
X146256000Y-150530750D01*
X146256000Y-149864040D01*
X146606000Y-149864040D01*
X146606000Y-150530750D01*
X146787250Y-150712000D01*
X147146711Y-150712000D01*
X147154272Y-150708868D01*
X147236728Y-150832272D01*
X150312065Y-153907609D01*
X150285000Y-154043675D01*
X150285000Y-155156325D01*
X150465786Y-156065198D01*
X150980621Y-156835704D01*
X151279000Y-157035074D01*
X151279000Y-157242210D01*
X151197331Y-157361737D01*
X151106960Y-157808000D01*
X151106960Y-158708000D01*
X151177521Y-159083000D01*
X151159789Y-159083000D01*
X150893321Y-159193374D01*
X150689375Y-159397320D01*
X150579000Y-159663788D01*
X150579000Y-159901750D01*
X150760250Y-160083000D01*
X151529000Y-160083000D01*
X151529000Y-160063000D01*
X151879000Y-160063000D01*
X151879000Y-160083000D01*
X151899000Y-160083000D01*
X151899000Y-160433000D01*
X151879000Y-160433000D01*
X151879000Y-161251750D01*
X152060250Y-161433000D01*
X152248211Y-161433000D01*
X152315679Y-161405054D01*
X152381793Y-161507798D01*
X152757737Y-161764669D01*
X153204000Y-161855040D01*
X154004000Y-161855040D01*
X154420900Y-161776595D01*
X154803798Y-161530207D01*
X155060669Y-161154263D01*
X155151040Y-160708000D01*
X155151040Y-160614250D01*
X155659000Y-160614250D01*
X155659000Y-160852212D01*
X155769375Y-161118680D01*
X155973321Y-161322626D01*
X156239789Y-161433000D01*
X156427750Y-161433000D01*
X156609000Y-161251750D01*
X156609000Y-160433000D01*
X155840250Y-160433000D01*
X155659000Y-160614250D01*
X155151040Y-160614250D01*
X155151040Y-159808000D01*
X155072595Y-159391100D01*
X154826207Y-159008202D01*
X154450263Y-158751331D01*
X154201040Y-158700862D01*
X154201040Y-157808000D01*
X154122595Y-157391100D01*
X154029000Y-157245649D01*
X154029000Y-157043092D01*
X154339379Y-156835704D01*
X154854214Y-156065198D01*
X155035000Y-155156325D01*
X155035000Y-154043675D01*
X154854214Y-153134802D01*
X154603111Y-152759000D01*
X155005456Y-152759000D01*
X155518489Y-153272033D01*
X155365000Y-154043675D01*
X155365000Y-155156325D01*
X155545786Y-156065198D01*
X156060621Y-156835704D01*
X156365000Y-157039083D01*
X156365000Y-157233429D01*
X156277331Y-157361737D01*
X156186960Y-157808000D01*
X156186960Y-158708000D01*
X156257521Y-159083000D01*
X156239789Y-159083000D01*
X155973321Y-159193374D01*
X155769375Y-159397320D01*
X155659000Y-159663788D01*
X155659000Y-159901750D01*
X155840250Y-160083000D01*
X156609000Y-160083000D01*
X156609000Y-160063000D01*
X156959000Y-160063000D01*
X156959000Y-160083000D01*
X156979000Y-160083000D01*
X156979000Y-160433000D01*
X156959000Y-160433000D01*
X156959000Y-161251750D01*
X157140250Y-161433000D01*
X157328211Y-161433000D01*
X157395679Y-161405054D01*
X157461793Y-161507798D01*
X157837737Y-161764669D01*
X158284000Y-161855040D01*
X159084000Y-161855040D01*
X159500900Y-161776595D01*
X159883798Y-161530207D01*
X160140669Y-161154263D01*
X160231040Y-160708000D01*
X160231040Y-159808000D01*
X160209637Y-159694250D01*
X169567000Y-159694250D01*
X169567000Y-160232212D01*
X169677375Y-160498680D01*
X169881321Y-160702626D01*
X170147789Y-160813000D01*
X170585750Y-160813000D01*
X170767000Y-160631750D01*
X170767000Y-159513000D01*
X171117000Y-159513000D01*
X171117000Y-160631750D01*
X171298250Y-160813000D01*
X171736211Y-160813000D01*
X172002679Y-160702626D01*
X172206625Y-160498680D01*
X172317000Y-160232212D01*
X172317000Y-159694250D01*
X172135750Y-159513000D01*
X171117000Y-159513000D01*
X170767000Y-159513000D01*
X169748250Y-159513000D01*
X169567000Y-159694250D01*
X160209637Y-159694250D01*
X160152595Y-159391100D01*
X159906207Y-159008202D01*
X159530263Y-158751331D01*
X159281040Y-158700862D01*
X159281040Y-157808000D01*
X159202595Y-157391100D01*
X159115000Y-157254973D01*
X159115000Y-157039083D01*
X159419379Y-156835704D01*
X159934214Y-156065198D01*
X160115000Y-155156325D01*
X160115000Y-154043675D01*
X160445000Y-154043675D01*
X160445000Y-155156325D01*
X160625786Y-156065198D01*
X161140621Y-156835704D01*
X161911127Y-157350539D01*
X162820000Y-157531325D01*
X163728873Y-157350539D01*
X164499379Y-156835704D01*
X165014214Y-156065198D01*
X165195000Y-155156325D01*
X165195000Y-154043675D01*
X165014214Y-153134802D01*
X164499379Y-152364296D01*
X163728873Y-151849461D01*
X162820000Y-151668675D01*
X161911127Y-151849461D01*
X161140621Y-152364296D01*
X160625786Y-153134802D01*
X160445000Y-154043675D01*
X160115000Y-154043675D01*
X159934214Y-153134802D01*
X159419379Y-152364296D01*
X158648873Y-151849461D01*
X157820165Y-151684621D01*
X156829584Y-150694040D01*
X157241000Y-150694040D01*
X157657900Y-150615595D01*
X158040798Y-150369207D01*
X158297669Y-149993263D01*
X158307177Y-149946310D01*
X158667737Y-150192669D01*
X159114000Y-150283040D01*
X162114000Y-150283040D01*
X162530900Y-150204595D01*
X162913798Y-149958207D01*
X163074990Y-149722295D01*
X163103320Y-149750625D01*
X163369788Y-149861000D01*
X164657750Y-149861000D01*
X164839000Y-149679750D01*
X164839000Y-148511000D01*
X164819000Y-148511000D01*
X164819000Y-148161000D01*
X164839000Y-148161000D01*
X164839000Y-148141000D01*
X165189000Y-148141000D01*
X165189000Y-148161000D01*
X165209000Y-148161000D01*
X165209000Y-148511000D01*
X165189000Y-148511000D01*
X165189000Y-149679750D01*
X165370250Y-149861000D01*
X166658212Y-149861000D01*
X166924680Y-149750625D01*
X167128626Y-149546679D01*
X167239000Y-149280211D01*
X167239000Y-148863544D01*
X168678000Y-150302544D01*
X168678000Y-150368000D01*
X168690631Y-150431500D01*
X168678000Y-150495000D01*
X168678000Y-151874229D01*
X167900000Y-151719475D01*
X166991127Y-151900261D01*
X166220621Y-152415096D01*
X165705786Y-153185602D01*
X165525000Y-154094475D01*
X165525000Y-155207125D01*
X165705786Y-156115998D01*
X166220621Y-156886504D01*
X166991127Y-157401339D01*
X167900000Y-157582125D01*
X168808873Y-157401339D01*
X169144960Y-157176773D01*
X169144960Y-157388000D01*
X169223405Y-157804900D01*
X169469793Y-158187798D01*
X169628202Y-158296034D01*
X169567000Y-158443788D01*
X169567000Y-158981750D01*
X169748250Y-159163000D01*
X170767000Y-159163000D01*
X170767000Y-159143000D01*
X171117000Y-159143000D01*
X171117000Y-159163000D01*
X172135750Y-159163000D01*
X172317000Y-158981750D01*
X172317000Y-158443788D01*
X172256350Y-158297366D01*
X172391798Y-158210207D01*
X172648669Y-157834263D01*
X172739040Y-157388000D01*
X172739040Y-155888000D01*
X172660595Y-155471100D01*
X172414207Y-155088202D01*
X172317000Y-155021783D01*
X172317000Y-154817040D01*
X173482000Y-154817040D01*
X173898900Y-154738595D01*
X174246000Y-154515243D01*
X174246000Y-162306982D01*
X141283425Y-162039718D01*
X141370040Y-161612000D01*
X141370040Y-160614250D01*
X150579000Y-160614250D01*
X150579000Y-160852212D01*
X150689375Y-161118680D01*
X150893321Y-161322626D01*
X151159789Y-161433000D01*
X151347750Y-161433000D01*
X151529000Y-161251750D01*
X151529000Y-160433000D01*
X150760250Y-160433000D01*
X150579000Y-160614250D01*
X141370040Y-160614250D01*
X141370040Y-160112000D01*
X141291595Y-159695100D01*
X141045207Y-159312202D01*
X140886798Y-159203966D01*
X140948000Y-159056212D01*
X140948000Y-158518250D01*
X140766750Y-158337000D01*
X139748000Y-158337000D01*
X139748000Y-158357000D01*
X139398000Y-158357000D01*
X139398000Y-158337000D01*
X138379250Y-158337000D01*
X138198000Y-158518250D01*
X138198000Y-159056212D01*
X138258650Y-159202634D01*
X138123202Y-159289793D01*
X137988457Y-159487000D01*
X137683409Y-159487000D01*
X137618187Y-159385642D01*
X137723669Y-159231263D01*
X137814040Y-158785000D01*
X137814040Y-157285000D01*
X137810802Y-157267788D01*
X138198000Y-157267788D01*
X138198000Y-157805750D01*
X138379250Y-157987000D01*
X139398000Y-157987000D01*
X139398000Y-156868250D01*
X139216750Y-156687000D01*
X138778789Y-156687000D01*
X138512321Y-156797374D01*
X138308375Y-157001320D01*
X138198000Y-157267788D01*
X137810802Y-157267788D01*
X137735595Y-156868100D01*
X137544809Y-156571610D01*
X137613754Y-156225000D01*
X140102960Y-156225000D01*
X140102960Y-156350000D01*
X140166371Y-156687000D01*
X139929250Y-156687000D01*
X139748000Y-156868250D01*
X139748000Y-157987000D01*
X140766750Y-157987000D01*
X140948000Y-157805750D01*
X140948000Y-157435883D01*
X141250000Y-157497040D01*
X143750000Y-157497040D01*
X144166900Y-157418595D01*
X144549798Y-157172207D01*
X144806669Y-156796263D01*
X144897040Y-156350000D01*
X144897040Y-154775000D01*
X145605000Y-154775000D01*
X145605000Y-155275000D01*
X145822308Y-156017479D01*
X146307208Y-156620280D01*
X146985879Y-156991632D01*
X147099412Y-157015636D01*
X147405000Y-156885193D01*
X147405000Y-154775000D01*
X147755000Y-154775000D01*
X147755000Y-156885193D01*
X148060588Y-157015636D01*
X148174121Y-156991632D01*
X148852792Y-156620280D01*
X149337692Y-156017479D01*
X149555000Y-155275000D01*
X149555000Y-154775000D01*
X147755000Y-154775000D01*
X147405000Y-154775000D01*
X145605000Y-154775000D01*
X144897040Y-154775000D01*
X144897040Y-153925000D01*
X145605000Y-153925000D01*
X145605000Y-154425000D01*
X147405000Y-154425000D01*
X147405000Y-152314807D01*
X147755000Y-152314807D01*
X147755000Y-154425000D01*
X149555000Y-154425000D01*
X149555000Y-153925000D01*
X149337692Y-153182521D01*
X148852792Y-152579720D01*
X148174121Y-152208368D01*
X148060588Y-152184364D01*
X147755000Y-152314807D01*
X147405000Y-152314807D01*
X147099412Y-152184364D01*
X146985879Y-152208368D01*
X146307208Y-152579720D01*
X145822308Y-153182521D01*
X145605000Y-153925000D01*
X144897040Y-153925000D01*
X144897040Y-152850000D01*
X144818595Y-152433100D01*
X144572207Y-152050202D01*
X144196263Y-151793331D01*
X143750000Y-151702960D01*
X141250000Y-151702960D01*
X140833100Y-151781405D01*
X140450202Y-152027793D01*
X140193331Y-152403737D01*
X140102960Y-152850000D01*
X140102960Y-152975000D01*
X131270097Y-152975000D01*
X130149000Y-151853902D01*
X130149000Y-149861000D01*
X131428750Y-149861000D01*
X131610000Y-149679750D01*
X131610000Y-148511000D01*
X131590000Y-148511000D01*
X131590000Y-148161000D01*
X131610000Y-148161000D01*
X131610000Y-146992250D01*
X131428750Y-146811000D01*
X130149000Y-146811000D01*
X130149000Y-144310098D01*
X131735847Y-142723250D01*
X132557000Y-142723250D01*
X132557000Y-143161211D01*
X132667374Y-143427679D01*
X132871320Y-143631625D01*
X133137788Y-143742000D01*
X133675750Y-143742000D01*
X133857000Y-143560750D01*
X133857000Y-142542000D01*
X132738250Y-142542000D01*
X132557000Y-142723250D01*
X131735847Y-142723250D01*
X132499097Y-141960000D01*
X132557000Y-141960000D01*
X132557000Y-142010750D01*
M02*
