G04 #@! TF.GenerationSoftware,KiCad,Pcbnew,no-vcs-found-96b3286~58~ubuntu16.04.1*
G04 #@! TF.CreationDate,2017-03-03T14:08:36+02:00*
G04 #@! TF.ProjectId,line-sensor,6C696E652D73656E736F722E6B696361,rev?*
G04 #@! TF.FileFunction,Copper,L2,Bot,Signal*
G04 #@! TF.FilePolarity,Positive*
%FSLAX46Y46*%
G04 Gerber Fmt 4.6, Leading zero omitted, Abs format (unit mm)*
G04 Created by KiCad (PCBNEW no-vcs-found-96b3286~58~ubuntu16.04.1) date Fri Mar  3 14:08:36 2017*
%MOMM*%
%LPD*%
G01*
G04 APERTURE LIST*
%ADD10C,0.100000*%
%ADD11O,2.200000X1.700000*%
%ADD12R,2.200000X1.700000*%
%ADD13R,1.700000X1.700000*%
%ADD14C,1.700000*%
%ADD15C,1.440000*%
%ADD16R,2.400000X1.600000*%
%ADD17O,2.400000X1.600000*%
%ADD18C,1.600000*%
%ADD19C,0.800000*%
%ADD20C,0.600000*%
%ADD21C,0.254000*%
G04 APERTURE END LIST*
D10*
D11*
X33270000Y-100700000D03*
X33270000Y-98160000D03*
X33270000Y-95620000D03*
X33270000Y-93080000D03*
X33270000Y-90540000D03*
D12*
X33270000Y-88000000D03*
X346730000Y-88000000D03*
D11*
X346730000Y-90540000D03*
X346730000Y-93080000D03*
X346730000Y-95620000D03*
X346730000Y-98160000D03*
X346730000Y-100700000D03*
D13*
X160760000Y-78200000D03*
D14*
X160760000Y-80740000D03*
X158220000Y-78200000D03*
X158220000Y-80740000D03*
X155680000Y-78200000D03*
X155680000Y-80740000D03*
X153140000Y-78200000D03*
X153140000Y-80740000D03*
X150600000Y-78200000D03*
X150600000Y-80740000D03*
D15*
X323000000Y-107250000D03*
X320460000Y-109790000D03*
X317920000Y-107250000D03*
X102080000Y-106710000D03*
X99540000Y-109250000D03*
X97000000Y-106710000D03*
X62080000Y-107250000D03*
X59540000Y-109790000D03*
X57000000Y-107250000D03*
X142080000Y-107250000D03*
X139540000Y-109790000D03*
X137000000Y-107250000D03*
X182080000Y-107250000D03*
X179540000Y-109790000D03*
X177000000Y-107250000D03*
X222080000Y-107250000D03*
X219540000Y-109790000D03*
X217000000Y-107250000D03*
X262080000Y-107250000D03*
X259540000Y-109790000D03*
X257000000Y-107250000D03*
X302080000Y-107250000D03*
X299540000Y-109790000D03*
X297000000Y-107250000D03*
X73080000Y-107250000D03*
X70540000Y-109790000D03*
X68000000Y-107250000D03*
D16*
X128600000Y-107520000D03*
D17*
X131400000Y-107520000D03*
X128600000Y-104980000D03*
X131400000Y-104980000D03*
D16*
X328600000Y-107520000D03*
D17*
X331400000Y-107520000D03*
X328600000Y-104980000D03*
X331400000Y-104980000D03*
D16*
X288600000Y-107520000D03*
D17*
X291400000Y-107520000D03*
X288600000Y-104980000D03*
X291400000Y-104980000D03*
D16*
X248600000Y-107520000D03*
D17*
X251400000Y-107520000D03*
X248600000Y-104980000D03*
X251400000Y-104980000D03*
D16*
X208600000Y-107520000D03*
D17*
X211400000Y-107520000D03*
X208600000Y-104980000D03*
X211400000Y-104980000D03*
D16*
X168600000Y-107520000D03*
D17*
X171400000Y-107520000D03*
X168600000Y-104980000D03*
X171400000Y-104980000D03*
D16*
X88600000Y-107520000D03*
D17*
X91400000Y-107520000D03*
X88600000Y-104980000D03*
X91400000Y-104980000D03*
D16*
X48600000Y-107520000D03*
D17*
X51400000Y-107520000D03*
X48600000Y-104980000D03*
X51400000Y-104980000D03*
D18*
X254000000Y-95000000D03*
X330000000Y-96000000D03*
X33400000Y-102600000D03*
X35400000Y-87800000D03*
X33400000Y-86000000D03*
X344600000Y-87000000D03*
X346600000Y-85400000D03*
X344400000Y-100800000D03*
X346600000Y-103200000D03*
X173000000Y-101799994D03*
X70800000Y-99000000D03*
X116000000Y-112200000D03*
X51000000Y-101200000D03*
X203800000Y-84800000D03*
X197400000Y-107000000D03*
X199000000Y-94400000D03*
X134000000Y-102500000D03*
X274750000Y-112500000D03*
X294000000Y-102000000D03*
X331000000Y-101250000D03*
X293500000Y-111000000D03*
X253500000Y-111250000D03*
X254000000Y-102250000D03*
X185750000Y-112250000D03*
X173250000Y-112500000D03*
X214250000Y-102500000D03*
X65000000Y-105500000D03*
X112500000Y-102500000D03*
X112250000Y-109000000D03*
X121500000Y-99750000D03*
X122000000Y-109000000D03*
X271707628Y-102579990D03*
X270500000Y-109000000D03*
X280750000Y-109000000D03*
X278500000Y-99749996D03*
X187800000Y-94750000D03*
X187800000Y-89000000D03*
X105500000Y-95250000D03*
X105500000Y-102250000D03*
X190000000Y-99400000D03*
X190000000Y-89000000D03*
X114000000Y-99250000D03*
X114000000Y-111750000D03*
X185400000Y-97800000D03*
X185600000Y-89000000D03*
X124500000Y-96750000D03*
X124500000Y-103750000D03*
X183000000Y-98200000D03*
X183400000Y-89000000D03*
X126000000Y-98749998D03*
X126000000Y-112500000D03*
X212200000Y-96500000D03*
X212600000Y-87400000D03*
X266250000Y-103500000D03*
X266250000Y-96500000D03*
X210600000Y-98800000D03*
X210600000Y-87400000D03*
X268750000Y-112500000D03*
X268750000Y-98000000D03*
X213800000Y-93600000D03*
X214600000Y-87400000D03*
X287250000Y-102000000D03*
X287250000Y-98000000D03*
X208800000Y-84800000D03*
X208800000Y-94200000D03*
X284750000Y-112500002D03*
X284749996Y-96250000D03*
X122750000Y-102500000D03*
X121750000Y-105500000D03*
X283000000Y-103500000D03*
X280750000Y-105750000D03*
X291500000Y-109750000D03*
X126800000Y-88800000D03*
X126800000Y-93200000D03*
X198600000Y-91300010D03*
X195600000Y-92400000D03*
X196000000Y-89000000D03*
X194199998Y-94400000D03*
X116250000Y-95249998D03*
X276250000Y-118000000D03*
X276250006Y-94500000D03*
X118750000Y-118000002D03*
X70000000Y-118000000D03*
X70000000Y-112000000D03*
X110750000Y-99250000D03*
X110750000Y-103750000D03*
D19*
X254000000Y-102250000D02*
X254000000Y-95000000D01*
X331000000Y-101250000D02*
X331000000Y-97000000D01*
X331000000Y-97000000D02*
X330000000Y-96000000D01*
D20*
X33270000Y-100700000D02*
X33270000Y-102470000D01*
X33270000Y-102470000D02*
X33400000Y-102600000D01*
X33270000Y-88000000D02*
X33270000Y-86130000D01*
X33270000Y-86130000D02*
X33400000Y-86000000D01*
X346730000Y-88000000D02*
X346730000Y-85530000D01*
X346730000Y-85530000D02*
X346600000Y-85400000D01*
X346730000Y-100700000D02*
X346730000Y-103070000D01*
X346730000Y-103070000D02*
X346600000Y-103200000D01*
X299540000Y-109790000D02*
X294710000Y-109790000D01*
X294710000Y-109790000D02*
X293500000Y-111000000D01*
X179540000Y-109790000D02*
X183290000Y-109790000D01*
X183290000Y-109790000D02*
X185750000Y-112250000D01*
X112250000Y-102750000D02*
X112500000Y-102500000D01*
X112250000Y-109000000D02*
X112250000Y-102750000D01*
X120250000Y-106118630D02*
X120250000Y-101000000D01*
X120250000Y-101000000D02*
X121500000Y-99750000D01*
X122000000Y-109000000D02*
X122000000Y-107868630D01*
X122000000Y-107868630D02*
X120250000Y-106118630D01*
X271707628Y-103711360D02*
X271707628Y-102579990D01*
X270500000Y-109000000D02*
X271707628Y-107792372D01*
X271707628Y-107792372D02*
X271707628Y-103711360D01*
X279950001Y-108200001D02*
X280750000Y-109000000D01*
X278500000Y-99749996D02*
X278500000Y-106750000D01*
X278500000Y-106750000D02*
X279950001Y-108200001D01*
X187800000Y-89000000D02*
X187800000Y-94750000D01*
X105500000Y-102250000D02*
X105500000Y-95250000D01*
X190000000Y-89000000D02*
X190000000Y-99400000D01*
X114000000Y-111750000D02*
X114000000Y-99250000D01*
X185600000Y-89000000D02*
X185600000Y-97600000D01*
X185600000Y-97600000D02*
X185400000Y-97800000D01*
X124500000Y-97250000D02*
X124500000Y-96750000D01*
X124500000Y-103750000D02*
X124500000Y-97250000D01*
X183400000Y-89000000D02*
X183400000Y-97800000D01*
X183400000Y-97800000D02*
X183000000Y-98200000D01*
X126000000Y-112500000D02*
X126000000Y-98749998D01*
X212200000Y-96500000D02*
X212200000Y-87800000D01*
X212200000Y-87800000D02*
X212600000Y-87400000D01*
X266250000Y-103500000D02*
X266250000Y-96500000D01*
X210600000Y-87400000D02*
X210600000Y-98800000D01*
X268750000Y-112500000D02*
X268750000Y-98000000D01*
X214600000Y-87400000D02*
X213800000Y-88200000D01*
X213800000Y-88200000D02*
X213800000Y-93600000D01*
X287250000Y-102000000D02*
X287250000Y-98000000D01*
X208800000Y-94200000D02*
X208800000Y-84800000D01*
X284750000Y-112500002D02*
X284750000Y-96250004D01*
X284750000Y-96250004D02*
X284749996Y-96250000D01*
X121750000Y-105500000D02*
X121750000Y-103500000D01*
X121750000Y-103500000D02*
X122750000Y-102500000D01*
X280750000Y-105750000D02*
X283000000Y-103500000D01*
X291400000Y-108920000D02*
X291400000Y-109650000D01*
X291400000Y-109650000D02*
X291500000Y-109750000D01*
X291400000Y-107520000D02*
X291400000Y-108920000D01*
X126800000Y-93200000D02*
X126800000Y-88800000D01*
X196699990Y-91300010D02*
X197468630Y-91300010D01*
X197468630Y-91300010D02*
X198600000Y-91300010D01*
X195600000Y-92400000D02*
X196699990Y-91300010D01*
X195200001Y-89799999D02*
X196000000Y-89000000D01*
X194199998Y-90800002D02*
X195200001Y-89799999D01*
X194199998Y-94400000D02*
X194199998Y-90800002D01*
D19*
X118750000Y-102250000D02*
X116250000Y-99750000D01*
X116250000Y-99750000D02*
X116250000Y-95249998D01*
X118750000Y-102500000D02*
X118750000Y-102250000D01*
D20*
X276250006Y-117999994D02*
X276250000Y-118000000D01*
X276250006Y-94500000D02*
X276250006Y-117999994D01*
X118750000Y-102500000D02*
X118750000Y-118000002D01*
X70000000Y-112000000D02*
X70000000Y-118000000D01*
X110750000Y-103750000D02*
X110750000Y-99250000D01*
D21*
G36*
X347290000Y-86515000D02*
X347015750Y-86515000D01*
X346857000Y-86673750D01*
X346857000Y-87873000D01*
X346877000Y-87873000D01*
X346877000Y-88127000D01*
X346857000Y-88127000D01*
X346857000Y-88147000D01*
X346603000Y-88147000D01*
X346603000Y-88127000D01*
X345153750Y-88127000D01*
X344995000Y-88285750D01*
X344995000Y-88976310D01*
X345091673Y-89209699D01*
X345270302Y-89388327D01*
X345441753Y-89459345D01*
X345395955Y-89489946D01*
X345074048Y-89971715D01*
X344961009Y-90540000D01*
X345074048Y-91108285D01*
X345395955Y-91590054D01*
X345725128Y-91810000D01*
X345395955Y-92029946D01*
X345074048Y-92511715D01*
X344961009Y-93080000D01*
X345074048Y-93648285D01*
X345395955Y-94130054D01*
X345725128Y-94350000D01*
X345395955Y-94569946D01*
X345074048Y-95051715D01*
X344961009Y-95620000D01*
X345074048Y-96188285D01*
X345395955Y-96670054D01*
X345725128Y-96890000D01*
X345395955Y-97109946D01*
X345074048Y-97591715D01*
X344961009Y-98160000D01*
X345074048Y-98728285D01*
X345395955Y-99210054D01*
X345724112Y-99429321D01*
X345346667Y-99724549D01*
X345059648Y-100232509D01*
X345038524Y-100343110D01*
X345159845Y-100573000D01*
X346603000Y-100573000D01*
X346603000Y-100553000D01*
X346857000Y-100553000D01*
X346857000Y-100573000D01*
X346877000Y-100573000D01*
X346877000Y-100827000D01*
X346857000Y-100827000D01*
X346857000Y-102031491D01*
X347091639Y-102191135D01*
X347290000Y-102136007D01*
X347290000Y-119290000D01*
X276885714Y-119290000D01*
X277061800Y-119217243D01*
X277465824Y-118813923D01*
X277684750Y-118286691D01*
X277685248Y-117715813D01*
X277467243Y-117188200D01*
X277185006Y-116905470D01*
X277185006Y-114442619D01*
X341764613Y-114442619D01*
X342104155Y-115264372D01*
X342732321Y-115893636D01*
X343553481Y-116234611D01*
X344442619Y-116235387D01*
X345264372Y-115895845D01*
X345893636Y-115267679D01*
X346234611Y-114446519D01*
X346235387Y-113557381D01*
X345895845Y-112735628D01*
X345267679Y-112106364D01*
X344446519Y-111765389D01*
X343557381Y-111764613D01*
X342735628Y-112104155D01*
X342106364Y-112732321D01*
X341765389Y-113553481D01*
X341764613Y-114442619D01*
X277185006Y-114442619D01*
X277185006Y-100325220D01*
X277282757Y-100561796D01*
X277565000Y-100844532D01*
X277565000Y-106750000D01*
X277636173Y-107107809D01*
X277838855Y-107411145D01*
X279315098Y-108887388D01*
X279314752Y-109284187D01*
X279532757Y-109811800D01*
X279936077Y-110215824D01*
X280463309Y-110434750D01*
X281034187Y-110435248D01*
X281561800Y-110217243D01*
X281965824Y-109813923D01*
X282184750Y-109286691D01*
X282185248Y-108715813D01*
X281967243Y-108188200D01*
X281563923Y-107784176D01*
X281036691Y-107565250D01*
X280637192Y-107564902D01*
X280110570Y-107038280D01*
X280463309Y-107184750D01*
X281034187Y-107185248D01*
X281561800Y-106967243D01*
X281965824Y-106563923D01*
X282184750Y-106036691D01*
X282185098Y-105637191D01*
X282887387Y-104934902D01*
X283284187Y-104935248D01*
X283811800Y-104717243D01*
X283815000Y-104714049D01*
X283815000Y-111405744D01*
X283534176Y-111686079D01*
X283315250Y-112213311D01*
X283314752Y-112784189D01*
X283532757Y-113311802D01*
X283936077Y-113715826D01*
X284463309Y-113934752D01*
X285034187Y-113935250D01*
X285561800Y-113717245D01*
X285965824Y-113313925D01*
X286184750Y-112786693D01*
X286185248Y-112215815D01*
X285967243Y-111688202D01*
X285685000Y-111405466D01*
X285685000Y-104980000D01*
X286729050Y-104980000D01*
X286838283Y-105529151D01*
X287149352Y-105994698D01*
X287296648Y-106093118D01*
X287152235Y-106121843D01*
X286942191Y-106262191D01*
X286801843Y-106472235D01*
X286752560Y-106720000D01*
X286752560Y-108320000D01*
X286801843Y-108567765D01*
X286942191Y-108777809D01*
X287152235Y-108918157D01*
X287400000Y-108967440D01*
X289800000Y-108967440D01*
X290047765Y-108918157D01*
X290257809Y-108777809D01*
X290274904Y-108752225D01*
X290390785Y-108829654D01*
X290284176Y-108936077D01*
X290065250Y-109463309D01*
X290064752Y-110034187D01*
X290282757Y-110561800D01*
X290686077Y-110965824D01*
X291213309Y-111184750D01*
X291784187Y-111185248D01*
X292311800Y-110967243D01*
X292539666Y-110739774D01*
X298769831Y-110739774D01*
X298834131Y-110977611D01*
X299342342Y-111157333D01*
X299880644Y-111128892D01*
X300245869Y-110977611D01*
X300310169Y-110739774D01*
X319689831Y-110739774D01*
X319754131Y-110977611D01*
X320262342Y-111157333D01*
X320800644Y-111128892D01*
X321165869Y-110977611D01*
X321230169Y-110739774D01*
X320460000Y-109969605D01*
X319689831Y-110739774D01*
X300310169Y-110739774D01*
X299540000Y-109969605D01*
X298769831Y-110739774D01*
X292539666Y-110739774D01*
X292715824Y-110563923D01*
X292934750Y-110036691D01*
X292935137Y-109592342D01*
X298172667Y-109592342D01*
X298201108Y-110130644D01*
X298352389Y-110495869D01*
X298590226Y-110560169D01*
X299360395Y-109790000D01*
X299719605Y-109790000D01*
X300489774Y-110560169D01*
X300727611Y-110495869D01*
X300907333Y-109987658D01*
X300886447Y-109592342D01*
X319092667Y-109592342D01*
X319121108Y-110130644D01*
X319272389Y-110495869D01*
X319510226Y-110560169D01*
X320280395Y-109790000D01*
X320639605Y-109790000D01*
X321409774Y-110560169D01*
X321647611Y-110495869D01*
X321827333Y-109987658D01*
X321798892Y-109449356D01*
X321647611Y-109084131D01*
X321409774Y-109019831D01*
X320639605Y-109790000D01*
X320280395Y-109790000D01*
X319510226Y-109019831D01*
X319272389Y-109084131D01*
X319092667Y-109592342D01*
X300886447Y-109592342D01*
X300878892Y-109449356D01*
X300727611Y-109084131D01*
X300489774Y-109019831D01*
X299719605Y-109790000D01*
X299360395Y-109790000D01*
X298590226Y-109019831D01*
X298352389Y-109084131D01*
X298172667Y-109592342D01*
X292935137Y-109592342D01*
X292935248Y-109465813D01*
X292717243Y-108938200D01*
X292619440Y-108840226D01*
X298769831Y-108840226D01*
X299540000Y-109610395D01*
X300310169Y-108840226D01*
X319689831Y-108840226D01*
X320460000Y-109610395D01*
X321230169Y-108840226D01*
X321165869Y-108602389D01*
X320657658Y-108422667D01*
X320119356Y-108451108D01*
X319754131Y-108602389D01*
X319689831Y-108840226D01*
X300310169Y-108840226D01*
X300245869Y-108602389D01*
X299737658Y-108422667D01*
X299199356Y-108451108D01*
X298834131Y-108602389D01*
X298769831Y-108840226D01*
X292619440Y-108840226D01*
X292528993Y-108749621D01*
X292850648Y-108534698D01*
X293161717Y-108069151D01*
X293270950Y-107520000D01*
X293270621Y-107518344D01*
X295644765Y-107518344D01*
X295850617Y-108016543D01*
X296231452Y-108398043D01*
X296729291Y-108604764D01*
X297268344Y-108605235D01*
X297766543Y-108399383D01*
X297966500Y-108199774D01*
X301309831Y-108199774D01*
X301374131Y-108437611D01*
X301882342Y-108617333D01*
X302420644Y-108588892D01*
X302785869Y-108437611D01*
X302850169Y-108199774D01*
X302080000Y-107429605D01*
X301309831Y-108199774D01*
X297966500Y-108199774D01*
X298148043Y-108018548D01*
X298354764Y-107520709D01*
X298355173Y-107052342D01*
X300712667Y-107052342D01*
X300741108Y-107590644D01*
X300892389Y-107955869D01*
X301130226Y-108020169D01*
X301900395Y-107250000D01*
X302259605Y-107250000D01*
X303029774Y-108020169D01*
X303267611Y-107955869D01*
X303422335Y-107518344D01*
X316564765Y-107518344D01*
X316770617Y-108016543D01*
X317151452Y-108398043D01*
X317649291Y-108604764D01*
X318188344Y-108605235D01*
X318686543Y-108399383D01*
X318886500Y-108199774D01*
X322229831Y-108199774D01*
X322294131Y-108437611D01*
X322802342Y-108617333D01*
X323340644Y-108588892D01*
X323705869Y-108437611D01*
X323770169Y-108199774D01*
X323000000Y-107429605D01*
X322229831Y-108199774D01*
X318886500Y-108199774D01*
X319068043Y-108018548D01*
X319274764Y-107520709D01*
X319275173Y-107052342D01*
X321632667Y-107052342D01*
X321661108Y-107590644D01*
X321812389Y-107955869D01*
X322050226Y-108020169D01*
X322820395Y-107250000D01*
X323179605Y-107250000D01*
X323949774Y-108020169D01*
X324187611Y-107955869D01*
X324367333Y-107447658D01*
X324338892Y-106909356D01*
X324187611Y-106544131D01*
X323949774Y-106479831D01*
X323179605Y-107250000D01*
X322820395Y-107250000D01*
X322050226Y-106479831D01*
X321812389Y-106544131D01*
X321632667Y-107052342D01*
X319275173Y-107052342D01*
X319275235Y-106981656D01*
X319069383Y-106483457D01*
X318886472Y-106300226D01*
X322229831Y-106300226D01*
X323000000Y-107070395D01*
X323770169Y-106300226D01*
X323705869Y-106062389D01*
X323197658Y-105882667D01*
X322659356Y-105911108D01*
X322294131Y-106062389D01*
X322229831Y-106300226D01*
X318886472Y-106300226D01*
X318688548Y-106101957D01*
X318190709Y-105895236D01*
X317651656Y-105894765D01*
X317153457Y-106100617D01*
X316771957Y-106481452D01*
X316565236Y-106979291D01*
X316564765Y-107518344D01*
X303422335Y-107518344D01*
X303447333Y-107447658D01*
X303418892Y-106909356D01*
X303267611Y-106544131D01*
X303029774Y-106479831D01*
X302259605Y-107250000D01*
X301900395Y-107250000D01*
X301130226Y-106479831D01*
X300892389Y-106544131D01*
X300712667Y-107052342D01*
X298355173Y-107052342D01*
X298355235Y-106981656D01*
X298149383Y-106483457D01*
X297966472Y-106300226D01*
X301309831Y-106300226D01*
X302080000Y-107070395D01*
X302850169Y-106300226D01*
X302785869Y-106062389D01*
X302277658Y-105882667D01*
X301739356Y-105911108D01*
X301374131Y-106062389D01*
X301309831Y-106300226D01*
X297966472Y-106300226D01*
X297768548Y-106101957D01*
X297270709Y-105895236D01*
X296731656Y-105894765D01*
X296233457Y-106100617D01*
X295851957Y-106481452D01*
X295645236Y-106979291D01*
X295644765Y-107518344D01*
X293270621Y-107518344D01*
X293161717Y-106970849D01*
X292850648Y-106505302D01*
X292468562Y-106250000D01*
X292850648Y-105994698D01*
X293161717Y-105529151D01*
X293270950Y-104980000D01*
X326729050Y-104980000D01*
X326838283Y-105529151D01*
X327149352Y-105994698D01*
X327296648Y-106093118D01*
X327152235Y-106121843D01*
X326942191Y-106262191D01*
X326801843Y-106472235D01*
X326752560Y-106720000D01*
X326752560Y-108320000D01*
X326801843Y-108567765D01*
X326942191Y-108777809D01*
X327152235Y-108918157D01*
X327400000Y-108967440D01*
X329800000Y-108967440D01*
X330047765Y-108918157D01*
X330257809Y-108777809D01*
X330274904Y-108752225D01*
X330414899Y-108845767D01*
X330964050Y-108955000D01*
X331835950Y-108955000D01*
X332385101Y-108845767D01*
X332850648Y-108534698D01*
X333161717Y-108069151D01*
X333270950Y-107520000D01*
X333161717Y-106970849D01*
X332850648Y-106505302D01*
X332468562Y-106250000D01*
X332850648Y-105994698D01*
X333161717Y-105529151D01*
X333270950Y-104980000D01*
X333161717Y-104430849D01*
X332850648Y-103965302D01*
X332385101Y-103654233D01*
X331835950Y-103545000D01*
X330964050Y-103545000D01*
X330414899Y-103654233D01*
X330000000Y-103931460D01*
X329585101Y-103654233D01*
X329035950Y-103545000D01*
X328164050Y-103545000D01*
X327614899Y-103654233D01*
X327149352Y-103965302D01*
X326838283Y-104430849D01*
X326729050Y-104980000D01*
X293270950Y-104980000D01*
X293161717Y-104430849D01*
X292850648Y-103965302D01*
X292385101Y-103654233D01*
X291835950Y-103545000D01*
X290964050Y-103545000D01*
X290414899Y-103654233D01*
X290000000Y-103931460D01*
X289585101Y-103654233D01*
X289035950Y-103545000D01*
X288164050Y-103545000D01*
X287614899Y-103654233D01*
X287149352Y-103965302D01*
X286838283Y-104430849D01*
X286729050Y-104980000D01*
X285685000Y-104980000D01*
X285685000Y-98284187D01*
X285814752Y-98284187D01*
X286032757Y-98811800D01*
X286315000Y-99094536D01*
X286315000Y-100905742D01*
X286034176Y-101186077D01*
X285815250Y-101713309D01*
X285814752Y-102284187D01*
X286032757Y-102811800D01*
X286436077Y-103215824D01*
X286963309Y-103434750D01*
X287534187Y-103435248D01*
X288061800Y-103217243D01*
X288465824Y-102813923D01*
X288684750Y-102286691D01*
X288685248Y-101715813D01*
X288467243Y-101188200D01*
X288336162Y-101056890D01*
X345038524Y-101056890D01*
X345059648Y-101167491D01*
X345346667Y-101675451D01*
X345806226Y-102034907D01*
X346368361Y-102191135D01*
X346603000Y-102031491D01*
X346603000Y-100827000D01*
X345159845Y-100827000D01*
X345038524Y-101056890D01*
X288336162Y-101056890D01*
X288185000Y-100905464D01*
X288185000Y-99094258D01*
X288465824Y-98813923D01*
X288684750Y-98286691D01*
X288685248Y-97715813D01*
X288467243Y-97188200D01*
X288063923Y-96784176D01*
X287536691Y-96565250D01*
X286965813Y-96564752D01*
X286438200Y-96782757D01*
X286034176Y-97186077D01*
X285815250Y-97713309D01*
X285814752Y-98284187D01*
X285685000Y-98284187D01*
X285685000Y-97344254D01*
X285965820Y-97063923D01*
X286184746Y-96536691D01*
X286185244Y-95965813D01*
X285967239Y-95438200D01*
X285563919Y-95034176D01*
X285036687Y-94815250D01*
X284465809Y-94814752D01*
X283938196Y-95032757D01*
X283534172Y-95436077D01*
X283315246Y-95963309D01*
X283314748Y-96534187D01*
X283532753Y-97061800D01*
X283815000Y-97344540D01*
X283815000Y-102285255D01*
X283813923Y-102284176D01*
X283286691Y-102065250D01*
X282715813Y-102064752D01*
X282188200Y-102282757D01*
X281784176Y-102686077D01*
X281565250Y-103213309D01*
X281564901Y-103612809D01*
X280862612Y-104315098D01*
X280465813Y-104314752D01*
X279938200Y-104532757D01*
X279534176Y-104936077D01*
X279435000Y-105174919D01*
X279435000Y-100844254D01*
X279715824Y-100563919D01*
X279934750Y-100036687D01*
X279935248Y-99465809D01*
X279717243Y-98938196D01*
X279313923Y-98534172D01*
X278786691Y-98315246D01*
X278215813Y-98314748D01*
X277688200Y-98532753D01*
X277284176Y-98936073D01*
X277185006Y-99174901D01*
X277185006Y-95594258D01*
X277465830Y-95313923D01*
X277684756Y-94786691D01*
X277685254Y-94215813D01*
X277467249Y-93688200D01*
X277063929Y-93284176D01*
X276536697Y-93065250D01*
X275965819Y-93064752D01*
X275438206Y-93282757D01*
X275034182Y-93686077D01*
X274815256Y-94213309D01*
X274814758Y-94784187D01*
X275032763Y-95311800D01*
X275315006Y-95594536D01*
X275315006Y-116905736D01*
X275034176Y-117186077D01*
X274815250Y-117713309D01*
X274814752Y-118284187D01*
X275032757Y-118811800D01*
X275436077Y-119215824D01*
X275614713Y-119290000D01*
X119385719Y-119290000D01*
X119561800Y-119217245D01*
X119965824Y-118813925D01*
X120184750Y-118286693D01*
X120185248Y-117715815D01*
X119967243Y-117188202D01*
X119685000Y-116905466D01*
X119685000Y-106875920D01*
X120889758Y-108080678D01*
X120784176Y-108186077D01*
X120565250Y-108713309D01*
X120564752Y-109284187D01*
X120782757Y-109811800D01*
X121186077Y-110215824D01*
X121713309Y-110434750D01*
X122284187Y-110435248D01*
X122811800Y-110217243D01*
X123215824Y-109813923D01*
X123434750Y-109286691D01*
X123435248Y-108715813D01*
X123217243Y-108188200D01*
X122935000Y-107905464D01*
X122935000Y-107868630D01*
X122863827Y-107510821D01*
X122661145Y-107207485D01*
X122285194Y-106831534D01*
X122561800Y-106717243D01*
X122965824Y-106313923D01*
X123184750Y-105786691D01*
X123185248Y-105215813D01*
X122967243Y-104688200D01*
X122685000Y-104405464D01*
X122685000Y-103934943D01*
X123034187Y-103935248D01*
X123064849Y-103922579D01*
X123064752Y-104034187D01*
X123282757Y-104561800D01*
X123686077Y-104965824D01*
X124213309Y-105184750D01*
X124784187Y-105185248D01*
X125065000Y-105069219D01*
X125065000Y-111405742D01*
X124784176Y-111686077D01*
X124565250Y-112213309D01*
X124564752Y-112784187D01*
X124782757Y-113311800D01*
X125186077Y-113715824D01*
X125713309Y-113934750D01*
X126284187Y-113935248D01*
X126811800Y-113717243D01*
X127215824Y-113313923D01*
X127434750Y-112786691D01*
X127435050Y-112442619D01*
X145764613Y-112442619D01*
X146104155Y-113264372D01*
X146732321Y-113893636D01*
X147553481Y-114234611D01*
X148442619Y-114235387D01*
X149264372Y-113895845D01*
X149893636Y-113267679D01*
X150234611Y-112446519D01*
X150235387Y-111557381D01*
X150187969Y-111442619D01*
X239764613Y-111442619D01*
X240104155Y-112264372D01*
X240732321Y-112893636D01*
X241553481Y-113234611D01*
X242442619Y-113235387D01*
X243264372Y-112895845D01*
X243893636Y-112267679D01*
X244234611Y-111446519D01*
X244235227Y-110739774D01*
X258769831Y-110739774D01*
X258834131Y-110977611D01*
X259342342Y-111157333D01*
X259880644Y-111128892D01*
X260245869Y-110977611D01*
X260310169Y-110739774D01*
X259540000Y-109969605D01*
X258769831Y-110739774D01*
X244235227Y-110739774D01*
X244235387Y-110557381D01*
X243895845Y-109735628D01*
X243752810Y-109592342D01*
X258172667Y-109592342D01*
X258201108Y-110130644D01*
X258352389Y-110495869D01*
X258590226Y-110560169D01*
X259360395Y-109790000D01*
X259719605Y-109790000D01*
X260489774Y-110560169D01*
X260727611Y-110495869D01*
X260907333Y-109987658D01*
X260878892Y-109449356D01*
X260727611Y-109084131D01*
X260489774Y-109019831D01*
X259719605Y-109790000D01*
X259360395Y-109790000D01*
X258590226Y-109019831D01*
X258352389Y-109084131D01*
X258172667Y-109592342D01*
X243752810Y-109592342D01*
X243267679Y-109106364D01*
X242446519Y-108765389D01*
X241557381Y-108764613D01*
X240735628Y-109104155D01*
X240106364Y-109732321D01*
X239765389Y-110553481D01*
X239764613Y-111442619D01*
X150187969Y-111442619D01*
X149897559Y-110739774D01*
X178769831Y-110739774D01*
X178834131Y-110977611D01*
X179342342Y-111157333D01*
X179880644Y-111128892D01*
X180245869Y-110977611D01*
X180310169Y-110739774D01*
X218769831Y-110739774D01*
X218834131Y-110977611D01*
X219342342Y-111157333D01*
X219880644Y-111128892D01*
X220245869Y-110977611D01*
X220310169Y-110739774D01*
X219540000Y-109969605D01*
X218769831Y-110739774D01*
X180310169Y-110739774D01*
X179540000Y-109969605D01*
X178769831Y-110739774D01*
X149897559Y-110739774D01*
X149895845Y-110735628D01*
X149267679Y-110106364D01*
X148446519Y-109765389D01*
X147557381Y-109764613D01*
X146735628Y-110104155D01*
X146106364Y-110732321D01*
X145765389Y-111553481D01*
X145764613Y-112442619D01*
X127435050Y-112442619D01*
X127435248Y-112215813D01*
X127217243Y-111688200D01*
X126935000Y-111405464D01*
X126935000Y-110739774D01*
X138769831Y-110739774D01*
X138834131Y-110977611D01*
X139342342Y-111157333D01*
X139880644Y-111128892D01*
X140245869Y-110977611D01*
X140310169Y-110739774D01*
X139540000Y-109969605D01*
X138769831Y-110739774D01*
X126935000Y-110739774D01*
X126935000Y-109592342D01*
X138172667Y-109592342D01*
X138201108Y-110130644D01*
X138352389Y-110495869D01*
X138590226Y-110560169D01*
X139360395Y-109790000D01*
X139719605Y-109790000D01*
X140489774Y-110560169D01*
X140727611Y-110495869D01*
X140907333Y-109987658D01*
X140886447Y-109592342D01*
X178172667Y-109592342D01*
X178201108Y-110130644D01*
X178352389Y-110495869D01*
X178590226Y-110560169D01*
X179360395Y-109790000D01*
X179719605Y-109790000D01*
X180489774Y-110560169D01*
X180727611Y-110495869D01*
X180907333Y-109987658D01*
X180886447Y-109592342D01*
X218172667Y-109592342D01*
X218201108Y-110130644D01*
X218352389Y-110495869D01*
X218590226Y-110560169D01*
X219360395Y-109790000D01*
X219719605Y-109790000D01*
X220489774Y-110560169D01*
X220727611Y-110495869D01*
X220907333Y-109987658D01*
X220878892Y-109449356D01*
X220727611Y-109084131D01*
X220489774Y-109019831D01*
X219719605Y-109790000D01*
X219360395Y-109790000D01*
X218590226Y-109019831D01*
X218352389Y-109084131D01*
X218172667Y-109592342D01*
X180886447Y-109592342D01*
X180878892Y-109449356D01*
X180727611Y-109084131D01*
X180489774Y-109019831D01*
X179719605Y-109790000D01*
X179360395Y-109790000D01*
X178590226Y-109019831D01*
X178352389Y-109084131D01*
X178172667Y-109592342D01*
X140886447Y-109592342D01*
X140878892Y-109449356D01*
X140727611Y-109084131D01*
X140489774Y-109019831D01*
X139719605Y-109790000D01*
X139360395Y-109790000D01*
X138590226Y-109019831D01*
X138352389Y-109084131D01*
X138172667Y-109592342D01*
X126935000Y-109592342D01*
X126935000Y-108767047D01*
X126942191Y-108777809D01*
X127152235Y-108918157D01*
X127400000Y-108967440D01*
X129800000Y-108967440D01*
X130047765Y-108918157D01*
X130257809Y-108777809D01*
X130274904Y-108752225D01*
X130414899Y-108845767D01*
X130964050Y-108955000D01*
X131835950Y-108955000D01*
X132385101Y-108845767D01*
X132393393Y-108840226D01*
X138769831Y-108840226D01*
X139540000Y-109610395D01*
X140310169Y-108840226D01*
X140245869Y-108602389D01*
X139737658Y-108422667D01*
X139199356Y-108451108D01*
X138834131Y-108602389D01*
X138769831Y-108840226D01*
X132393393Y-108840226D01*
X132850648Y-108534698D01*
X133161717Y-108069151D01*
X133270950Y-107520000D01*
X133270621Y-107518344D01*
X135644765Y-107518344D01*
X135850617Y-108016543D01*
X136231452Y-108398043D01*
X136729291Y-108604764D01*
X137268344Y-108605235D01*
X137766543Y-108399383D01*
X137966500Y-108199774D01*
X141309831Y-108199774D01*
X141374131Y-108437611D01*
X141882342Y-108617333D01*
X142420644Y-108588892D01*
X142785869Y-108437611D01*
X142850169Y-108199774D01*
X142080000Y-107429605D01*
X141309831Y-108199774D01*
X137966500Y-108199774D01*
X138148043Y-108018548D01*
X138354764Y-107520709D01*
X138355173Y-107052342D01*
X140712667Y-107052342D01*
X140741108Y-107590644D01*
X140892389Y-107955869D01*
X141130226Y-108020169D01*
X141900395Y-107250000D01*
X142259605Y-107250000D01*
X143029774Y-108020169D01*
X143267611Y-107955869D01*
X143447333Y-107447658D01*
X143418892Y-106909356D01*
X143267611Y-106544131D01*
X143029774Y-106479831D01*
X142259605Y-107250000D01*
X141900395Y-107250000D01*
X141130226Y-106479831D01*
X140892389Y-106544131D01*
X140712667Y-107052342D01*
X138355173Y-107052342D01*
X138355235Y-106981656D01*
X138149383Y-106483457D01*
X137966472Y-106300226D01*
X141309831Y-106300226D01*
X142080000Y-107070395D01*
X142850169Y-106300226D01*
X142785869Y-106062389D01*
X142277658Y-105882667D01*
X141739356Y-105911108D01*
X141374131Y-106062389D01*
X141309831Y-106300226D01*
X137966472Y-106300226D01*
X137768548Y-106101957D01*
X137270709Y-105895236D01*
X136731656Y-105894765D01*
X136233457Y-106100617D01*
X135851957Y-106481452D01*
X135645236Y-106979291D01*
X135644765Y-107518344D01*
X133270621Y-107518344D01*
X133161717Y-106970849D01*
X132850648Y-106505302D01*
X132468562Y-106250000D01*
X132850648Y-105994698D01*
X133161717Y-105529151D01*
X133270950Y-104980000D01*
X166729050Y-104980000D01*
X166838283Y-105529151D01*
X167149352Y-105994698D01*
X167296648Y-106093118D01*
X167152235Y-106121843D01*
X166942191Y-106262191D01*
X166801843Y-106472235D01*
X166752560Y-106720000D01*
X166752560Y-108320000D01*
X166801843Y-108567765D01*
X166942191Y-108777809D01*
X167152235Y-108918157D01*
X167400000Y-108967440D01*
X169800000Y-108967440D01*
X170047765Y-108918157D01*
X170257809Y-108777809D01*
X170274904Y-108752225D01*
X170414899Y-108845767D01*
X170964050Y-108955000D01*
X171835950Y-108955000D01*
X172385101Y-108845767D01*
X172393393Y-108840226D01*
X178769831Y-108840226D01*
X179540000Y-109610395D01*
X180310169Y-108840226D01*
X180245869Y-108602389D01*
X179737658Y-108422667D01*
X179199356Y-108451108D01*
X178834131Y-108602389D01*
X178769831Y-108840226D01*
X172393393Y-108840226D01*
X172850648Y-108534698D01*
X173161717Y-108069151D01*
X173270950Y-107520000D01*
X173270621Y-107518344D01*
X175644765Y-107518344D01*
X175850617Y-108016543D01*
X176231452Y-108398043D01*
X176729291Y-108604764D01*
X177268344Y-108605235D01*
X177766543Y-108399383D01*
X177966500Y-108199774D01*
X181309831Y-108199774D01*
X181374131Y-108437611D01*
X181882342Y-108617333D01*
X182420644Y-108588892D01*
X182785869Y-108437611D01*
X182850169Y-108199774D01*
X182080000Y-107429605D01*
X181309831Y-108199774D01*
X177966500Y-108199774D01*
X178148043Y-108018548D01*
X178354764Y-107520709D01*
X178355173Y-107052342D01*
X180712667Y-107052342D01*
X180741108Y-107590644D01*
X180892389Y-107955869D01*
X181130226Y-108020169D01*
X181900395Y-107250000D01*
X182259605Y-107250000D01*
X183029774Y-108020169D01*
X183267611Y-107955869D01*
X183447333Y-107447658D01*
X183418892Y-106909356D01*
X183267611Y-106544131D01*
X183029774Y-106479831D01*
X182259605Y-107250000D01*
X181900395Y-107250000D01*
X181130226Y-106479831D01*
X180892389Y-106544131D01*
X180712667Y-107052342D01*
X178355173Y-107052342D01*
X178355235Y-106981656D01*
X178149383Y-106483457D01*
X177966472Y-106300226D01*
X181309831Y-106300226D01*
X182080000Y-107070395D01*
X182850169Y-106300226D01*
X182785869Y-106062389D01*
X182277658Y-105882667D01*
X181739356Y-105911108D01*
X181374131Y-106062389D01*
X181309831Y-106300226D01*
X177966472Y-106300226D01*
X177768548Y-106101957D01*
X177270709Y-105895236D01*
X176731656Y-105894765D01*
X176233457Y-106100617D01*
X175851957Y-106481452D01*
X175645236Y-106979291D01*
X175644765Y-107518344D01*
X173270621Y-107518344D01*
X173161717Y-106970849D01*
X172850648Y-106505302D01*
X172468562Y-106250000D01*
X172850648Y-105994698D01*
X173161717Y-105529151D01*
X173270950Y-104980000D01*
X206729050Y-104980000D01*
X206838283Y-105529151D01*
X207149352Y-105994698D01*
X207296648Y-106093118D01*
X207152235Y-106121843D01*
X206942191Y-106262191D01*
X206801843Y-106472235D01*
X206752560Y-106720000D01*
X206752560Y-108320000D01*
X206801843Y-108567765D01*
X206942191Y-108777809D01*
X207152235Y-108918157D01*
X207400000Y-108967440D01*
X209800000Y-108967440D01*
X210047765Y-108918157D01*
X210257809Y-108777809D01*
X210274904Y-108752225D01*
X210414899Y-108845767D01*
X210964050Y-108955000D01*
X211835950Y-108955000D01*
X212385101Y-108845767D01*
X212393393Y-108840226D01*
X218769831Y-108840226D01*
X219540000Y-109610395D01*
X220310169Y-108840226D01*
X220245869Y-108602389D01*
X219737658Y-108422667D01*
X219199356Y-108451108D01*
X218834131Y-108602389D01*
X218769831Y-108840226D01*
X212393393Y-108840226D01*
X212850648Y-108534698D01*
X213161717Y-108069151D01*
X213270950Y-107520000D01*
X213270621Y-107518344D01*
X215644765Y-107518344D01*
X215850617Y-108016543D01*
X216231452Y-108398043D01*
X216729291Y-108604764D01*
X217268344Y-108605235D01*
X217766543Y-108399383D01*
X217966500Y-108199774D01*
X221309831Y-108199774D01*
X221374131Y-108437611D01*
X221882342Y-108617333D01*
X222420644Y-108588892D01*
X222785869Y-108437611D01*
X222850169Y-108199774D01*
X222080000Y-107429605D01*
X221309831Y-108199774D01*
X217966500Y-108199774D01*
X218148043Y-108018548D01*
X218354764Y-107520709D01*
X218355173Y-107052342D01*
X220712667Y-107052342D01*
X220741108Y-107590644D01*
X220892389Y-107955869D01*
X221130226Y-108020169D01*
X221900395Y-107250000D01*
X222259605Y-107250000D01*
X223029774Y-108020169D01*
X223267611Y-107955869D01*
X223447333Y-107447658D01*
X223418892Y-106909356D01*
X223267611Y-106544131D01*
X223029774Y-106479831D01*
X222259605Y-107250000D01*
X221900395Y-107250000D01*
X221130226Y-106479831D01*
X220892389Y-106544131D01*
X220712667Y-107052342D01*
X218355173Y-107052342D01*
X218355235Y-106981656D01*
X218149383Y-106483457D01*
X217966472Y-106300226D01*
X221309831Y-106300226D01*
X222080000Y-107070395D01*
X222850169Y-106300226D01*
X222785869Y-106062389D01*
X222277658Y-105882667D01*
X221739356Y-105911108D01*
X221374131Y-106062389D01*
X221309831Y-106300226D01*
X217966472Y-106300226D01*
X217768548Y-106101957D01*
X217270709Y-105895236D01*
X216731656Y-105894765D01*
X216233457Y-106100617D01*
X215851957Y-106481452D01*
X215645236Y-106979291D01*
X215644765Y-107518344D01*
X213270621Y-107518344D01*
X213161717Y-106970849D01*
X212850648Y-106505302D01*
X212468562Y-106250000D01*
X212850648Y-105994698D01*
X213161717Y-105529151D01*
X213270950Y-104980000D01*
X246729050Y-104980000D01*
X246838283Y-105529151D01*
X247149352Y-105994698D01*
X247296648Y-106093118D01*
X247152235Y-106121843D01*
X246942191Y-106262191D01*
X246801843Y-106472235D01*
X246752560Y-106720000D01*
X246752560Y-108320000D01*
X246801843Y-108567765D01*
X246942191Y-108777809D01*
X247152235Y-108918157D01*
X247400000Y-108967440D01*
X249800000Y-108967440D01*
X250047765Y-108918157D01*
X250257809Y-108777809D01*
X250274904Y-108752225D01*
X250414899Y-108845767D01*
X250964050Y-108955000D01*
X251835950Y-108955000D01*
X252385101Y-108845767D01*
X252393393Y-108840226D01*
X258769831Y-108840226D01*
X259540000Y-109610395D01*
X260310169Y-108840226D01*
X260245869Y-108602389D01*
X259737658Y-108422667D01*
X259199356Y-108451108D01*
X258834131Y-108602389D01*
X258769831Y-108840226D01*
X252393393Y-108840226D01*
X252850648Y-108534698D01*
X253161717Y-108069151D01*
X253270950Y-107520000D01*
X253270621Y-107518344D01*
X255644765Y-107518344D01*
X255850617Y-108016543D01*
X256231452Y-108398043D01*
X256729291Y-108604764D01*
X257268344Y-108605235D01*
X257766543Y-108399383D01*
X257966500Y-108199774D01*
X261309831Y-108199774D01*
X261374131Y-108437611D01*
X261882342Y-108617333D01*
X262420644Y-108588892D01*
X262785869Y-108437611D01*
X262850169Y-108199774D01*
X262080000Y-107429605D01*
X261309831Y-108199774D01*
X257966500Y-108199774D01*
X258148043Y-108018548D01*
X258354764Y-107520709D01*
X258355173Y-107052342D01*
X260712667Y-107052342D01*
X260741108Y-107590644D01*
X260892389Y-107955869D01*
X261130226Y-108020169D01*
X261900395Y-107250000D01*
X262259605Y-107250000D01*
X263029774Y-108020169D01*
X263267611Y-107955869D01*
X263447333Y-107447658D01*
X263418892Y-106909356D01*
X263267611Y-106544131D01*
X263029774Y-106479831D01*
X262259605Y-107250000D01*
X261900395Y-107250000D01*
X261130226Y-106479831D01*
X260892389Y-106544131D01*
X260712667Y-107052342D01*
X258355173Y-107052342D01*
X258355235Y-106981656D01*
X258149383Y-106483457D01*
X257966472Y-106300226D01*
X261309831Y-106300226D01*
X262080000Y-107070395D01*
X262850169Y-106300226D01*
X262785869Y-106062389D01*
X262277658Y-105882667D01*
X261739356Y-105911108D01*
X261374131Y-106062389D01*
X261309831Y-106300226D01*
X257966472Y-106300226D01*
X257768548Y-106101957D01*
X257270709Y-105895236D01*
X256731656Y-105894765D01*
X256233457Y-106100617D01*
X255851957Y-106481452D01*
X255645236Y-106979291D01*
X255644765Y-107518344D01*
X253270621Y-107518344D01*
X253161717Y-106970849D01*
X252850648Y-106505302D01*
X252468562Y-106250000D01*
X252850648Y-105994698D01*
X253161717Y-105529151D01*
X253270950Y-104980000D01*
X253161717Y-104430849D01*
X252850648Y-103965302D01*
X252385101Y-103654233D01*
X251835950Y-103545000D01*
X250964050Y-103545000D01*
X250414899Y-103654233D01*
X250000000Y-103931460D01*
X249585101Y-103654233D01*
X249035950Y-103545000D01*
X248164050Y-103545000D01*
X247614899Y-103654233D01*
X247149352Y-103965302D01*
X246838283Y-104430849D01*
X246729050Y-104980000D01*
X213270950Y-104980000D01*
X213161717Y-104430849D01*
X212850648Y-103965302D01*
X212385101Y-103654233D01*
X211835950Y-103545000D01*
X210964050Y-103545000D01*
X210414899Y-103654233D01*
X210000000Y-103931460D01*
X209585101Y-103654233D01*
X209035950Y-103545000D01*
X208164050Y-103545000D01*
X207614899Y-103654233D01*
X207149352Y-103965302D01*
X206838283Y-104430849D01*
X206729050Y-104980000D01*
X173270950Y-104980000D01*
X173161717Y-104430849D01*
X172850648Y-103965302D01*
X172385101Y-103654233D01*
X171835950Y-103545000D01*
X170964050Y-103545000D01*
X170414899Y-103654233D01*
X170000000Y-103931460D01*
X169585101Y-103654233D01*
X169035950Y-103545000D01*
X168164050Y-103545000D01*
X167614899Y-103654233D01*
X167149352Y-103965302D01*
X166838283Y-104430849D01*
X166729050Y-104980000D01*
X133270950Y-104980000D01*
X133161717Y-104430849D01*
X132850648Y-103965302D01*
X132385101Y-103654233D01*
X131835950Y-103545000D01*
X130964050Y-103545000D01*
X130414899Y-103654233D01*
X130000000Y-103931460D01*
X129585101Y-103654233D01*
X129035950Y-103545000D01*
X128164050Y-103545000D01*
X127614899Y-103654233D01*
X127149352Y-103965302D01*
X126935000Y-104286102D01*
X126935000Y-99844256D01*
X127215824Y-99563921D01*
X127434750Y-99036689D01*
X127435231Y-98484187D01*
X181564752Y-98484187D01*
X181782757Y-99011800D01*
X182186077Y-99415824D01*
X182713309Y-99634750D01*
X183284187Y-99635248D01*
X183811800Y-99417243D01*
X184215824Y-99013923D01*
X184324034Y-98753324D01*
X184586077Y-99015824D01*
X185113309Y-99234750D01*
X185684187Y-99235248D01*
X186211800Y-99017243D01*
X186615824Y-98613923D01*
X186834750Y-98086691D01*
X186835248Y-97515813D01*
X186617243Y-96988200D01*
X186535000Y-96905813D01*
X186535000Y-95446219D01*
X186582757Y-95561800D01*
X186986077Y-95965824D01*
X187513309Y-96184750D01*
X188084187Y-96185248D01*
X188611800Y-95967243D01*
X189015824Y-95563923D01*
X189065000Y-95445494D01*
X189065000Y-98305742D01*
X188784176Y-98586077D01*
X188565250Y-99113309D01*
X188564752Y-99684187D01*
X188782757Y-100211800D01*
X189186077Y-100615824D01*
X189713309Y-100834750D01*
X190284187Y-100835248D01*
X190811800Y-100617243D01*
X191215824Y-100213923D01*
X191434750Y-99686691D01*
X191435248Y-99115813D01*
X191217243Y-98588200D01*
X190935000Y-98305464D01*
X190935000Y-94684187D01*
X192764750Y-94684187D01*
X192982755Y-95211800D01*
X193386075Y-95615824D01*
X193913307Y-95834750D01*
X194484185Y-95835248D01*
X195011798Y-95617243D01*
X195415822Y-95213923D01*
X195634748Y-94686691D01*
X195635246Y-94115813D01*
X195519187Y-93834930D01*
X195884187Y-93835248D01*
X196411800Y-93617243D01*
X196815824Y-93213923D01*
X197034750Y-92686691D01*
X197035098Y-92287192D01*
X197087280Y-92235010D01*
X197505742Y-92235010D01*
X197786077Y-92515834D01*
X198313309Y-92734760D01*
X198884187Y-92735258D01*
X199411800Y-92517253D01*
X199815824Y-92113933D01*
X200034750Y-91586701D01*
X200035248Y-91015823D01*
X199817243Y-90488210D01*
X199413923Y-90084186D01*
X198886691Y-89865260D01*
X198315813Y-89864762D01*
X197788200Y-90082767D01*
X197505464Y-90365010D01*
X196699990Y-90365010D01*
X196342181Y-90436183D01*
X196038845Y-90638865D01*
X195712612Y-90965098D01*
X195357502Y-90964788D01*
X195887388Y-90434902D01*
X196284187Y-90435248D01*
X196811800Y-90217243D01*
X197215824Y-89813923D01*
X197434750Y-89286691D01*
X197435248Y-88715813D01*
X197217243Y-88188200D01*
X196813923Y-87784176D01*
X196286691Y-87565250D01*
X195715813Y-87564752D01*
X195188200Y-87782757D01*
X194784176Y-88186077D01*
X194565250Y-88713309D01*
X194564902Y-89112808D01*
X193538853Y-90138857D01*
X193336171Y-90442193D01*
X193264998Y-90800002D01*
X193264998Y-93305742D01*
X192984174Y-93586077D01*
X192765248Y-94113309D01*
X192764750Y-94684187D01*
X190935000Y-94684187D01*
X190935000Y-90094258D01*
X191215824Y-89813923D01*
X191434750Y-89286691D01*
X191435248Y-88715813D01*
X191217243Y-88188200D01*
X190813923Y-87784176D01*
X190286691Y-87565250D01*
X189715813Y-87564752D01*
X189188200Y-87782757D01*
X188899851Y-88070603D01*
X188613923Y-87784176D01*
X188086691Y-87565250D01*
X187515813Y-87564752D01*
X186988200Y-87782757D01*
X186699851Y-88070603D01*
X186413923Y-87784176D01*
X185886691Y-87565250D01*
X185315813Y-87564752D01*
X184788200Y-87782757D01*
X184499851Y-88070603D01*
X184213923Y-87784176D01*
X183686691Y-87565250D01*
X183115813Y-87564752D01*
X182588200Y-87782757D01*
X182184176Y-88186077D01*
X181965250Y-88713309D01*
X181964752Y-89284187D01*
X182182757Y-89811800D01*
X182465000Y-90094536D01*
X182465000Y-96868386D01*
X182188200Y-96982757D01*
X181784176Y-97386077D01*
X181565250Y-97913309D01*
X181564752Y-98484187D01*
X127435231Y-98484187D01*
X127435248Y-98465811D01*
X127217243Y-97938198D01*
X126813923Y-97534174D01*
X126286691Y-97315248D01*
X125819252Y-97314840D01*
X125934750Y-97036691D01*
X125935248Y-96465813D01*
X125717243Y-95938200D01*
X125313923Y-95534176D01*
X124786691Y-95315250D01*
X124215813Y-95314752D01*
X123688200Y-95532757D01*
X123284176Y-95936077D01*
X123065250Y-96463309D01*
X123064752Y-97034187D01*
X123282757Y-97561800D01*
X123565000Y-97844536D01*
X123565000Y-101285255D01*
X123563923Y-101284176D01*
X123036691Y-101065250D01*
X122465813Y-101064752D01*
X121938200Y-101282757D01*
X121534176Y-101686077D01*
X121315250Y-102213309D01*
X121314902Y-102612808D01*
X121185000Y-102742710D01*
X121185000Y-101387290D01*
X121387388Y-101184902D01*
X121784187Y-101185248D01*
X122311800Y-100967243D01*
X122715824Y-100563923D01*
X122934750Y-100036691D01*
X122935248Y-99465813D01*
X122717243Y-98938200D01*
X122313923Y-98534176D01*
X121786691Y-98315250D01*
X121215813Y-98314752D01*
X120688200Y-98532757D01*
X120284176Y-98936077D01*
X120065250Y-99463309D01*
X120064902Y-99862808D01*
X119588855Y-100338855D01*
X119386173Y-100642191D01*
X119315000Y-101000000D01*
X119315000Y-101351289D01*
X117285000Y-99321288D01*
X117285000Y-96244430D01*
X117465824Y-96063921D01*
X117684750Y-95536689D01*
X117685248Y-94965811D01*
X117467243Y-94438198D01*
X117063923Y-94034174D01*
X116536691Y-93815248D01*
X115965813Y-93814750D01*
X115438200Y-94032755D01*
X115034176Y-94436075D01*
X114815250Y-94963307D01*
X114814752Y-95534185D01*
X115032757Y-96061798D01*
X115215000Y-96244359D01*
X115215000Y-98435953D01*
X114813923Y-98034176D01*
X114286691Y-97815250D01*
X113715813Y-97814752D01*
X113188200Y-98032757D01*
X112784176Y-98436077D01*
X112565250Y-98963309D01*
X112564752Y-99534187D01*
X112782757Y-100061800D01*
X113065000Y-100344536D01*
X113065000Y-101180814D01*
X112786691Y-101065250D01*
X112215813Y-101064752D01*
X111688200Y-101282757D01*
X111685000Y-101285951D01*
X111685000Y-100344258D01*
X111965824Y-100063923D01*
X112184750Y-99536691D01*
X112185248Y-98965813D01*
X111967243Y-98438200D01*
X111563923Y-98034176D01*
X111036691Y-97815250D01*
X110465813Y-97814752D01*
X109938200Y-98032757D01*
X109534176Y-98436077D01*
X109315250Y-98963309D01*
X109314752Y-99534187D01*
X109532757Y-100061800D01*
X109815000Y-100344536D01*
X109815000Y-102655742D01*
X109534176Y-102936077D01*
X109315250Y-103463309D01*
X109314752Y-104034187D01*
X109532757Y-104561800D01*
X109936077Y-104965824D01*
X110463309Y-105184750D01*
X111034187Y-105185248D01*
X111315000Y-105069219D01*
X111315000Y-107905742D01*
X111034176Y-108186077D01*
X110815250Y-108713309D01*
X110814752Y-109284187D01*
X111032757Y-109811800D01*
X111436077Y-110215824D01*
X111963309Y-110434750D01*
X112534187Y-110435248D01*
X113061800Y-110217243D01*
X113065000Y-110214049D01*
X113065000Y-110655742D01*
X112784176Y-110936077D01*
X112565250Y-111463309D01*
X112564752Y-112034187D01*
X112782757Y-112561800D01*
X113186077Y-112965824D01*
X113713309Y-113184750D01*
X114284187Y-113185248D01*
X114811800Y-112967243D01*
X115215824Y-112563923D01*
X115434750Y-112036691D01*
X115435248Y-111465813D01*
X115217243Y-110938200D01*
X114935000Y-110655464D01*
X114935000Y-100344258D01*
X115215824Y-100063923D01*
X115257486Y-99963591D01*
X115293785Y-100146077D01*
X115518144Y-100481856D01*
X117759375Y-102723086D01*
X117793785Y-102896077D01*
X117815000Y-102927828D01*
X117815000Y-116905744D01*
X117534176Y-117186079D01*
X117315250Y-117713311D01*
X117314752Y-118284189D01*
X117532757Y-118811802D01*
X117936077Y-119215826D01*
X118114708Y-119290000D01*
X70635714Y-119290000D01*
X70811800Y-119217243D01*
X71215824Y-118813923D01*
X71434750Y-118286691D01*
X71435248Y-117715813D01*
X71217243Y-117188200D01*
X70935000Y-116905464D01*
X70935000Y-113094258D01*
X71215824Y-112813923D01*
X71434750Y-112286691D01*
X71435248Y-111715813D01*
X71217243Y-111188200D01*
X71067470Y-111038166D01*
X71306543Y-110939383D01*
X71688043Y-110558548D01*
X71837019Y-110199774D01*
X98769831Y-110199774D01*
X98834131Y-110437611D01*
X99342342Y-110617333D01*
X99880644Y-110588892D01*
X100245869Y-110437611D01*
X100310169Y-110199774D01*
X99540000Y-109429605D01*
X98769831Y-110199774D01*
X71837019Y-110199774D01*
X71894764Y-110060709D01*
X71895235Y-109521656D01*
X71701319Y-109052342D01*
X98172667Y-109052342D01*
X98201108Y-109590644D01*
X98352389Y-109955869D01*
X98590226Y-110020169D01*
X99360395Y-109250000D01*
X99719605Y-109250000D01*
X100489774Y-110020169D01*
X100727611Y-109955869D01*
X100907333Y-109447658D01*
X100878892Y-108909356D01*
X100727611Y-108544131D01*
X100489774Y-108479831D01*
X99719605Y-109250000D01*
X99360395Y-109250000D01*
X98590226Y-108479831D01*
X98352389Y-108544131D01*
X98172667Y-109052342D01*
X71701319Y-109052342D01*
X71689383Y-109023457D01*
X71308548Y-108641957D01*
X70810709Y-108435236D01*
X70271656Y-108434765D01*
X69773457Y-108640617D01*
X69391957Y-109021452D01*
X69185236Y-109519291D01*
X69184765Y-110058344D01*
X69390617Y-110556543D01*
X69491383Y-110657485D01*
X69188200Y-110782757D01*
X68784176Y-111186077D01*
X68565250Y-111713309D01*
X68564752Y-112284187D01*
X68782757Y-112811800D01*
X69065000Y-113094536D01*
X69065000Y-116905742D01*
X68784176Y-117186077D01*
X68565250Y-117713309D01*
X68564752Y-118284187D01*
X68782757Y-118811800D01*
X69186077Y-119215824D01*
X69364713Y-119290000D01*
X32710000Y-119290000D01*
X32710000Y-114442619D01*
X33764613Y-114442619D01*
X34104155Y-115264372D01*
X34732321Y-115893636D01*
X35553481Y-116234611D01*
X36442619Y-116235387D01*
X37264372Y-115895845D01*
X37893636Y-115267679D01*
X38234611Y-114446519D01*
X38235387Y-113557381D01*
X37895845Y-112735628D01*
X37267679Y-112106364D01*
X36446519Y-111765389D01*
X35557381Y-111764613D01*
X34735628Y-112104155D01*
X34106364Y-112732321D01*
X33765389Y-113553481D01*
X33764613Y-114442619D01*
X32710000Y-114442619D01*
X32710000Y-110739774D01*
X58769831Y-110739774D01*
X58834131Y-110977611D01*
X59342342Y-111157333D01*
X59880644Y-111128892D01*
X60245869Y-110977611D01*
X60310169Y-110739774D01*
X59540000Y-109969605D01*
X58769831Y-110739774D01*
X32710000Y-110739774D01*
X32710000Y-109592342D01*
X58172667Y-109592342D01*
X58201108Y-110130644D01*
X58352389Y-110495869D01*
X58590226Y-110560169D01*
X59360395Y-109790000D01*
X59719605Y-109790000D01*
X60489774Y-110560169D01*
X60727611Y-110495869D01*
X60907333Y-109987658D01*
X60878892Y-109449356D01*
X60727611Y-109084131D01*
X60489774Y-109019831D01*
X59719605Y-109790000D01*
X59360395Y-109790000D01*
X58590226Y-109019831D01*
X58352389Y-109084131D01*
X58172667Y-109592342D01*
X32710000Y-109592342D01*
X32710000Y-104980000D01*
X46729050Y-104980000D01*
X46838283Y-105529151D01*
X47149352Y-105994698D01*
X47296648Y-106093118D01*
X47152235Y-106121843D01*
X46942191Y-106262191D01*
X46801843Y-106472235D01*
X46752560Y-106720000D01*
X46752560Y-108320000D01*
X46801843Y-108567765D01*
X46942191Y-108777809D01*
X47152235Y-108918157D01*
X47400000Y-108967440D01*
X49800000Y-108967440D01*
X50047765Y-108918157D01*
X50257809Y-108777809D01*
X50274904Y-108752225D01*
X50414899Y-108845767D01*
X50964050Y-108955000D01*
X51835950Y-108955000D01*
X52385101Y-108845767D01*
X52393393Y-108840226D01*
X58769831Y-108840226D01*
X59540000Y-109610395D01*
X60310169Y-108840226D01*
X60245869Y-108602389D01*
X59737658Y-108422667D01*
X59199356Y-108451108D01*
X58834131Y-108602389D01*
X58769831Y-108840226D01*
X52393393Y-108840226D01*
X52850648Y-108534698D01*
X53161717Y-108069151D01*
X53270950Y-107520000D01*
X53270621Y-107518344D01*
X55644765Y-107518344D01*
X55850617Y-108016543D01*
X56231452Y-108398043D01*
X56729291Y-108604764D01*
X57268344Y-108605235D01*
X57766543Y-108399383D01*
X58148043Y-108018548D01*
X58354764Y-107520709D01*
X58354766Y-107518344D01*
X60724765Y-107518344D01*
X60930617Y-108016543D01*
X61311452Y-108398043D01*
X61809291Y-108604764D01*
X62348344Y-108605235D01*
X62846543Y-108399383D01*
X63046500Y-108199774D01*
X67229831Y-108199774D01*
X67294131Y-108437611D01*
X67802342Y-108617333D01*
X68340644Y-108588892D01*
X68705869Y-108437611D01*
X68770169Y-108199774D01*
X68000000Y-107429605D01*
X67229831Y-108199774D01*
X63046500Y-108199774D01*
X63228043Y-108018548D01*
X63434764Y-107520709D01*
X63435173Y-107052342D01*
X66632667Y-107052342D01*
X66661108Y-107590644D01*
X66812389Y-107955869D01*
X67050226Y-108020169D01*
X67820395Y-107250000D01*
X68179605Y-107250000D01*
X68949774Y-108020169D01*
X69187611Y-107955869D01*
X69342335Y-107518344D01*
X71724765Y-107518344D01*
X71930617Y-108016543D01*
X72311452Y-108398043D01*
X72809291Y-108604764D01*
X73348344Y-108605235D01*
X73846543Y-108399383D01*
X74228043Y-108018548D01*
X74434764Y-107520709D01*
X74435235Y-106981656D01*
X74229383Y-106483457D01*
X73848548Y-106101957D01*
X73350709Y-105895236D01*
X72811656Y-105894765D01*
X72313457Y-106100617D01*
X71931957Y-106481452D01*
X71725236Y-106979291D01*
X71724765Y-107518344D01*
X69342335Y-107518344D01*
X69367333Y-107447658D01*
X69338892Y-106909356D01*
X69187611Y-106544131D01*
X68949774Y-106479831D01*
X68179605Y-107250000D01*
X67820395Y-107250000D01*
X67050226Y-106479831D01*
X66812389Y-106544131D01*
X66632667Y-107052342D01*
X63435173Y-107052342D01*
X63435235Y-106981656D01*
X63229383Y-106483457D01*
X63046472Y-106300226D01*
X67229831Y-106300226D01*
X68000000Y-107070395D01*
X68770169Y-106300226D01*
X68705869Y-106062389D01*
X68197658Y-105882667D01*
X67659356Y-105911108D01*
X67294131Y-106062389D01*
X67229831Y-106300226D01*
X63046472Y-106300226D01*
X62848548Y-106101957D01*
X62350709Y-105895236D01*
X61811656Y-105894765D01*
X61313457Y-106100617D01*
X60931957Y-106481452D01*
X60725236Y-106979291D01*
X60724765Y-107518344D01*
X58354766Y-107518344D01*
X58355235Y-106981656D01*
X58149383Y-106483457D01*
X57768548Y-106101957D01*
X57270709Y-105895236D01*
X56731656Y-105894765D01*
X56233457Y-106100617D01*
X55851957Y-106481452D01*
X55645236Y-106979291D01*
X55644765Y-107518344D01*
X53270621Y-107518344D01*
X53161717Y-106970849D01*
X52850648Y-106505302D01*
X52468562Y-106250000D01*
X52850648Y-105994698D01*
X53161717Y-105529151D01*
X53270950Y-104980000D01*
X86729050Y-104980000D01*
X86838283Y-105529151D01*
X87149352Y-105994698D01*
X87296648Y-106093118D01*
X87152235Y-106121843D01*
X86942191Y-106262191D01*
X86801843Y-106472235D01*
X86752560Y-106720000D01*
X86752560Y-108320000D01*
X86801843Y-108567765D01*
X86942191Y-108777809D01*
X87152235Y-108918157D01*
X87400000Y-108967440D01*
X89800000Y-108967440D01*
X90047765Y-108918157D01*
X90257809Y-108777809D01*
X90274904Y-108752225D01*
X90414899Y-108845767D01*
X90964050Y-108955000D01*
X91835950Y-108955000D01*
X92385101Y-108845767D01*
X92850648Y-108534698D01*
X93007317Y-108300226D01*
X98769831Y-108300226D01*
X99540000Y-109070395D01*
X100310169Y-108300226D01*
X100245869Y-108062389D01*
X99737658Y-107882667D01*
X99199356Y-107911108D01*
X98834131Y-108062389D01*
X98769831Y-108300226D01*
X93007317Y-108300226D01*
X93161717Y-108069151D01*
X93270950Y-107520000D01*
X93163208Y-106978344D01*
X95644765Y-106978344D01*
X95850617Y-107476543D01*
X96231452Y-107858043D01*
X96729291Y-108064764D01*
X97268344Y-108065235D01*
X97766543Y-107859383D01*
X97966500Y-107659774D01*
X101309831Y-107659774D01*
X101374131Y-107897611D01*
X101882342Y-108077333D01*
X102420644Y-108048892D01*
X102785869Y-107897611D01*
X102850169Y-107659774D01*
X102080000Y-106889605D01*
X101309831Y-107659774D01*
X97966500Y-107659774D01*
X98148043Y-107478548D01*
X98354764Y-106980709D01*
X98355173Y-106512342D01*
X100712667Y-106512342D01*
X100741108Y-107050644D01*
X100892389Y-107415869D01*
X101130226Y-107480169D01*
X101900395Y-106710000D01*
X102259605Y-106710000D01*
X103029774Y-107480169D01*
X103267611Y-107415869D01*
X103447333Y-106907658D01*
X103418892Y-106369356D01*
X103267611Y-106004131D01*
X103029774Y-105939831D01*
X102259605Y-106710000D01*
X101900395Y-106710000D01*
X101130226Y-105939831D01*
X100892389Y-106004131D01*
X100712667Y-106512342D01*
X98355173Y-106512342D01*
X98355235Y-106441656D01*
X98149383Y-105943457D01*
X97966472Y-105760226D01*
X101309831Y-105760226D01*
X102080000Y-106530395D01*
X102850169Y-105760226D01*
X102785869Y-105522389D01*
X102277658Y-105342667D01*
X101739356Y-105371108D01*
X101374131Y-105522389D01*
X101309831Y-105760226D01*
X97966472Y-105760226D01*
X97768548Y-105561957D01*
X97270709Y-105355236D01*
X96731656Y-105354765D01*
X96233457Y-105560617D01*
X95851957Y-105941452D01*
X95645236Y-106439291D01*
X95644765Y-106978344D01*
X93163208Y-106978344D01*
X93161717Y-106970849D01*
X92850648Y-106505302D01*
X92468562Y-106250000D01*
X92850648Y-105994698D01*
X93161717Y-105529151D01*
X93270950Y-104980000D01*
X93161717Y-104430849D01*
X92850648Y-103965302D01*
X92385101Y-103654233D01*
X91835950Y-103545000D01*
X90964050Y-103545000D01*
X90414899Y-103654233D01*
X90000000Y-103931460D01*
X89585101Y-103654233D01*
X89035950Y-103545000D01*
X88164050Y-103545000D01*
X87614899Y-103654233D01*
X87149352Y-103965302D01*
X86838283Y-104430849D01*
X86729050Y-104980000D01*
X53270950Y-104980000D01*
X53161717Y-104430849D01*
X52850648Y-103965302D01*
X52385101Y-103654233D01*
X51835950Y-103545000D01*
X50964050Y-103545000D01*
X50414899Y-103654233D01*
X50000000Y-103931460D01*
X49585101Y-103654233D01*
X49035950Y-103545000D01*
X48164050Y-103545000D01*
X47614899Y-103654233D01*
X47149352Y-103965302D01*
X46838283Y-104430849D01*
X46729050Y-104980000D01*
X32710000Y-104980000D01*
X32710000Y-102136007D01*
X32908361Y-102191135D01*
X33143000Y-102031491D01*
X33143000Y-100827000D01*
X33397000Y-100827000D01*
X33397000Y-102031491D01*
X33631639Y-102191135D01*
X34193774Y-102034907D01*
X34653333Y-101675451D01*
X34940352Y-101167491D01*
X34961476Y-101056890D01*
X34840155Y-100827000D01*
X33397000Y-100827000D01*
X33143000Y-100827000D01*
X33123000Y-100827000D01*
X33123000Y-100573000D01*
X33143000Y-100573000D01*
X33143000Y-100553000D01*
X33397000Y-100553000D01*
X33397000Y-100573000D01*
X34840155Y-100573000D01*
X34961476Y-100343110D01*
X34940352Y-100232509D01*
X34653333Y-99724549D01*
X34275888Y-99429321D01*
X34604045Y-99210054D01*
X34925952Y-98728285D01*
X35038991Y-98160000D01*
X34925952Y-97591715D01*
X34604045Y-97109946D01*
X34274872Y-96890000D01*
X34604045Y-96670054D01*
X34925952Y-96188285D01*
X35038991Y-95620000D01*
X35021922Y-95534187D01*
X104064752Y-95534187D01*
X104282757Y-96061800D01*
X104565000Y-96344536D01*
X104565000Y-101155742D01*
X104284176Y-101436077D01*
X104065250Y-101963309D01*
X104064752Y-102534187D01*
X104282757Y-103061800D01*
X104686077Y-103465824D01*
X105213309Y-103684750D01*
X105784187Y-103685248D01*
X106311800Y-103467243D01*
X106715824Y-103063923D01*
X106934750Y-102536691D01*
X106935248Y-101965813D01*
X106717243Y-101438200D01*
X106435000Y-101155464D01*
X106435000Y-96344258D01*
X106715824Y-96063923D01*
X106934750Y-95536691D01*
X106935248Y-94965813D01*
X106717243Y-94438200D01*
X106313923Y-94034176D01*
X105786691Y-93815250D01*
X105215813Y-93814752D01*
X104688200Y-94032757D01*
X104284176Y-94436077D01*
X104065250Y-94963309D01*
X104064752Y-95534187D01*
X35021922Y-95534187D01*
X34925952Y-95051715D01*
X34604045Y-94569946D01*
X34274872Y-94350000D01*
X34604045Y-94130054D01*
X34925952Y-93648285D01*
X35038991Y-93080000D01*
X34925952Y-92511715D01*
X34604045Y-92029946D01*
X34274872Y-91810000D01*
X34604045Y-91590054D01*
X34925952Y-91108285D01*
X35038991Y-90540000D01*
X34925952Y-89971715D01*
X34604045Y-89489946D01*
X34558247Y-89459345D01*
X34729698Y-89388327D01*
X34908327Y-89209699D01*
X34960315Y-89084187D01*
X125364752Y-89084187D01*
X125582757Y-89611800D01*
X125865000Y-89894536D01*
X125865000Y-92105742D01*
X125584176Y-92386077D01*
X125365250Y-92913309D01*
X125364752Y-93484187D01*
X125582757Y-94011800D01*
X125986077Y-94415824D01*
X126513309Y-94634750D01*
X127084187Y-94635248D01*
X127611800Y-94417243D01*
X128015824Y-94013923D01*
X128234750Y-93486691D01*
X128235248Y-92915813D01*
X128017243Y-92388200D01*
X127735000Y-92105464D01*
X127735000Y-89894258D01*
X128015824Y-89613923D01*
X128234750Y-89086691D01*
X128235248Y-88515813D01*
X128017243Y-87988200D01*
X127613923Y-87584176D01*
X127086691Y-87365250D01*
X126515813Y-87364752D01*
X125988200Y-87582757D01*
X125584176Y-87986077D01*
X125365250Y-88513309D01*
X125364752Y-89084187D01*
X34960315Y-89084187D01*
X35005000Y-88976310D01*
X35005000Y-88285750D01*
X34846250Y-88127000D01*
X33397000Y-88127000D01*
X33397000Y-88147000D01*
X33143000Y-88147000D01*
X33143000Y-88127000D01*
X33123000Y-88127000D01*
X33123000Y-87873000D01*
X33143000Y-87873000D01*
X33143000Y-86673750D01*
X33397000Y-86673750D01*
X33397000Y-87873000D01*
X34846250Y-87873000D01*
X35005000Y-87714250D01*
X35005000Y-87023690D01*
X34908327Y-86790301D01*
X34729698Y-86611673D01*
X34496309Y-86515000D01*
X33555750Y-86515000D01*
X33397000Y-86673750D01*
X33143000Y-86673750D01*
X32984250Y-86515000D01*
X32710000Y-86515000D01*
X32710000Y-85084187D01*
X207364752Y-85084187D01*
X207582757Y-85611800D01*
X207865000Y-85894536D01*
X207865000Y-93105742D01*
X207584176Y-93386077D01*
X207365250Y-93913309D01*
X207364752Y-94484187D01*
X207582757Y-95011800D01*
X207986077Y-95415824D01*
X208513309Y-95634750D01*
X209084187Y-95635248D01*
X209611800Y-95417243D01*
X209665000Y-95364136D01*
X209665000Y-97705742D01*
X209384176Y-97986077D01*
X209165250Y-98513309D01*
X209164752Y-99084187D01*
X209382757Y-99611800D01*
X209786077Y-100015824D01*
X210313309Y-100234750D01*
X210884187Y-100235248D01*
X211411800Y-100017243D01*
X211815824Y-99613923D01*
X212034750Y-99086691D01*
X212035248Y-98515813D01*
X211817243Y-97988200D01*
X211658098Y-97828777D01*
X211913309Y-97934750D01*
X212484187Y-97935248D01*
X213011800Y-97717243D01*
X213415824Y-97313923D01*
X213634750Y-96786691D01*
X213634752Y-96784187D01*
X264814752Y-96784187D01*
X265032757Y-97311800D01*
X265315000Y-97594536D01*
X265315000Y-102405742D01*
X265034176Y-102686077D01*
X264815250Y-103213309D01*
X264814752Y-103784187D01*
X265032757Y-104311800D01*
X265436077Y-104715824D01*
X265963309Y-104934750D01*
X266534187Y-104935248D01*
X267061800Y-104717243D01*
X267465824Y-104313923D01*
X267684750Y-103786691D01*
X267685248Y-103215813D01*
X267467243Y-102688200D01*
X267185000Y-102405464D01*
X267185000Y-98284187D01*
X267314752Y-98284187D01*
X267532757Y-98811800D01*
X267815000Y-99094536D01*
X267815000Y-111405742D01*
X267534176Y-111686077D01*
X267315250Y-112213309D01*
X267314752Y-112784187D01*
X267532757Y-113311800D01*
X267936077Y-113715824D01*
X268463309Y-113934750D01*
X269034187Y-113935248D01*
X269561800Y-113717243D01*
X269965824Y-113313923D01*
X270184750Y-112786691D01*
X270185248Y-112215813D01*
X269967243Y-111688200D01*
X269685000Y-111405464D01*
X269685000Y-110214745D01*
X269686077Y-110215824D01*
X270213309Y-110434750D01*
X270784187Y-110435248D01*
X271311800Y-110217243D01*
X271715824Y-109813923D01*
X271934750Y-109286691D01*
X271935098Y-108887192D01*
X272368773Y-108453517D01*
X272571455Y-108150181D01*
X272642628Y-107792372D01*
X272642628Y-103674248D01*
X272923452Y-103393913D01*
X273142378Y-102866681D01*
X273142876Y-102295803D01*
X272924871Y-101768190D01*
X272521551Y-101364166D01*
X271994319Y-101145240D01*
X271423441Y-101144742D01*
X270895828Y-101362747D01*
X270491804Y-101766067D01*
X270272878Y-102293299D01*
X270272380Y-102864177D01*
X270490385Y-103391790D01*
X270772628Y-103674526D01*
X270772628Y-107405082D01*
X270612612Y-107565098D01*
X270215813Y-107564752D01*
X269688200Y-107782757D01*
X269685000Y-107785951D01*
X269685000Y-99094258D01*
X269965824Y-98813923D01*
X270184750Y-98286691D01*
X270185248Y-97715813D01*
X269967243Y-97188200D01*
X269563923Y-96784176D01*
X269036691Y-96565250D01*
X268465813Y-96564752D01*
X267938200Y-96782757D01*
X267534176Y-97186077D01*
X267315250Y-97713309D01*
X267314752Y-98284187D01*
X267185000Y-98284187D01*
X267185000Y-97594258D01*
X267465824Y-97313923D01*
X267684750Y-96786691D01*
X267685248Y-96215813D01*
X267467243Y-95688200D01*
X267063923Y-95284176D01*
X266536691Y-95065250D01*
X265965813Y-95064752D01*
X265438200Y-95282757D01*
X265034176Y-95686077D01*
X264815250Y-96213309D01*
X264814752Y-96784187D01*
X213634752Y-96784187D01*
X213635248Y-96215813D01*
X213417243Y-95688200D01*
X213135000Y-95405464D01*
X213135000Y-94877662D01*
X213513309Y-95034750D01*
X214084187Y-95035248D01*
X214611800Y-94817243D01*
X215015824Y-94413923D01*
X215234750Y-93886691D01*
X215235248Y-93315813D01*
X215017243Y-92788200D01*
X214735000Y-92505464D01*
X214735000Y-88835118D01*
X214884187Y-88835248D01*
X215411800Y-88617243D01*
X215815824Y-88213923D01*
X216034750Y-87686691D01*
X216035248Y-87115813D01*
X215997184Y-87023690D01*
X344995000Y-87023690D01*
X344995000Y-87714250D01*
X345153750Y-87873000D01*
X346603000Y-87873000D01*
X346603000Y-86673750D01*
X346444250Y-86515000D01*
X345503691Y-86515000D01*
X345270302Y-86611673D01*
X345091673Y-86790301D01*
X344995000Y-87023690D01*
X215997184Y-87023690D01*
X215817243Y-86588200D01*
X215413923Y-86184176D01*
X214886691Y-85965250D01*
X214315813Y-85964752D01*
X213788200Y-86182757D01*
X213600026Y-86370603D01*
X213413923Y-86184176D01*
X212886691Y-85965250D01*
X212315813Y-85964752D01*
X211788200Y-86182757D01*
X211600026Y-86370603D01*
X211413923Y-86184176D01*
X210886691Y-85965250D01*
X210315813Y-85964752D01*
X209788200Y-86182757D01*
X209735000Y-86235864D01*
X209735000Y-85894258D01*
X210015824Y-85613923D01*
X210234750Y-85086691D01*
X210235248Y-84515813D01*
X210017243Y-83988200D01*
X209613923Y-83584176D01*
X209086691Y-83365250D01*
X208515813Y-83364752D01*
X207988200Y-83582757D01*
X207584176Y-83986077D01*
X207365250Y-84513309D01*
X207364752Y-85084187D01*
X32710000Y-85084187D01*
X32710000Y-77442619D01*
X33764613Y-77442619D01*
X34104155Y-78264372D01*
X34732321Y-78893636D01*
X35553481Y-79234611D01*
X36442619Y-79235387D01*
X37264372Y-78895845D01*
X37893636Y-78267679D01*
X38234611Y-77446519D01*
X38234614Y-77442619D01*
X138764613Y-77442619D01*
X139104155Y-78264372D01*
X139732321Y-78893636D01*
X140553481Y-79234611D01*
X141442619Y-79235387D01*
X142264372Y-78895845D01*
X142666830Y-78494089D01*
X149114743Y-78494089D01*
X149340344Y-79040086D01*
X149757717Y-79458188D01*
X149785557Y-79469748D01*
X149759914Y-79480344D01*
X149341812Y-79897717D01*
X149115258Y-80443319D01*
X149114743Y-81034089D01*
X149340344Y-81580086D01*
X149757717Y-81998188D01*
X150303319Y-82224742D01*
X150894089Y-82225257D01*
X151440086Y-81999656D01*
X151858188Y-81582283D01*
X151869748Y-81554443D01*
X151880344Y-81580086D01*
X152297717Y-81998188D01*
X152843319Y-82224742D01*
X153434089Y-82225257D01*
X153980086Y-81999656D01*
X154398188Y-81582283D01*
X154409748Y-81554443D01*
X154420344Y-81580086D01*
X154837717Y-81998188D01*
X155383319Y-82224742D01*
X155974089Y-82225257D01*
X156520086Y-81999656D01*
X156938188Y-81582283D01*
X156949748Y-81554443D01*
X156960344Y-81580086D01*
X157377717Y-81998188D01*
X157923319Y-82224742D01*
X158514089Y-82225257D01*
X159060086Y-81999656D01*
X159478188Y-81582283D01*
X159489748Y-81554443D01*
X159500344Y-81580086D01*
X159917717Y-81998188D01*
X160463319Y-82224742D01*
X161054089Y-82225257D01*
X161600086Y-81999656D01*
X162018188Y-81582283D01*
X162244742Y-81036681D01*
X162245257Y-80445911D01*
X162019656Y-79899914D01*
X161783153Y-79662998D01*
X161857765Y-79648157D01*
X162067809Y-79507809D01*
X162208157Y-79297765D01*
X162257440Y-79050000D01*
X162257440Y-77442619D01*
X239764613Y-77442619D01*
X240104155Y-78264372D01*
X240732321Y-78893636D01*
X241553481Y-79234611D01*
X242442619Y-79235387D01*
X243264372Y-78895845D01*
X243893636Y-78267679D01*
X244234611Y-77446519D01*
X244234614Y-77442619D01*
X341764613Y-77442619D01*
X342104155Y-78264372D01*
X342732321Y-78893636D01*
X343553481Y-79234611D01*
X344442619Y-79235387D01*
X345264372Y-78895845D01*
X345893636Y-78267679D01*
X346234611Y-77446519D01*
X346235387Y-76557381D01*
X345895845Y-75735628D01*
X345267679Y-75106364D01*
X344446519Y-74765389D01*
X343557381Y-74764613D01*
X342735628Y-75104155D01*
X342106364Y-75732321D01*
X341765389Y-76553481D01*
X341764613Y-77442619D01*
X244234614Y-77442619D01*
X244235387Y-76557381D01*
X243895845Y-75735628D01*
X243267679Y-75106364D01*
X242446519Y-74765389D01*
X241557381Y-74764613D01*
X240735628Y-75104155D01*
X240106364Y-75732321D01*
X239765389Y-76553481D01*
X239764613Y-77442619D01*
X162257440Y-77442619D01*
X162257440Y-77350000D01*
X162208157Y-77102235D01*
X162067809Y-76892191D01*
X161857765Y-76751843D01*
X161610000Y-76702560D01*
X159910000Y-76702560D01*
X159662235Y-76751843D01*
X159452191Y-76892191D01*
X159311843Y-77102235D01*
X159296986Y-77176925D01*
X159062283Y-76941812D01*
X158516681Y-76715258D01*
X157925911Y-76714743D01*
X157379914Y-76940344D01*
X156961812Y-77357717D01*
X156950252Y-77385557D01*
X156939656Y-77359914D01*
X156522283Y-76941812D01*
X155976681Y-76715258D01*
X155385911Y-76714743D01*
X154839914Y-76940344D01*
X154421812Y-77357717D01*
X154410252Y-77385557D01*
X154399656Y-77359914D01*
X153982283Y-76941812D01*
X153436681Y-76715258D01*
X152845911Y-76714743D01*
X152299914Y-76940344D01*
X151881812Y-77357717D01*
X151870252Y-77385557D01*
X151859656Y-77359914D01*
X151442283Y-76941812D01*
X150896681Y-76715258D01*
X150305911Y-76714743D01*
X149759914Y-76940344D01*
X149341812Y-77357717D01*
X149115258Y-77903319D01*
X149114743Y-78494089D01*
X142666830Y-78494089D01*
X142893636Y-78267679D01*
X143234611Y-77446519D01*
X143235387Y-76557381D01*
X142895845Y-75735628D01*
X142267679Y-75106364D01*
X141446519Y-74765389D01*
X140557381Y-74764613D01*
X139735628Y-75104155D01*
X139106364Y-75732321D01*
X138765389Y-76553481D01*
X138764613Y-77442619D01*
X38234614Y-77442619D01*
X38235387Y-76557381D01*
X37895845Y-75735628D01*
X37267679Y-75106364D01*
X36446519Y-74765389D01*
X35557381Y-74764613D01*
X34735628Y-75104155D01*
X34106364Y-75732321D01*
X33765389Y-76553481D01*
X33764613Y-77442619D01*
X32710000Y-77442619D01*
X32710000Y-71710000D01*
X347290000Y-71710000D01*
X347290000Y-86515000D01*
X347290000Y-86515000D01*
G37*
X347290000Y-86515000D02*
X347015750Y-86515000D01*
X346857000Y-86673750D01*
X346857000Y-87873000D01*
X346877000Y-87873000D01*
X346877000Y-88127000D01*
X346857000Y-88127000D01*
X346857000Y-88147000D01*
X346603000Y-88147000D01*
X346603000Y-88127000D01*
X345153750Y-88127000D01*
X344995000Y-88285750D01*
X344995000Y-88976310D01*
X345091673Y-89209699D01*
X345270302Y-89388327D01*
X345441753Y-89459345D01*
X345395955Y-89489946D01*
X345074048Y-89971715D01*
X344961009Y-90540000D01*
X345074048Y-91108285D01*
X345395955Y-91590054D01*
X345725128Y-91810000D01*
X345395955Y-92029946D01*
X345074048Y-92511715D01*
X344961009Y-93080000D01*
X345074048Y-93648285D01*
X345395955Y-94130054D01*
X345725128Y-94350000D01*
X345395955Y-94569946D01*
X345074048Y-95051715D01*
X344961009Y-95620000D01*
X345074048Y-96188285D01*
X345395955Y-96670054D01*
X345725128Y-96890000D01*
X345395955Y-97109946D01*
X345074048Y-97591715D01*
X344961009Y-98160000D01*
X345074048Y-98728285D01*
X345395955Y-99210054D01*
X345724112Y-99429321D01*
X345346667Y-99724549D01*
X345059648Y-100232509D01*
X345038524Y-100343110D01*
X345159845Y-100573000D01*
X346603000Y-100573000D01*
X346603000Y-100553000D01*
X346857000Y-100553000D01*
X346857000Y-100573000D01*
X346877000Y-100573000D01*
X346877000Y-100827000D01*
X346857000Y-100827000D01*
X346857000Y-102031491D01*
X347091639Y-102191135D01*
X347290000Y-102136007D01*
X347290000Y-119290000D01*
X276885714Y-119290000D01*
X277061800Y-119217243D01*
X277465824Y-118813923D01*
X277684750Y-118286691D01*
X277685248Y-117715813D01*
X277467243Y-117188200D01*
X277185006Y-116905470D01*
X277185006Y-114442619D01*
X341764613Y-114442619D01*
X342104155Y-115264372D01*
X342732321Y-115893636D01*
X343553481Y-116234611D01*
X344442619Y-116235387D01*
X345264372Y-115895845D01*
X345893636Y-115267679D01*
X346234611Y-114446519D01*
X346235387Y-113557381D01*
X345895845Y-112735628D01*
X345267679Y-112106364D01*
X344446519Y-111765389D01*
X343557381Y-111764613D01*
X342735628Y-112104155D01*
X342106364Y-112732321D01*
X341765389Y-113553481D01*
X341764613Y-114442619D01*
X277185006Y-114442619D01*
X277185006Y-100325220D01*
X277282757Y-100561796D01*
X277565000Y-100844532D01*
X277565000Y-106750000D01*
X277636173Y-107107809D01*
X277838855Y-107411145D01*
X279315098Y-108887388D01*
X279314752Y-109284187D01*
X279532757Y-109811800D01*
X279936077Y-110215824D01*
X280463309Y-110434750D01*
X281034187Y-110435248D01*
X281561800Y-110217243D01*
X281965824Y-109813923D01*
X282184750Y-109286691D01*
X282185248Y-108715813D01*
X281967243Y-108188200D01*
X281563923Y-107784176D01*
X281036691Y-107565250D01*
X280637192Y-107564902D01*
X280110570Y-107038280D01*
X280463309Y-107184750D01*
X281034187Y-107185248D01*
X281561800Y-106967243D01*
X281965824Y-106563923D01*
X282184750Y-106036691D01*
X282185098Y-105637191D01*
X282887387Y-104934902D01*
X283284187Y-104935248D01*
X283811800Y-104717243D01*
X283815000Y-104714049D01*
X283815000Y-111405744D01*
X283534176Y-111686079D01*
X283315250Y-112213311D01*
X283314752Y-112784189D01*
X283532757Y-113311802D01*
X283936077Y-113715826D01*
X284463309Y-113934752D01*
X285034187Y-113935250D01*
X285561800Y-113717245D01*
X285965824Y-113313925D01*
X286184750Y-112786693D01*
X286185248Y-112215815D01*
X285967243Y-111688202D01*
X285685000Y-111405466D01*
X285685000Y-104980000D01*
X286729050Y-104980000D01*
X286838283Y-105529151D01*
X287149352Y-105994698D01*
X287296648Y-106093118D01*
X287152235Y-106121843D01*
X286942191Y-106262191D01*
X286801843Y-106472235D01*
X286752560Y-106720000D01*
X286752560Y-108320000D01*
X286801843Y-108567765D01*
X286942191Y-108777809D01*
X287152235Y-108918157D01*
X287400000Y-108967440D01*
X289800000Y-108967440D01*
X290047765Y-108918157D01*
X290257809Y-108777809D01*
X290274904Y-108752225D01*
X290390785Y-108829654D01*
X290284176Y-108936077D01*
X290065250Y-109463309D01*
X290064752Y-110034187D01*
X290282757Y-110561800D01*
X290686077Y-110965824D01*
X291213309Y-111184750D01*
X291784187Y-111185248D01*
X292311800Y-110967243D01*
X292539666Y-110739774D01*
X298769831Y-110739774D01*
X298834131Y-110977611D01*
X299342342Y-111157333D01*
X299880644Y-111128892D01*
X300245869Y-110977611D01*
X300310169Y-110739774D01*
X319689831Y-110739774D01*
X319754131Y-110977611D01*
X320262342Y-111157333D01*
X320800644Y-111128892D01*
X321165869Y-110977611D01*
X321230169Y-110739774D01*
X320460000Y-109969605D01*
X319689831Y-110739774D01*
X300310169Y-110739774D01*
X299540000Y-109969605D01*
X298769831Y-110739774D01*
X292539666Y-110739774D01*
X292715824Y-110563923D01*
X292934750Y-110036691D01*
X292935137Y-109592342D01*
X298172667Y-109592342D01*
X298201108Y-110130644D01*
X298352389Y-110495869D01*
X298590226Y-110560169D01*
X299360395Y-109790000D01*
X299719605Y-109790000D01*
X300489774Y-110560169D01*
X300727611Y-110495869D01*
X300907333Y-109987658D01*
X300886447Y-109592342D01*
X319092667Y-109592342D01*
X319121108Y-110130644D01*
X319272389Y-110495869D01*
X319510226Y-110560169D01*
X320280395Y-109790000D01*
X320639605Y-109790000D01*
X321409774Y-110560169D01*
X321647611Y-110495869D01*
X321827333Y-109987658D01*
X321798892Y-109449356D01*
X321647611Y-109084131D01*
X321409774Y-109019831D01*
X320639605Y-109790000D01*
X320280395Y-109790000D01*
X319510226Y-109019831D01*
X319272389Y-109084131D01*
X319092667Y-109592342D01*
X300886447Y-109592342D01*
X300878892Y-109449356D01*
X300727611Y-109084131D01*
X300489774Y-109019831D01*
X299719605Y-109790000D01*
X299360395Y-109790000D01*
X298590226Y-109019831D01*
X298352389Y-109084131D01*
X298172667Y-109592342D01*
X292935137Y-109592342D01*
X292935248Y-109465813D01*
X292717243Y-108938200D01*
X292619440Y-108840226D01*
X298769831Y-108840226D01*
X299540000Y-109610395D01*
X300310169Y-108840226D01*
X319689831Y-108840226D01*
X320460000Y-109610395D01*
X321230169Y-108840226D01*
X321165869Y-108602389D01*
X320657658Y-108422667D01*
X320119356Y-108451108D01*
X319754131Y-108602389D01*
X319689831Y-108840226D01*
X300310169Y-108840226D01*
X300245869Y-108602389D01*
X299737658Y-108422667D01*
X299199356Y-108451108D01*
X298834131Y-108602389D01*
X298769831Y-108840226D01*
X292619440Y-108840226D01*
X292528993Y-108749621D01*
X292850648Y-108534698D01*
X293161717Y-108069151D01*
X293270950Y-107520000D01*
X293270621Y-107518344D01*
X295644765Y-107518344D01*
X295850617Y-108016543D01*
X296231452Y-108398043D01*
X296729291Y-108604764D01*
X297268344Y-108605235D01*
X297766543Y-108399383D01*
X297966500Y-108199774D01*
X301309831Y-108199774D01*
X301374131Y-108437611D01*
X301882342Y-108617333D01*
X302420644Y-108588892D01*
X302785869Y-108437611D01*
X302850169Y-108199774D01*
X302080000Y-107429605D01*
X301309831Y-108199774D01*
X297966500Y-108199774D01*
X298148043Y-108018548D01*
X298354764Y-107520709D01*
X298355173Y-107052342D01*
X300712667Y-107052342D01*
X300741108Y-107590644D01*
X300892389Y-107955869D01*
X301130226Y-108020169D01*
X301900395Y-107250000D01*
X302259605Y-107250000D01*
X303029774Y-108020169D01*
X303267611Y-107955869D01*
X303422335Y-107518344D01*
X316564765Y-107518344D01*
X316770617Y-108016543D01*
X317151452Y-108398043D01*
X317649291Y-108604764D01*
X318188344Y-108605235D01*
X318686543Y-108399383D01*
X318886500Y-108199774D01*
X322229831Y-108199774D01*
X322294131Y-108437611D01*
X322802342Y-108617333D01*
X323340644Y-108588892D01*
X323705869Y-108437611D01*
X323770169Y-108199774D01*
X323000000Y-107429605D01*
X322229831Y-108199774D01*
X318886500Y-108199774D01*
X319068043Y-108018548D01*
X319274764Y-107520709D01*
X319275173Y-107052342D01*
X321632667Y-107052342D01*
X321661108Y-107590644D01*
X321812389Y-107955869D01*
X322050226Y-108020169D01*
X322820395Y-107250000D01*
X323179605Y-107250000D01*
X323949774Y-108020169D01*
X324187611Y-107955869D01*
X324367333Y-107447658D01*
X324338892Y-106909356D01*
X324187611Y-106544131D01*
X323949774Y-106479831D01*
X323179605Y-107250000D01*
X322820395Y-107250000D01*
X322050226Y-106479831D01*
X321812389Y-106544131D01*
X321632667Y-107052342D01*
X319275173Y-107052342D01*
X319275235Y-106981656D01*
X319069383Y-106483457D01*
X318886472Y-106300226D01*
X322229831Y-106300226D01*
X323000000Y-107070395D01*
X323770169Y-106300226D01*
X323705869Y-106062389D01*
X323197658Y-105882667D01*
X322659356Y-105911108D01*
X322294131Y-106062389D01*
X322229831Y-106300226D01*
X318886472Y-106300226D01*
X318688548Y-106101957D01*
X318190709Y-105895236D01*
X317651656Y-105894765D01*
X317153457Y-106100617D01*
X316771957Y-106481452D01*
X316565236Y-106979291D01*
X316564765Y-107518344D01*
X303422335Y-107518344D01*
X303447333Y-107447658D01*
X303418892Y-106909356D01*
X303267611Y-106544131D01*
X303029774Y-106479831D01*
X302259605Y-107250000D01*
X301900395Y-107250000D01*
X301130226Y-106479831D01*
X300892389Y-106544131D01*
X300712667Y-107052342D01*
X298355173Y-107052342D01*
X298355235Y-106981656D01*
X298149383Y-106483457D01*
X297966472Y-106300226D01*
X301309831Y-106300226D01*
X302080000Y-107070395D01*
X302850169Y-106300226D01*
X302785869Y-106062389D01*
X302277658Y-105882667D01*
X301739356Y-105911108D01*
X301374131Y-106062389D01*
X301309831Y-106300226D01*
X297966472Y-106300226D01*
X297768548Y-106101957D01*
X297270709Y-105895236D01*
X296731656Y-105894765D01*
X296233457Y-106100617D01*
X295851957Y-106481452D01*
X295645236Y-106979291D01*
X295644765Y-107518344D01*
X293270621Y-107518344D01*
X293161717Y-106970849D01*
X292850648Y-106505302D01*
X292468562Y-106250000D01*
X292850648Y-105994698D01*
X293161717Y-105529151D01*
X293270950Y-104980000D01*
X326729050Y-104980000D01*
X326838283Y-105529151D01*
X327149352Y-105994698D01*
X327296648Y-106093118D01*
X327152235Y-106121843D01*
X326942191Y-106262191D01*
X326801843Y-106472235D01*
X326752560Y-106720000D01*
X326752560Y-108320000D01*
X326801843Y-108567765D01*
X326942191Y-108777809D01*
X327152235Y-108918157D01*
X327400000Y-108967440D01*
X329800000Y-108967440D01*
X330047765Y-108918157D01*
X330257809Y-108777809D01*
X330274904Y-108752225D01*
X330414899Y-108845767D01*
X330964050Y-108955000D01*
X331835950Y-108955000D01*
X332385101Y-108845767D01*
X332850648Y-108534698D01*
X333161717Y-108069151D01*
X333270950Y-107520000D01*
X333161717Y-106970849D01*
X332850648Y-106505302D01*
X332468562Y-106250000D01*
X332850648Y-105994698D01*
X333161717Y-105529151D01*
X333270950Y-104980000D01*
X333161717Y-104430849D01*
X332850648Y-103965302D01*
X332385101Y-103654233D01*
X331835950Y-103545000D01*
X330964050Y-103545000D01*
X330414899Y-103654233D01*
X330000000Y-103931460D01*
X329585101Y-103654233D01*
X329035950Y-103545000D01*
X328164050Y-103545000D01*
X327614899Y-103654233D01*
X327149352Y-103965302D01*
X326838283Y-104430849D01*
X326729050Y-104980000D01*
X293270950Y-104980000D01*
X293161717Y-104430849D01*
X292850648Y-103965302D01*
X292385101Y-103654233D01*
X291835950Y-103545000D01*
X290964050Y-103545000D01*
X290414899Y-103654233D01*
X290000000Y-103931460D01*
X289585101Y-103654233D01*
X289035950Y-103545000D01*
X288164050Y-103545000D01*
X287614899Y-103654233D01*
X287149352Y-103965302D01*
X286838283Y-104430849D01*
X286729050Y-104980000D01*
X285685000Y-104980000D01*
X285685000Y-98284187D01*
X285814752Y-98284187D01*
X286032757Y-98811800D01*
X286315000Y-99094536D01*
X286315000Y-100905742D01*
X286034176Y-101186077D01*
X285815250Y-101713309D01*
X285814752Y-102284187D01*
X286032757Y-102811800D01*
X286436077Y-103215824D01*
X286963309Y-103434750D01*
X287534187Y-103435248D01*
X288061800Y-103217243D01*
X288465824Y-102813923D01*
X288684750Y-102286691D01*
X288685248Y-101715813D01*
X288467243Y-101188200D01*
X288336162Y-101056890D01*
X345038524Y-101056890D01*
X345059648Y-101167491D01*
X345346667Y-101675451D01*
X345806226Y-102034907D01*
X346368361Y-102191135D01*
X346603000Y-102031491D01*
X346603000Y-100827000D01*
X345159845Y-100827000D01*
X345038524Y-101056890D01*
X288336162Y-101056890D01*
X288185000Y-100905464D01*
X288185000Y-99094258D01*
X288465824Y-98813923D01*
X288684750Y-98286691D01*
X288685248Y-97715813D01*
X288467243Y-97188200D01*
X288063923Y-96784176D01*
X287536691Y-96565250D01*
X286965813Y-96564752D01*
X286438200Y-96782757D01*
X286034176Y-97186077D01*
X285815250Y-97713309D01*
X285814752Y-98284187D01*
X285685000Y-98284187D01*
X285685000Y-97344254D01*
X285965820Y-97063923D01*
X286184746Y-96536691D01*
X286185244Y-95965813D01*
X285967239Y-95438200D01*
X285563919Y-95034176D01*
X285036687Y-94815250D01*
X284465809Y-94814752D01*
X283938196Y-95032757D01*
X283534172Y-95436077D01*
X283315246Y-95963309D01*
X283314748Y-96534187D01*
X283532753Y-97061800D01*
X283815000Y-97344540D01*
X283815000Y-102285255D01*
X283813923Y-102284176D01*
X283286691Y-102065250D01*
X282715813Y-102064752D01*
X282188200Y-102282757D01*
X281784176Y-102686077D01*
X281565250Y-103213309D01*
X281564901Y-103612809D01*
X280862612Y-104315098D01*
X280465813Y-104314752D01*
X279938200Y-104532757D01*
X279534176Y-104936077D01*
X279435000Y-105174919D01*
X279435000Y-100844254D01*
X279715824Y-100563919D01*
X279934750Y-100036687D01*
X279935248Y-99465809D01*
X279717243Y-98938196D01*
X279313923Y-98534172D01*
X278786691Y-98315246D01*
X278215813Y-98314748D01*
X277688200Y-98532753D01*
X277284176Y-98936073D01*
X277185006Y-99174901D01*
X277185006Y-95594258D01*
X277465830Y-95313923D01*
X277684756Y-94786691D01*
X277685254Y-94215813D01*
X277467249Y-93688200D01*
X277063929Y-93284176D01*
X276536697Y-93065250D01*
X275965819Y-93064752D01*
X275438206Y-93282757D01*
X275034182Y-93686077D01*
X274815256Y-94213309D01*
X274814758Y-94784187D01*
X275032763Y-95311800D01*
X275315006Y-95594536D01*
X275315006Y-116905736D01*
X275034176Y-117186077D01*
X274815250Y-117713309D01*
X274814752Y-118284187D01*
X275032757Y-118811800D01*
X275436077Y-119215824D01*
X275614713Y-119290000D01*
X119385719Y-119290000D01*
X119561800Y-119217245D01*
X119965824Y-118813925D01*
X120184750Y-118286693D01*
X120185248Y-117715815D01*
X119967243Y-117188202D01*
X119685000Y-116905466D01*
X119685000Y-106875920D01*
X120889758Y-108080678D01*
X120784176Y-108186077D01*
X120565250Y-108713309D01*
X120564752Y-109284187D01*
X120782757Y-109811800D01*
X121186077Y-110215824D01*
X121713309Y-110434750D01*
X122284187Y-110435248D01*
X122811800Y-110217243D01*
X123215824Y-109813923D01*
X123434750Y-109286691D01*
X123435248Y-108715813D01*
X123217243Y-108188200D01*
X122935000Y-107905464D01*
X122935000Y-107868630D01*
X122863827Y-107510821D01*
X122661145Y-107207485D01*
X122285194Y-106831534D01*
X122561800Y-106717243D01*
X122965824Y-106313923D01*
X123184750Y-105786691D01*
X123185248Y-105215813D01*
X122967243Y-104688200D01*
X122685000Y-104405464D01*
X122685000Y-103934943D01*
X123034187Y-103935248D01*
X123064849Y-103922579D01*
X123064752Y-104034187D01*
X123282757Y-104561800D01*
X123686077Y-104965824D01*
X124213309Y-105184750D01*
X124784187Y-105185248D01*
X125065000Y-105069219D01*
X125065000Y-111405742D01*
X124784176Y-111686077D01*
X124565250Y-112213309D01*
X124564752Y-112784187D01*
X124782757Y-113311800D01*
X125186077Y-113715824D01*
X125713309Y-113934750D01*
X126284187Y-113935248D01*
X126811800Y-113717243D01*
X127215824Y-113313923D01*
X127434750Y-112786691D01*
X127435050Y-112442619D01*
X145764613Y-112442619D01*
X146104155Y-113264372D01*
X146732321Y-113893636D01*
X147553481Y-114234611D01*
X148442619Y-114235387D01*
X149264372Y-113895845D01*
X149893636Y-113267679D01*
X150234611Y-112446519D01*
X150235387Y-111557381D01*
X150187969Y-111442619D01*
X239764613Y-111442619D01*
X240104155Y-112264372D01*
X240732321Y-112893636D01*
X241553481Y-113234611D01*
X242442619Y-113235387D01*
X243264372Y-112895845D01*
X243893636Y-112267679D01*
X244234611Y-111446519D01*
X244235227Y-110739774D01*
X258769831Y-110739774D01*
X258834131Y-110977611D01*
X259342342Y-111157333D01*
X259880644Y-111128892D01*
X260245869Y-110977611D01*
X260310169Y-110739774D01*
X259540000Y-109969605D01*
X258769831Y-110739774D01*
X244235227Y-110739774D01*
X244235387Y-110557381D01*
X243895845Y-109735628D01*
X243752810Y-109592342D01*
X258172667Y-109592342D01*
X258201108Y-110130644D01*
X258352389Y-110495869D01*
X258590226Y-110560169D01*
X259360395Y-109790000D01*
X259719605Y-109790000D01*
X260489774Y-110560169D01*
X260727611Y-110495869D01*
X260907333Y-109987658D01*
X260878892Y-109449356D01*
X260727611Y-109084131D01*
X260489774Y-109019831D01*
X259719605Y-109790000D01*
X259360395Y-109790000D01*
X258590226Y-109019831D01*
X258352389Y-109084131D01*
X258172667Y-109592342D01*
X243752810Y-109592342D01*
X243267679Y-109106364D01*
X242446519Y-108765389D01*
X241557381Y-108764613D01*
X240735628Y-109104155D01*
X240106364Y-109732321D01*
X239765389Y-110553481D01*
X239764613Y-111442619D01*
X150187969Y-111442619D01*
X149897559Y-110739774D01*
X178769831Y-110739774D01*
X178834131Y-110977611D01*
X179342342Y-111157333D01*
X179880644Y-111128892D01*
X180245869Y-110977611D01*
X180310169Y-110739774D01*
X218769831Y-110739774D01*
X218834131Y-110977611D01*
X219342342Y-111157333D01*
X219880644Y-111128892D01*
X220245869Y-110977611D01*
X220310169Y-110739774D01*
X219540000Y-109969605D01*
X218769831Y-110739774D01*
X180310169Y-110739774D01*
X179540000Y-109969605D01*
X178769831Y-110739774D01*
X149897559Y-110739774D01*
X149895845Y-110735628D01*
X149267679Y-110106364D01*
X148446519Y-109765389D01*
X147557381Y-109764613D01*
X146735628Y-110104155D01*
X146106364Y-110732321D01*
X145765389Y-111553481D01*
X145764613Y-112442619D01*
X127435050Y-112442619D01*
X127435248Y-112215813D01*
X127217243Y-111688200D01*
X126935000Y-111405464D01*
X126935000Y-110739774D01*
X138769831Y-110739774D01*
X138834131Y-110977611D01*
X139342342Y-111157333D01*
X139880644Y-111128892D01*
X140245869Y-110977611D01*
X140310169Y-110739774D01*
X139540000Y-109969605D01*
X138769831Y-110739774D01*
X126935000Y-110739774D01*
X126935000Y-109592342D01*
X138172667Y-109592342D01*
X138201108Y-110130644D01*
X138352389Y-110495869D01*
X138590226Y-110560169D01*
X139360395Y-109790000D01*
X139719605Y-109790000D01*
X140489774Y-110560169D01*
X140727611Y-110495869D01*
X140907333Y-109987658D01*
X140886447Y-109592342D01*
X178172667Y-109592342D01*
X178201108Y-110130644D01*
X178352389Y-110495869D01*
X178590226Y-110560169D01*
X179360395Y-109790000D01*
X179719605Y-109790000D01*
X180489774Y-110560169D01*
X180727611Y-110495869D01*
X180907333Y-109987658D01*
X180886447Y-109592342D01*
X218172667Y-109592342D01*
X218201108Y-110130644D01*
X218352389Y-110495869D01*
X218590226Y-110560169D01*
X219360395Y-109790000D01*
X219719605Y-109790000D01*
X220489774Y-110560169D01*
X220727611Y-110495869D01*
X220907333Y-109987658D01*
X220878892Y-109449356D01*
X220727611Y-109084131D01*
X220489774Y-109019831D01*
X219719605Y-109790000D01*
X219360395Y-109790000D01*
X218590226Y-109019831D01*
X218352389Y-109084131D01*
X218172667Y-109592342D01*
X180886447Y-109592342D01*
X180878892Y-109449356D01*
X180727611Y-109084131D01*
X180489774Y-109019831D01*
X179719605Y-109790000D01*
X179360395Y-109790000D01*
X178590226Y-109019831D01*
X178352389Y-109084131D01*
X178172667Y-109592342D01*
X140886447Y-109592342D01*
X140878892Y-109449356D01*
X140727611Y-109084131D01*
X140489774Y-109019831D01*
X139719605Y-109790000D01*
X139360395Y-109790000D01*
X138590226Y-109019831D01*
X138352389Y-109084131D01*
X138172667Y-109592342D01*
X126935000Y-109592342D01*
X126935000Y-108767047D01*
X126942191Y-108777809D01*
X127152235Y-108918157D01*
X127400000Y-108967440D01*
X129800000Y-108967440D01*
X130047765Y-108918157D01*
X130257809Y-108777809D01*
X130274904Y-108752225D01*
X130414899Y-108845767D01*
X130964050Y-108955000D01*
X131835950Y-108955000D01*
X132385101Y-108845767D01*
X132393393Y-108840226D01*
X138769831Y-108840226D01*
X139540000Y-109610395D01*
X140310169Y-108840226D01*
X140245869Y-108602389D01*
X139737658Y-108422667D01*
X139199356Y-108451108D01*
X138834131Y-108602389D01*
X138769831Y-108840226D01*
X132393393Y-108840226D01*
X132850648Y-108534698D01*
X133161717Y-108069151D01*
X133270950Y-107520000D01*
X133270621Y-107518344D01*
X135644765Y-107518344D01*
X135850617Y-108016543D01*
X136231452Y-108398043D01*
X136729291Y-108604764D01*
X137268344Y-108605235D01*
X137766543Y-108399383D01*
X137966500Y-108199774D01*
X141309831Y-108199774D01*
X141374131Y-108437611D01*
X141882342Y-108617333D01*
X142420644Y-108588892D01*
X142785869Y-108437611D01*
X142850169Y-108199774D01*
X142080000Y-107429605D01*
X141309831Y-108199774D01*
X137966500Y-108199774D01*
X138148043Y-108018548D01*
X138354764Y-107520709D01*
X138355173Y-107052342D01*
X140712667Y-107052342D01*
X140741108Y-107590644D01*
X140892389Y-107955869D01*
X141130226Y-108020169D01*
X141900395Y-107250000D01*
X142259605Y-107250000D01*
X143029774Y-108020169D01*
X143267611Y-107955869D01*
X143447333Y-107447658D01*
X143418892Y-106909356D01*
X143267611Y-106544131D01*
X143029774Y-106479831D01*
X142259605Y-107250000D01*
X141900395Y-107250000D01*
X141130226Y-106479831D01*
X140892389Y-106544131D01*
X140712667Y-107052342D01*
X138355173Y-107052342D01*
X138355235Y-106981656D01*
X138149383Y-106483457D01*
X137966472Y-106300226D01*
X141309831Y-106300226D01*
X142080000Y-107070395D01*
X142850169Y-106300226D01*
X142785869Y-106062389D01*
X142277658Y-105882667D01*
X141739356Y-105911108D01*
X141374131Y-106062389D01*
X141309831Y-106300226D01*
X137966472Y-106300226D01*
X137768548Y-106101957D01*
X137270709Y-105895236D01*
X136731656Y-105894765D01*
X136233457Y-106100617D01*
X135851957Y-106481452D01*
X135645236Y-106979291D01*
X135644765Y-107518344D01*
X133270621Y-107518344D01*
X133161717Y-106970849D01*
X132850648Y-106505302D01*
X132468562Y-106250000D01*
X132850648Y-105994698D01*
X133161717Y-105529151D01*
X133270950Y-104980000D01*
X166729050Y-104980000D01*
X166838283Y-105529151D01*
X167149352Y-105994698D01*
X167296648Y-106093118D01*
X167152235Y-106121843D01*
X166942191Y-106262191D01*
X166801843Y-106472235D01*
X166752560Y-106720000D01*
X166752560Y-108320000D01*
X166801843Y-108567765D01*
X166942191Y-108777809D01*
X167152235Y-108918157D01*
X167400000Y-108967440D01*
X169800000Y-108967440D01*
X170047765Y-108918157D01*
X170257809Y-108777809D01*
X170274904Y-108752225D01*
X170414899Y-108845767D01*
X170964050Y-108955000D01*
X171835950Y-108955000D01*
X172385101Y-108845767D01*
X172393393Y-108840226D01*
X178769831Y-108840226D01*
X179540000Y-109610395D01*
X180310169Y-108840226D01*
X180245869Y-108602389D01*
X179737658Y-108422667D01*
X179199356Y-108451108D01*
X178834131Y-108602389D01*
X178769831Y-108840226D01*
X172393393Y-108840226D01*
X172850648Y-108534698D01*
X173161717Y-108069151D01*
X173270950Y-107520000D01*
X173270621Y-107518344D01*
X175644765Y-107518344D01*
X175850617Y-108016543D01*
X176231452Y-108398043D01*
X176729291Y-108604764D01*
X177268344Y-108605235D01*
X177766543Y-108399383D01*
X177966500Y-108199774D01*
X181309831Y-108199774D01*
X181374131Y-108437611D01*
X181882342Y-108617333D01*
X182420644Y-108588892D01*
X182785869Y-108437611D01*
X182850169Y-108199774D01*
X182080000Y-107429605D01*
X181309831Y-108199774D01*
X177966500Y-108199774D01*
X178148043Y-108018548D01*
X178354764Y-107520709D01*
X178355173Y-107052342D01*
X180712667Y-107052342D01*
X180741108Y-107590644D01*
X180892389Y-107955869D01*
X181130226Y-108020169D01*
X181900395Y-107250000D01*
X182259605Y-107250000D01*
X183029774Y-108020169D01*
X183267611Y-107955869D01*
X183447333Y-107447658D01*
X183418892Y-106909356D01*
X183267611Y-106544131D01*
X183029774Y-106479831D01*
X182259605Y-107250000D01*
X181900395Y-107250000D01*
X181130226Y-106479831D01*
X180892389Y-106544131D01*
X180712667Y-107052342D01*
X178355173Y-107052342D01*
X178355235Y-106981656D01*
X178149383Y-106483457D01*
X177966472Y-106300226D01*
X181309831Y-106300226D01*
X182080000Y-107070395D01*
X182850169Y-106300226D01*
X182785869Y-106062389D01*
X182277658Y-105882667D01*
X181739356Y-105911108D01*
X181374131Y-106062389D01*
X181309831Y-106300226D01*
X177966472Y-106300226D01*
X177768548Y-106101957D01*
X177270709Y-105895236D01*
X176731656Y-105894765D01*
X176233457Y-106100617D01*
X175851957Y-106481452D01*
X175645236Y-106979291D01*
X175644765Y-107518344D01*
X173270621Y-107518344D01*
X173161717Y-106970849D01*
X172850648Y-106505302D01*
X172468562Y-106250000D01*
X172850648Y-105994698D01*
X173161717Y-105529151D01*
X173270950Y-104980000D01*
X206729050Y-104980000D01*
X206838283Y-105529151D01*
X207149352Y-105994698D01*
X207296648Y-106093118D01*
X207152235Y-106121843D01*
X206942191Y-106262191D01*
X206801843Y-106472235D01*
X206752560Y-106720000D01*
X206752560Y-108320000D01*
X206801843Y-108567765D01*
X206942191Y-108777809D01*
X207152235Y-108918157D01*
X207400000Y-108967440D01*
X209800000Y-108967440D01*
X210047765Y-108918157D01*
X210257809Y-108777809D01*
X210274904Y-108752225D01*
X210414899Y-108845767D01*
X210964050Y-108955000D01*
X211835950Y-108955000D01*
X212385101Y-108845767D01*
X212393393Y-108840226D01*
X218769831Y-108840226D01*
X219540000Y-109610395D01*
X220310169Y-108840226D01*
X220245869Y-108602389D01*
X219737658Y-108422667D01*
X219199356Y-108451108D01*
X218834131Y-108602389D01*
X218769831Y-108840226D01*
X212393393Y-108840226D01*
X212850648Y-108534698D01*
X213161717Y-108069151D01*
X213270950Y-107520000D01*
X213270621Y-107518344D01*
X215644765Y-107518344D01*
X215850617Y-108016543D01*
X216231452Y-108398043D01*
X216729291Y-108604764D01*
X217268344Y-108605235D01*
X217766543Y-108399383D01*
X217966500Y-108199774D01*
X221309831Y-108199774D01*
X221374131Y-108437611D01*
X221882342Y-108617333D01*
X222420644Y-108588892D01*
X222785869Y-108437611D01*
X222850169Y-108199774D01*
X222080000Y-107429605D01*
X221309831Y-108199774D01*
X217966500Y-108199774D01*
X218148043Y-108018548D01*
X218354764Y-107520709D01*
X218355173Y-107052342D01*
X220712667Y-107052342D01*
X220741108Y-107590644D01*
X220892389Y-107955869D01*
X221130226Y-108020169D01*
X221900395Y-107250000D01*
X222259605Y-107250000D01*
X223029774Y-108020169D01*
X223267611Y-107955869D01*
X223447333Y-107447658D01*
X223418892Y-106909356D01*
X223267611Y-106544131D01*
X223029774Y-106479831D01*
X222259605Y-107250000D01*
X221900395Y-107250000D01*
X221130226Y-106479831D01*
X220892389Y-106544131D01*
X220712667Y-107052342D01*
X218355173Y-107052342D01*
X218355235Y-106981656D01*
X218149383Y-106483457D01*
X217966472Y-106300226D01*
X221309831Y-106300226D01*
X222080000Y-107070395D01*
X222850169Y-106300226D01*
X222785869Y-106062389D01*
X222277658Y-105882667D01*
X221739356Y-105911108D01*
X221374131Y-106062389D01*
X221309831Y-106300226D01*
X217966472Y-106300226D01*
X217768548Y-106101957D01*
X217270709Y-105895236D01*
X216731656Y-105894765D01*
X216233457Y-106100617D01*
X215851957Y-106481452D01*
X215645236Y-106979291D01*
X215644765Y-107518344D01*
X213270621Y-107518344D01*
X213161717Y-106970849D01*
X212850648Y-106505302D01*
X212468562Y-106250000D01*
X212850648Y-105994698D01*
X213161717Y-105529151D01*
X213270950Y-104980000D01*
X246729050Y-104980000D01*
X246838283Y-105529151D01*
X247149352Y-105994698D01*
X247296648Y-106093118D01*
X247152235Y-106121843D01*
X246942191Y-106262191D01*
X246801843Y-106472235D01*
X246752560Y-106720000D01*
X246752560Y-108320000D01*
X246801843Y-108567765D01*
X246942191Y-108777809D01*
X247152235Y-108918157D01*
X247400000Y-108967440D01*
X249800000Y-108967440D01*
X250047765Y-108918157D01*
X250257809Y-108777809D01*
X250274904Y-108752225D01*
X250414899Y-108845767D01*
X250964050Y-108955000D01*
X251835950Y-108955000D01*
X252385101Y-108845767D01*
X252393393Y-108840226D01*
X258769831Y-108840226D01*
X259540000Y-109610395D01*
X260310169Y-108840226D01*
X260245869Y-108602389D01*
X259737658Y-108422667D01*
X259199356Y-108451108D01*
X258834131Y-108602389D01*
X258769831Y-108840226D01*
X252393393Y-108840226D01*
X252850648Y-108534698D01*
X253161717Y-108069151D01*
X253270950Y-107520000D01*
X253270621Y-107518344D01*
X255644765Y-107518344D01*
X255850617Y-108016543D01*
X256231452Y-108398043D01*
X256729291Y-108604764D01*
X257268344Y-108605235D01*
X257766543Y-108399383D01*
X257966500Y-108199774D01*
X261309831Y-108199774D01*
X261374131Y-108437611D01*
X261882342Y-108617333D01*
X262420644Y-108588892D01*
X262785869Y-108437611D01*
X262850169Y-108199774D01*
X262080000Y-107429605D01*
X261309831Y-108199774D01*
X257966500Y-108199774D01*
X258148043Y-108018548D01*
X258354764Y-107520709D01*
X258355173Y-107052342D01*
X260712667Y-107052342D01*
X260741108Y-107590644D01*
X260892389Y-107955869D01*
X261130226Y-108020169D01*
X261900395Y-107250000D01*
X262259605Y-107250000D01*
X263029774Y-108020169D01*
X263267611Y-107955869D01*
X263447333Y-107447658D01*
X263418892Y-106909356D01*
X263267611Y-106544131D01*
X263029774Y-106479831D01*
X262259605Y-107250000D01*
X261900395Y-107250000D01*
X261130226Y-106479831D01*
X260892389Y-106544131D01*
X260712667Y-107052342D01*
X258355173Y-107052342D01*
X258355235Y-106981656D01*
X258149383Y-106483457D01*
X257966472Y-106300226D01*
X261309831Y-106300226D01*
X262080000Y-107070395D01*
X262850169Y-106300226D01*
X262785869Y-106062389D01*
X262277658Y-105882667D01*
X261739356Y-105911108D01*
X261374131Y-106062389D01*
X261309831Y-106300226D01*
X257966472Y-106300226D01*
X257768548Y-106101957D01*
X257270709Y-105895236D01*
X256731656Y-105894765D01*
X256233457Y-106100617D01*
X255851957Y-106481452D01*
X255645236Y-106979291D01*
X255644765Y-107518344D01*
X253270621Y-107518344D01*
X253161717Y-106970849D01*
X252850648Y-106505302D01*
X252468562Y-106250000D01*
X252850648Y-105994698D01*
X253161717Y-105529151D01*
X253270950Y-104980000D01*
X253161717Y-104430849D01*
X252850648Y-103965302D01*
X252385101Y-103654233D01*
X251835950Y-103545000D01*
X250964050Y-103545000D01*
X250414899Y-103654233D01*
X250000000Y-103931460D01*
X249585101Y-103654233D01*
X249035950Y-103545000D01*
X248164050Y-103545000D01*
X247614899Y-103654233D01*
X247149352Y-103965302D01*
X246838283Y-104430849D01*
X246729050Y-104980000D01*
X213270950Y-104980000D01*
X213161717Y-104430849D01*
X212850648Y-103965302D01*
X212385101Y-103654233D01*
X211835950Y-103545000D01*
X210964050Y-103545000D01*
X210414899Y-103654233D01*
X210000000Y-103931460D01*
X209585101Y-103654233D01*
X209035950Y-103545000D01*
X208164050Y-103545000D01*
X207614899Y-103654233D01*
X207149352Y-103965302D01*
X206838283Y-104430849D01*
X206729050Y-104980000D01*
X173270950Y-104980000D01*
X173161717Y-104430849D01*
X172850648Y-103965302D01*
X172385101Y-103654233D01*
X171835950Y-103545000D01*
X170964050Y-103545000D01*
X170414899Y-103654233D01*
X170000000Y-103931460D01*
X169585101Y-103654233D01*
X169035950Y-103545000D01*
X168164050Y-103545000D01*
X167614899Y-103654233D01*
X167149352Y-103965302D01*
X166838283Y-104430849D01*
X166729050Y-104980000D01*
X133270950Y-104980000D01*
X133161717Y-104430849D01*
X132850648Y-103965302D01*
X132385101Y-103654233D01*
X131835950Y-103545000D01*
X130964050Y-103545000D01*
X130414899Y-103654233D01*
X130000000Y-103931460D01*
X129585101Y-103654233D01*
X129035950Y-103545000D01*
X128164050Y-103545000D01*
X127614899Y-103654233D01*
X127149352Y-103965302D01*
X126935000Y-104286102D01*
X126935000Y-99844256D01*
X127215824Y-99563921D01*
X127434750Y-99036689D01*
X127435231Y-98484187D01*
X181564752Y-98484187D01*
X181782757Y-99011800D01*
X182186077Y-99415824D01*
X182713309Y-99634750D01*
X183284187Y-99635248D01*
X183811800Y-99417243D01*
X184215824Y-99013923D01*
X184324034Y-98753324D01*
X184586077Y-99015824D01*
X185113309Y-99234750D01*
X185684187Y-99235248D01*
X186211800Y-99017243D01*
X186615824Y-98613923D01*
X186834750Y-98086691D01*
X186835248Y-97515813D01*
X186617243Y-96988200D01*
X186535000Y-96905813D01*
X186535000Y-95446219D01*
X186582757Y-95561800D01*
X186986077Y-95965824D01*
X187513309Y-96184750D01*
X188084187Y-96185248D01*
X188611800Y-95967243D01*
X189015824Y-95563923D01*
X189065000Y-95445494D01*
X189065000Y-98305742D01*
X188784176Y-98586077D01*
X188565250Y-99113309D01*
X188564752Y-99684187D01*
X188782757Y-100211800D01*
X189186077Y-100615824D01*
X189713309Y-100834750D01*
X190284187Y-100835248D01*
X190811800Y-100617243D01*
X191215824Y-100213923D01*
X191434750Y-99686691D01*
X191435248Y-99115813D01*
X191217243Y-98588200D01*
X190935000Y-98305464D01*
X190935000Y-94684187D01*
X192764750Y-94684187D01*
X192982755Y-95211800D01*
X193386075Y-95615824D01*
X193913307Y-95834750D01*
X194484185Y-95835248D01*
X195011798Y-95617243D01*
X195415822Y-95213923D01*
X195634748Y-94686691D01*
X195635246Y-94115813D01*
X195519187Y-93834930D01*
X195884187Y-93835248D01*
X196411800Y-93617243D01*
X196815824Y-93213923D01*
X197034750Y-92686691D01*
X197035098Y-92287192D01*
X197087280Y-92235010D01*
X197505742Y-92235010D01*
X197786077Y-92515834D01*
X198313309Y-92734760D01*
X198884187Y-92735258D01*
X199411800Y-92517253D01*
X199815824Y-92113933D01*
X200034750Y-91586701D01*
X200035248Y-91015823D01*
X199817243Y-90488210D01*
X199413923Y-90084186D01*
X198886691Y-89865260D01*
X198315813Y-89864762D01*
X197788200Y-90082767D01*
X197505464Y-90365010D01*
X196699990Y-90365010D01*
X196342181Y-90436183D01*
X196038845Y-90638865D01*
X195712612Y-90965098D01*
X195357502Y-90964788D01*
X195887388Y-90434902D01*
X196284187Y-90435248D01*
X196811800Y-90217243D01*
X197215824Y-89813923D01*
X197434750Y-89286691D01*
X197435248Y-88715813D01*
X197217243Y-88188200D01*
X196813923Y-87784176D01*
X196286691Y-87565250D01*
X195715813Y-87564752D01*
X195188200Y-87782757D01*
X194784176Y-88186077D01*
X194565250Y-88713309D01*
X194564902Y-89112808D01*
X193538853Y-90138857D01*
X193336171Y-90442193D01*
X193264998Y-90800002D01*
X193264998Y-93305742D01*
X192984174Y-93586077D01*
X192765248Y-94113309D01*
X192764750Y-94684187D01*
X190935000Y-94684187D01*
X190935000Y-90094258D01*
X191215824Y-89813923D01*
X191434750Y-89286691D01*
X191435248Y-88715813D01*
X191217243Y-88188200D01*
X190813923Y-87784176D01*
X190286691Y-87565250D01*
X189715813Y-87564752D01*
X189188200Y-87782757D01*
X188899851Y-88070603D01*
X188613923Y-87784176D01*
X188086691Y-87565250D01*
X187515813Y-87564752D01*
X186988200Y-87782757D01*
X186699851Y-88070603D01*
X186413923Y-87784176D01*
X185886691Y-87565250D01*
X185315813Y-87564752D01*
X184788200Y-87782757D01*
X184499851Y-88070603D01*
X184213923Y-87784176D01*
X183686691Y-87565250D01*
X183115813Y-87564752D01*
X182588200Y-87782757D01*
X182184176Y-88186077D01*
X181965250Y-88713309D01*
X181964752Y-89284187D01*
X182182757Y-89811800D01*
X182465000Y-90094536D01*
X182465000Y-96868386D01*
X182188200Y-96982757D01*
X181784176Y-97386077D01*
X181565250Y-97913309D01*
X181564752Y-98484187D01*
X127435231Y-98484187D01*
X127435248Y-98465811D01*
X127217243Y-97938198D01*
X126813923Y-97534174D01*
X126286691Y-97315248D01*
X125819252Y-97314840D01*
X125934750Y-97036691D01*
X125935248Y-96465813D01*
X125717243Y-95938200D01*
X125313923Y-95534176D01*
X124786691Y-95315250D01*
X124215813Y-95314752D01*
X123688200Y-95532757D01*
X123284176Y-95936077D01*
X123065250Y-96463309D01*
X123064752Y-97034187D01*
X123282757Y-97561800D01*
X123565000Y-97844536D01*
X123565000Y-101285255D01*
X123563923Y-101284176D01*
X123036691Y-101065250D01*
X122465813Y-101064752D01*
X121938200Y-101282757D01*
X121534176Y-101686077D01*
X121315250Y-102213309D01*
X121314902Y-102612808D01*
X121185000Y-102742710D01*
X121185000Y-101387290D01*
X121387388Y-101184902D01*
X121784187Y-101185248D01*
X122311800Y-100967243D01*
X122715824Y-100563923D01*
X122934750Y-100036691D01*
X122935248Y-99465813D01*
X122717243Y-98938200D01*
X122313923Y-98534176D01*
X121786691Y-98315250D01*
X121215813Y-98314752D01*
X120688200Y-98532757D01*
X120284176Y-98936077D01*
X120065250Y-99463309D01*
X120064902Y-99862808D01*
X119588855Y-100338855D01*
X119386173Y-100642191D01*
X119315000Y-101000000D01*
X119315000Y-101351289D01*
X117285000Y-99321288D01*
X117285000Y-96244430D01*
X117465824Y-96063921D01*
X117684750Y-95536689D01*
X117685248Y-94965811D01*
X117467243Y-94438198D01*
X117063923Y-94034174D01*
X116536691Y-93815248D01*
X115965813Y-93814750D01*
X115438200Y-94032755D01*
X115034176Y-94436075D01*
X114815250Y-94963307D01*
X114814752Y-95534185D01*
X115032757Y-96061798D01*
X115215000Y-96244359D01*
X115215000Y-98435953D01*
X114813923Y-98034176D01*
X114286691Y-97815250D01*
X113715813Y-97814752D01*
X113188200Y-98032757D01*
X112784176Y-98436077D01*
X112565250Y-98963309D01*
X112564752Y-99534187D01*
X112782757Y-100061800D01*
X113065000Y-100344536D01*
X113065000Y-101180814D01*
X112786691Y-101065250D01*
X112215813Y-101064752D01*
X111688200Y-101282757D01*
X111685000Y-101285951D01*
X111685000Y-100344258D01*
X111965824Y-100063923D01*
X112184750Y-99536691D01*
X112185248Y-98965813D01*
X111967243Y-98438200D01*
X111563923Y-98034176D01*
X111036691Y-97815250D01*
X110465813Y-97814752D01*
X109938200Y-98032757D01*
X109534176Y-98436077D01*
X109315250Y-98963309D01*
X109314752Y-99534187D01*
X109532757Y-100061800D01*
X109815000Y-100344536D01*
X109815000Y-102655742D01*
X109534176Y-102936077D01*
X109315250Y-103463309D01*
X109314752Y-104034187D01*
X109532757Y-104561800D01*
X109936077Y-104965824D01*
X110463309Y-105184750D01*
X111034187Y-105185248D01*
X111315000Y-105069219D01*
X111315000Y-107905742D01*
X111034176Y-108186077D01*
X110815250Y-108713309D01*
X110814752Y-109284187D01*
X111032757Y-109811800D01*
X111436077Y-110215824D01*
X111963309Y-110434750D01*
X112534187Y-110435248D01*
X113061800Y-110217243D01*
X113065000Y-110214049D01*
X113065000Y-110655742D01*
X112784176Y-110936077D01*
X112565250Y-111463309D01*
X112564752Y-112034187D01*
X112782757Y-112561800D01*
X113186077Y-112965824D01*
X113713309Y-113184750D01*
X114284187Y-113185248D01*
X114811800Y-112967243D01*
X115215824Y-112563923D01*
X115434750Y-112036691D01*
X115435248Y-111465813D01*
X115217243Y-110938200D01*
X114935000Y-110655464D01*
X114935000Y-100344258D01*
X115215824Y-100063923D01*
X115257486Y-99963591D01*
X115293785Y-100146077D01*
X115518144Y-100481856D01*
X117759375Y-102723086D01*
X117793785Y-102896077D01*
X117815000Y-102927828D01*
X117815000Y-116905744D01*
X117534176Y-117186079D01*
X117315250Y-117713311D01*
X117314752Y-118284189D01*
X117532757Y-118811802D01*
X117936077Y-119215826D01*
X118114708Y-119290000D01*
X70635714Y-119290000D01*
X70811800Y-119217243D01*
X71215824Y-118813923D01*
X71434750Y-118286691D01*
X71435248Y-117715813D01*
X71217243Y-117188200D01*
X70935000Y-116905464D01*
X70935000Y-113094258D01*
X71215824Y-112813923D01*
X71434750Y-112286691D01*
X71435248Y-111715813D01*
X71217243Y-111188200D01*
X71067470Y-111038166D01*
X71306543Y-110939383D01*
X71688043Y-110558548D01*
X71837019Y-110199774D01*
X98769831Y-110199774D01*
X98834131Y-110437611D01*
X99342342Y-110617333D01*
X99880644Y-110588892D01*
X100245869Y-110437611D01*
X100310169Y-110199774D01*
X99540000Y-109429605D01*
X98769831Y-110199774D01*
X71837019Y-110199774D01*
X71894764Y-110060709D01*
X71895235Y-109521656D01*
X71701319Y-109052342D01*
X98172667Y-109052342D01*
X98201108Y-109590644D01*
X98352389Y-109955869D01*
X98590226Y-110020169D01*
X99360395Y-109250000D01*
X99719605Y-109250000D01*
X100489774Y-110020169D01*
X100727611Y-109955869D01*
X100907333Y-109447658D01*
X100878892Y-108909356D01*
X100727611Y-108544131D01*
X100489774Y-108479831D01*
X99719605Y-109250000D01*
X99360395Y-109250000D01*
X98590226Y-108479831D01*
X98352389Y-108544131D01*
X98172667Y-109052342D01*
X71701319Y-109052342D01*
X71689383Y-109023457D01*
X71308548Y-108641957D01*
X70810709Y-108435236D01*
X70271656Y-108434765D01*
X69773457Y-108640617D01*
X69391957Y-109021452D01*
X69185236Y-109519291D01*
X69184765Y-110058344D01*
X69390617Y-110556543D01*
X69491383Y-110657485D01*
X69188200Y-110782757D01*
X68784176Y-111186077D01*
X68565250Y-111713309D01*
X68564752Y-112284187D01*
X68782757Y-112811800D01*
X69065000Y-113094536D01*
X69065000Y-116905742D01*
X68784176Y-117186077D01*
X68565250Y-117713309D01*
X68564752Y-118284187D01*
X68782757Y-118811800D01*
X69186077Y-119215824D01*
X69364713Y-119290000D01*
X32710000Y-119290000D01*
X32710000Y-114442619D01*
X33764613Y-114442619D01*
X34104155Y-115264372D01*
X34732321Y-115893636D01*
X35553481Y-116234611D01*
X36442619Y-116235387D01*
X37264372Y-115895845D01*
X37893636Y-115267679D01*
X38234611Y-114446519D01*
X38235387Y-113557381D01*
X37895845Y-112735628D01*
X37267679Y-112106364D01*
X36446519Y-111765389D01*
X35557381Y-111764613D01*
X34735628Y-112104155D01*
X34106364Y-112732321D01*
X33765389Y-113553481D01*
X33764613Y-114442619D01*
X32710000Y-114442619D01*
X32710000Y-110739774D01*
X58769831Y-110739774D01*
X58834131Y-110977611D01*
X59342342Y-111157333D01*
X59880644Y-111128892D01*
X60245869Y-110977611D01*
X60310169Y-110739774D01*
X59540000Y-109969605D01*
X58769831Y-110739774D01*
X32710000Y-110739774D01*
X32710000Y-109592342D01*
X58172667Y-109592342D01*
X58201108Y-110130644D01*
X58352389Y-110495869D01*
X58590226Y-110560169D01*
X59360395Y-109790000D01*
X59719605Y-109790000D01*
X60489774Y-110560169D01*
X60727611Y-110495869D01*
X60907333Y-109987658D01*
X60878892Y-109449356D01*
X60727611Y-109084131D01*
X60489774Y-109019831D01*
X59719605Y-109790000D01*
X59360395Y-109790000D01*
X58590226Y-109019831D01*
X58352389Y-109084131D01*
X58172667Y-109592342D01*
X32710000Y-109592342D01*
X32710000Y-104980000D01*
X46729050Y-104980000D01*
X46838283Y-105529151D01*
X47149352Y-105994698D01*
X47296648Y-106093118D01*
X47152235Y-106121843D01*
X46942191Y-106262191D01*
X46801843Y-106472235D01*
X46752560Y-106720000D01*
X46752560Y-108320000D01*
X46801843Y-108567765D01*
X46942191Y-108777809D01*
X47152235Y-108918157D01*
X47400000Y-108967440D01*
X49800000Y-108967440D01*
X50047765Y-108918157D01*
X50257809Y-108777809D01*
X50274904Y-108752225D01*
X50414899Y-108845767D01*
X50964050Y-108955000D01*
X51835950Y-108955000D01*
X52385101Y-108845767D01*
X52393393Y-108840226D01*
X58769831Y-108840226D01*
X59540000Y-109610395D01*
X60310169Y-108840226D01*
X60245869Y-108602389D01*
X59737658Y-108422667D01*
X59199356Y-108451108D01*
X58834131Y-108602389D01*
X58769831Y-108840226D01*
X52393393Y-108840226D01*
X52850648Y-108534698D01*
X53161717Y-108069151D01*
X53270950Y-107520000D01*
X53270621Y-107518344D01*
X55644765Y-107518344D01*
X55850617Y-108016543D01*
X56231452Y-108398043D01*
X56729291Y-108604764D01*
X57268344Y-108605235D01*
X57766543Y-108399383D01*
X58148043Y-108018548D01*
X58354764Y-107520709D01*
X58354766Y-107518344D01*
X60724765Y-107518344D01*
X60930617Y-108016543D01*
X61311452Y-108398043D01*
X61809291Y-108604764D01*
X62348344Y-108605235D01*
X62846543Y-108399383D01*
X63046500Y-108199774D01*
X67229831Y-108199774D01*
X67294131Y-108437611D01*
X67802342Y-108617333D01*
X68340644Y-108588892D01*
X68705869Y-108437611D01*
X68770169Y-108199774D01*
X68000000Y-107429605D01*
X67229831Y-108199774D01*
X63046500Y-108199774D01*
X63228043Y-108018548D01*
X63434764Y-107520709D01*
X63435173Y-107052342D01*
X66632667Y-107052342D01*
X66661108Y-107590644D01*
X66812389Y-107955869D01*
X67050226Y-108020169D01*
X67820395Y-107250000D01*
X68179605Y-107250000D01*
X68949774Y-108020169D01*
X69187611Y-107955869D01*
X69342335Y-107518344D01*
X71724765Y-107518344D01*
X71930617Y-108016543D01*
X72311452Y-108398043D01*
X72809291Y-108604764D01*
X73348344Y-108605235D01*
X73846543Y-108399383D01*
X74228043Y-108018548D01*
X74434764Y-107520709D01*
X74435235Y-106981656D01*
X74229383Y-106483457D01*
X73848548Y-106101957D01*
X73350709Y-105895236D01*
X72811656Y-105894765D01*
X72313457Y-106100617D01*
X71931957Y-106481452D01*
X71725236Y-106979291D01*
X71724765Y-107518344D01*
X69342335Y-107518344D01*
X69367333Y-107447658D01*
X69338892Y-106909356D01*
X69187611Y-106544131D01*
X68949774Y-106479831D01*
X68179605Y-107250000D01*
X67820395Y-107250000D01*
X67050226Y-106479831D01*
X66812389Y-106544131D01*
X66632667Y-107052342D01*
X63435173Y-107052342D01*
X63435235Y-106981656D01*
X63229383Y-106483457D01*
X63046472Y-106300226D01*
X67229831Y-106300226D01*
X68000000Y-107070395D01*
X68770169Y-106300226D01*
X68705869Y-106062389D01*
X68197658Y-105882667D01*
X67659356Y-105911108D01*
X67294131Y-106062389D01*
X67229831Y-106300226D01*
X63046472Y-106300226D01*
X62848548Y-106101957D01*
X62350709Y-105895236D01*
X61811656Y-105894765D01*
X61313457Y-106100617D01*
X60931957Y-106481452D01*
X60725236Y-106979291D01*
X60724765Y-107518344D01*
X58354766Y-107518344D01*
X58355235Y-106981656D01*
X58149383Y-106483457D01*
X57768548Y-106101957D01*
X57270709Y-105895236D01*
X56731656Y-105894765D01*
X56233457Y-106100617D01*
X55851957Y-106481452D01*
X55645236Y-106979291D01*
X55644765Y-107518344D01*
X53270621Y-107518344D01*
X53161717Y-106970849D01*
X52850648Y-106505302D01*
X52468562Y-106250000D01*
X52850648Y-105994698D01*
X53161717Y-105529151D01*
X53270950Y-104980000D01*
X86729050Y-104980000D01*
X86838283Y-105529151D01*
X87149352Y-105994698D01*
X87296648Y-106093118D01*
X87152235Y-106121843D01*
X86942191Y-106262191D01*
X86801843Y-106472235D01*
X86752560Y-106720000D01*
X86752560Y-108320000D01*
X86801843Y-108567765D01*
X86942191Y-108777809D01*
X87152235Y-108918157D01*
X87400000Y-108967440D01*
X89800000Y-108967440D01*
X90047765Y-108918157D01*
X90257809Y-108777809D01*
X90274904Y-108752225D01*
X90414899Y-108845767D01*
X90964050Y-108955000D01*
X91835950Y-108955000D01*
X92385101Y-108845767D01*
X92850648Y-108534698D01*
X93007317Y-108300226D01*
X98769831Y-108300226D01*
X99540000Y-109070395D01*
X100310169Y-108300226D01*
X100245869Y-108062389D01*
X99737658Y-107882667D01*
X99199356Y-107911108D01*
X98834131Y-108062389D01*
X98769831Y-108300226D01*
X93007317Y-108300226D01*
X93161717Y-108069151D01*
X93270950Y-107520000D01*
X93163208Y-106978344D01*
X95644765Y-106978344D01*
X95850617Y-107476543D01*
X96231452Y-107858043D01*
X96729291Y-108064764D01*
X97268344Y-108065235D01*
X97766543Y-107859383D01*
X97966500Y-107659774D01*
X101309831Y-107659774D01*
X101374131Y-107897611D01*
X101882342Y-108077333D01*
X102420644Y-108048892D01*
X102785869Y-107897611D01*
X102850169Y-107659774D01*
X102080000Y-106889605D01*
X101309831Y-107659774D01*
X97966500Y-107659774D01*
X98148043Y-107478548D01*
X98354764Y-106980709D01*
X98355173Y-106512342D01*
X100712667Y-106512342D01*
X100741108Y-107050644D01*
X100892389Y-107415869D01*
X101130226Y-107480169D01*
X101900395Y-106710000D01*
X102259605Y-106710000D01*
X103029774Y-107480169D01*
X103267611Y-107415869D01*
X103447333Y-106907658D01*
X103418892Y-106369356D01*
X103267611Y-106004131D01*
X103029774Y-105939831D01*
X102259605Y-106710000D01*
X101900395Y-106710000D01*
X101130226Y-105939831D01*
X100892389Y-106004131D01*
X100712667Y-106512342D01*
X98355173Y-106512342D01*
X98355235Y-106441656D01*
X98149383Y-105943457D01*
X97966472Y-105760226D01*
X101309831Y-105760226D01*
X102080000Y-106530395D01*
X102850169Y-105760226D01*
X102785869Y-105522389D01*
X102277658Y-105342667D01*
X101739356Y-105371108D01*
X101374131Y-105522389D01*
X101309831Y-105760226D01*
X97966472Y-105760226D01*
X97768548Y-105561957D01*
X97270709Y-105355236D01*
X96731656Y-105354765D01*
X96233457Y-105560617D01*
X95851957Y-105941452D01*
X95645236Y-106439291D01*
X95644765Y-106978344D01*
X93163208Y-106978344D01*
X93161717Y-106970849D01*
X92850648Y-106505302D01*
X92468562Y-106250000D01*
X92850648Y-105994698D01*
X93161717Y-105529151D01*
X93270950Y-104980000D01*
X93161717Y-104430849D01*
X92850648Y-103965302D01*
X92385101Y-103654233D01*
X91835950Y-103545000D01*
X90964050Y-103545000D01*
X90414899Y-103654233D01*
X90000000Y-103931460D01*
X89585101Y-103654233D01*
X89035950Y-103545000D01*
X88164050Y-103545000D01*
X87614899Y-103654233D01*
X87149352Y-103965302D01*
X86838283Y-104430849D01*
X86729050Y-104980000D01*
X53270950Y-104980000D01*
X53161717Y-104430849D01*
X52850648Y-103965302D01*
X52385101Y-103654233D01*
X51835950Y-103545000D01*
X50964050Y-103545000D01*
X50414899Y-103654233D01*
X50000000Y-103931460D01*
X49585101Y-103654233D01*
X49035950Y-103545000D01*
X48164050Y-103545000D01*
X47614899Y-103654233D01*
X47149352Y-103965302D01*
X46838283Y-104430849D01*
X46729050Y-104980000D01*
X32710000Y-104980000D01*
X32710000Y-102136007D01*
X32908361Y-102191135D01*
X33143000Y-102031491D01*
X33143000Y-100827000D01*
X33397000Y-100827000D01*
X33397000Y-102031491D01*
X33631639Y-102191135D01*
X34193774Y-102034907D01*
X34653333Y-101675451D01*
X34940352Y-101167491D01*
X34961476Y-101056890D01*
X34840155Y-100827000D01*
X33397000Y-100827000D01*
X33143000Y-100827000D01*
X33123000Y-100827000D01*
X33123000Y-100573000D01*
X33143000Y-100573000D01*
X33143000Y-100553000D01*
X33397000Y-100553000D01*
X33397000Y-100573000D01*
X34840155Y-100573000D01*
X34961476Y-100343110D01*
X34940352Y-100232509D01*
X34653333Y-99724549D01*
X34275888Y-99429321D01*
X34604045Y-99210054D01*
X34925952Y-98728285D01*
X35038991Y-98160000D01*
X34925952Y-97591715D01*
X34604045Y-97109946D01*
X34274872Y-96890000D01*
X34604045Y-96670054D01*
X34925952Y-96188285D01*
X35038991Y-95620000D01*
X35021922Y-95534187D01*
X104064752Y-95534187D01*
X104282757Y-96061800D01*
X104565000Y-96344536D01*
X104565000Y-101155742D01*
X104284176Y-101436077D01*
X104065250Y-101963309D01*
X104064752Y-102534187D01*
X104282757Y-103061800D01*
X104686077Y-103465824D01*
X105213309Y-103684750D01*
X105784187Y-103685248D01*
X106311800Y-103467243D01*
X106715824Y-103063923D01*
X106934750Y-102536691D01*
X106935248Y-101965813D01*
X106717243Y-101438200D01*
X106435000Y-101155464D01*
X106435000Y-96344258D01*
X106715824Y-96063923D01*
X106934750Y-95536691D01*
X106935248Y-94965813D01*
X106717243Y-94438200D01*
X106313923Y-94034176D01*
X105786691Y-93815250D01*
X105215813Y-93814752D01*
X104688200Y-94032757D01*
X104284176Y-94436077D01*
X104065250Y-94963309D01*
X104064752Y-95534187D01*
X35021922Y-95534187D01*
X34925952Y-95051715D01*
X34604045Y-94569946D01*
X34274872Y-94350000D01*
X34604045Y-94130054D01*
X34925952Y-93648285D01*
X35038991Y-93080000D01*
X34925952Y-92511715D01*
X34604045Y-92029946D01*
X34274872Y-91810000D01*
X34604045Y-91590054D01*
X34925952Y-91108285D01*
X35038991Y-90540000D01*
X34925952Y-89971715D01*
X34604045Y-89489946D01*
X34558247Y-89459345D01*
X34729698Y-89388327D01*
X34908327Y-89209699D01*
X34960315Y-89084187D01*
X125364752Y-89084187D01*
X125582757Y-89611800D01*
X125865000Y-89894536D01*
X125865000Y-92105742D01*
X125584176Y-92386077D01*
X125365250Y-92913309D01*
X125364752Y-93484187D01*
X125582757Y-94011800D01*
X125986077Y-94415824D01*
X126513309Y-94634750D01*
X127084187Y-94635248D01*
X127611800Y-94417243D01*
X128015824Y-94013923D01*
X128234750Y-93486691D01*
X128235248Y-92915813D01*
X128017243Y-92388200D01*
X127735000Y-92105464D01*
X127735000Y-89894258D01*
X128015824Y-89613923D01*
X128234750Y-89086691D01*
X128235248Y-88515813D01*
X128017243Y-87988200D01*
X127613923Y-87584176D01*
X127086691Y-87365250D01*
X126515813Y-87364752D01*
X125988200Y-87582757D01*
X125584176Y-87986077D01*
X125365250Y-88513309D01*
X125364752Y-89084187D01*
X34960315Y-89084187D01*
X35005000Y-88976310D01*
X35005000Y-88285750D01*
X34846250Y-88127000D01*
X33397000Y-88127000D01*
X33397000Y-88147000D01*
X33143000Y-88147000D01*
X33143000Y-88127000D01*
X33123000Y-88127000D01*
X33123000Y-87873000D01*
X33143000Y-87873000D01*
X33143000Y-86673750D01*
X33397000Y-86673750D01*
X33397000Y-87873000D01*
X34846250Y-87873000D01*
X35005000Y-87714250D01*
X35005000Y-87023690D01*
X34908327Y-86790301D01*
X34729698Y-86611673D01*
X34496309Y-86515000D01*
X33555750Y-86515000D01*
X33397000Y-86673750D01*
X33143000Y-86673750D01*
X32984250Y-86515000D01*
X32710000Y-86515000D01*
X32710000Y-85084187D01*
X207364752Y-85084187D01*
X207582757Y-85611800D01*
X207865000Y-85894536D01*
X207865000Y-93105742D01*
X207584176Y-93386077D01*
X207365250Y-93913309D01*
X207364752Y-94484187D01*
X207582757Y-95011800D01*
X207986077Y-95415824D01*
X208513309Y-95634750D01*
X209084187Y-95635248D01*
X209611800Y-95417243D01*
X209665000Y-95364136D01*
X209665000Y-97705742D01*
X209384176Y-97986077D01*
X209165250Y-98513309D01*
X209164752Y-99084187D01*
X209382757Y-99611800D01*
X209786077Y-100015824D01*
X210313309Y-100234750D01*
X210884187Y-100235248D01*
X211411800Y-100017243D01*
X211815824Y-99613923D01*
X212034750Y-99086691D01*
X212035248Y-98515813D01*
X211817243Y-97988200D01*
X211658098Y-97828777D01*
X211913309Y-97934750D01*
X212484187Y-97935248D01*
X213011800Y-97717243D01*
X213415824Y-97313923D01*
X213634750Y-96786691D01*
X213634752Y-96784187D01*
X264814752Y-96784187D01*
X265032757Y-97311800D01*
X265315000Y-97594536D01*
X265315000Y-102405742D01*
X265034176Y-102686077D01*
X264815250Y-103213309D01*
X264814752Y-103784187D01*
X265032757Y-104311800D01*
X265436077Y-104715824D01*
X265963309Y-104934750D01*
X266534187Y-104935248D01*
X267061800Y-104717243D01*
X267465824Y-104313923D01*
X267684750Y-103786691D01*
X267685248Y-103215813D01*
X267467243Y-102688200D01*
X267185000Y-102405464D01*
X267185000Y-98284187D01*
X267314752Y-98284187D01*
X267532757Y-98811800D01*
X267815000Y-99094536D01*
X267815000Y-111405742D01*
X267534176Y-111686077D01*
X267315250Y-112213309D01*
X267314752Y-112784187D01*
X267532757Y-113311800D01*
X267936077Y-113715824D01*
X268463309Y-113934750D01*
X269034187Y-113935248D01*
X269561800Y-113717243D01*
X269965824Y-113313923D01*
X270184750Y-112786691D01*
X270185248Y-112215813D01*
X269967243Y-111688200D01*
X269685000Y-111405464D01*
X269685000Y-110214745D01*
X269686077Y-110215824D01*
X270213309Y-110434750D01*
X270784187Y-110435248D01*
X271311800Y-110217243D01*
X271715824Y-109813923D01*
X271934750Y-109286691D01*
X271935098Y-108887192D01*
X272368773Y-108453517D01*
X272571455Y-108150181D01*
X272642628Y-107792372D01*
X272642628Y-103674248D01*
X272923452Y-103393913D01*
X273142378Y-102866681D01*
X273142876Y-102295803D01*
X272924871Y-101768190D01*
X272521551Y-101364166D01*
X271994319Y-101145240D01*
X271423441Y-101144742D01*
X270895828Y-101362747D01*
X270491804Y-101766067D01*
X270272878Y-102293299D01*
X270272380Y-102864177D01*
X270490385Y-103391790D01*
X270772628Y-103674526D01*
X270772628Y-107405082D01*
X270612612Y-107565098D01*
X270215813Y-107564752D01*
X269688200Y-107782757D01*
X269685000Y-107785951D01*
X269685000Y-99094258D01*
X269965824Y-98813923D01*
X270184750Y-98286691D01*
X270185248Y-97715813D01*
X269967243Y-97188200D01*
X269563923Y-96784176D01*
X269036691Y-96565250D01*
X268465813Y-96564752D01*
X267938200Y-96782757D01*
X267534176Y-97186077D01*
X267315250Y-97713309D01*
X267314752Y-98284187D01*
X267185000Y-98284187D01*
X267185000Y-97594258D01*
X267465824Y-97313923D01*
X267684750Y-96786691D01*
X267685248Y-96215813D01*
X267467243Y-95688200D01*
X267063923Y-95284176D01*
X266536691Y-95065250D01*
X265965813Y-95064752D01*
X265438200Y-95282757D01*
X265034176Y-95686077D01*
X264815250Y-96213309D01*
X264814752Y-96784187D01*
X213634752Y-96784187D01*
X213635248Y-96215813D01*
X213417243Y-95688200D01*
X213135000Y-95405464D01*
X213135000Y-94877662D01*
X213513309Y-95034750D01*
X214084187Y-95035248D01*
X214611800Y-94817243D01*
X215015824Y-94413923D01*
X215234750Y-93886691D01*
X215235248Y-93315813D01*
X215017243Y-92788200D01*
X214735000Y-92505464D01*
X214735000Y-88835118D01*
X214884187Y-88835248D01*
X215411800Y-88617243D01*
X215815824Y-88213923D01*
X216034750Y-87686691D01*
X216035248Y-87115813D01*
X215997184Y-87023690D01*
X344995000Y-87023690D01*
X344995000Y-87714250D01*
X345153750Y-87873000D01*
X346603000Y-87873000D01*
X346603000Y-86673750D01*
X346444250Y-86515000D01*
X345503691Y-86515000D01*
X345270302Y-86611673D01*
X345091673Y-86790301D01*
X344995000Y-87023690D01*
X215997184Y-87023690D01*
X215817243Y-86588200D01*
X215413923Y-86184176D01*
X214886691Y-85965250D01*
X214315813Y-85964752D01*
X213788200Y-86182757D01*
X213600026Y-86370603D01*
X213413923Y-86184176D01*
X212886691Y-85965250D01*
X212315813Y-85964752D01*
X211788200Y-86182757D01*
X211600026Y-86370603D01*
X211413923Y-86184176D01*
X210886691Y-85965250D01*
X210315813Y-85964752D01*
X209788200Y-86182757D01*
X209735000Y-86235864D01*
X209735000Y-85894258D01*
X210015824Y-85613923D01*
X210234750Y-85086691D01*
X210235248Y-84515813D01*
X210017243Y-83988200D01*
X209613923Y-83584176D01*
X209086691Y-83365250D01*
X208515813Y-83364752D01*
X207988200Y-83582757D01*
X207584176Y-83986077D01*
X207365250Y-84513309D01*
X207364752Y-85084187D01*
X32710000Y-85084187D01*
X32710000Y-77442619D01*
X33764613Y-77442619D01*
X34104155Y-78264372D01*
X34732321Y-78893636D01*
X35553481Y-79234611D01*
X36442619Y-79235387D01*
X37264372Y-78895845D01*
X37893636Y-78267679D01*
X38234611Y-77446519D01*
X38234614Y-77442619D01*
X138764613Y-77442619D01*
X139104155Y-78264372D01*
X139732321Y-78893636D01*
X140553481Y-79234611D01*
X141442619Y-79235387D01*
X142264372Y-78895845D01*
X142666830Y-78494089D01*
X149114743Y-78494089D01*
X149340344Y-79040086D01*
X149757717Y-79458188D01*
X149785557Y-79469748D01*
X149759914Y-79480344D01*
X149341812Y-79897717D01*
X149115258Y-80443319D01*
X149114743Y-81034089D01*
X149340344Y-81580086D01*
X149757717Y-81998188D01*
X150303319Y-82224742D01*
X150894089Y-82225257D01*
X151440086Y-81999656D01*
X151858188Y-81582283D01*
X151869748Y-81554443D01*
X151880344Y-81580086D01*
X152297717Y-81998188D01*
X152843319Y-82224742D01*
X153434089Y-82225257D01*
X153980086Y-81999656D01*
X154398188Y-81582283D01*
X154409748Y-81554443D01*
X154420344Y-81580086D01*
X154837717Y-81998188D01*
X155383319Y-82224742D01*
X155974089Y-82225257D01*
X156520086Y-81999656D01*
X156938188Y-81582283D01*
X156949748Y-81554443D01*
X156960344Y-81580086D01*
X157377717Y-81998188D01*
X157923319Y-82224742D01*
X158514089Y-82225257D01*
X159060086Y-81999656D01*
X159478188Y-81582283D01*
X159489748Y-81554443D01*
X159500344Y-81580086D01*
X159917717Y-81998188D01*
X160463319Y-82224742D01*
X161054089Y-82225257D01*
X161600086Y-81999656D01*
X162018188Y-81582283D01*
X162244742Y-81036681D01*
X162245257Y-80445911D01*
X162019656Y-79899914D01*
X161783153Y-79662998D01*
X161857765Y-79648157D01*
X162067809Y-79507809D01*
X162208157Y-79297765D01*
X162257440Y-79050000D01*
X162257440Y-77442619D01*
X239764613Y-77442619D01*
X240104155Y-78264372D01*
X240732321Y-78893636D01*
X241553481Y-79234611D01*
X242442619Y-79235387D01*
X243264372Y-78895845D01*
X243893636Y-78267679D01*
X244234611Y-77446519D01*
X244234614Y-77442619D01*
X341764613Y-77442619D01*
X342104155Y-78264372D01*
X342732321Y-78893636D01*
X343553481Y-79234611D01*
X344442619Y-79235387D01*
X345264372Y-78895845D01*
X345893636Y-78267679D01*
X346234611Y-77446519D01*
X346235387Y-76557381D01*
X345895845Y-75735628D01*
X345267679Y-75106364D01*
X344446519Y-74765389D01*
X343557381Y-74764613D01*
X342735628Y-75104155D01*
X342106364Y-75732321D01*
X341765389Y-76553481D01*
X341764613Y-77442619D01*
X244234614Y-77442619D01*
X244235387Y-76557381D01*
X243895845Y-75735628D01*
X243267679Y-75106364D01*
X242446519Y-74765389D01*
X241557381Y-74764613D01*
X240735628Y-75104155D01*
X240106364Y-75732321D01*
X239765389Y-76553481D01*
X239764613Y-77442619D01*
X162257440Y-77442619D01*
X162257440Y-77350000D01*
X162208157Y-77102235D01*
X162067809Y-76892191D01*
X161857765Y-76751843D01*
X161610000Y-76702560D01*
X159910000Y-76702560D01*
X159662235Y-76751843D01*
X159452191Y-76892191D01*
X159311843Y-77102235D01*
X159296986Y-77176925D01*
X159062283Y-76941812D01*
X158516681Y-76715258D01*
X157925911Y-76714743D01*
X157379914Y-76940344D01*
X156961812Y-77357717D01*
X156950252Y-77385557D01*
X156939656Y-77359914D01*
X156522283Y-76941812D01*
X155976681Y-76715258D01*
X155385911Y-76714743D01*
X154839914Y-76940344D01*
X154421812Y-77357717D01*
X154410252Y-77385557D01*
X154399656Y-77359914D01*
X153982283Y-76941812D01*
X153436681Y-76715258D01*
X152845911Y-76714743D01*
X152299914Y-76940344D01*
X151881812Y-77357717D01*
X151870252Y-77385557D01*
X151859656Y-77359914D01*
X151442283Y-76941812D01*
X150896681Y-76715258D01*
X150305911Y-76714743D01*
X149759914Y-76940344D01*
X149341812Y-77357717D01*
X149115258Y-77903319D01*
X149114743Y-78494089D01*
X142666830Y-78494089D01*
X142893636Y-78267679D01*
X143234611Y-77446519D01*
X143235387Y-76557381D01*
X142895845Y-75735628D01*
X142267679Y-75106364D01*
X141446519Y-74765389D01*
X140557381Y-74764613D01*
X139735628Y-75104155D01*
X139106364Y-75732321D01*
X138765389Y-76553481D01*
X138764613Y-77442619D01*
X38234614Y-77442619D01*
X38235387Y-76557381D01*
X37895845Y-75735628D01*
X37267679Y-75106364D01*
X36446519Y-74765389D01*
X35557381Y-74764613D01*
X34735628Y-75104155D01*
X34106364Y-75732321D01*
X33765389Y-76553481D01*
X33764613Y-77442619D01*
X32710000Y-77442619D01*
X32710000Y-71710000D01*
X347290000Y-71710000D01*
X347290000Y-86515000D01*
M02*
