M48
;DRILL file {KiCad no-vcs-found-96b3286~58~ubuntu16.04.1} date Fri Mar  3 14:08:39 2017
;FORMAT={-:-/ absolute / metric / decimal}
FMAT,2
METRIC,TZ
T1C0.600
T2C0.800
T3C1.000
T4C3.200
%
G90
G05
M71
T1
X33.4Y-86.
X33.4Y-86.
X33.4Y-102.6
X35.4Y-87.8
X48.6Y-104.98
X48.6Y-107.52
X51.Y-101.2
X51.4Y-104.98
X51.4Y-107.52
X65.Y-105.5
X70.Y-112.
X70.Y-118.
X70.8Y-99.
X88.6Y-104.98
X88.6Y-107.52
X91.4Y-104.98
X91.4Y-107.52
X105.5Y-95.25
X105.5Y-102.25
X110.75Y-99.25
X110.75Y-103.75
X112.25Y-109.
X112.5Y-102.5
X114.Y-99.25
X114.Y-111.75
X116.Y-112.2
X116.25Y-95.25
X118.75Y-118.
X121.5Y-99.75
X121.75Y-105.5
X122.Y-109.
X122.75Y-102.5
X124.5Y-96.75
X124.5Y-103.75
X126.Y-98.75
X126.Y-112.5
X126.8Y-88.8
X126.8Y-93.2
X128.6Y-104.98
X128.6Y-107.52
X131.4Y-104.98
X131.4Y-107.52
X134.Y-102.5
X168.6Y-104.98
X168.6Y-107.52
X171.4Y-104.98
X171.4Y-107.52
X173.Y-101.8
X173.25Y-112.5
X183.Y-98.2
X183.4Y-89.
X185.4Y-97.8
X185.6Y-89.
X185.75Y-112.25
X187.8Y-89.
X187.8Y-94.75
X190.Y-89.
X190.Y-99.4
X194.2Y-94.4
X195.6Y-92.4
X196.Y-89.
X197.4Y-107.
X198.6Y-91.3
X199.Y-94.4
X203.8Y-84.8
X208.6Y-104.98
X208.6Y-107.52
X208.8Y-84.8
X208.8Y-94.2
X210.6Y-87.4
X210.6Y-98.8
X211.4Y-104.98
X211.4Y-107.52
X212.2Y-96.5
X212.6Y-87.4
X213.8Y-93.6
X214.25Y-102.5
X214.6Y-87.4
X248.6Y-104.98
X248.6Y-107.52
X251.4Y-104.98
X251.4Y-107.52
X253.5Y-111.25
X254.Y-95.
X254.Y-102.25
X266.25Y-96.5
X266.25Y-103.5
X268.75Y-98.
X268.75Y-112.5
X270.5Y-109.
X271.708Y-102.58
X274.75Y-112.5
X276.25Y-118.
X276.25Y-94.5
X278.5Y-99.75
X280.75Y-105.75
X280.75Y-109.
X283.Y-103.5
X284.75Y-96.25
X284.75Y-112.5
X287.25Y-98.
X287.25Y-102.
X288.6Y-104.98
X288.6Y-107.52
X291.4Y-104.98
X291.4Y-107.52
X291.5Y-109.75
X293.5Y-111.
X294.Y-102.
X328.6Y-104.98
X328.6Y-107.52
X330.Y-96.
X331.Y-101.25
X331.4Y-104.98
X331.4Y-107.52
X344.4Y-100.8
X344.6Y-87.
X346.6Y-85.4
X346.6Y-103.2
T2
X57.Y-107.25
X59.54Y-109.79
X62.08Y-107.25
X68.Y-107.25
X70.54Y-109.79
X73.08Y-107.25
X97.Y-106.71
X99.54Y-109.25
X102.08Y-106.71
X137.Y-107.25
X139.54Y-109.79
X142.08Y-107.25
X177.Y-107.25
X179.54Y-109.79
X182.08Y-107.25
X217.Y-107.25
X219.54Y-109.79
X222.08Y-107.25
X257.Y-107.25
X259.54Y-109.79
X262.08Y-107.25
X297.Y-107.25
X299.54Y-109.79
X302.08Y-107.25
X317.92Y-107.25
X320.46Y-109.79
X323.Y-107.25
T3
X33.27Y-88.
X33.27Y-90.54
X33.27Y-93.08
X33.27Y-95.62
X33.27Y-98.16
X33.27Y-100.7
X150.6Y-78.2
X150.6Y-80.74
X153.14Y-78.2
X153.14Y-80.74
X155.68Y-78.2
X155.68Y-80.74
X158.22Y-78.2
X158.22Y-80.74
X160.76Y-78.2
X160.76Y-80.74
X346.73Y-88.
X346.73Y-90.54
X346.73Y-93.08
X346.73Y-95.62
X346.73Y-98.16
X346.73Y-100.7
T4
X36.Y-77.
X36.Y-114.
X141.Y-77.
X148.Y-112.
X242.Y-77.
X242.Y-111.
X344.Y-77.
X344.Y-114.
T0
M30
