G04 #@! TF.GenerationSoftware,KiCad,Pcbnew,no-vcs-found-96b3286~58~ubuntu16.04.1*
G04 #@! TF.CreationDate,2017-03-03T14:08:36+02:00*
G04 #@! TF.ProjectId,line-sensor,6C696E652D73656E736F722E6B696361,rev?*
G04 #@! TF.FileFunction,Copper,L1,Top,Signal*
G04 #@! TF.FilePolarity,Positive*
%FSLAX46Y46*%
G04 Gerber Fmt 4.6, Leading zero omitted, Abs format (unit mm)*
G04 Created by KiCad (PCBNEW no-vcs-found-96b3286~58~ubuntu16.04.1) date Fri Mar  3 14:08:36 2017*
%MOMM*%
%LPD*%
G01*
G04 APERTURE LIST*
%ADD10C,0.100000*%
%ADD11O,2.200000X1.700000*%
%ADD12R,2.200000X1.700000*%
%ADD13R,1.700000X1.700000*%
%ADD14C,1.700000*%
%ADD15R,1.500000X0.600000*%
%ADD16C,1.440000*%
%ADD17R,2.400000X1.600000*%
%ADD18O,2.400000X1.600000*%
%ADD19R,0.750000X1.200000*%
%ADD20R,1.200000X0.750000*%
%ADD21R,1.200000X0.900000*%
%ADD22R,0.900000X1.200000*%
%ADD23R,1.550000X0.600000*%
%ADD24R,0.600000X2.000000*%
%ADD25C,1.600000*%
%ADD26C,0.600000*%
%ADD27C,1.000000*%
%ADD28C,0.800000*%
%ADD29C,2.000000*%
%ADD30C,0.254000*%
G04 APERTURE END LIST*
D10*
D11*
X33270000Y-100700000D03*
X33270000Y-98160000D03*
X33270000Y-95620000D03*
X33270000Y-93080000D03*
X33270000Y-90540000D03*
D12*
X33270000Y-88000000D03*
X346730000Y-88000000D03*
D11*
X346730000Y-90540000D03*
X346730000Y-93080000D03*
X346730000Y-95620000D03*
X346730000Y-98160000D03*
X346730000Y-100700000D03*
D13*
X160760000Y-78200000D03*
D14*
X160760000Y-80740000D03*
X158220000Y-78200000D03*
X158220000Y-80740000D03*
X155680000Y-78200000D03*
X155680000Y-80740000D03*
X153140000Y-78200000D03*
X153140000Y-80740000D03*
X150600000Y-78200000D03*
X150600000Y-80740000D03*
D15*
X193700000Y-105045000D03*
X193700000Y-103775000D03*
X193700000Y-102505000D03*
X193700000Y-101235000D03*
X193700000Y-99965000D03*
X193700000Y-98695000D03*
X193700000Y-97425000D03*
X193700000Y-96155000D03*
X199100000Y-96155000D03*
X199100000Y-97425000D03*
X199100000Y-98695000D03*
X199100000Y-99965000D03*
X199100000Y-101235000D03*
X199100000Y-102505000D03*
X199100000Y-103775000D03*
X199100000Y-105045000D03*
D16*
X323000000Y-107250000D03*
X320460000Y-109790000D03*
X317920000Y-107250000D03*
D15*
X278700000Y-109060000D03*
X278700000Y-107790000D03*
X278700000Y-106520000D03*
X278700000Y-105250000D03*
X278700000Y-103980000D03*
X278700000Y-102710000D03*
X278700000Y-101440000D03*
X273300000Y-101440000D03*
X273300000Y-102710000D03*
X273300000Y-103980000D03*
X273300000Y-105250000D03*
X273300000Y-106520000D03*
X273300000Y-107790000D03*
X273300000Y-109060000D03*
D16*
X102080000Y-106710000D03*
X99540000Y-109250000D03*
X97000000Y-106710000D03*
X62080000Y-107250000D03*
X59540000Y-109790000D03*
X57000000Y-107250000D03*
X142080000Y-107250000D03*
X139540000Y-109790000D03*
X137000000Y-107250000D03*
X182080000Y-107250000D03*
X179540000Y-109790000D03*
X177000000Y-107250000D03*
X222080000Y-107250000D03*
X219540000Y-109790000D03*
X217000000Y-107250000D03*
X262080000Y-107250000D03*
X259540000Y-109790000D03*
X257000000Y-107250000D03*
X302080000Y-107250000D03*
X299540000Y-109790000D03*
X297000000Y-107250000D03*
X73080000Y-107250000D03*
X70540000Y-109790000D03*
X68000000Y-107250000D03*
D17*
X128600000Y-107520000D03*
D18*
X131400000Y-107520000D03*
X128600000Y-104980000D03*
X131400000Y-104980000D03*
D17*
X328600000Y-107520000D03*
D18*
X331400000Y-107520000D03*
X328600000Y-104980000D03*
X331400000Y-104980000D03*
D17*
X288600000Y-107520000D03*
D18*
X291400000Y-107520000D03*
X288600000Y-104980000D03*
X291400000Y-104980000D03*
D17*
X248600000Y-107520000D03*
D18*
X251400000Y-107520000D03*
X248600000Y-104980000D03*
X251400000Y-104980000D03*
D17*
X208600000Y-107520000D03*
D18*
X211400000Y-107520000D03*
X208600000Y-104980000D03*
X211400000Y-104980000D03*
D17*
X168600000Y-107520000D03*
D18*
X171400000Y-107520000D03*
X168600000Y-104980000D03*
X171400000Y-104980000D03*
D17*
X88600000Y-107520000D03*
D18*
X91400000Y-107520000D03*
X88600000Y-104980000D03*
X91400000Y-104980000D03*
D17*
X48600000Y-107520000D03*
D18*
X51400000Y-107520000D03*
X48600000Y-104980000D03*
X51400000Y-104980000D03*
D19*
X67000000Y-103550000D03*
X67000000Y-105450000D03*
D20*
X72550000Y-99250000D03*
X74450000Y-99250000D03*
X116000000Y-110750000D03*
X117900000Y-110750000D03*
X276900000Y-110750000D03*
X275000000Y-110750000D03*
X195550000Y-106600000D03*
X193650000Y-106600000D03*
D21*
X51100000Y-102750000D03*
X48900000Y-102750000D03*
X88900000Y-102750000D03*
X91100000Y-102750000D03*
X131100000Y-102750000D03*
X128900000Y-102750000D03*
X168900000Y-102750000D03*
X171100000Y-102750000D03*
X208900000Y-102750000D03*
X211100000Y-102750000D03*
X251100000Y-102750000D03*
X248900000Y-102750000D03*
X291100000Y-102750000D03*
X288900000Y-102750000D03*
X331100000Y-102750000D03*
X328900000Y-102750000D03*
D22*
X117250000Y-99100000D03*
X117250000Y-96900000D03*
X115750000Y-96900000D03*
X115750000Y-99100000D03*
X118750000Y-99100000D03*
X118750000Y-96900000D03*
X120250000Y-96900000D03*
X120250000Y-99100000D03*
X274000000Y-98350000D03*
X274000000Y-96150000D03*
X275500000Y-98350000D03*
X275500000Y-96150000D03*
X277000000Y-96150000D03*
X277000000Y-98350000D03*
X278500000Y-98350000D03*
X278500000Y-96150000D03*
D21*
X107600000Y-107250000D03*
X105400000Y-107250000D03*
X105400000Y-110750000D03*
X107600000Y-110750000D03*
X123900000Y-107250000D03*
X126100000Y-107250000D03*
X126100000Y-110750000D03*
X123900000Y-110750000D03*
X266400000Y-107250000D03*
X268600000Y-107250000D03*
X268600000Y-110750000D03*
X266400000Y-110750000D03*
X285100000Y-107250000D03*
X282900000Y-107250000D03*
X282900000Y-110750000D03*
X285100000Y-110750000D03*
D23*
X74200000Y-100845000D03*
X74200000Y-102115000D03*
X74200000Y-103385000D03*
X74200000Y-104655000D03*
X68800000Y-104655000D03*
X68800000Y-103385000D03*
X68800000Y-102115000D03*
X68800000Y-100845000D03*
D15*
X114300000Y-109060000D03*
X114300000Y-107790000D03*
X114300000Y-106520000D03*
X114300000Y-105250000D03*
X114300000Y-103980000D03*
X114300000Y-102710000D03*
X114300000Y-101440000D03*
X119700000Y-101440000D03*
X119700000Y-102710000D03*
X119700000Y-103980000D03*
X119700000Y-105250000D03*
X119700000Y-106520000D03*
X119700000Y-107790000D03*
X119700000Y-109060000D03*
D24*
X191720000Y-75400000D03*
X192990000Y-75400000D03*
X194260000Y-75400000D03*
X195530000Y-75400000D03*
X196800000Y-75400000D03*
X198070000Y-75400000D03*
X199340000Y-75400000D03*
X200610000Y-75400000D03*
X201880000Y-75400000D03*
X201880000Y-84800000D03*
X200610000Y-84800000D03*
X199340000Y-84800000D03*
X198070000Y-84800000D03*
X196800000Y-84800000D03*
X195530000Y-84800000D03*
X194260000Y-84800000D03*
X192990000Y-84800000D03*
X191720000Y-84800000D03*
D21*
X107600000Y-105500000D03*
X105400000Y-105500000D03*
X105400000Y-109000000D03*
X107600000Y-109000000D03*
X123900000Y-105500000D03*
X126100000Y-105500000D03*
X126100000Y-109000000D03*
X123900000Y-109000000D03*
X268600000Y-109000000D03*
X266400000Y-109000000D03*
X266400000Y-105500000D03*
X268600000Y-105500000D03*
X282900000Y-105500000D03*
X285100000Y-105500000D03*
X285100000Y-109000000D03*
X282900000Y-109000000D03*
D25*
X254000000Y-95000000D03*
X330000000Y-96000000D03*
X33400000Y-102600000D03*
X35400000Y-87800000D03*
X33400000Y-86000000D03*
X344600000Y-87000000D03*
X346600000Y-85400000D03*
X344400000Y-100800000D03*
X346600000Y-103200000D03*
X173000000Y-101799994D03*
X70800000Y-99000000D03*
X116000000Y-112200000D03*
X51000000Y-101200000D03*
X203800000Y-84800000D03*
X197400000Y-107000000D03*
X199000000Y-94400000D03*
X134000000Y-102500000D03*
X274750000Y-112500000D03*
X294000000Y-102000000D03*
X331000000Y-101250000D03*
X293500000Y-111000000D03*
X253500000Y-111250000D03*
X254000000Y-102250000D03*
X185750000Y-112250000D03*
X173250000Y-112500000D03*
X214250000Y-102500000D03*
X65000000Y-105500000D03*
X112500000Y-102500000D03*
X112250000Y-109000000D03*
X121500000Y-99750000D03*
X122000000Y-109000000D03*
X271707628Y-102579990D03*
X270500000Y-109000000D03*
X280750000Y-109000000D03*
X278500000Y-99749996D03*
X187800000Y-94750000D03*
X187800000Y-89000000D03*
X105500000Y-95250000D03*
X105500000Y-102250000D03*
X190000000Y-99400000D03*
X190000000Y-89000000D03*
X114000000Y-99250000D03*
X114000000Y-111750000D03*
X185400000Y-97800000D03*
X185600000Y-89000000D03*
X124500000Y-96750000D03*
X124500000Y-103750000D03*
X183000000Y-98200000D03*
X183400000Y-89000000D03*
X126000000Y-98749998D03*
X126000000Y-112500000D03*
X212200000Y-96500000D03*
X212600000Y-87400000D03*
X266250000Y-103500000D03*
X266250000Y-96500000D03*
X210600000Y-98800000D03*
X210600000Y-87400000D03*
X268750000Y-112500000D03*
X268750000Y-98000000D03*
X213800000Y-93600000D03*
X214600000Y-87400000D03*
X287250000Y-102000000D03*
X287250000Y-98000000D03*
X208800000Y-84800000D03*
X208800000Y-94200000D03*
X284750000Y-112500002D03*
X284749996Y-96250000D03*
X122750000Y-102500000D03*
X121750000Y-105500000D03*
X283000000Y-103500000D03*
X280750000Y-105750000D03*
X291500000Y-109750000D03*
X126800000Y-88800000D03*
X126800000Y-93200000D03*
X198600000Y-91300010D03*
X195600000Y-92400000D03*
X196000000Y-89000000D03*
X194199998Y-94400000D03*
X116250000Y-95249998D03*
X276250000Y-118000000D03*
X276250006Y-94500000D03*
X118750000Y-118000002D03*
X70000000Y-118000000D03*
X70000000Y-112000000D03*
X110750000Y-99250000D03*
X110750000Y-103750000D03*
D26*
X68800000Y-103385000D02*
X67165000Y-103385000D01*
X67165000Y-103385000D02*
X67000000Y-103550000D01*
X68800000Y-103385000D02*
X70175000Y-103385000D01*
X70175000Y-103385000D02*
X70540000Y-103750000D01*
X70540000Y-103750000D02*
X70540000Y-108771767D01*
X70540000Y-108771767D02*
X70540000Y-109790000D01*
D27*
X70500000Y-109830000D02*
X70540000Y-109790000D01*
D26*
X33270000Y-88000000D02*
X35200000Y-88000000D01*
X35200000Y-88000000D02*
X35400000Y-87800000D01*
X346730000Y-88000000D02*
X345600000Y-88000000D01*
X345600000Y-88000000D02*
X344600000Y-87000000D01*
X346730000Y-100700000D02*
X344500000Y-100700000D01*
X344500000Y-100700000D02*
X344400000Y-100800000D01*
X172300000Y-102750000D02*
X173000000Y-102050000D01*
X171100000Y-102750000D02*
X172300000Y-102750000D01*
X173000000Y-102050000D02*
X173000000Y-101799994D01*
X72550000Y-99250000D02*
X71050000Y-99250000D01*
X71050000Y-99250000D02*
X70800000Y-99000000D01*
X116000000Y-110750000D02*
X116000000Y-112200000D01*
X51100000Y-102750000D02*
X51100000Y-101300000D01*
X51100000Y-101300000D02*
X51000000Y-101200000D01*
X201880000Y-84800000D02*
X203800000Y-84800000D01*
X195550000Y-106600000D02*
X197000000Y-106600000D01*
X197000000Y-106600000D02*
X197400000Y-107000000D01*
X193700000Y-103775000D02*
X194380002Y-103775000D01*
X194380002Y-103775000D02*
X195550000Y-104944998D01*
X195550000Y-104944998D02*
X195550000Y-105625000D01*
X195550000Y-105625000D02*
X195550000Y-106600000D01*
X199100000Y-96155000D02*
X199100000Y-94500000D01*
X199100000Y-94500000D02*
X199000000Y-94400000D01*
X131100000Y-102750000D02*
X133750000Y-102750000D01*
X133750000Y-102750000D02*
X134000000Y-102500000D01*
X114300000Y-106520000D02*
X115650000Y-106520000D01*
X115650000Y-106520000D02*
X116000000Y-106870000D01*
X116000000Y-106870000D02*
X116000000Y-109775000D01*
X116000000Y-109775000D02*
X116000000Y-110750000D01*
D28*
X273300000Y-106520000D02*
X274850000Y-106520000D01*
X274850000Y-106520000D02*
X275000000Y-106670000D01*
X275000000Y-106670000D02*
X275000000Y-109575000D01*
X275000000Y-109575000D02*
X275000000Y-110750000D01*
X275000000Y-110750000D02*
X275000000Y-112250000D01*
X275000000Y-112250000D02*
X274750000Y-112500000D01*
D26*
X293250000Y-102750000D02*
X294000000Y-102000000D01*
X291100000Y-102750000D02*
X293250000Y-102750000D01*
X331100000Y-102750000D02*
X331100000Y-101350000D01*
X331100000Y-101350000D02*
X331000000Y-101250000D01*
X259540000Y-109790000D02*
X254960000Y-109790000D01*
X254960000Y-109790000D02*
X253500000Y-111250000D01*
X253500000Y-102750000D02*
X254000000Y-102250000D01*
X251100000Y-102750000D02*
X253500000Y-102750000D01*
X179540000Y-109790000D02*
X175960000Y-109790000D01*
X175960000Y-109790000D02*
X173250000Y-112500000D01*
X211100000Y-102750000D02*
X214000000Y-102750000D01*
X214000000Y-102750000D02*
X214250000Y-102500000D01*
X68000000Y-107250000D02*
X68000000Y-105455000D01*
X68000000Y-105455000D02*
X68005000Y-105450000D01*
X67000000Y-105450000D02*
X68005000Y-105450000D01*
X68005000Y-105450000D02*
X68800000Y-104655000D01*
X67000000Y-105450000D02*
X65050000Y-105450000D01*
X65050000Y-105450000D02*
X65000000Y-105500000D01*
D29*
X49000000Y-115750000D02*
X45750000Y-115750000D01*
X45750000Y-115750000D02*
X38000000Y-108000000D01*
X38000000Y-108000000D02*
X38000000Y-101687919D01*
X38000000Y-101687919D02*
X34472081Y-98160000D01*
X34472081Y-98160000D02*
X33270000Y-98160000D01*
X73000000Y-115750000D02*
X49000000Y-115750000D01*
X49000000Y-115750000D02*
X48600000Y-115350000D01*
X48600000Y-115350000D02*
X48600000Y-107520000D01*
D26*
X193650000Y-106600000D02*
X193650000Y-115400000D01*
X193650000Y-115400000D02*
X194000000Y-115750000D01*
X193650000Y-106600000D02*
X193650000Y-105095000D01*
X193650000Y-105095000D02*
X193700000Y-105045000D01*
D29*
X288500000Y-115750000D02*
X328500000Y-115750000D01*
X328500000Y-115750000D02*
X333250000Y-115750000D01*
X328600000Y-107520000D02*
X328600000Y-115650000D01*
X328600000Y-115650000D02*
X328500000Y-115750000D01*
X333250000Y-115750000D02*
X340000000Y-109000000D01*
X340000000Y-109000000D02*
X340000000Y-101000000D01*
X342840000Y-98160000D02*
X346730000Y-98160000D01*
X340000000Y-101000000D02*
X342840000Y-98160000D01*
D26*
X105400000Y-110750000D02*
X105400000Y-115650046D01*
X105400000Y-115650046D02*
X105500000Y-115750046D01*
X105400000Y-107250000D02*
X105250000Y-107250000D01*
X105250000Y-107250000D02*
X104200000Y-108300000D01*
X104200000Y-110200000D02*
X104750000Y-110750000D01*
X104200000Y-108300000D02*
X104200000Y-110200000D01*
X104750000Y-110750000D02*
X105400000Y-110750000D01*
D29*
X128600000Y-107520000D02*
X128600000Y-110750000D01*
X128600000Y-110750000D02*
X128600000Y-115650000D01*
D26*
X126100000Y-110750000D02*
X128600000Y-110750000D01*
X126100000Y-107250000D02*
X128330000Y-107250000D01*
X128330000Y-107250000D02*
X128600000Y-107520000D01*
D29*
X125999953Y-115749999D02*
X117750000Y-115749999D01*
D26*
X117900000Y-115599999D02*
X117750000Y-115749999D01*
D29*
X117750000Y-115749999D02*
X116500047Y-115749999D01*
D26*
X117900000Y-110750000D02*
X117900000Y-115599999D01*
X117900000Y-110750000D02*
X117900000Y-106970000D01*
X117900000Y-106970000D02*
X118350000Y-106520000D01*
X118350000Y-106520000D02*
X119700000Y-106520000D01*
D28*
X277000000Y-115750000D02*
X276900000Y-115650000D01*
X276900000Y-115650000D02*
X276900000Y-110750000D01*
X278700000Y-106520000D02*
X277150000Y-106520000D01*
X276900000Y-106770000D02*
X276900000Y-109575000D01*
X277150000Y-106520000D02*
X276900000Y-106770000D01*
X276900000Y-109575000D02*
X276900000Y-110750000D01*
D26*
X285100000Y-107250000D02*
X288330000Y-107250000D01*
X288330000Y-107250000D02*
X288600000Y-107520000D01*
D29*
X288600000Y-107520000D02*
X288600000Y-110750000D01*
X288600000Y-110750000D02*
X288600000Y-115650000D01*
D26*
X285100000Y-110750000D02*
X288600000Y-110750000D01*
X266400000Y-110750000D02*
X266250000Y-110750000D01*
X266250000Y-110750000D02*
X265200000Y-109700000D01*
X265200000Y-109700000D02*
X265200000Y-108300000D01*
X265200000Y-108300000D02*
X266250000Y-107250000D01*
X266250000Y-107250000D02*
X266400000Y-107250000D01*
X266400000Y-113750000D02*
X266400000Y-110750000D01*
D29*
X277000000Y-115750000D02*
X266500000Y-115750000D01*
X126000000Y-115750046D02*
X125999953Y-115749999D01*
X116500047Y-115749999D02*
X116500000Y-115750046D01*
X208500000Y-115750000D02*
X194000000Y-115750000D01*
X194000000Y-115750000D02*
X168500000Y-115750000D01*
D26*
X73080000Y-107250000D02*
X73080000Y-106231767D01*
X72750000Y-105901767D02*
X72750000Y-101589998D01*
X73080000Y-106231767D02*
X72750000Y-105901767D01*
X72750000Y-101589998D02*
X73494998Y-100845000D01*
X73494998Y-100845000D02*
X74200000Y-100845000D01*
X74200000Y-100845000D02*
X74200000Y-99500000D01*
X74200000Y-99500000D02*
X74450000Y-99250000D01*
X208600000Y-107520000D02*
X208860000Y-107520000D01*
X208860000Y-107520000D02*
X211400000Y-104980000D01*
D29*
X116500000Y-115750046D02*
X105500000Y-115750046D01*
X105500000Y-115750046D02*
X88500046Y-115750046D01*
D26*
X128600000Y-107520000D02*
X128860000Y-107520000D01*
X128860000Y-107520000D02*
X131400000Y-104980000D01*
X88600000Y-107520000D02*
X88860000Y-107520000D01*
X88860000Y-107520000D02*
X91400000Y-104980000D01*
D29*
X128499954Y-115750046D02*
X126000000Y-115750046D01*
X88500046Y-115750046D02*
X88500000Y-115750000D01*
X128500000Y-115750000D02*
X128499954Y-115750046D01*
D27*
X168600000Y-107520000D02*
X168860000Y-107520000D01*
X168860000Y-107520000D02*
X171400000Y-104980000D01*
X48600000Y-107520000D02*
X48860000Y-107520000D01*
X48860000Y-107520000D02*
X51400000Y-104980000D01*
D29*
X88500000Y-115750000D02*
X73000000Y-115750000D01*
D27*
X73080000Y-107250000D02*
X73080000Y-115670000D01*
X73080000Y-115670000D02*
X73000000Y-115750000D01*
D29*
X266500000Y-115750000D02*
X249000000Y-115750000D01*
D26*
X266400000Y-113750000D02*
X266400000Y-115650000D01*
X266400000Y-115650000D02*
X266500000Y-115750000D01*
D29*
X288500000Y-115750000D02*
X285500000Y-115750000D01*
X285500000Y-115750000D02*
X277000000Y-115750000D01*
D26*
X248600000Y-107520000D02*
X248860000Y-107520000D01*
X248860000Y-107520000D02*
X251400000Y-104980000D01*
D29*
X288600000Y-115650000D02*
X288500000Y-115750000D01*
X249000000Y-115750000D02*
X208500000Y-115750000D01*
X248600000Y-107520000D02*
X248600000Y-115350000D01*
X248600000Y-115350000D02*
X249000000Y-115750000D01*
X208600000Y-107520000D02*
X208600000Y-115650000D01*
X208600000Y-115650000D02*
X208500000Y-115750000D01*
X168500000Y-115750000D02*
X128500000Y-115750000D01*
X168600000Y-107520000D02*
X168600000Y-115650000D01*
X168600000Y-115650000D02*
X168500000Y-115750000D01*
X128600000Y-115650000D02*
X128500000Y-115750000D01*
X88600000Y-107520000D02*
X88600000Y-115650000D01*
X88600000Y-115650000D02*
X88500000Y-115750000D01*
D28*
X331400000Y-104980000D02*
X331140000Y-104980000D01*
X331140000Y-104980000D02*
X328600000Y-107520000D01*
X291400000Y-104980000D02*
X291140000Y-104980000D01*
X291140000Y-104980000D02*
X288600000Y-107520000D01*
D26*
X88600000Y-104980000D02*
X88600000Y-103050000D01*
X88600000Y-103050000D02*
X88900000Y-102750000D01*
X128600000Y-104980000D02*
X128600000Y-103050000D01*
X128600000Y-103050000D02*
X128900000Y-102750000D01*
X168600000Y-104980000D02*
X168600000Y-103050000D01*
X168600000Y-103050000D02*
X168900000Y-102750000D01*
X208600000Y-104980000D02*
X208600000Y-103050000D01*
X208600000Y-103050000D02*
X208900000Y-102750000D01*
X248600000Y-104980000D02*
X248600000Y-103050000D01*
X248600000Y-103050000D02*
X248900000Y-102750000D01*
X288600000Y-104980000D02*
X288600000Y-103050000D01*
X288600000Y-103050000D02*
X288900000Y-102750000D01*
X328600000Y-104980000D02*
X328600000Y-103050000D01*
X328600000Y-103050000D02*
X328900000Y-102750000D01*
X112710000Y-102710000D02*
X112500000Y-102500000D01*
X114300000Y-102710000D02*
X112710000Y-102710000D01*
X107600000Y-109000000D02*
X112250000Y-109000000D01*
X115750000Y-99100000D02*
X115750000Y-102610000D01*
X115750000Y-102610000D02*
X115650000Y-102710000D01*
X115650000Y-102710000D02*
X114300000Y-102710000D01*
X122230000Y-103980000D02*
X123750000Y-105500000D01*
X123750000Y-105500000D02*
X123900000Y-105500000D01*
X119700000Y-103980000D02*
X122230000Y-103980000D01*
X118750000Y-99100000D02*
X118750000Y-100300000D01*
X118750000Y-100300000D02*
X118250000Y-100800000D01*
X118250000Y-100800000D02*
X118250000Y-103210002D01*
X118250000Y-103210002D02*
X119019998Y-103980000D01*
X119019998Y-103980000D02*
X119700000Y-103980000D01*
X121500000Y-99750000D02*
X120900000Y-99750000D01*
X120900000Y-99750000D02*
X120250000Y-99100000D01*
X123900000Y-109000000D02*
X122000000Y-109000000D01*
X120250000Y-99100000D02*
X120250000Y-100890000D01*
X120250000Y-100890000D02*
X119700000Y-101440000D01*
X273300000Y-102710000D02*
X271837638Y-102710000D01*
X271837638Y-102710000D02*
X271707628Y-102579990D01*
X274000000Y-98350000D02*
X274000000Y-99550000D01*
X274000000Y-99550000D02*
X275000000Y-100550000D01*
X275000000Y-100550000D02*
X275000000Y-102000000D01*
X275000000Y-102000000D02*
X274290000Y-102710000D01*
X274290000Y-102710000D02*
X273300000Y-102710000D01*
X268600000Y-109000000D02*
X270500000Y-109000000D01*
X275500000Y-98350000D02*
X275500000Y-99250000D01*
X275500000Y-99250000D02*
X275800010Y-99550010D01*
X275800010Y-99550010D02*
X275800010Y-104099990D01*
X275800010Y-104099990D02*
X274650000Y-105250000D01*
X274650000Y-105250000D02*
X273300000Y-105250000D01*
X273300000Y-105250000D02*
X268850000Y-105250000D01*
X268850000Y-105250000D02*
X268600000Y-105500000D01*
X278700000Y-103980000D02*
X281380000Y-103980000D01*
X281380000Y-103980000D02*
X282900000Y-105500000D01*
X277000000Y-98350000D02*
X277000000Y-103630000D01*
X277350000Y-103980000D02*
X278700000Y-103980000D01*
X277000000Y-103630000D02*
X277350000Y-103980000D01*
X278500000Y-99749996D02*
X278500000Y-98350000D01*
X282900000Y-109000000D02*
X280750000Y-109000000D01*
X278500000Y-98350000D02*
X278500000Y-101240000D01*
X278500000Y-101240000D02*
X278700000Y-101440000D01*
X278500000Y-98350000D02*
X278357107Y-98492893D01*
X278700000Y-101440000D02*
X279150000Y-101440000D01*
X187800000Y-94750000D02*
X188550000Y-94750000D01*
X191720000Y-84800000D02*
X190820000Y-84800000D01*
X190820000Y-84800000D02*
X187800000Y-87820000D01*
X187800000Y-87820000D02*
X187800000Y-89000000D01*
X105500000Y-95250000D02*
X112250000Y-95250000D01*
X112250000Y-95250000D02*
X115000000Y-92500000D01*
X115000000Y-92500000D02*
X123750000Y-92500000D01*
X123750000Y-92500000D02*
X126000000Y-94750000D01*
X126000000Y-94750000D02*
X188550000Y-94750000D01*
X188550000Y-94750000D02*
X192495000Y-98695000D01*
X192495000Y-98695000D02*
X193700000Y-98695000D01*
X105400000Y-105500000D02*
X105400000Y-102350000D01*
X105400000Y-102350000D02*
X105500000Y-102250000D01*
X105400000Y-105500000D02*
X105700000Y-105500000D01*
X105700000Y-105500000D02*
X107450000Y-107250000D01*
X107450000Y-107250000D02*
X107600000Y-107250000D01*
X114300000Y-107790000D02*
X112950000Y-107790000D01*
X112950000Y-107790000D02*
X112410000Y-107250000D01*
X112410000Y-107250000D02*
X107600000Y-107250000D01*
X190000000Y-99400000D02*
X190565000Y-99965000D01*
X114000000Y-99250000D02*
X114000000Y-95250000D01*
X114000000Y-95250000D02*
X115750000Y-93500000D01*
X115750000Y-93500000D02*
X123500000Y-93500000D01*
X123500000Y-93500000D02*
X125750000Y-95750000D01*
X125750000Y-95750000D02*
X186350000Y-95750000D01*
X186350000Y-95750000D02*
X190565000Y-99965000D01*
X190565000Y-99965000D02*
X193700000Y-99965000D01*
X190000000Y-99400000D02*
X190000000Y-99565000D01*
X190000000Y-99565000D02*
X190400000Y-99965000D01*
X192990000Y-84800000D02*
X192990000Y-86010000D01*
X192990000Y-86010000D02*
X190000000Y-89000000D01*
X113510000Y-110750000D02*
X113510000Y-111260000D01*
X113510000Y-111260000D02*
X114000000Y-111750000D01*
X105400000Y-109000000D02*
X105700000Y-109000000D01*
X105700000Y-109000000D02*
X107450000Y-110750000D01*
X107450000Y-110750000D02*
X107600000Y-110750000D01*
X107600000Y-110750000D02*
X113510000Y-110750000D01*
X113510000Y-110750000D02*
X114300000Y-109960000D01*
X114300000Y-109960000D02*
X114300000Y-109060000D01*
X194260000Y-84800000D02*
X194260000Y-83460000D01*
X194260000Y-83460000D02*
X193600000Y-82800000D01*
X193600000Y-82800000D02*
X191519998Y-82800000D01*
X191519998Y-82800000D02*
X185600000Y-88719998D01*
X185600000Y-88719998D02*
X185600000Y-89000000D01*
X184350000Y-96750000D02*
X184600000Y-97000000D01*
X184600000Y-97000000D02*
X188835000Y-101235000D01*
X185400000Y-97800000D02*
X184600000Y-97000000D01*
X124500000Y-96750000D02*
X184350000Y-96750000D01*
X188835000Y-101235000D02*
X193700000Y-101235000D01*
X126100000Y-105500000D02*
X126100000Y-105350000D01*
X126100000Y-105350000D02*
X124500000Y-103750000D01*
X123900000Y-107250000D02*
X121500000Y-107250000D01*
X121500000Y-107250000D02*
X120960000Y-107790000D01*
X120960000Y-107790000D02*
X119700000Y-107790000D01*
X123900000Y-107250000D02*
X124200000Y-107250000D01*
X124200000Y-107250000D02*
X125950000Y-105500000D01*
X125950000Y-105500000D02*
X126100000Y-105500000D01*
X195530000Y-84800000D02*
X195530000Y-83200000D01*
X184199999Y-88200001D02*
X183400000Y-89000000D01*
X195530000Y-83200000D02*
X194130000Y-81800000D01*
X194130000Y-81800000D02*
X190600000Y-81800000D01*
X190600000Y-81800000D02*
X184199999Y-88200001D01*
X183000000Y-98200000D02*
X183000000Y-98600000D01*
X183000000Y-98600000D02*
X183149998Y-98749998D01*
X126000000Y-98749998D02*
X183149998Y-98749998D01*
X183149998Y-98749998D02*
X186905000Y-102505000D01*
X186905000Y-102505000D02*
X193700000Y-102505000D01*
X123900000Y-110750000D02*
X124250000Y-110750000D01*
X124250000Y-110750000D02*
X126000000Y-112500000D01*
X119700000Y-109060000D02*
X121390000Y-110750000D01*
X121390000Y-110750000D02*
X123900000Y-110750000D01*
X123900000Y-110750000D02*
X124200000Y-110750000D01*
X124200000Y-110750000D02*
X125950000Y-109000000D01*
X125950000Y-109000000D02*
X126100000Y-109000000D01*
X198070000Y-84800000D02*
X198070000Y-86400000D01*
X198670000Y-87000000D02*
X209124002Y-87000000D01*
X211800001Y-86600001D02*
X212600000Y-87400000D01*
X211200000Y-86000000D02*
X211800001Y-86600001D01*
X198070000Y-86400000D02*
X198670000Y-87000000D01*
X209124002Y-87000000D02*
X210124002Y-86000000D01*
X210124002Y-86000000D02*
X211200000Y-86000000D01*
X266250000Y-96500000D02*
X212200000Y-96500000D01*
X212200000Y-96500000D02*
X210300000Y-96500000D01*
X210300000Y-96500000D02*
X205565000Y-101235000D01*
X205565000Y-101235000D02*
X199100000Y-101235000D01*
X266400000Y-103650000D02*
X266250000Y-103500000D01*
X266400000Y-105500000D02*
X266400000Y-103650000D01*
X271214004Y-107790000D02*
X270674004Y-107250000D01*
X270674004Y-107250000D02*
X269800000Y-107250000D01*
X273300000Y-107790000D02*
X271214004Y-107790000D01*
X269800000Y-107250000D02*
X268600000Y-107250000D01*
X268600000Y-107250000D02*
X268300000Y-107250000D01*
X268300000Y-107250000D02*
X266550000Y-105500000D01*
X266550000Y-105500000D02*
X266400000Y-105500000D01*
X196800000Y-84800000D02*
X196800000Y-86800000D01*
X210000000Y-88000000D02*
X210600000Y-87400000D01*
X196800000Y-86800000D02*
X198000000Y-88000000D01*
X198000000Y-88000000D02*
X210000000Y-88000000D01*
X210600000Y-98800000D02*
X210600000Y-98200000D01*
X210600000Y-98200000D02*
X210400000Y-98000000D01*
X268750000Y-98000000D02*
X210400000Y-98000000D01*
X205895000Y-102505000D02*
X199100000Y-102505000D01*
X210400000Y-98000000D02*
X205895000Y-102505000D01*
X268600000Y-112350000D02*
X268750000Y-112500000D01*
X268600000Y-110750000D02*
X268600000Y-112350000D01*
X268600000Y-110750000D02*
X268300000Y-110750000D01*
X266550000Y-109000000D02*
X266400000Y-109000000D01*
X268300000Y-110750000D02*
X266550000Y-109000000D01*
X273300000Y-109060000D02*
X272690000Y-109060000D01*
X272690000Y-109060000D02*
X271000000Y-110750000D01*
X271000000Y-110750000D02*
X268600000Y-110750000D01*
X199340000Y-84800000D02*
X199340000Y-83260000D01*
X200600000Y-82000000D02*
X209200000Y-82000000D01*
X199340000Y-83260000D02*
X200600000Y-82000000D01*
X209200000Y-82000000D02*
X214600000Y-87400000D01*
X278500000Y-93000000D02*
X214600000Y-93000000D01*
X214600000Y-93000000D02*
X212200000Y-93000000D01*
X213800000Y-93600000D02*
X214000000Y-93600000D01*
X214000000Y-93600000D02*
X214600000Y-93000000D01*
X199340000Y-84800000D02*
X199340000Y-85730002D01*
X287250000Y-98000000D02*
X283500000Y-98000000D01*
X205235000Y-99965000D02*
X199100000Y-99965000D01*
X283500000Y-98000000D02*
X278500000Y-93000000D01*
X212200000Y-93000000D02*
X205235000Y-99965000D01*
X285100000Y-104150000D02*
X287250000Y-102000000D01*
X285100000Y-105500000D02*
X285100000Y-104150000D01*
X278700000Y-107790000D02*
X279960000Y-107790000D01*
X279960000Y-107790000D02*
X280500000Y-107250000D01*
X280500000Y-107250000D02*
X282900000Y-107250000D01*
X282900000Y-107250000D02*
X283200000Y-107250000D01*
X283200000Y-107250000D02*
X284950000Y-105500000D01*
X284950000Y-105500000D02*
X285100000Y-105500000D01*
X200610000Y-84800000D02*
X200610000Y-83590000D01*
X200610000Y-83590000D02*
X201200000Y-83000000D01*
X201200000Y-83000000D02*
X207000000Y-83000000D01*
X207000000Y-83000000D02*
X208000001Y-84000001D01*
X208000001Y-84000001D02*
X208800000Y-84800000D01*
X211750000Y-92000000D02*
X208750000Y-95000000D01*
X208800000Y-94200000D02*
X208800000Y-94950000D01*
X208750000Y-95000000D02*
X205055000Y-98695000D01*
X208800000Y-94950000D02*
X208750000Y-95000000D01*
X284749996Y-96250000D02*
X283500000Y-96250000D01*
X283500000Y-96250000D02*
X279250000Y-92000000D01*
X279250000Y-92000000D02*
X211750000Y-92000000D01*
X205055000Y-98695000D02*
X199100000Y-98695000D01*
X283050000Y-110750000D02*
X284750000Y-112450000D01*
X284750000Y-112450000D02*
X284750000Y-112500002D01*
D28*
X282900000Y-110750000D02*
X283050000Y-110750000D01*
D26*
X278700000Y-109060000D02*
X280390000Y-110750000D01*
X280390000Y-110750000D02*
X282900000Y-110750000D01*
X282900000Y-110750000D02*
X283200000Y-110750000D01*
X283200000Y-110750000D02*
X284950000Y-109000000D01*
X284950000Y-109000000D02*
X285100000Y-109000000D01*
X113750000Y-100750000D02*
X102960000Y-100750000D01*
X102960000Y-100750000D02*
X97000000Y-106710000D01*
X114300000Y-101300000D02*
X113750000Y-100750000D01*
X114300000Y-101440000D02*
X114300000Y-101300000D01*
X91400000Y-107520000D02*
X96190000Y-107520000D01*
X96190000Y-107520000D02*
X97000000Y-106710000D01*
X123549999Y-101700001D02*
X122750000Y-102500000D01*
X124050002Y-101199998D02*
X123549999Y-101700001D01*
X134624002Y-101199998D02*
X124050002Y-101199998D01*
X137000000Y-103575996D02*
X134624002Y-101199998D01*
X137000000Y-107250000D02*
X137000000Y-103575996D01*
X119700000Y-105250000D02*
X121500000Y-105250000D01*
X121500000Y-105250000D02*
X121750000Y-105500000D01*
X131400000Y-107520000D02*
X136730000Y-107520000D01*
X136730000Y-107520000D02*
X137000000Y-107250000D01*
X177000000Y-106231767D02*
X177000000Y-107250000D01*
X177000000Y-103875996D02*
X177000000Y-106231767D01*
X173424002Y-100299998D02*
X177000000Y-103875996D01*
X122950002Y-100299998D02*
X173424002Y-100299998D01*
X120540000Y-102710000D02*
X122950002Y-100299998D01*
X119700000Y-102710000D02*
X120540000Y-102710000D01*
D28*
X174000000Y-107520000D02*
X174500000Y-107520000D01*
X174500000Y-107520000D02*
X176730000Y-107520000D01*
X171400000Y-107520000D02*
X174000000Y-107520000D01*
X176730000Y-107520000D02*
X177000000Y-107250000D01*
D26*
X271500000Y-99500000D02*
X224750000Y-99500000D01*
X273190000Y-101440000D02*
X272750000Y-101000000D01*
X272750000Y-101000000D02*
X272750000Y-100750000D01*
X272750000Y-100750000D02*
X271500000Y-99500000D01*
X224750000Y-99500000D02*
X217000000Y-107250000D01*
D28*
X273300000Y-101440000D02*
X273190000Y-101440000D01*
D26*
X211500000Y-107620000D02*
X211400000Y-107520000D01*
D28*
X211400000Y-107520000D02*
X216730000Y-107520000D01*
X216730000Y-107520000D02*
X217000000Y-107250000D01*
D26*
X257719999Y-106530001D02*
X257000000Y-107250000D01*
X273300000Y-103980000D02*
X268802004Y-103980000D01*
X268802004Y-103980000D02*
X266922002Y-102099998D01*
X266922002Y-102099998D02*
X262150002Y-102099998D01*
X262150002Y-102099998D02*
X257719999Y-106530001D01*
D28*
X251400000Y-107520000D02*
X256730000Y-107520000D01*
X256730000Y-107520000D02*
X257000000Y-107250000D01*
D26*
X295250000Y-100500000D02*
X297000000Y-102250000D01*
X297000000Y-102250000D02*
X297000000Y-107250000D01*
X286000000Y-100500000D02*
X295250000Y-100500000D01*
X283000000Y-103500000D02*
X286000000Y-100500000D01*
X278700000Y-105250000D02*
X280250000Y-105250000D01*
X280250000Y-105250000D02*
X280750000Y-105750000D01*
X291500000Y-109750000D02*
X291500000Y-107620000D01*
X291500000Y-107620000D02*
X291400000Y-107520000D01*
X291000000Y-107920000D02*
X291400000Y-107520000D01*
D28*
X291400000Y-107520000D02*
X296730000Y-107520000D01*
X296730000Y-107520000D02*
X297000000Y-107250000D01*
D26*
X315500000Y-99500000D02*
X318000000Y-99500000D01*
X318000000Y-99500000D02*
X333500000Y-99500000D01*
X317920000Y-107250000D02*
X317920000Y-99580000D01*
X317920000Y-99580000D02*
X318000000Y-99500000D01*
X333500000Y-99500000D02*
X335000000Y-101000000D01*
X335000000Y-101000000D02*
X335000000Y-106000000D01*
X335000000Y-106000000D02*
X333480000Y-107520000D01*
X333480000Y-107520000D02*
X331400000Y-107520000D01*
X278700000Y-102710000D02*
X280050000Y-102710000D01*
X280050000Y-102710000D02*
X283260000Y-99500000D01*
X283260000Y-99500000D02*
X315500000Y-99500000D01*
X278019998Y-102710000D02*
X278700000Y-102710000D01*
X331500000Y-107620000D02*
X331400000Y-107520000D01*
X191720000Y-75400000D02*
X162400000Y-75400000D01*
X162400000Y-75400000D02*
X160760000Y-77040000D01*
X160760000Y-77040000D02*
X160760000Y-78200000D01*
X192990000Y-75400000D02*
X192990000Y-77000000D01*
X192990000Y-77000000D02*
X192590033Y-77399967D01*
X192590033Y-77399967D02*
X165200033Y-77399967D01*
X165200033Y-77399967D02*
X161860000Y-80740000D01*
X161860000Y-80740000D02*
X160760000Y-80740000D01*
X194260000Y-75400000D02*
X194260000Y-74469998D01*
X194260000Y-74469998D02*
X193390002Y-73600000D01*
X193390002Y-73600000D02*
X161200000Y-73600000D01*
X161200000Y-73600000D02*
X158200000Y-76600000D01*
X158200000Y-76600000D02*
X158200000Y-78180000D01*
X158200000Y-78180000D02*
X158220000Y-78200000D01*
X195530000Y-77000000D02*
X194130000Y-78400000D01*
X165800000Y-78400000D02*
X161600000Y-82600000D01*
X160080000Y-82600000D02*
X158220000Y-80740000D01*
X195530000Y-75400000D02*
X195530000Y-77000000D01*
X194130000Y-78400000D02*
X165800000Y-78400000D01*
X161600000Y-82600000D02*
X160080000Y-82600000D01*
X196800000Y-75400000D02*
X196800000Y-73800000D01*
X195600000Y-72600000D02*
X160000000Y-72600000D01*
X160000000Y-72600000D02*
X155680000Y-76920000D01*
X196800000Y-73800000D02*
X195600000Y-72600000D01*
X155680000Y-76920000D02*
X155680000Y-78200000D01*
X198070000Y-75400000D02*
X198070000Y-77000000D01*
X198070000Y-77000000D02*
X195670000Y-79400000D01*
X195670000Y-79400000D02*
X166200000Y-79400000D01*
X166200000Y-79400000D02*
X162000000Y-83600000D01*
X162000000Y-83600000D02*
X158540000Y-83600000D01*
X158540000Y-83600000D02*
X156529999Y-81589999D01*
X156529999Y-81589999D02*
X155680000Y-80740000D01*
X199340000Y-75400000D02*
X199340000Y-73800000D01*
X153200000Y-77000000D02*
X153200000Y-78140000D01*
X199340000Y-73800000D02*
X197140000Y-71600000D01*
X197140000Y-71600000D02*
X158600000Y-71600000D01*
X158600000Y-71600000D02*
X153200000Y-77000000D01*
X153200000Y-78140000D02*
X153140000Y-78200000D01*
X199340000Y-75400000D02*
X199340000Y-74469998D01*
X200610000Y-75400000D02*
X200610000Y-77000000D01*
X200610000Y-77000000D02*
X197210000Y-80400000D01*
X157200000Y-84800000D02*
X153989999Y-81589999D01*
X197210000Y-80400000D02*
X166600000Y-80400000D01*
X153989999Y-81589999D02*
X153140000Y-80740000D01*
X166600000Y-80400000D02*
X162200000Y-84800000D01*
X162200000Y-84800000D02*
X157200000Y-84800000D01*
X200610000Y-75400000D02*
X200610000Y-76330002D01*
X193700000Y-97425000D02*
X192825000Y-97425000D01*
X192825000Y-97425000D02*
X188000000Y-92600000D01*
X188000000Y-92600000D02*
X127400000Y-92600000D01*
X127400000Y-92600000D02*
X126800000Y-93200000D01*
X126800000Y-88800000D02*
X126000000Y-89600000D01*
X126000000Y-89600000D02*
X40200000Y-89600000D01*
X40200000Y-89600000D02*
X39260000Y-90540000D01*
X39260000Y-90540000D02*
X33270000Y-90540000D01*
X197000000Y-90800011D02*
X197000000Y-90800000D01*
X197000000Y-90800000D02*
X197800000Y-90000000D01*
X197800000Y-90000000D02*
X343000000Y-90000000D01*
X343000000Y-90000000D02*
X346080000Y-93080000D01*
X346080000Y-93080000D02*
X346730000Y-93080000D01*
X37920000Y-93080000D02*
X34472081Y-93080000D01*
X40400000Y-90600000D02*
X37920000Y-93080000D01*
X197000000Y-90800011D02*
X196799989Y-90600000D01*
X34472081Y-93080000D02*
X33270000Y-93080000D01*
X196799989Y-90600000D02*
X40400000Y-90600000D01*
X197000000Y-90800011D02*
X197000000Y-103025000D01*
X197000000Y-103025000D02*
X197750000Y-103775000D01*
X197750000Y-103775000D02*
X199100000Y-103775000D01*
X33350000Y-93000000D02*
X33270000Y-93080000D01*
X346730000Y-95620000D02*
X342110000Y-91000000D01*
X342110000Y-91000000D02*
X199000000Y-91000000D01*
X198699990Y-91300010D02*
X198600000Y-91300010D01*
X199000000Y-91000000D02*
X198699990Y-91300010D01*
X33270000Y-95620000D02*
X36780000Y-95620000D01*
X36780000Y-95620000D02*
X40800000Y-91600000D01*
X195600000Y-93675996D02*
X195600000Y-93800000D01*
X40800000Y-91600000D02*
X193524004Y-91600000D01*
X193524004Y-91600000D02*
X195600000Y-93675996D01*
X195600000Y-93800000D02*
X195600000Y-102895000D01*
X195600000Y-102895000D02*
X197750000Y-105045000D01*
X197750000Y-105045000D02*
X199100000Y-105045000D01*
X195600000Y-92400000D02*
X195600000Y-93800000D01*
X33390000Y-95500000D02*
X33270000Y-95620000D01*
X346730000Y-90540000D02*
X345540000Y-90540000D01*
X345540000Y-90540000D02*
X344000000Y-89000000D01*
X344000000Y-89000000D02*
X197131370Y-89000000D01*
X197131370Y-89000000D02*
X196000000Y-89000000D01*
X193700000Y-96155000D02*
X193700000Y-94899998D01*
X193700000Y-94899998D02*
X194199998Y-94400000D01*
X116999998Y-95249998D02*
X116250000Y-95249998D01*
X118500000Y-96750000D02*
X116999998Y-95249998D01*
X120250000Y-96900000D02*
X120250000Y-96750000D01*
X276249998Y-118000002D02*
X276250000Y-118000000D01*
X118750000Y-118000002D02*
X276249998Y-118000002D01*
X277000000Y-94500000D02*
X276250006Y-94500000D01*
X278500000Y-96000000D02*
X277000000Y-94500000D01*
X278500000Y-96150000D02*
X278500000Y-96000000D01*
X70000000Y-118000000D02*
X70500000Y-117500000D01*
X70500000Y-117500000D02*
X118249998Y-117500000D01*
X118249998Y-117500000D02*
X118750000Y-118000002D01*
X275100000Y-96150000D02*
X274000000Y-96150000D01*
X277000000Y-96150000D02*
X275100000Y-96150000D01*
X278500000Y-96150000D02*
X277000000Y-96150000D01*
X71859999Y-111140001D02*
X71000000Y-112000000D01*
X71000000Y-112000000D02*
X70000000Y-112000000D01*
X68800000Y-102115000D02*
X70175000Y-102115000D01*
X70175000Y-102115000D02*
X71859999Y-103799999D01*
X71859999Y-103799999D02*
X71859999Y-111140001D01*
X68800000Y-102115000D02*
X68800000Y-100845000D01*
X118750000Y-96900000D02*
X120250000Y-96900000D01*
X117250000Y-96900000D02*
X118750000Y-96900000D01*
X115750000Y-96900000D02*
X117250000Y-96900000D01*
X114300000Y-105250000D02*
X107850000Y-105250000D01*
X107850000Y-105250000D02*
X107600000Y-105500000D01*
X117250000Y-99100000D02*
X117250000Y-103650000D01*
X117250000Y-103650000D02*
X115650000Y-105250000D01*
X115650000Y-105250000D02*
X114300000Y-105250000D01*
X114980002Y-105230000D02*
X114300000Y-105230000D01*
D28*
X48600000Y-104980000D02*
X48600000Y-103050000D01*
X48600000Y-103050000D02*
X48900000Y-102750000D01*
D26*
X110750000Y-99250000D02*
X108250000Y-96750000D01*
X108250000Y-96750000D02*
X67500000Y-96750000D01*
X67500000Y-96750000D02*
X57000000Y-107250000D01*
X114300000Y-103980000D02*
X110980000Y-103980000D01*
X110980000Y-103980000D02*
X110750000Y-103750000D01*
X51400000Y-107520000D02*
X51800000Y-107520000D01*
X57000000Y-107250000D02*
X51670000Y-107250000D01*
X51670000Y-107250000D02*
X51400000Y-107520000D01*
D30*
G36*
X33397000Y-100573000D02*
X33417000Y-100573000D01*
X33417000Y-100827000D01*
X33397000Y-100827000D01*
X33397000Y-102031491D01*
X33631639Y-102191135D01*
X34193774Y-102034907D01*
X34653333Y-101675451D01*
X34940352Y-101167491D01*
X34961476Y-101056890D01*
X34855033Y-100855192D01*
X36365000Y-102365159D01*
X36365000Y-107999995D01*
X36364999Y-108000000D01*
X36489457Y-108625688D01*
X36843880Y-109156120D01*
X44593880Y-116906120D01*
X45124312Y-117260543D01*
X45750000Y-117385001D01*
X45750005Y-117385000D01*
X68701576Y-117385000D01*
X68565250Y-117713309D01*
X68564752Y-118284187D01*
X68782757Y-118811800D01*
X69186077Y-119215824D01*
X69364713Y-119290000D01*
X32710000Y-119290000D01*
X32710000Y-114442619D01*
X33764613Y-114442619D01*
X34104155Y-115264372D01*
X34732321Y-115893636D01*
X35553481Y-116234611D01*
X36442619Y-116235387D01*
X37264372Y-115895845D01*
X37893636Y-115267679D01*
X38234611Y-114446519D01*
X38235387Y-113557381D01*
X37895845Y-112735628D01*
X37267679Y-112106364D01*
X36446519Y-111765389D01*
X35557381Y-111764613D01*
X34735628Y-112104155D01*
X34106364Y-112732321D01*
X33765389Y-113553481D01*
X33764613Y-114442619D01*
X32710000Y-114442619D01*
X32710000Y-102136007D01*
X32908361Y-102191135D01*
X33143000Y-102031491D01*
X33143000Y-100827000D01*
X33123000Y-100827000D01*
X33123000Y-100573000D01*
X33143000Y-100573000D01*
X33143000Y-100553000D01*
X33397000Y-100553000D01*
X33397000Y-100573000D01*
X33397000Y-100573000D01*
G37*
X33397000Y-100573000D02*
X33417000Y-100573000D01*
X33417000Y-100827000D01*
X33397000Y-100827000D01*
X33397000Y-102031491D01*
X33631639Y-102191135D01*
X34193774Y-102034907D01*
X34653333Y-101675451D01*
X34940352Y-101167491D01*
X34961476Y-101056890D01*
X34855033Y-100855192D01*
X36365000Y-102365159D01*
X36365000Y-107999995D01*
X36364999Y-108000000D01*
X36489457Y-108625688D01*
X36843880Y-109156120D01*
X44593880Y-116906120D01*
X45124312Y-117260543D01*
X45750000Y-117385001D01*
X45750005Y-117385000D01*
X68701576Y-117385000D01*
X68565250Y-117713309D01*
X68564752Y-118284187D01*
X68782757Y-118811800D01*
X69186077Y-119215824D01*
X69364713Y-119290000D01*
X32710000Y-119290000D01*
X32710000Y-114442619D01*
X33764613Y-114442619D01*
X34104155Y-115264372D01*
X34732321Y-115893636D01*
X35553481Y-116234611D01*
X36442619Y-116235387D01*
X37264372Y-115895845D01*
X37893636Y-115267679D01*
X38234611Y-114446519D01*
X38235387Y-113557381D01*
X37895845Y-112735628D01*
X37267679Y-112106364D01*
X36446519Y-111765389D01*
X35557381Y-111764613D01*
X34735628Y-112104155D01*
X34106364Y-112732321D01*
X33765389Y-113553481D01*
X33764613Y-114442619D01*
X32710000Y-114442619D01*
X32710000Y-102136007D01*
X32908361Y-102191135D01*
X33143000Y-102031491D01*
X33143000Y-100827000D01*
X33123000Y-100827000D01*
X33123000Y-100573000D01*
X33143000Y-100573000D01*
X33143000Y-100553000D01*
X33397000Y-100553000D01*
X33397000Y-100573000D01*
G36*
X345059648Y-100232509D02*
X345038524Y-100343110D01*
X345159845Y-100573000D01*
X346603000Y-100573000D01*
X346603000Y-100553000D01*
X346857000Y-100553000D01*
X346857000Y-100573000D01*
X346877000Y-100573000D01*
X346877000Y-100827000D01*
X346857000Y-100827000D01*
X346857000Y-102031491D01*
X347091639Y-102191135D01*
X347290000Y-102136007D01*
X347290000Y-119290000D01*
X276885714Y-119290000D01*
X277061800Y-119217243D01*
X277465824Y-118813923D01*
X277684750Y-118286691D01*
X277685248Y-117715813D01*
X277548559Y-117385000D01*
X288499995Y-117385000D01*
X288500000Y-117385001D01*
X288500005Y-117385000D01*
X328499995Y-117385000D01*
X328500000Y-117385001D01*
X328500005Y-117385000D01*
X333249995Y-117385000D01*
X333250000Y-117385001D01*
X333875688Y-117260543D01*
X334406120Y-116906120D01*
X336869620Y-114442619D01*
X341764613Y-114442619D01*
X342104155Y-115264372D01*
X342732321Y-115893636D01*
X343553481Y-116234611D01*
X344442619Y-116235387D01*
X345264372Y-115895845D01*
X345893636Y-115267679D01*
X346234611Y-114446519D01*
X346235387Y-113557381D01*
X345895845Y-112735628D01*
X345267679Y-112106364D01*
X344446519Y-111765389D01*
X343557381Y-111764613D01*
X342735628Y-112104155D01*
X342106364Y-112732321D01*
X341765389Y-113553481D01*
X341764613Y-114442619D01*
X336869620Y-114442619D01*
X341156117Y-110156122D01*
X341156120Y-110156120D01*
X341510543Y-109625687D01*
X341517176Y-109592342D01*
X341635001Y-109000000D01*
X341635000Y-108999995D01*
X341635000Y-101677240D01*
X342255349Y-101056890D01*
X345038524Y-101056890D01*
X345059648Y-101167491D01*
X345346667Y-101675451D01*
X345806226Y-102034907D01*
X346368361Y-102191135D01*
X346603000Y-102031491D01*
X346603000Y-100827000D01*
X345159845Y-100827000D01*
X345038524Y-101056890D01*
X342255349Y-101056890D01*
X343517239Y-99795000D01*
X345306859Y-99795000D01*
X345059648Y-100232509D01*
X345059648Y-100232509D01*
G37*
X345059648Y-100232509D02*
X345038524Y-100343110D01*
X345159845Y-100573000D01*
X346603000Y-100573000D01*
X346603000Y-100553000D01*
X346857000Y-100553000D01*
X346857000Y-100573000D01*
X346877000Y-100573000D01*
X346877000Y-100827000D01*
X346857000Y-100827000D01*
X346857000Y-102031491D01*
X347091639Y-102191135D01*
X347290000Y-102136007D01*
X347290000Y-119290000D01*
X276885714Y-119290000D01*
X277061800Y-119217243D01*
X277465824Y-118813923D01*
X277684750Y-118286691D01*
X277685248Y-117715813D01*
X277548559Y-117385000D01*
X288499995Y-117385000D01*
X288500000Y-117385001D01*
X288500005Y-117385000D01*
X328499995Y-117385000D01*
X328500000Y-117385001D01*
X328500005Y-117385000D01*
X333249995Y-117385000D01*
X333250000Y-117385001D01*
X333875688Y-117260543D01*
X334406120Y-116906120D01*
X336869620Y-114442619D01*
X341764613Y-114442619D01*
X342104155Y-115264372D01*
X342732321Y-115893636D01*
X343553481Y-116234611D01*
X344442619Y-116235387D01*
X345264372Y-115895845D01*
X345893636Y-115267679D01*
X346234611Y-114446519D01*
X346235387Y-113557381D01*
X345895845Y-112735628D01*
X345267679Y-112106364D01*
X344446519Y-111765389D01*
X343557381Y-111764613D01*
X342735628Y-112104155D01*
X342106364Y-112732321D01*
X341765389Y-113553481D01*
X341764613Y-114442619D01*
X336869620Y-114442619D01*
X341156117Y-110156122D01*
X341156120Y-110156120D01*
X341510543Y-109625687D01*
X341517176Y-109592342D01*
X341635001Y-109000000D01*
X341635000Y-108999995D01*
X341635000Y-101677240D01*
X342255349Y-101056890D01*
X345038524Y-101056890D01*
X345059648Y-101167491D01*
X345346667Y-101675451D01*
X345806226Y-102034907D01*
X346368361Y-102191135D01*
X346603000Y-102031491D01*
X346603000Y-100827000D01*
X345159845Y-100827000D01*
X345038524Y-101056890D01*
X342255349Y-101056890D01*
X343517239Y-99795000D01*
X345306859Y-99795000D01*
X345059648Y-100232509D01*
G36*
X104065250Y-101963309D02*
X104064752Y-102534187D01*
X104282757Y-103061800D01*
X104465000Y-103244361D01*
X104465000Y-104510132D01*
X104342191Y-104592191D01*
X104201843Y-104802235D01*
X104152560Y-105050000D01*
X104152560Y-105950000D01*
X104201843Y-106197765D01*
X104320269Y-106375000D01*
X104201843Y-106552235D01*
X104152560Y-106800000D01*
X104152560Y-107025150D01*
X103538855Y-107638855D01*
X103336173Y-107942191D01*
X103265000Y-108300000D01*
X103265000Y-110200000D01*
X103336173Y-110557809D01*
X103538855Y-110861145D01*
X104088855Y-111411145D01*
X104248771Y-111517997D01*
X104342191Y-111657809D01*
X104465000Y-111739868D01*
X104465000Y-114115046D01*
X90235000Y-114115046D01*
X90235000Y-110199774D01*
X98769831Y-110199774D01*
X98834131Y-110437611D01*
X99342342Y-110617333D01*
X99880644Y-110588892D01*
X100245869Y-110437611D01*
X100310169Y-110199774D01*
X99540000Y-109429605D01*
X98769831Y-110199774D01*
X90235000Y-110199774D01*
X90235000Y-109052342D01*
X98172667Y-109052342D01*
X98201108Y-109590644D01*
X98352389Y-109955869D01*
X98590226Y-110020169D01*
X99360395Y-109250000D01*
X99719605Y-109250000D01*
X100489774Y-110020169D01*
X100727611Y-109955869D01*
X100907333Y-109447658D01*
X100878892Y-108909356D01*
X100727611Y-108544131D01*
X100489774Y-108479831D01*
X99719605Y-109250000D01*
X99360395Y-109250000D01*
X98590226Y-108479831D01*
X98352389Y-108544131D01*
X98172667Y-109052342D01*
X90235000Y-109052342D01*
X90235000Y-108793050D01*
X90257809Y-108777809D01*
X90274904Y-108752225D01*
X90414899Y-108845767D01*
X90964050Y-108955000D01*
X91835950Y-108955000D01*
X92385101Y-108845767D01*
X92850648Y-108534698D01*
X92903901Y-108455000D01*
X96190000Y-108455000D01*
X96547809Y-108383827D01*
X96672927Y-108300226D01*
X98769831Y-108300226D01*
X99540000Y-109070395D01*
X100310169Y-108300226D01*
X100245869Y-108062389D01*
X99737658Y-107882667D01*
X99199356Y-107911108D01*
X98834131Y-108062389D01*
X98769831Y-108300226D01*
X96672927Y-108300226D01*
X96851145Y-108181145D01*
X96967318Y-108064972D01*
X97268344Y-108065235D01*
X97766543Y-107859383D01*
X97966500Y-107659774D01*
X101309831Y-107659774D01*
X101374131Y-107897611D01*
X101882342Y-108077333D01*
X102420644Y-108048892D01*
X102785869Y-107897611D01*
X102850169Y-107659774D01*
X102080000Y-106889605D01*
X101309831Y-107659774D01*
X97966500Y-107659774D01*
X98148043Y-107478548D01*
X98354764Y-106980709D01*
X98355029Y-106677261D01*
X98519948Y-106512342D01*
X100712667Y-106512342D01*
X100741108Y-107050644D01*
X100892389Y-107415869D01*
X101130226Y-107480169D01*
X101900395Y-106710000D01*
X102259605Y-106710000D01*
X103029774Y-107480169D01*
X103267611Y-107415869D01*
X103447333Y-106907658D01*
X103418892Y-106369356D01*
X103267611Y-106004131D01*
X103029774Y-105939831D01*
X102259605Y-106710000D01*
X101900395Y-106710000D01*
X101130226Y-105939831D01*
X100892389Y-106004131D01*
X100712667Y-106512342D01*
X98519948Y-106512342D01*
X99272064Y-105760226D01*
X101309831Y-105760226D01*
X102080000Y-106530395D01*
X102850169Y-105760226D01*
X102785869Y-105522389D01*
X102277658Y-105342667D01*
X101739356Y-105371108D01*
X101374131Y-105522389D01*
X101309831Y-105760226D01*
X99272064Y-105760226D01*
X103347290Y-101685000D01*
X104180814Y-101685000D01*
X104065250Y-101963309D01*
X104065250Y-101963309D01*
G37*
X104065250Y-101963309D02*
X104064752Y-102534187D01*
X104282757Y-103061800D01*
X104465000Y-103244361D01*
X104465000Y-104510132D01*
X104342191Y-104592191D01*
X104201843Y-104802235D01*
X104152560Y-105050000D01*
X104152560Y-105950000D01*
X104201843Y-106197765D01*
X104320269Y-106375000D01*
X104201843Y-106552235D01*
X104152560Y-106800000D01*
X104152560Y-107025150D01*
X103538855Y-107638855D01*
X103336173Y-107942191D01*
X103265000Y-108300000D01*
X103265000Y-110200000D01*
X103336173Y-110557809D01*
X103538855Y-110861145D01*
X104088855Y-111411145D01*
X104248771Y-111517997D01*
X104342191Y-111657809D01*
X104465000Y-111739868D01*
X104465000Y-114115046D01*
X90235000Y-114115046D01*
X90235000Y-110199774D01*
X98769831Y-110199774D01*
X98834131Y-110437611D01*
X99342342Y-110617333D01*
X99880644Y-110588892D01*
X100245869Y-110437611D01*
X100310169Y-110199774D01*
X99540000Y-109429605D01*
X98769831Y-110199774D01*
X90235000Y-110199774D01*
X90235000Y-109052342D01*
X98172667Y-109052342D01*
X98201108Y-109590644D01*
X98352389Y-109955869D01*
X98590226Y-110020169D01*
X99360395Y-109250000D01*
X99719605Y-109250000D01*
X100489774Y-110020169D01*
X100727611Y-109955869D01*
X100907333Y-109447658D01*
X100878892Y-108909356D01*
X100727611Y-108544131D01*
X100489774Y-108479831D01*
X99719605Y-109250000D01*
X99360395Y-109250000D01*
X98590226Y-108479831D01*
X98352389Y-108544131D01*
X98172667Y-109052342D01*
X90235000Y-109052342D01*
X90235000Y-108793050D01*
X90257809Y-108777809D01*
X90274904Y-108752225D01*
X90414899Y-108845767D01*
X90964050Y-108955000D01*
X91835950Y-108955000D01*
X92385101Y-108845767D01*
X92850648Y-108534698D01*
X92903901Y-108455000D01*
X96190000Y-108455000D01*
X96547809Y-108383827D01*
X96672927Y-108300226D01*
X98769831Y-108300226D01*
X99540000Y-109070395D01*
X100310169Y-108300226D01*
X100245869Y-108062389D01*
X99737658Y-107882667D01*
X99199356Y-107911108D01*
X98834131Y-108062389D01*
X98769831Y-108300226D01*
X96672927Y-108300226D01*
X96851145Y-108181145D01*
X96967318Y-108064972D01*
X97268344Y-108065235D01*
X97766543Y-107859383D01*
X97966500Y-107659774D01*
X101309831Y-107659774D01*
X101374131Y-107897611D01*
X101882342Y-108077333D01*
X102420644Y-108048892D01*
X102785869Y-107897611D01*
X102850169Y-107659774D01*
X102080000Y-106889605D01*
X101309831Y-107659774D01*
X97966500Y-107659774D01*
X98148043Y-107478548D01*
X98354764Y-106980709D01*
X98355029Y-106677261D01*
X98519948Y-106512342D01*
X100712667Y-106512342D01*
X100741108Y-107050644D01*
X100892389Y-107415869D01*
X101130226Y-107480169D01*
X101900395Y-106710000D01*
X102259605Y-106710000D01*
X103029774Y-107480169D01*
X103267611Y-107415869D01*
X103447333Y-106907658D01*
X103418892Y-106369356D01*
X103267611Y-106004131D01*
X103029774Y-105939831D01*
X102259605Y-106710000D01*
X101900395Y-106710000D01*
X101130226Y-105939831D01*
X100892389Y-106004131D01*
X100712667Y-106512342D01*
X98519948Y-106512342D01*
X99272064Y-105760226D01*
X101309831Y-105760226D01*
X102080000Y-106530395D01*
X102850169Y-105760226D01*
X102785869Y-105522389D01*
X102277658Y-105342667D01*
X101739356Y-105371108D01*
X101374131Y-105522389D01*
X101309831Y-105760226D01*
X99272064Y-105760226D01*
X103347290Y-101685000D01*
X104180814Y-101685000D01*
X104065250Y-101963309D01*
G36*
X118358853Y-104641145D02*
X118382227Y-104656763D01*
X118351843Y-104702235D01*
X118302560Y-104950000D01*
X118302560Y-105550000D01*
X118311062Y-105592745D01*
X117992191Y-105656173D01*
X117688855Y-105858855D01*
X117238855Y-106308855D01*
X117036173Y-106612191D01*
X116965000Y-106970000D01*
X116965000Y-109835132D01*
X116960898Y-109837873D01*
X116959698Y-109836673D01*
X116726309Y-109740000D01*
X116285750Y-109740000D01*
X116127000Y-109898750D01*
X116127000Y-110623000D01*
X116147000Y-110623000D01*
X116147000Y-110877000D01*
X116127000Y-110877000D01*
X116127000Y-111601250D01*
X116285750Y-111760000D01*
X116726309Y-111760000D01*
X116959698Y-111663327D01*
X116960898Y-111662127D01*
X116965000Y-111664868D01*
X116965000Y-114114999D01*
X116500047Y-114114999D01*
X116499811Y-114115046D01*
X106335000Y-114115046D01*
X106335000Y-111739868D01*
X106457809Y-111657809D01*
X106500000Y-111594666D01*
X106542191Y-111657809D01*
X106752235Y-111798157D01*
X107000000Y-111847440D01*
X108200000Y-111847440D01*
X108447765Y-111798157D01*
X108617115Y-111685000D01*
X112565057Y-111685000D01*
X112564752Y-112034187D01*
X112782757Y-112561800D01*
X113186077Y-112965824D01*
X113713309Y-113184750D01*
X114284187Y-113185248D01*
X114811800Y-112967243D01*
X115215824Y-112563923D01*
X115434750Y-112036691D01*
X115434991Y-111760000D01*
X115714250Y-111760000D01*
X115873000Y-111601250D01*
X115873000Y-110877000D01*
X115853000Y-110877000D01*
X115853000Y-110623000D01*
X115873000Y-110623000D01*
X115873000Y-109898750D01*
X115714250Y-109740000D01*
X115559800Y-109740000D01*
X115648157Y-109607765D01*
X115697440Y-109360000D01*
X115697440Y-108760000D01*
X115648157Y-108512235D01*
X115589868Y-108425000D01*
X115648157Y-108337765D01*
X115697440Y-108090000D01*
X115697440Y-107490000D01*
X115648157Y-107242235D01*
X115595232Y-107163028D01*
X115685000Y-106946310D01*
X115685000Y-106805750D01*
X115526250Y-106647000D01*
X114427000Y-106647000D01*
X114427000Y-106667000D01*
X114173000Y-106667000D01*
X114173000Y-106647000D01*
X114153000Y-106647000D01*
X114153000Y-106393000D01*
X114173000Y-106393000D01*
X114173000Y-106373000D01*
X114427000Y-106373000D01*
X114427000Y-106393000D01*
X115526250Y-106393000D01*
X115685000Y-106234250D01*
X115685000Y-106178038D01*
X116007809Y-106113827D01*
X116311145Y-105911145D01*
X117911145Y-104311145D01*
X117958292Y-104240584D01*
X118358853Y-104641145D01*
X118358853Y-104641145D01*
G37*
X118358853Y-104641145D02*
X118382227Y-104656763D01*
X118351843Y-104702235D01*
X118302560Y-104950000D01*
X118302560Y-105550000D01*
X118311062Y-105592745D01*
X117992191Y-105656173D01*
X117688855Y-105858855D01*
X117238855Y-106308855D01*
X117036173Y-106612191D01*
X116965000Y-106970000D01*
X116965000Y-109835132D01*
X116960898Y-109837873D01*
X116959698Y-109836673D01*
X116726309Y-109740000D01*
X116285750Y-109740000D01*
X116127000Y-109898750D01*
X116127000Y-110623000D01*
X116147000Y-110623000D01*
X116147000Y-110877000D01*
X116127000Y-110877000D01*
X116127000Y-111601250D01*
X116285750Y-111760000D01*
X116726309Y-111760000D01*
X116959698Y-111663327D01*
X116960898Y-111662127D01*
X116965000Y-111664868D01*
X116965000Y-114114999D01*
X116500047Y-114114999D01*
X116499811Y-114115046D01*
X106335000Y-114115046D01*
X106335000Y-111739868D01*
X106457809Y-111657809D01*
X106500000Y-111594666D01*
X106542191Y-111657809D01*
X106752235Y-111798157D01*
X107000000Y-111847440D01*
X108200000Y-111847440D01*
X108447765Y-111798157D01*
X108617115Y-111685000D01*
X112565057Y-111685000D01*
X112564752Y-112034187D01*
X112782757Y-112561800D01*
X113186077Y-112965824D01*
X113713309Y-113184750D01*
X114284187Y-113185248D01*
X114811800Y-112967243D01*
X115215824Y-112563923D01*
X115434750Y-112036691D01*
X115434991Y-111760000D01*
X115714250Y-111760000D01*
X115873000Y-111601250D01*
X115873000Y-110877000D01*
X115853000Y-110877000D01*
X115853000Y-110623000D01*
X115873000Y-110623000D01*
X115873000Y-109898750D01*
X115714250Y-109740000D01*
X115559800Y-109740000D01*
X115648157Y-109607765D01*
X115697440Y-109360000D01*
X115697440Y-108760000D01*
X115648157Y-108512235D01*
X115589868Y-108425000D01*
X115648157Y-108337765D01*
X115697440Y-108090000D01*
X115697440Y-107490000D01*
X115648157Y-107242235D01*
X115595232Y-107163028D01*
X115685000Y-106946310D01*
X115685000Y-106805750D01*
X115526250Y-106647000D01*
X114427000Y-106647000D01*
X114427000Y-106667000D01*
X114173000Y-106667000D01*
X114173000Y-106647000D01*
X114153000Y-106647000D01*
X114153000Y-106393000D01*
X114173000Y-106393000D01*
X114173000Y-106373000D01*
X114427000Y-106373000D01*
X114427000Y-106393000D01*
X115526250Y-106393000D01*
X115685000Y-106234250D01*
X115685000Y-106178038D01*
X116007809Y-106113827D01*
X116311145Y-105911145D01*
X117911145Y-104311145D01*
X117958292Y-104240584D01*
X118358853Y-104641145D01*
G36*
X109315098Y-99137388D02*
X109314752Y-99534187D01*
X109430781Y-99815000D01*
X102960000Y-99815000D01*
X102602191Y-99886173D01*
X102298855Y-100088855D01*
X97032682Y-105355028D01*
X96731656Y-105354765D01*
X96233457Y-105560617D01*
X95851957Y-105941452D01*
X95645236Y-106439291D01*
X95645109Y-106585000D01*
X92903901Y-106585000D01*
X92850648Y-106505302D01*
X92468562Y-106250000D01*
X92850648Y-105994698D01*
X93161717Y-105529151D01*
X93270950Y-104980000D01*
X93161717Y-104430849D01*
X92850648Y-103965302D01*
X92385101Y-103654233D01*
X92183828Y-103614197D01*
X92238327Y-103559699D01*
X92335000Y-103326310D01*
X92335000Y-103035750D01*
X92176250Y-102877000D01*
X91227000Y-102877000D01*
X91227000Y-102897000D01*
X90973000Y-102897000D01*
X90973000Y-102877000D01*
X90953000Y-102877000D01*
X90953000Y-102623000D01*
X90973000Y-102623000D01*
X90973000Y-101823750D01*
X91227000Y-101823750D01*
X91227000Y-102623000D01*
X92176250Y-102623000D01*
X92335000Y-102464250D01*
X92335000Y-102173690D01*
X92238327Y-101940301D01*
X92059698Y-101761673D01*
X91826309Y-101665000D01*
X91385750Y-101665000D01*
X91227000Y-101823750D01*
X90973000Y-101823750D01*
X90814250Y-101665000D01*
X90373691Y-101665000D01*
X90140302Y-101761673D01*
X89998654Y-101903320D01*
X89957809Y-101842191D01*
X89747765Y-101701843D01*
X89500000Y-101652560D01*
X88300000Y-101652560D01*
X88052235Y-101701843D01*
X87842191Y-101842191D01*
X87701843Y-102052235D01*
X87652560Y-102300000D01*
X87652560Y-103200000D01*
X87665000Y-103262541D01*
X87665000Y-103644267D01*
X87614899Y-103654233D01*
X87149352Y-103965302D01*
X86838283Y-104430849D01*
X86729050Y-104980000D01*
X86838283Y-105529151D01*
X87149352Y-105994698D01*
X87296648Y-106093118D01*
X87152235Y-106121843D01*
X86942191Y-106262191D01*
X86801843Y-106472235D01*
X86752560Y-106720000D01*
X86752560Y-108320000D01*
X86801843Y-108567765D01*
X86942191Y-108777809D01*
X86965000Y-108793050D01*
X86965000Y-114115000D01*
X74215000Y-114115000D01*
X74215000Y-108031568D01*
X74228043Y-108018548D01*
X74434764Y-107520709D01*
X74435235Y-106981656D01*
X74229383Y-106483457D01*
X74015000Y-106268700D01*
X74015000Y-106231767D01*
X73943827Y-105873958D01*
X73762405Y-105602440D01*
X74975000Y-105602440D01*
X75222765Y-105553157D01*
X75432809Y-105412809D01*
X75573157Y-105202765D01*
X75622440Y-104955000D01*
X75622440Y-104355000D01*
X75573157Y-104107235D01*
X75514868Y-104020000D01*
X75573157Y-103932765D01*
X75622440Y-103685000D01*
X75622440Y-103085000D01*
X75573157Y-102837235D01*
X75514868Y-102750000D01*
X75573157Y-102662765D01*
X75622440Y-102415000D01*
X75622440Y-101815000D01*
X75573157Y-101567235D01*
X75514868Y-101480000D01*
X75573157Y-101392765D01*
X75622440Y-101145000D01*
X75622440Y-100545000D01*
X75573157Y-100297235D01*
X75453934Y-100118807D01*
X75507809Y-100082809D01*
X75648157Y-99872765D01*
X75697440Y-99625000D01*
X75697440Y-98875000D01*
X75648157Y-98627235D01*
X75507809Y-98417191D01*
X75297765Y-98276843D01*
X75050000Y-98227560D01*
X73850000Y-98227560D01*
X73602235Y-98276843D01*
X73510898Y-98337873D01*
X73509698Y-98336673D01*
X73276309Y-98240000D01*
X72835750Y-98240000D01*
X72677000Y-98398750D01*
X72677000Y-99123000D01*
X72697000Y-99123000D01*
X72697000Y-99377000D01*
X72677000Y-99377000D01*
X72677000Y-100101250D01*
X72796729Y-100220979D01*
X72088855Y-100928853D01*
X71886173Y-101232189D01*
X71815000Y-101589998D01*
X71815000Y-102432710D01*
X70836145Y-101453855D01*
X70532809Y-101251173D01*
X70213938Y-101187745D01*
X70222440Y-101145000D01*
X70222440Y-100545000D01*
X70173157Y-100297235D01*
X70032809Y-100087191D01*
X69822765Y-99946843D01*
X69575000Y-99897560D01*
X68025000Y-99897560D01*
X67777235Y-99946843D01*
X67567191Y-100087191D01*
X67426843Y-100297235D01*
X67377560Y-100545000D01*
X67377560Y-101145000D01*
X67426843Y-101392765D01*
X67485132Y-101480000D01*
X67426843Y-101567235D01*
X67377560Y-101815000D01*
X67377560Y-102303069D01*
X67375000Y-102302560D01*
X66625000Y-102302560D01*
X66377235Y-102351843D01*
X66167191Y-102492191D01*
X66026843Y-102702235D01*
X65977560Y-102950000D01*
X65977560Y-104150000D01*
X66026843Y-104397765D01*
X66087873Y-104489102D01*
X66086673Y-104490302D01*
X65990000Y-104723691D01*
X65990000Y-105164250D01*
X66148750Y-105323000D01*
X66873000Y-105323000D01*
X66873000Y-105303000D01*
X67127000Y-105303000D01*
X67127000Y-105323000D01*
X67147000Y-105323000D01*
X67147000Y-105577000D01*
X67127000Y-105577000D01*
X67127000Y-105597000D01*
X66873000Y-105597000D01*
X66873000Y-105577000D01*
X66148750Y-105577000D01*
X65990000Y-105735750D01*
X65990000Y-106176309D01*
X66086673Y-106409698D01*
X66265301Y-106588327D01*
X66498690Y-106685000D01*
X66714250Y-106685000D01*
X66789011Y-106610239D01*
X66632667Y-107052342D01*
X66661108Y-107590644D01*
X66812389Y-107955869D01*
X67050226Y-108020169D01*
X67820395Y-107250000D01*
X68179605Y-107250000D01*
X68949774Y-108020169D01*
X69187611Y-107955869D01*
X69367333Y-107447658D01*
X69338892Y-106909356D01*
X69187611Y-106544131D01*
X68949774Y-106479831D01*
X68179605Y-107250000D01*
X67820395Y-107250000D01*
X67127002Y-106556607D01*
X67127002Y-106526252D01*
X67285750Y-106685000D01*
X67501310Y-106685000D01*
X67581422Y-106651817D01*
X68000000Y-107070395D01*
X68770169Y-106300226D01*
X68705869Y-106062389D01*
X68197658Y-105882667D01*
X68010000Y-105892582D01*
X68010000Y-105735750D01*
X67851252Y-105577002D01*
X67867311Y-105577002D01*
X67898691Y-105590000D01*
X68514250Y-105590000D01*
X68673000Y-105431250D01*
X68673000Y-104782000D01*
X68653000Y-104782000D01*
X68653000Y-104528000D01*
X68673000Y-104528000D01*
X68673000Y-104508000D01*
X68927000Y-104508000D01*
X68927000Y-104528000D01*
X68947000Y-104528000D01*
X68947000Y-104782000D01*
X68927000Y-104782000D01*
X68927000Y-105431250D01*
X69085750Y-105590000D01*
X69605000Y-105590000D01*
X69605000Y-108808780D01*
X69391957Y-109021452D01*
X69185236Y-109519291D01*
X69184765Y-110058344D01*
X69390617Y-110556543D01*
X69491383Y-110657485D01*
X69188200Y-110782757D01*
X68784176Y-111186077D01*
X68565250Y-111713309D01*
X68564752Y-112284187D01*
X68782757Y-112811800D01*
X69186077Y-113215824D01*
X69713309Y-113434750D01*
X70284187Y-113435248D01*
X70811800Y-113217243D01*
X71118060Y-112911516D01*
X71357809Y-112863827D01*
X71661145Y-112661145D01*
X71945000Y-112377290D01*
X71945000Y-114115000D01*
X50235000Y-114115000D01*
X50235000Y-110739774D01*
X58769831Y-110739774D01*
X58834131Y-110977611D01*
X59342342Y-111157333D01*
X59880644Y-111128892D01*
X60245869Y-110977611D01*
X60310169Y-110739774D01*
X59540000Y-109969605D01*
X58769831Y-110739774D01*
X50235000Y-110739774D01*
X50235000Y-109592342D01*
X58172667Y-109592342D01*
X58201108Y-110130644D01*
X58352389Y-110495869D01*
X58590226Y-110560169D01*
X59360395Y-109790000D01*
X59719605Y-109790000D01*
X60489774Y-110560169D01*
X60727611Y-110495869D01*
X60907333Y-109987658D01*
X60878892Y-109449356D01*
X60727611Y-109084131D01*
X60489774Y-109019831D01*
X59719605Y-109790000D01*
X59360395Y-109790000D01*
X58590226Y-109019831D01*
X58352389Y-109084131D01*
X58172667Y-109592342D01*
X50235000Y-109592342D01*
X50235000Y-108793050D01*
X50257809Y-108777809D01*
X50274904Y-108752225D01*
X50414899Y-108845767D01*
X50964050Y-108955000D01*
X51835950Y-108955000D01*
X52385101Y-108845767D01*
X52393393Y-108840226D01*
X58769831Y-108840226D01*
X59540000Y-109610395D01*
X60310169Y-108840226D01*
X60245869Y-108602389D01*
X59737658Y-108422667D01*
X59199356Y-108451108D01*
X58834131Y-108602389D01*
X58769831Y-108840226D01*
X52393393Y-108840226D01*
X52850648Y-108534698D01*
X53084309Y-108185000D01*
X56018780Y-108185000D01*
X56231452Y-108398043D01*
X56729291Y-108604764D01*
X57268344Y-108605235D01*
X57766543Y-108399383D01*
X58148043Y-108018548D01*
X58354764Y-107520709D01*
X58354766Y-107518344D01*
X60724765Y-107518344D01*
X60930617Y-108016543D01*
X61311452Y-108398043D01*
X61809291Y-108604764D01*
X62348344Y-108605235D01*
X62846543Y-108399383D01*
X63046500Y-108199774D01*
X67229831Y-108199774D01*
X67294131Y-108437611D01*
X67802342Y-108617333D01*
X68340644Y-108588892D01*
X68705869Y-108437611D01*
X68770169Y-108199774D01*
X68000000Y-107429605D01*
X67229831Y-108199774D01*
X63046500Y-108199774D01*
X63228043Y-108018548D01*
X63434764Y-107520709D01*
X63435235Y-106981656D01*
X63229383Y-106483457D01*
X62848548Y-106101957D01*
X62350709Y-105895236D01*
X61811656Y-105894765D01*
X61313457Y-106100617D01*
X60931957Y-106481452D01*
X60725236Y-106979291D01*
X60724765Y-107518344D01*
X58354766Y-107518344D01*
X58355029Y-107217261D01*
X66036540Y-99535750D01*
X71315000Y-99535750D01*
X71315000Y-99751310D01*
X71411673Y-99984699D01*
X71590302Y-100163327D01*
X71823691Y-100260000D01*
X72264250Y-100260000D01*
X72423000Y-100101250D01*
X72423000Y-99377000D01*
X71473750Y-99377000D01*
X71315000Y-99535750D01*
X66036540Y-99535750D01*
X66823600Y-98748690D01*
X71315000Y-98748690D01*
X71315000Y-98964250D01*
X71473750Y-99123000D01*
X72423000Y-99123000D01*
X72423000Y-98398750D01*
X72264250Y-98240000D01*
X71823691Y-98240000D01*
X71590302Y-98336673D01*
X71411673Y-98515301D01*
X71315000Y-98748690D01*
X66823600Y-98748690D01*
X67887290Y-97685000D01*
X107862710Y-97685000D01*
X109315098Y-99137388D01*
X109315098Y-99137388D01*
G37*
X109315098Y-99137388D02*
X109314752Y-99534187D01*
X109430781Y-99815000D01*
X102960000Y-99815000D01*
X102602191Y-99886173D01*
X102298855Y-100088855D01*
X97032682Y-105355028D01*
X96731656Y-105354765D01*
X96233457Y-105560617D01*
X95851957Y-105941452D01*
X95645236Y-106439291D01*
X95645109Y-106585000D01*
X92903901Y-106585000D01*
X92850648Y-106505302D01*
X92468562Y-106250000D01*
X92850648Y-105994698D01*
X93161717Y-105529151D01*
X93270950Y-104980000D01*
X93161717Y-104430849D01*
X92850648Y-103965302D01*
X92385101Y-103654233D01*
X92183828Y-103614197D01*
X92238327Y-103559699D01*
X92335000Y-103326310D01*
X92335000Y-103035750D01*
X92176250Y-102877000D01*
X91227000Y-102877000D01*
X91227000Y-102897000D01*
X90973000Y-102897000D01*
X90973000Y-102877000D01*
X90953000Y-102877000D01*
X90953000Y-102623000D01*
X90973000Y-102623000D01*
X90973000Y-101823750D01*
X91227000Y-101823750D01*
X91227000Y-102623000D01*
X92176250Y-102623000D01*
X92335000Y-102464250D01*
X92335000Y-102173690D01*
X92238327Y-101940301D01*
X92059698Y-101761673D01*
X91826309Y-101665000D01*
X91385750Y-101665000D01*
X91227000Y-101823750D01*
X90973000Y-101823750D01*
X90814250Y-101665000D01*
X90373691Y-101665000D01*
X90140302Y-101761673D01*
X89998654Y-101903320D01*
X89957809Y-101842191D01*
X89747765Y-101701843D01*
X89500000Y-101652560D01*
X88300000Y-101652560D01*
X88052235Y-101701843D01*
X87842191Y-101842191D01*
X87701843Y-102052235D01*
X87652560Y-102300000D01*
X87652560Y-103200000D01*
X87665000Y-103262541D01*
X87665000Y-103644267D01*
X87614899Y-103654233D01*
X87149352Y-103965302D01*
X86838283Y-104430849D01*
X86729050Y-104980000D01*
X86838283Y-105529151D01*
X87149352Y-105994698D01*
X87296648Y-106093118D01*
X87152235Y-106121843D01*
X86942191Y-106262191D01*
X86801843Y-106472235D01*
X86752560Y-106720000D01*
X86752560Y-108320000D01*
X86801843Y-108567765D01*
X86942191Y-108777809D01*
X86965000Y-108793050D01*
X86965000Y-114115000D01*
X74215000Y-114115000D01*
X74215000Y-108031568D01*
X74228043Y-108018548D01*
X74434764Y-107520709D01*
X74435235Y-106981656D01*
X74229383Y-106483457D01*
X74015000Y-106268700D01*
X74015000Y-106231767D01*
X73943827Y-105873958D01*
X73762405Y-105602440D01*
X74975000Y-105602440D01*
X75222765Y-105553157D01*
X75432809Y-105412809D01*
X75573157Y-105202765D01*
X75622440Y-104955000D01*
X75622440Y-104355000D01*
X75573157Y-104107235D01*
X75514868Y-104020000D01*
X75573157Y-103932765D01*
X75622440Y-103685000D01*
X75622440Y-103085000D01*
X75573157Y-102837235D01*
X75514868Y-102750000D01*
X75573157Y-102662765D01*
X75622440Y-102415000D01*
X75622440Y-101815000D01*
X75573157Y-101567235D01*
X75514868Y-101480000D01*
X75573157Y-101392765D01*
X75622440Y-101145000D01*
X75622440Y-100545000D01*
X75573157Y-100297235D01*
X75453934Y-100118807D01*
X75507809Y-100082809D01*
X75648157Y-99872765D01*
X75697440Y-99625000D01*
X75697440Y-98875000D01*
X75648157Y-98627235D01*
X75507809Y-98417191D01*
X75297765Y-98276843D01*
X75050000Y-98227560D01*
X73850000Y-98227560D01*
X73602235Y-98276843D01*
X73510898Y-98337873D01*
X73509698Y-98336673D01*
X73276309Y-98240000D01*
X72835750Y-98240000D01*
X72677000Y-98398750D01*
X72677000Y-99123000D01*
X72697000Y-99123000D01*
X72697000Y-99377000D01*
X72677000Y-99377000D01*
X72677000Y-100101250D01*
X72796729Y-100220979D01*
X72088855Y-100928853D01*
X71886173Y-101232189D01*
X71815000Y-101589998D01*
X71815000Y-102432710D01*
X70836145Y-101453855D01*
X70532809Y-101251173D01*
X70213938Y-101187745D01*
X70222440Y-101145000D01*
X70222440Y-100545000D01*
X70173157Y-100297235D01*
X70032809Y-100087191D01*
X69822765Y-99946843D01*
X69575000Y-99897560D01*
X68025000Y-99897560D01*
X67777235Y-99946843D01*
X67567191Y-100087191D01*
X67426843Y-100297235D01*
X67377560Y-100545000D01*
X67377560Y-101145000D01*
X67426843Y-101392765D01*
X67485132Y-101480000D01*
X67426843Y-101567235D01*
X67377560Y-101815000D01*
X67377560Y-102303069D01*
X67375000Y-102302560D01*
X66625000Y-102302560D01*
X66377235Y-102351843D01*
X66167191Y-102492191D01*
X66026843Y-102702235D01*
X65977560Y-102950000D01*
X65977560Y-104150000D01*
X66026843Y-104397765D01*
X66087873Y-104489102D01*
X66086673Y-104490302D01*
X65990000Y-104723691D01*
X65990000Y-105164250D01*
X66148750Y-105323000D01*
X66873000Y-105323000D01*
X66873000Y-105303000D01*
X67127000Y-105303000D01*
X67127000Y-105323000D01*
X67147000Y-105323000D01*
X67147000Y-105577000D01*
X67127000Y-105577000D01*
X67127000Y-105597000D01*
X66873000Y-105597000D01*
X66873000Y-105577000D01*
X66148750Y-105577000D01*
X65990000Y-105735750D01*
X65990000Y-106176309D01*
X66086673Y-106409698D01*
X66265301Y-106588327D01*
X66498690Y-106685000D01*
X66714250Y-106685000D01*
X66789011Y-106610239D01*
X66632667Y-107052342D01*
X66661108Y-107590644D01*
X66812389Y-107955869D01*
X67050226Y-108020169D01*
X67820395Y-107250000D01*
X68179605Y-107250000D01*
X68949774Y-108020169D01*
X69187611Y-107955869D01*
X69367333Y-107447658D01*
X69338892Y-106909356D01*
X69187611Y-106544131D01*
X68949774Y-106479831D01*
X68179605Y-107250000D01*
X67820395Y-107250000D01*
X67127002Y-106556607D01*
X67127002Y-106526252D01*
X67285750Y-106685000D01*
X67501310Y-106685000D01*
X67581422Y-106651817D01*
X68000000Y-107070395D01*
X68770169Y-106300226D01*
X68705869Y-106062389D01*
X68197658Y-105882667D01*
X68010000Y-105892582D01*
X68010000Y-105735750D01*
X67851252Y-105577002D01*
X67867311Y-105577002D01*
X67898691Y-105590000D01*
X68514250Y-105590000D01*
X68673000Y-105431250D01*
X68673000Y-104782000D01*
X68653000Y-104782000D01*
X68653000Y-104528000D01*
X68673000Y-104528000D01*
X68673000Y-104508000D01*
X68927000Y-104508000D01*
X68927000Y-104528000D01*
X68947000Y-104528000D01*
X68947000Y-104782000D01*
X68927000Y-104782000D01*
X68927000Y-105431250D01*
X69085750Y-105590000D01*
X69605000Y-105590000D01*
X69605000Y-108808780D01*
X69391957Y-109021452D01*
X69185236Y-109519291D01*
X69184765Y-110058344D01*
X69390617Y-110556543D01*
X69491383Y-110657485D01*
X69188200Y-110782757D01*
X68784176Y-111186077D01*
X68565250Y-111713309D01*
X68564752Y-112284187D01*
X68782757Y-112811800D01*
X69186077Y-113215824D01*
X69713309Y-113434750D01*
X70284187Y-113435248D01*
X70811800Y-113217243D01*
X71118060Y-112911516D01*
X71357809Y-112863827D01*
X71661145Y-112661145D01*
X71945000Y-112377290D01*
X71945000Y-114115000D01*
X50235000Y-114115000D01*
X50235000Y-110739774D01*
X58769831Y-110739774D01*
X58834131Y-110977611D01*
X59342342Y-111157333D01*
X59880644Y-111128892D01*
X60245869Y-110977611D01*
X60310169Y-110739774D01*
X59540000Y-109969605D01*
X58769831Y-110739774D01*
X50235000Y-110739774D01*
X50235000Y-109592342D01*
X58172667Y-109592342D01*
X58201108Y-110130644D01*
X58352389Y-110495869D01*
X58590226Y-110560169D01*
X59360395Y-109790000D01*
X59719605Y-109790000D01*
X60489774Y-110560169D01*
X60727611Y-110495869D01*
X60907333Y-109987658D01*
X60878892Y-109449356D01*
X60727611Y-109084131D01*
X60489774Y-109019831D01*
X59719605Y-109790000D01*
X59360395Y-109790000D01*
X58590226Y-109019831D01*
X58352389Y-109084131D01*
X58172667Y-109592342D01*
X50235000Y-109592342D01*
X50235000Y-108793050D01*
X50257809Y-108777809D01*
X50274904Y-108752225D01*
X50414899Y-108845767D01*
X50964050Y-108955000D01*
X51835950Y-108955000D01*
X52385101Y-108845767D01*
X52393393Y-108840226D01*
X58769831Y-108840226D01*
X59540000Y-109610395D01*
X60310169Y-108840226D01*
X60245869Y-108602389D01*
X59737658Y-108422667D01*
X59199356Y-108451108D01*
X58834131Y-108602389D01*
X58769831Y-108840226D01*
X52393393Y-108840226D01*
X52850648Y-108534698D01*
X53084309Y-108185000D01*
X56018780Y-108185000D01*
X56231452Y-108398043D01*
X56729291Y-108604764D01*
X57268344Y-108605235D01*
X57766543Y-108399383D01*
X58148043Y-108018548D01*
X58354764Y-107520709D01*
X58354766Y-107518344D01*
X60724765Y-107518344D01*
X60930617Y-108016543D01*
X61311452Y-108398043D01*
X61809291Y-108604764D01*
X62348344Y-108605235D01*
X62846543Y-108399383D01*
X63046500Y-108199774D01*
X67229831Y-108199774D01*
X67294131Y-108437611D01*
X67802342Y-108617333D01*
X68340644Y-108588892D01*
X68705869Y-108437611D01*
X68770169Y-108199774D01*
X68000000Y-107429605D01*
X67229831Y-108199774D01*
X63046500Y-108199774D01*
X63228043Y-108018548D01*
X63434764Y-107520709D01*
X63435235Y-106981656D01*
X63229383Y-106483457D01*
X62848548Y-106101957D01*
X62350709Y-105895236D01*
X61811656Y-105894765D01*
X61313457Y-106100617D01*
X60931957Y-106481452D01*
X60725236Y-106979291D01*
X60724765Y-107518344D01*
X58354766Y-107518344D01*
X58355029Y-107217261D01*
X66036540Y-99535750D01*
X71315000Y-99535750D01*
X71315000Y-99751310D01*
X71411673Y-99984699D01*
X71590302Y-100163327D01*
X71823691Y-100260000D01*
X72264250Y-100260000D01*
X72423000Y-100101250D01*
X72423000Y-99377000D01*
X71473750Y-99377000D01*
X71315000Y-99535750D01*
X66036540Y-99535750D01*
X66823600Y-98748690D01*
X71315000Y-98748690D01*
X71315000Y-98964250D01*
X71473750Y-99123000D01*
X72423000Y-99123000D01*
X72423000Y-98398750D01*
X72264250Y-98240000D01*
X71823691Y-98240000D01*
X71590302Y-98336673D01*
X71411673Y-98515301D01*
X71315000Y-98748690D01*
X66823600Y-98748690D01*
X67887290Y-97685000D01*
X107862710Y-97685000D01*
X109315098Y-99137388D01*
G36*
X264815250Y-103213309D02*
X264814752Y-103784187D01*
X265032757Y-104311800D01*
X265330350Y-104609912D01*
X265201843Y-104802235D01*
X265152560Y-105050000D01*
X265152560Y-105950000D01*
X265201843Y-106197765D01*
X265320269Y-106375000D01*
X265201843Y-106552235D01*
X265152560Y-106800000D01*
X265152560Y-107025150D01*
X264538855Y-107638855D01*
X264336173Y-107942191D01*
X264265000Y-108300000D01*
X264265000Y-109700000D01*
X264336173Y-110057809D01*
X264538855Y-110361145D01*
X265152560Y-110974850D01*
X265152560Y-111200000D01*
X265201843Y-111447765D01*
X265342191Y-111657809D01*
X265465000Y-111739868D01*
X265465000Y-114115000D01*
X250235000Y-114115000D01*
X250235000Y-110739774D01*
X258769831Y-110739774D01*
X258834131Y-110977611D01*
X259342342Y-111157333D01*
X259880644Y-111128892D01*
X260245869Y-110977611D01*
X260310169Y-110739774D01*
X259540000Y-109969605D01*
X258769831Y-110739774D01*
X250235000Y-110739774D01*
X250235000Y-109592342D01*
X258172667Y-109592342D01*
X258201108Y-110130644D01*
X258352389Y-110495869D01*
X258590226Y-110560169D01*
X259360395Y-109790000D01*
X259719605Y-109790000D01*
X260489774Y-110560169D01*
X260727611Y-110495869D01*
X260907333Y-109987658D01*
X260878892Y-109449356D01*
X260727611Y-109084131D01*
X260489774Y-109019831D01*
X259719605Y-109790000D01*
X259360395Y-109790000D01*
X258590226Y-109019831D01*
X258352389Y-109084131D01*
X258172667Y-109592342D01*
X250235000Y-109592342D01*
X250235000Y-108793050D01*
X250257809Y-108777809D01*
X250274904Y-108752225D01*
X250414899Y-108845767D01*
X250964050Y-108955000D01*
X251835950Y-108955000D01*
X252385101Y-108845767D01*
X252393393Y-108840226D01*
X258769831Y-108840226D01*
X259540000Y-109610395D01*
X260310169Y-108840226D01*
X260245869Y-108602389D01*
X259737658Y-108422667D01*
X259199356Y-108451108D01*
X258834131Y-108602389D01*
X258769831Y-108840226D01*
X252393393Y-108840226D01*
X252820264Y-108555000D01*
X256609446Y-108555000D01*
X256729291Y-108604764D01*
X257268344Y-108605235D01*
X257766543Y-108399383D01*
X257966500Y-108199774D01*
X261309831Y-108199774D01*
X261374131Y-108437611D01*
X261882342Y-108617333D01*
X262420644Y-108588892D01*
X262785869Y-108437611D01*
X262850169Y-108199774D01*
X262080000Y-107429605D01*
X261309831Y-108199774D01*
X257966500Y-108199774D01*
X258148043Y-108018548D01*
X258354764Y-107520709D01*
X258355029Y-107217261D01*
X258519948Y-107052342D01*
X260712667Y-107052342D01*
X260741108Y-107590644D01*
X260892389Y-107955869D01*
X261130226Y-108020169D01*
X261900395Y-107250000D01*
X262259605Y-107250000D01*
X263029774Y-108020169D01*
X263267611Y-107955869D01*
X263447333Y-107447658D01*
X263418892Y-106909356D01*
X263267611Y-106544131D01*
X263029774Y-106479831D01*
X262259605Y-107250000D01*
X261900395Y-107250000D01*
X261130226Y-106479831D01*
X260892389Y-106544131D01*
X260712667Y-107052342D01*
X258519948Y-107052342D01*
X259272064Y-106300226D01*
X261309831Y-106300226D01*
X262080000Y-107070395D01*
X262850169Y-106300226D01*
X262785869Y-106062389D01*
X262277658Y-105882667D01*
X261739356Y-105911108D01*
X261374131Y-106062389D01*
X261309831Y-106300226D01*
X259272064Y-106300226D01*
X262537292Y-103034998D01*
X264889291Y-103034998D01*
X264815250Y-103213309D01*
X264815250Y-103213309D01*
G37*
X264815250Y-103213309D02*
X264814752Y-103784187D01*
X265032757Y-104311800D01*
X265330350Y-104609912D01*
X265201843Y-104802235D01*
X265152560Y-105050000D01*
X265152560Y-105950000D01*
X265201843Y-106197765D01*
X265320269Y-106375000D01*
X265201843Y-106552235D01*
X265152560Y-106800000D01*
X265152560Y-107025150D01*
X264538855Y-107638855D01*
X264336173Y-107942191D01*
X264265000Y-108300000D01*
X264265000Y-109700000D01*
X264336173Y-110057809D01*
X264538855Y-110361145D01*
X265152560Y-110974850D01*
X265152560Y-111200000D01*
X265201843Y-111447765D01*
X265342191Y-111657809D01*
X265465000Y-111739868D01*
X265465000Y-114115000D01*
X250235000Y-114115000D01*
X250235000Y-110739774D01*
X258769831Y-110739774D01*
X258834131Y-110977611D01*
X259342342Y-111157333D01*
X259880644Y-111128892D01*
X260245869Y-110977611D01*
X260310169Y-110739774D01*
X259540000Y-109969605D01*
X258769831Y-110739774D01*
X250235000Y-110739774D01*
X250235000Y-109592342D01*
X258172667Y-109592342D01*
X258201108Y-110130644D01*
X258352389Y-110495869D01*
X258590226Y-110560169D01*
X259360395Y-109790000D01*
X259719605Y-109790000D01*
X260489774Y-110560169D01*
X260727611Y-110495869D01*
X260907333Y-109987658D01*
X260878892Y-109449356D01*
X260727611Y-109084131D01*
X260489774Y-109019831D01*
X259719605Y-109790000D01*
X259360395Y-109790000D01*
X258590226Y-109019831D01*
X258352389Y-109084131D01*
X258172667Y-109592342D01*
X250235000Y-109592342D01*
X250235000Y-108793050D01*
X250257809Y-108777809D01*
X250274904Y-108752225D01*
X250414899Y-108845767D01*
X250964050Y-108955000D01*
X251835950Y-108955000D01*
X252385101Y-108845767D01*
X252393393Y-108840226D01*
X258769831Y-108840226D01*
X259540000Y-109610395D01*
X260310169Y-108840226D01*
X260245869Y-108602389D01*
X259737658Y-108422667D01*
X259199356Y-108451108D01*
X258834131Y-108602389D01*
X258769831Y-108840226D01*
X252393393Y-108840226D01*
X252820264Y-108555000D01*
X256609446Y-108555000D01*
X256729291Y-108604764D01*
X257268344Y-108605235D01*
X257766543Y-108399383D01*
X257966500Y-108199774D01*
X261309831Y-108199774D01*
X261374131Y-108437611D01*
X261882342Y-108617333D01*
X262420644Y-108588892D01*
X262785869Y-108437611D01*
X262850169Y-108199774D01*
X262080000Y-107429605D01*
X261309831Y-108199774D01*
X257966500Y-108199774D01*
X258148043Y-108018548D01*
X258354764Y-107520709D01*
X258355029Y-107217261D01*
X258519948Y-107052342D01*
X260712667Y-107052342D01*
X260741108Y-107590644D01*
X260892389Y-107955869D01*
X261130226Y-108020169D01*
X261900395Y-107250000D01*
X262259605Y-107250000D01*
X263029774Y-108020169D01*
X263267611Y-107955869D01*
X263447333Y-107447658D01*
X263418892Y-106909356D01*
X263267611Y-106544131D01*
X263029774Y-106479831D01*
X262259605Y-107250000D01*
X261900395Y-107250000D01*
X261130226Y-106479831D01*
X260892389Y-106544131D01*
X260712667Y-107052342D01*
X258519948Y-107052342D01*
X259272064Y-106300226D01*
X261309831Y-106300226D01*
X262080000Y-107070395D01*
X262850169Y-106300226D01*
X262785869Y-106062389D01*
X262277658Y-105882667D01*
X261739356Y-105911108D01*
X261374131Y-106062389D01*
X261309831Y-106300226D01*
X259272064Y-106300226D01*
X262537292Y-103034998D01*
X264889291Y-103034998D01*
X264815250Y-103213309D01*
G36*
X176065000Y-104263286D02*
X176065000Y-106268780D01*
X175851957Y-106481452D01*
X175850484Y-106485000D01*
X172820264Y-106485000D01*
X172468562Y-106250000D01*
X172850648Y-105994698D01*
X173161717Y-105529151D01*
X173270950Y-104980000D01*
X173161717Y-104430849D01*
X172850648Y-103965302D01*
X172385101Y-103654233D01*
X172183828Y-103614197D01*
X172238327Y-103559699D01*
X172335000Y-103326310D01*
X172335000Y-103035750D01*
X172176250Y-102877000D01*
X171227000Y-102877000D01*
X171227000Y-102897000D01*
X170973000Y-102897000D01*
X170973000Y-102877000D01*
X170953000Y-102877000D01*
X170953000Y-102623000D01*
X170973000Y-102623000D01*
X170973000Y-101823750D01*
X171227000Y-101823750D01*
X171227000Y-102623000D01*
X172176250Y-102623000D01*
X172335000Y-102464250D01*
X172335000Y-102173690D01*
X172238327Y-101940301D01*
X172059698Y-101761673D01*
X171826309Y-101665000D01*
X171385750Y-101665000D01*
X171227000Y-101823750D01*
X170973000Y-101823750D01*
X170814250Y-101665000D01*
X170373691Y-101665000D01*
X170140302Y-101761673D01*
X169998654Y-101903320D01*
X169957809Y-101842191D01*
X169747765Y-101701843D01*
X169500000Y-101652560D01*
X168300000Y-101652560D01*
X168052235Y-101701843D01*
X167842191Y-101842191D01*
X167701843Y-102052235D01*
X167652560Y-102300000D01*
X167652560Y-103200000D01*
X167665000Y-103262541D01*
X167665000Y-103644267D01*
X167614899Y-103654233D01*
X167149352Y-103965302D01*
X166838283Y-104430849D01*
X166729050Y-104980000D01*
X166838283Y-105529151D01*
X167149352Y-105994698D01*
X167296648Y-106093118D01*
X167152235Y-106121843D01*
X166942191Y-106262191D01*
X166801843Y-106472235D01*
X166752560Y-106720000D01*
X166752560Y-108320000D01*
X166801843Y-108567765D01*
X166942191Y-108777809D01*
X166965000Y-108793050D01*
X166965000Y-114115000D01*
X148733977Y-114115000D01*
X149264372Y-113895845D01*
X149893636Y-113267679D01*
X150234611Y-112446519D01*
X150235387Y-111557381D01*
X149895845Y-110735628D01*
X149267679Y-110106364D01*
X148446519Y-109765389D01*
X147557381Y-109764613D01*
X146735628Y-110104155D01*
X146106364Y-110732321D01*
X145765389Y-111553481D01*
X145764613Y-112442619D01*
X146104155Y-113264372D01*
X146732321Y-113893636D01*
X147265425Y-114115000D01*
X130235000Y-114115000D01*
X130235000Y-110739774D01*
X138769831Y-110739774D01*
X138834131Y-110977611D01*
X139342342Y-111157333D01*
X139880644Y-111128892D01*
X140245869Y-110977611D01*
X140310169Y-110739774D01*
X139540000Y-109969605D01*
X138769831Y-110739774D01*
X130235000Y-110739774D01*
X130235000Y-109592342D01*
X138172667Y-109592342D01*
X138201108Y-110130644D01*
X138352389Y-110495869D01*
X138590226Y-110560169D01*
X139360395Y-109790000D01*
X139719605Y-109790000D01*
X140489774Y-110560169D01*
X140727611Y-110495869D01*
X140907333Y-109987658D01*
X140878892Y-109449356D01*
X140727611Y-109084131D01*
X140489774Y-109019831D01*
X139719605Y-109790000D01*
X139360395Y-109790000D01*
X138590226Y-109019831D01*
X138352389Y-109084131D01*
X138172667Y-109592342D01*
X130235000Y-109592342D01*
X130235000Y-108793050D01*
X130257809Y-108777809D01*
X130274904Y-108752225D01*
X130414899Y-108845767D01*
X130964050Y-108955000D01*
X131835950Y-108955000D01*
X132385101Y-108845767D01*
X132393393Y-108840226D01*
X138769831Y-108840226D01*
X139540000Y-109610395D01*
X140310169Y-108840226D01*
X140245869Y-108602389D01*
X139737658Y-108422667D01*
X139199356Y-108451108D01*
X138834131Y-108602389D01*
X138769831Y-108840226D01*
X132393393Y-108840226D01*
X132850648Y-108534698D01*
X132903901Y-108455000D01*
X136368620Y-108455000D01*
X136729291Y-108604764D01*
X137268344Y-108605235D01*
X137766543Y-108399383D01*
X137966500Y-108199774D01*
X141309831Y-108199774D01*
X141374131Y-108437611D01*
X141882342Y-108617333D01*
X142420644Y-108588892D01*
X142785869Y-108437611D01*
X142850169Y-108199774D01*
X142080000Y-107429605D01*
X141309831Y-108199774D01*
X137966500Y-108199774D01*
X138148043Y-108018548D01*
X138354764Y-107520709D01*
X138355173Y-107052342D01*
X140712667Y-107052342D01*
X140741108Y-107590644D01*
X140892389Y-107955869D01*
X141130226Y-108020169D01*
X141900395Y-107250000D01*
X142259605Y-107250000D01*
X143029774Y-108020169D01*
X143267611Y-107955869D01*
X143447333Y-107447658D01*
X143418892Y-106909356D01*
X143267611Y-106544131D01*
X143029774Y-106479831D01*
X142259605Y-107250000D01*
X141900395Y-107250000D01*
X141130226Y-106479831D01*
X140892389Y-106544131D01*
X140712667Y-107052342D01*
X138355173Y-107052342D01*
X138355235Y-106981656D01*
X138149383Y-106483457D01*
X137966472Y-106300226D01*
X141309831Y-106300226D01*
X142080000Y-107070395D01*
X142850169Y-106300226D01*
X142785869Y-106062389D01*
X142277658Y-105882667D01*
X141739356Y-105911108D01*
X141374131Y-106062389D01*
X141309831Y-106300226D01*
X137966472Y-106300226D01*
X137935000Y-106268700D01*
X137935000Y-103576001D01*
X137935001Y-103575996D01*
X137863827Y-103218188D01*
X137863827Y-103218187D01*
X137661145Y-102914851D01*
X135981292Y-101234998D01*
X173036712Y-101234998D01*
X176065000Y-104263286D01*
X176065000Y-104263286D01*
G37*
X176065000Y-104263286D02*
X176065000Y-106268780D01*
X175851957Y-106481452D01*
X175850484Y-106485000D01*
X172820264Y-106485000D01*
X172468562Y-106250000D01*
X172850648Y-105994698D01*
X173161717Y-105529151D01*
X173270950Y-104980000D01*
X173161717Y-104430849D01*
X172850648Y-103965302D01*
X172385101Y-103654233D01*
X172183828Y-103614197D01*
X172238327Y-103559699D01*
X172335000Y-103326310D01*
X172335000Y-103035750D01*
X172176250Y-102877000D01*
X171227000Y-102877000D01*
X171227000Y-102897000D01*
X170973000Y-102897000D01*
X170973000Y-102877000D01*
X170953000Y-102877000D01*
X170953000Y-102623000D01*
X170973000Y-102623000D01*
X170973000Y-101823750D01*
X171227000Y-101823750D01*
X171227000Y-102623000D01*
X172176250Y-102623000D01*
X172335000Y-102464250D01*
X172335000Y-102173690D01*
X172238327Y-101940301D01*
X172059698Y-101761673D01*
X171826309Y-101665000D01*
X171385750Y-101665000D01*
X171227000Y-101823750D01*
X170973000Y-101823750D01*
X170814250Y-101665000D01*
X170373691Y-101665000D01*
X170140302Y-101761673D01*
X169998654Y-101903320D01*
X169957809Y-101842191D01*
X169747765Y-101701843D01*
X169500000Y-101652560D01*
X168300000Y-101652560D01*
X168052235Y-101701843D01*
X167842191Y-101842191D01*
X167701843Y-102052235D01*
X167652560Y-102300000D01*
X167652560Y-103200000D01*
X167665000Y-103262541D01*
X167665000Y-103644267D01*
X167614899Y-103654233D01*
X167149352Y-103965302D01*
X166838283Y-104430849D01*
X166729050Y-104980000D01*
X166838283Y-105529151D01*
X167149352Y-105994698D01*
X167296648Y-106093118D01*
X167152235Y-106121843D01*
X166942191Y-106262191D01*
X166801843Y-106472235D01*
X166752560Y-106720000D01*
X166752560Y-108320000D01*
X166801843Y-108567765D01*
X166942191Y-108777809D01*
X166965000Y-108793050D01*
X166965000Y-114115000D01*
X148733977Y-114115000D01*
X149264372Y-113895845D01*
X149893636Y-113267679D01*
X150234611Y-112446519D01*
X150235387Y-111557381D01*
X149895845Y-110735628D01*
X149267679Y-110106364D01*
X148446519Y-109765389D01*
X147557381Y-109764613D01*
X146735628Y-110104155D01*
X146106364Y-110732321D01*
X145765389Y-111553481D01*
X145764613Y-112442619D01*
X146104155Y-113264372D01*
X146732321Y-113893636D01*
X147265425Y-114115000D01*
X130235000Y-114115000D01*
X130235000Y-110739774D01*
X138769831Y-110739774D01*
X138834131Y-110977611D01*
X139342342Y-111157333D01*
X139880644Y-111128892D01*
X140245869Y-110977611D01*
X140310169Y-110739774D01*
X139540000Y-109969605D01*
X138769831Y-110739774D01*
X130235000Y-110739774D01*
X130235000Y-109592342D01*
X138172667Y-109592342D01*
X138201108Y-110130644D01*
X138352389Y-110495869D01*
X138590226Y-110560169D01*
X139360395Y-109790000D01*
X139719605Y-109790000D01*
X140489774Y-110560169D01*
X140727611Y-110495869D01*
X140907333Y-109987658D01*
X140878892Y-109449356D01*
X140727611Y-109084131D01*
X140489774Y-109019831D01*
X139719605Y-109790000D01*
X139360395Y-109790000D01*
X138590226Y-109019831D01*
X138352389Y-109084131D01*
X138172667Y-109592342D01*
X130235000Y-109592342D01*
X130235000Y-108793050D01*
X130257809Y-108777809D01*
X130274904Y-108752225D01*
X130414899Y-108845767D01*
X130964050Y-108955000D01*
X131835950Y-108955000D01*
X132385101Y-108845767D01*
X132393393Y-108840226D01*
X138769831Y-108840226D01*
X139540000Y-109610395D01*
X140310169Y-108840226D01*
X140245869Y-108602389D01*
X139737658Y-108422667D01*
X139199356Y-108451108D01*
X138834131Y-108602389D01*
X138769831Y-108840226D01*
X132393393Y-108840226D01*
X132850648Y-108534698D01*
X132903901Y-108455000D01*
X136368620Y-108455000D01*
X136729291Y-108604764D01*
X137268344Y-108605235D01*
X137766543Y-108399383D01*
X137966500Y-108199774D01*
X141309831Y-108199774D01*
X141374131Y-108437611D01*
X141882342Y-108617333D01*
X142420644Y-108588892D01*
X142785869Y-108437611D01*
X142850169Y-108199774D01*
X142080000Y-107429605D01*
X141309831Y-108199774D01*
X137966500Y-108199774D01*
X138148043Y-108018548D01*
X138354764Y-107520709D01*
X138355173Y-107052342D01*
X140712667Y-107052342D01*
X140741108Y-107590644D01*
X140892389Y-107955869D01*
X141130226Y-108020169D01*
X141900395Y-107250000D01*
X142259605Y-107250000D01*
X143029774Y-108020169D01*
X143267611Y-107955869D01*
X143447333Y-107447658D01*
X143418892Y-106909356D01*
X143267611Y-106544131D01*
X143029774Y-106479831D01*
X142259605Y-107250000D01*
X141900395Y-107250000D01*
X141130226Y-106479831D01*
X140892389Y-106544131D01*
X140712667Y-107052342D01*
X138355173Y-107052342D01*
X138355235Y-106981656D01*
X138149383Y-106483457D01*
X137966472Y-106300226D01*
X141309831Y-106300226D01*
X142080000Y-107070395D01*
X142850169Y-106300226D01*
X142785869Y-106062389D01*
X142277658Y-105882667D01*
X141739356Y-105911108D01*
X141374131Y-106062389D01*
X141309831Y-106300226D01*
X137966472Y-106300226D01*
X137935000Y-106268700D01*
X137935000Y-103576001D01*
X137935001Y-103575996D01*
X137863827Y-103218188D01*
X137863827Y-103218187D01*
X137661145Y-102914851D01*
X135981292Y-101234998D01*
X173036712Y-101234998D01*
X176065000Y-104263286D01*
G36*
X345035122Y-95247412D02*
X344961009Y-95620000D01*
X345074048Y-96188285D01*
X345299033Y-96525000D01*
X342840005Y-96525000D01*
X342840000Y-96524999D01*
X342214313Y-96649457D01*
X341683880Y-97003880D01*
X341683878Y-97003883D01*
X338843880Y-99843880D01*
X338489457Y-100374312D01*
X338364999Y-101000000D01*
X338365000Y-101000005D01*
X338365000Y-108322761D01*
X332572760Y-114115000D01*
X330235000Y-114115000D01*
X330235000Y-108793050D01*
X330257809Y-108777809D01*
X330274904Y-108752225D01*
X330414899Y-108845767D01*
X330964050Y-108955000D01*
X331835950Y-108955000D01*
X332385101Y-108845767D01*
X332850648Y-108534698D01*
X332903901Y-108455000D01*
X333480000Y-108455000D01*
X333837809Y-108383827D01*
X334141145Y-108181145D01*
X335661145Y-106661145D01*
X335726106Y-106563923D01*
X335863827Y-106357809D01*
X335935000Y-106000000D01*
X335935000Y-101000000D01*
X335863827Y-100642191D01*
X335661145Y-100338855D01*
X334161145Y-98838855D01*
X333857809Y-98636173D01*
X333500000Y-98565000D01*
X288569186Y-98565000D01*
X288684750Y-98286691D01*
X288685248Y-97715813D01*
X288467243Y-97188200D01*
X288063923Y-96784176D01*
X287536691Y-96565250D01*
X286965813Y-96564752D01*
X286438200Y-96782757D01*
X286155464Y-97065000D01*
X285964741Y-97065000D01*
X285965820Y-97063923D01*
X286184746Y-96536691D01*
X286185244Y-95965813D01*
X285967239Y-95438200D01*
X285563919Y-95034176D01*
X285036687Y-94815250D01*
X284465809Y-94814752D01*
X283938196Y-95032757D01*
X283771476Y-95199186D01*
X280507290Y-91935000D01*
X341722710Y-91935000D01*
X345035122Y-95247412D01*
X345035122Y-95247412D01*
G37*
X345035122Y-95247412D02*
X344961009Y-95620000D01*
X345074048Y-96188285D01*
X345299033Y-96525000D01*
X342840005Y-96525000D01*
X342840000Y-96524999D01*
X342214313Y-96649457D01*
X341683880Y-97003880D01*
X341683878Y-97003883D01*
X338843880Y-99843880D01*
X338489457Y-100374312D01*
X338364999Y-101000000D01*
X338365000Y-101000005D01*
X338365000Y-108322761D01*
X332572760Y-114115000D01*
X330235000Y-114115000D01*
X330235000Y-108793050D01*
X330257809Y-108777809D01*
X330274904Y-108752225D01*
X330414899Y-108845767D01*
X330964050Y-108955000D01*
X331835950Y-108955000D01*
X332385101Y-108845767D01*
X332850648Y-108534698D01*
X332903901Y-108455000D01*
X333480000Y-108455000D01*
X333837809Y-108383827D01*
X334141145Y-108181145D01*
X335661145Y-106661145D01*
X335726106Y-106563923D01*
X335863827Y-106357809D01*
X335935000Y-106000000D01*
X335935000Y-101000000D01*
X335863827Y-100642191D01*
X335661145Y-100338855D01*
X334161145Y-98838855D01*
X333857809Y-98636173D01*
X333500000Y-98565000D01*
X288569186Y-98565000D01*
X288684750Y-98286691D01*
X288685248Y-97715813D01*
X288467243Y-97188200D01*
X288063923Y-96784176D01*
X287536691Y-96565250D01*
X286965813Y-96564752D01*
X286438200Y-96782757D01*
X286155464Y-97065000D01*
X285964741Y-97065000D01*
X285965820Y-97063923D01*
X286184746Y-96536691D01*
X286185244Y-95965813D01*
X285967239Y-95438200D01*
X285563919Y-95034176D01*
X285036687Y-94815250D01*
X284465809Y-94814752D01*
X283938196Y-95032757D01*
X283771476Y-95199186D01*
X280507290Y-91935000D01*
X341722710Y-91935000D01*
X345035122Y-95247412D01*
G36*
X276688855Y-104641145D02*
X276992191Y-104843827D01*
X277311062Y-104907255D01*
X277302560Y-104950000D01*
X277302560Y-105485000D01*
X277150000Y-105485000D01*
X276753922Y-105563785D01*
X276659549Y-105626843D01*
X276418144Y-105788144D01*
X276418142Y-105788147D01*
X276168144Y-106038144D01*
X275943785Y-106373923D01*
X275864999Y-106770000D01*
X275865000Y-106770005D01*
X275865000Y-109797448D01*
X275726309Y-109740000D01*
X275285750Y-109740000D01*
X275127000Y-109898750D01*
X275127000Y-110623000D01*
X275147000Y-110623000D01*
X275147000Y-110877000D01*
X275127000Y-110877000D01*
X275127000Y-111601250D01*
X275285750Y-111760000D01*
X275726309Y-111760000D01*
X275865000Y-111702552D01*
X275865000Y-114115000D01*
X267335000Y-114115000D01*
X267335000Y-112833191D01*
X267532757Y-113311800D01*
X267936077Y-113715824D01*
X268463309Y-113934750D01*
X269034187Y-113935248D01*
X269561800Y-113717243D01*
X269965824Y-113313923D01*
X270184750Y-112786691D01*
X270185248Y-112215813D01*
X269967243Y-111688200D01*
X269964049Y-111685000D01*
X271000000Y-111685000D01*
X271357809Y-111613827D01*
X271661145Y-111411145D01*
X272036540Y-111035750D01*
X273765000Y-111035750D01*
X273765000Y-111251310D01*
X273861673Y-111484699D01*
X274040302Y-111663327D01*
X274273691Y-111760000D01*
X274714250Y-111760000D01*
X274873000Y-111601250D01*
X274873000Y-110877000D01*
X273923750Y-110877000D01*
X273765000Y-111035750D01*
X272036540Y-111035750D01*
X273064850Y-110007440D01*
X273869534Y-110007440D01*
X273861673Y-110015301D01*
X273765000Y-110248690D01*
X273765000Y-110464250D01*
X273923750Y-110623000D01*
X274873000Y-110623000D01*
X274873000Y-109898750D01*
X274714250Y-109740000D01*
X274559800Y-109740000D01*
X274648157Y-109607765D01*
X274697440Y-109360000D01*
X274697440Y-108760000D01*
X274648157Y-108512235D01*
X274589868Y-108425000D01*
X274648157Y-108337765D01*
X274697440Y-108090000D01*
X274697440Y-107490000D01*
X274648157Y-107242235D01*
X274595232Y-107163028D01*
X274685000Y-106946310D01*
X274685000Y-106805750D01*
X274526250Y-106647000D01*
X273427000Y-106647000D01*
X273427000Y-106667000D01*
X273173000Y-106667000D01*
X273173000Y-106647000D01*
X272073750Y-106647000D01*
X271915000Y-106805750D01*
X271915000Y-106855000D01*
X271601294Y-106855000D01*
X271335149Y-106588855D01*
X271031813Y-106386173D01*
X270674004Y-106315000D01*
X269719822Y-106315000D01*
X269798157Y-106197765D01*
X269800696Y-106185000D01*
X271915000Y-106185000D01*
X271915000Y-106234250D01*
X272073750Y-106393000D01*
X273173000Y-106393000D01*
X273173000Y-106373000D01*
X273427000Y-106373000D01*
X273427000Y-106393000D01*
X274526250Y-106393000D01*
X274685000Y-106234250D01*
X274685000Y-106178038D01*
X275007809Y-106113827D01*
X275311145Y-105911145D01*
X276461155Y-104761135D01*
X276600420Y-104552710D01*
X276688855Y-104641145D01*
X276688855Y-104641145D01*
G37*
X276688855Y-104641145D02*
X276992191Y-104843827D01*
X277311062Y-104907255D01*
X277302560Y-104950000D01*
X277302560Y-105485000D01*
X277150000Y-105485000D01*
X276753922Y-105563785D01*
X276659549Y-105626843D01*
X276418144Y-105788144D01*
X276418142Y-105788147D01*
X276168144Y-106038144D01*
X275943785Y-106373923D01*
X275864999Y-106770000D01*
X275865000Y-106770005D01*
X275865000Y-109797448D01*
X275726309Y-109740000D01*
X275285750Y-109740000D01*
X275127000Y-109898750D01*
X275127000Y-110623000D01*
X275147000Y-110623000D01*
X275147000Y-110877000D01*
X275127000Y-110877000D01*
X275127000Y-111601250D01*
X275285750Y-111760000D01*
X275726309Y-111760000D01*
X275865000Y-111702552D01*
X275865000Y-114115000D01*
X267335000Y-114115000D01*
X267335000Y-112833191D01*
X267532757Y-113311800D01*
X267936077Y-113715824D01*
X268463309Y-113934750D01*
X269034187Y-113935248D01*
X269561800Y-113717243D01*
X269965824Y-113313923D01*
X270184750Y-112786691D01*
X270185248Y-112215813D01*
X269967243Y-111688200D01*
X269964049Y-111685000D01*
X271000000Y-111685000D01*
X271357809Y-111613827D01*
X271661145Y-111411145D01*
X272036540Y-111035750D01*
X273765000Y-111035750D01*
X273765000Y-111251310D01*
X273861673Y-111484699D01*
X274040302Y-111663327D01*
X274273691Y-111760000D01*
X274714250Y-111760000D01*
X274873000Y-111601250D01*
X274873000Y-110877000D01*
X273923750Y-110877000D01*
X273765000Y-111035750D01*
X272036540Y-111035750D01*
X273064850Y-110007440D01*
X273869534Y-110007440D01*
X273861673Y-110015301D01*
X273765000Y-110248690D01*
X273765000Y-110464250D01*
X273923750Y-110623000D01*
X274873000Y-110623000D01*
X274873000Y-109898750D01*
X274714250Y-109740000D01*
X274559800Y-109740000D01*
X274648157Y-109607765D01*
X274697440Y-109360000D01*
X274697440Y-108760000D01*
X274648157Y-108512235D01*
X274589868Y-108425000D01*
X274648157Y-108337765D01*
X274697440Y-108090000D01*
X274697440Y-107490000D01*
X274648157Y-107242235D01*
X274595232Y-107163028D01*
X274685000Y-106946310D01*
X274685000Y-106805750D01*
X274526250Y-106647000D01*
X273427000Y-106647000D01*
X273427000Y-106667000D01*
X273173000Y-106667000D01*
X273173000Y-106647000D01*
X272073750Y-106647000D01*
X271915000Y-106805750D01*
X271915000Y-106855000D01*
X271601294Y-106855000D01*
X271335149Y-106588855D01*
X271031813Y-106386173D01*
X270674004Y-106315000D01*
X269719822Y-106315000D01*
X269798157Y-106197765D01*
X269800696Y-106185000D01*
X271915000Y-106185000D01*
X271915000Y-106234250D01*
X272073750Y-106393000D01*
X273173000Y-106393000D01*
X273173000Y-106373000D01*
X273427000Y-106373000D01*
X273427000Y-106393000D01*
X274526250Y-106393000D01*
X274685000Y-106234250D01*
X274685000Y-106178038D01*
X275007809Y-106113827D01*
X275311145Y-105911145D01*
X276461155Y-104761135D01*
X276600420Y-104552710D01*
X276688855Y-104641145D01*
G36*
X271822800Y-101145090D02*
X271423441Y-101144742D01*
X270895828Y-101362747D01*
X270491804Y-101766067D01*
X270272878Y-102293299D01*
X270272380Y-102864177D01*
X270347094Y-103045000D01*
X269189294Y-103045000D01*
X267583147Y-101438853D01*
X267279811Y-101236171D01*
X266922002Y-101164998D01*
X262150002Y-101164998D01*
X261792193Y-101236171D01*
X261488857Y-101438853D01*
X257032682Y-105895028D01*
X256731656Y-105894765D01*
X256233457Y-106100617D01*
X255851957Y-106481452D01*
X255850484Y-106485000D01*
X252820264Y-106485000D01*
X252468562Y-106250000D01*
X252850648Y-105994698D01*
X253161717Y-105529151D01*
X253270950Y-104980000D01*
X253161717Y-104430849D01*
X252850648Y-103965302D01*
X252385101Y-103654233D01*
X252183828Y-103614197D01*
X252238327Y-103559699D01*
X252335000Y-103326310D01*
X252335000Y-103035750D01*
X252176250Y-102877000D01*
X251227000Y-102877000D01*
X251227000Y-102897000D01*
X250973000Y-102897000D01*
X250973000Y-102877000D01*
X250953000Y-102877000D01*
X250953000Y-102623000D01*
X250973000Y-102623000D01*
X250973000Y-101823750D01*
X251227000Y-101823750D01*
X251227000Y-102623000D01*
X252176250Y-102623000D01*
X252335000Y-102464250D01*
X252335000Y-102173690D01*
X252238327Y-101940301D01*
X252059698Y-101761673D01*
X251826309Y-101665000D01*
X251385750Y-101665000D01*
X251227000Y-101823750D01*
X250973000Y-101823750D01*
X250814250Y-101665000D01*
X250373691Y-101665000D01*
X250140302Y-101761673D01*
X249998654Y-101903320D01*
X249957809Y-101842191D01*
X249747765Y-101701843D01*
X249500000Y-101652560D01*
X248300000Y-101652560D01*
X248052235Y-101701843D01*
X247842191Y-101842191D01*
X247701843Y-102052235D01*
X247652560Y-102300000D01*
X247652560Y-103200000D01*
X247665000Y-103262541D01*
X247665000Y-103644267D01*
X247614899Y-103654233D01*
X247149352Y-103965302D01*
X246838283Y-104430849D01*
X246729050Y-104980000D01*
X246838283Y-105529151D01*
X247149352Y-105994698D01*
X247296648Y-106093118D01*
X247152235Y-106121843D01*
X246942191Y-106262191D01*
X246801843Y-106472235D01*
X246752560Y-106720000D01*
X246752560Y-108320000D01*
X246801843Y-108567765D01*
X246942191Y-108777809D01*
X246965000Y-108793050D01*
X246965000Y-114115000D01*
X210235000Y-114115000D01*
X210235000Y-111442619D01*
X239764613Y-111442619D01*
X240104155Y-112264372D01*
X240732321Y-112893636D01*
X241553481Y-113234611D01*
X242442619Y-113235387D01*
X243264372Y-112895845D01*
X243893636Y-112267679D01*
X244234611Y-111446519D01*
X244235387Y-110557381D01*
X243895845Y-109735628D01*
X243267679Y-109106364D01*
X242446519Y-108765389D01*
X241557381Y-108764613D01*
X240735628Y-109104155D01*
X240106364Y-109732321D01*
X239765389Y-110553481D01*
X239764613Y-111442619D01*
X210235000Y-111442619D01*
X210235000Y-110739774D01*
X218769831Y-110739774D01*
X218834131Y-110977611D01*
X219342342Y-111157333D01*
X219880644Y-111128892D01*
X220245869Y-110977611D01*
X220310169Y-110739774D01*
X219540000Y-109969605D01*
X218769831Y-110739774D01*
X210235000Y-110739774D01*
X210235000Y-109592342D01*
X218172667Y-109592342D01*
X218201108Y-110130644D01*
X218352389Y-110495869D01*
X218590226Y-110560169D01*
X219360395Y-109790000D01*
X219719605Y-109790000D01*
X220489774Y-110560169D01*
X220727611Y-110495869D01*
X220907333Y-109987658D01*
X220878892Y-109449356D01*
X220727611Y-109084131D01*
X220489774Y-109019831D01*
X219719605Y-109790000D01*
X219360395Y-109790000D01*
X218590226Y-109019831D01*
X218352389Y-109084131D01*
X218172667Y-109592342D01*
X210235000Y-109592342D01*
X210235000Y-108793050D01*
X210257809Y-108777809D01*
X210274904Y-108752225D01*
X210414899Y-108845767D01*
X210964050Y-108955000D01*
X211835950Y-108955000D01*
X212385101Y-108845767D01*
X212393393Y-108840226D01*
X218769831Y-108840226D01*
X219540000Y-109610395D01*
X220310169Y-108840226D01*
X220245869Y-108602389D01*
X219737658Y-108422667D01*
X219199356Y-108451108D01*
X218834131Y-108602389D01*
X218769831Y-108840226D01*
X212393393Y-108840226D01*
X212820264Y-108555000D01*
X216609446Y-108555000D01*
X216729291Y-108604764D01*
X217268344Y-108605235D01*
X217766543Y-108399383D01*
X217966500Y-108199774D01*
X221309831Y-108199774D01*
X221374131Y-108437611D01*
X221882342Y-108617333D01*
X222420644Y-108588892D01*
X222785869Y-108437611D01*
X222850169Y-108199774D01*
X222080000Y-107429605D01*
X221309831Y-108199774D01*
X217966500Y-108199774D01*
X218148043Y-108018548D01*
X218354764Y-107520709D01*
X218355029Y-107217261D01*
X218519948Y-107052342D01*
X220712667Y-107052342D01*
X220741108Y-107590644D01*
X220892389Y-107955869D01*
X221130226Y-108020169D01*
X221900395Y-107250000D01*
X222259605Y-107250000D01*
X223029774Y-108020169D01*
X223267611Y-107955869D01*
X223447333Y-107447658D01*
X223418892Y-106909356D01*
X223267611Y-106544131D01*
X223029774Y-106479831D01*
X222259605Y-107250000D01*
X221900395Y-107250000D01*
X221130226Y-106479831D01*
X220892389Y-106544131D01*
X220712667Y-107052342D01*
X218519948Y-107052342D01*
X219272064Y-106300226D01*
X221309831Y-106300226D01*
X222080000Y-107070395D01*
X222850169Y-106300226D01*
X222785869Y-106062389D01*
X222277658Y-105882667D01*
X221739356Y-105911108D01*
X221374131Y-106062389D01*
X221309831Y-106300226D01*
X219272064Y-106300226D01*
X225137290Y-100435000D01*
X271112710Y-100435000D01*
X271822800Y-101145090D01*
X271822800Y-101145090D01*
G37*
X271822800Y-101145090D02*
X271423441Y-101144742D01*
X270895828Y-101362747D01*
X270491804Y-101766067D01*
X270272878Y-102293299D01*
X270272380Y-102864177D01*
X270347094Y-103045000D01*
X269189294Y-103045000D01*
X267583147Y-101438853D01*
X267279811Y-101236171D01*
X266922002Y-101164998D01*
X262150002Y-101164998D01*
X261792193Y-101236171D01*
X261488857Y-101438853D01*
X257032682Y-105895028D01*
X256731656Y-105894765D01*
X256233457Y-106100617D01*
X255851957Y-106481452D01*
X255850484Y-106485000D01*
X252820264Y-106485000D01*
X252468562Y-106250000D01*
X252850648Y-105994698D01*
X253161717Y-105529151D01*
X253270950Y-104980000D01*
X253161717Y-104430849D01*
X252850648Y-103965302D01*
X252385101Y-103654233D01*
X252183828Y-103614197D01*
X252238327Y-103559699D01*
X252335000Y-103326310D01*
X252335000Y-103035750D01*
X252176250Y-102877000D01*
X251227000Y-102877000D01*
X251227000Y-102897000D01*
X250973000Y-102897000D01*
X250973000Y-102877000D01*
X250953000Y-102877000D01*
X250953000Y-102623000D01*
X250973000Y-102623000D01*
X250973000Y-101823750D01*
X251227000Y-101823750D01*
X251227000Y-102623000D01*
X252176250Y-102623000D01*
X252335000Y-102464250D01*
X252335000Y-102173690D01*
X252238327Y-101940301D01*
X252059698Y-101761673D01*
X251826309Y-101665000D01*
X251385750Y-101665000D01*
X251227000Y-101823750D01*
X250973000Y-101823750D01*
X250814250Y-101665000D01*
X250373691Y-101665000D01*
X250140302Y-101761673D01*
X249998654Y-101903320D01*
X249957809Y-101842191D01*
X249747765Y-101701843D01*
X249500000Y-101652560D01*
X248300000Y-101652560D01*
X248052235Y-101701843D01*
X247842191Y-101842191D01*
X247701843Y-102052235D01*
X247652560Y-102300000D01*
X247652560Y-103200000D01*
X247665000Y-103262541D01*
X247665000Y-103644267D01*
X247614899Y-103654233D01*
X247149352Y-103965302D01*
X246838283Y-104430849D01*
X246729050Y-104980000D01*
X246838283Y-105529151D01*
X247149352Y-105994698D01*
X247296648Y-106093118D01*
X247152235Y-106121843D01*
X246942191Y-106262191D01*
X246801843Y-106472235D01*
X246752560Y-106720000D01*
X246752560Y-108320000D01*
X246801843Y-108567765D01*
X246942191Y-108777809D01*
X246965000Y-108793050D01*
X246965000Y-114115000D01*
X210235000Y-114115000D01*
X210235000Y-111442619D01*
X239764613Y-111442619D01*
X240104155Y-112264372D01*
X240732321Y-112893636D01*
X241553481Y-113234611D01*
X242442619Y-113235387D01*
X243264372Y-112895845D01*
X243893636Y-112267679D01*
X244234611Y-111446519D01*
X244235387Y-110557381D01*
X243895845Y-109735628D01*
X243267679Y-109106364D01*
X242446519Y-108765389D01*
X241557381Y-108764613D01*
X240735628Y-109104155D01*
X240106364Y-109732321D01*
X239765389Y-110553481D01*
X239764613Y-111442619D01*
X210235000Y-111442619D01*
X210235000Y-110739774D01*
X218769831Y-110739774D01*
X218834131Y-110977611D01*
X219342342Y-111157333D01*
X219880644Y-111128892D01*
X220245869Y-110977611D01*
X220310169Y-110739774D01*
X219540000Y-109969605D01*
X218769831Y-110739774D01*
X210235000Y-110739774D01*
X210235000Y-109592342D01*
X218172667Y-109592342D01*
X218201108Y-110130644D01*
X218352389Y-110495869D01*
X218590226Y-110560169D01*
X219360395Y-109790000D01*
X219719605Y-109790000D01*
X220489774Y-110560169D01*
X220727611Y-110495869D01*
X220907333Y-109987658D01*
X220878892Y-109449356D01*
X220727611Y-109084131D01*
X220489774Y-109019831D01*
X219719605Y-109790000D01*
X219360395Y-109790000D01*
X218590226Y-109019831D01*
X218352389Y-109084131D01*
X218172667Y-109592342D01*
X210235000Y-109592342D01*
X210235000Y-108793050D01*
X210257809Y-108777809D01*
X210274904Y-108752225D01*
X210414899Y-108845767D01*
X210964050Y-108955000D01*
X211835950Y-108955000D01*
X212385101Y-108845767D01*
X212393393Y-108840226D01*
X218769831Y-108840226D01*
X219540000Y-109610395D01*
X220310169Y-108840226D01*
X220245869Y-108602389D01*
X219737658Y-108422667D01*
X219199356Y-108451108D01*
X218834131Y-108602389D01*
X218769831Y-108840226D01*
X212393393Y-108840226D01*
X212820264Y-108555000D01*
X216609446Y-108555000D01*
X216729291Y-108604764D01*
X217268344Y-108605235D01*
X217766543Y-108399383D01*
X217966500Y-108199774D01*
X221309831Y-108199774D01*
X221374131Y-108437611D01*
X221882342Y-108617333D01*
X222420644Y-108588892D01*
X222785869Y-108437611D01*
X222850169Y-108199774D01*
X222080000Y-107429605D01*
X221309831Y-108199774D01*
X217966500Y-108199774D01*
X218148043Y-108018548D01*
X218354764Y-107520709D01*
X218355029Y-107217261D01*
X218519948Y-107052342D01*
X220712667Y-107052342D01*
X220741108Y-107590644D01*
X220892389Y-107955869D01*
X221130226Y-108020169D01*
X221900395Y-107250000D01*
X222259605Y-107250000D01*
X223029774Y-108020169D01*
X223267611Y-107955869D01*
X223447333Y-107447658D01*
X223418892Y-106909356D01*
X223267611Y-106544131D01*
X223029774Y-106479831D01*
X222259605Y-107250000D01*
X221900395Y-107250000D01*
X221130226Y-106479831D01*
X220892389Y-106544131D01*
X220712667Y-107052342D01*
X218519948Y-107052342D01*
X219272064Y-106300226D01*
X221309831Y-106300226D01*
X222080000Y-107070395D01*
X222850169Y-106300226D01*
X222785869Y-106062389D01*
X222277658Y-105882667D01*
X221739356Y-105911108D01*
X221374131Y-106062389D01*
X221309831Y-106300226D01*
X219272064Y-106300226D01*
X225137290Y-100435000D01*
X271112710Y-100435000D01*
X271822800Y-101145090D01*
G36*
X111862710Y-94315000D02*
X106594258Y-94315000D01*
X106313923Y-94034176D01*
X105786691Y-93815250D01*
X105215813Y-93814752D01*
X104688200Y-94032757D01*
X104284176Y-94436077D01*
X104065250Y-94963309D01*
X104064752Y-95534187D01*
X104180781Y-95815000D01*
X67500000Y-95815000D01*
X67142191Y-95886173D01*
X66838855Y-96088855D01*
X57032682Y-105895028D01*
X56731656Y-105894765D01*
X56233457Y-106100617D01*
X56018700Y-106315000D01*
X52565841Y-106315000D01*
X52468562Y-106250000D01*
X52850648Y-105994698D01*
X53161717Y-105529151D01*
X53270950Y-104980000D01*
X53161717Y-104430849D01*
X52850648Y-103965302D01*
X52385101Y-103654233D01*
X52183828Y-103614197D01*
X52238327Y-103559699D01*
X52335000Y-103326310D01*
X52335000Y-103035750D01*
X52176250Y-102877000D01*
X51227000Y-102877000D01*
X51227000Y-102897000D01*
X50973000Y-102897000D01*
X50973000Y-102877000D01*
X50953000Y-102877000D01*
X50953000Y-102623000D01*
X50973000Y-102623000D01*
X50973000Y-101823750D01*
X51227000Y-101823750D01*
X51227000Y-102623000D01*
X52176250Y-102623000D01*
X52335000Y-102464250D01*
X52335000Y-102173690D01*
X52238327Y-101940301D01*
X52059698Y-101761673D01*
X51826309Y-101665000D01*
X51385750Y-101665000D01*
X51227000Y-101823750D01*
X50973000Y-101823750D01*
X50814250Y-101665000D01*
X50373691Y-101665000D01*
X50140302Y-101761673D01*
X49998654Y-101903320D01*
X49957809Y-101842191D01*
X49747765Y-101701843D01*
X49500000Y-101652560D01*
X48300000Y-101652560D01*
X48052235Y-101701843D01*
X47842191Y-101842191D01*
X47701843Y-102052235D01*
X47652560Y-102300000D01*
X47652560Y-102640790D01*
X47643785Y-102653923D01*
X47564999Y-103050000D01*
X47565000Y-103050005D01*
X47565000Y-103687574D01*
X47149352Y-103965302D01*
X46838283Y-104430849D01*
X46729050Y-104980000D01*
X46838283Y-105529151D01*
X47149352Y-105994698D01*
X47296648Y-106093118D01*
X47152235Y-106121843D01*
X46942191Y-106262191D01*
X46801843Y-106472235D01*
X46752560Y-106720000D01*
X46752560Y-108320000D01*
X46801843Y-108567765D01*
X46942191Y-108777809D01*
X46965000Y-108793050D01*
X46965000Y-114115000D01*
X46427240Y-114115000D01*
X39635000Y-107322760D01*
X39635000Y-101687924D01*
X39635001Y-101687919D01*
X39510543Y-101062231D01*
X39156120Y-100531799D01*
X35628201Y-97003880D01*
X35097769Y-96649457D01*
X34674115Y-96565186D01*
X34680921Y-96555000D01*
X36780000Y-96555000D01*
X37137809Y-96483827D01*
X37441145Y-96281145D01*
X41187290Y-92535000D01*
X113642710Y-92535000D01*
X111862710Y-94315000D01*
X111862710Y-94315000D01*
G37*
X111862710Y-94315000D02*
X106594258Y-94315000D01*
X106313923Y-94034176D01*
X105786691Y-93815250D01*
X105215813Y-93814752D01*
X104688200Y-94032757D01*
X104284176Y-94436077D01*
X104065250Y-94963309D01*
X104064752Y-95534187D01*
X104180781Y-95815000D01*
X67500000Y-95815000D01*
X67142191Y-95886173D01*
X66838855Y-96088855D01*
X57032682Y-105895028D01*
X56731656Y-105894765D01*
X56233457Y-106100617D01*
X56018700Y-106315000D01*
X52565841Y-106315000D01*
X52468562Y-106250000D01*
X52850648Y-105994698D01*
X53161717Y-105529151D01*
X53270950Y-104980000D01*
X53161717Y-104430849D01*
X52850648Y-103965302D01*
X52385101Y-103654233D01*
X52183828Y-103614197D01*
X52238327Y-103559699D01*
X52335000Y-103326310D01*
X52335000Y-103035750D01*
X52176250Y-102877000D01*
X51227000Y-102877000D01*
X51227000Y-102897000D01*
X50973000Y-102897000D01*
X50973000Y-102877000D01*
X50953000Y-102877000D01*
X50953000Y-102623000D01*
X50973000Y-102623000D01*
X50973000Y-101823750D01*
X51227000Y-101823750D01*
X51227000Y-102623000D01*
X52176250Y-102623000D01*
X52335000Y-102464250D01*
X52335000Y-102173690D01*
X52238327Y-101940301D01*
X52059698Y-101761673D01*
X51826309Y-101665000D01*
X51385750Y-101665000D01*
X51227000Y-101823750D01*
X50973000Y-101823750D01*
X50814250Y-101665000D01*
X50373691Y-101665000D01*
X50140302Y-101761673D01*
X49998654Y-101903320D01*
X49957809Y-101842191D01*
X49747765Y-101701843D01*
X49500000Y-101652560D01*
X48300000Y-101652560D01*
X48052235Y-101701843D01*
X47842191Y-101842191D01*
X47701843Y-102052235D01*
X47652560Y-102300000D01*
X47652560Y-102640790D01*
X47643785Y-102653923D01*
X47564999Y-103050000D01*
X47565000Y-103050005D01*
X47565000Y-103687574D01*
X47149352Y-103965302D01*
X46838283Y-104430849D01*
X46729050Y-104980000D01*
X46838283Y-105529151D01*
X47149352Y-105994698D01*
X47296648Y-106093118D01*
X47152235Y-106121843D01*
X46942191Y-106262191D01*
X46801843Y-106472235D01*
X46752560Y-106720000D01*
X46752560Y-108320000D01*
X46801843Y-108567765D01*
X46942191Y-108777809D01*
X46965000Y-108793050D01*
X46965000Y-114115000D01*
X46427240Y-114115000D01*
X39635000Y-107322760D01*
X39635000Y-101687924D01*
X39635001Y-101687919D01*
X39510543Y-101062231D01*
X39156120Y-100531799D01*
X35628201Y-97003880D01*
X35097769Y-96649457D01*
X34674115Y-96565186D01*
X34680921Y-96555000D01*
X36780000Y-96555000D01*
X37137809Y-96483827D01*
X37441145Y-96281145D01*
X41187290Y-92535000D01*
X113642710Y-92535000D01*
X111862710Y-94315000D01*
G36*
X186243855Y-103166145D02*
X186547191Y-103368827D01*
X186905000Y-103440000D01*
X192315000Y-103440000D01*
X192315000Y-103489250D01*
X192473750Y-103648000D01*
X193573000Y-103648000D01*
X193573000Y-103628000D01*
X193827000Y-103628000D01*
X193827000Y-103648000D01*
X194926250Y-103648000D01*
X194978480Y-103595770D01*
X197088855Y-105706145D01*
X197392191Y-105908827D01*
X197750000Y-105980000D01*
X198287459Y-105980000D01*
X198350000Y-105992440D01*
X199850000Y-105992440D01*
X200097765Y-105943157D01*
X200307809Y-105802809D01*
X200448157Y-105592765D01*
X200497440Y-105345000D01*
X200497440Y-104745000D01*
X200448157Y-104497235D01*
X200389868Y-104410000D01*
X200448157Y-104322765D01*
X200497440Y-104075000D01*
X200497440Y-103475000D01*
X200490478Y-103440000D01*
X205895000Y-103440000D01*
X206252809Y-103368827D01*
X206556145Y-103166145D01*
X207765855Y-101956435D01*
X207701843Y-102052235D01*
X207652560Y-102300000D01*
X207652560Y-103200000D01*
X207665000Y-103262541D01*
X207665000Y-103644267D01*
X207614899Y-103654233D01*
X207149352Y-103965302D01*
X206838283Y-104430849D01*
X206729050Y-104980000D01*
X206838283Y-105529151D01*
X207149352Y-105994698D01*
X207296648Y-106093118D01*
X207152235Y-106121843D01*
X206942191Y-106262191D01*
X206801843Y-106472235D01*
X206752560Y-106720000D01*
X206752560Y-108320000D01*
X206801843Y-108567765D01*
X206942191Y-108777809D01*
X206965000Y-108793050D01*
X206965000Y-114115000D01*
X194585000Y-114115000D01*
X194585000Y-107514868D01*
X194589102Y-107512127D01*
X194590302Y-107513327D01*
X194823691Y-107610000D01*
X195264250Y-107610000D01*
X195423000Y-107451250D01*
X195423000Y-106727000D01*
X195677000Y-106727000D01*
X195677000Y-107451250D01*
X195835750Y-107610000D01*
X196276309Y-107610000D01*
X196509698Y-107513327D01*
X196688327Y-107334699D01*
X196785000Y-107101310D01*
X196785000Y-106885750D01*
X196626250Y-106727000D01*
X195677000Y-106727000D01*
X195423000Y-106727000D01*
X195403000Y-106727000D01*
X195403000Y-106473000D01*
X195423000Y-106473000D01*
X195423000Y-105748750D01*
X195677000Y-105748750D01*
X195677000Y-106473000D01*
X196626250Y-106473000D01*
X196785000Y-106314250D01*
X196785000Y-106098690D01*
X196688327Y-105865301D01*
X196509698Y-105686673D01*
X196276309Y-105590000D01*
X195835750Y-105590000D01*
X195677000Y-105748750D01*
X195423000Y-105748750D01*
X195264250Y-105590000D01*
X195048707Y-105590000D01*
X195097440Y-105345000D01*
X195097440Y-104745000D01*
X195048157Y-104497235D01*
X194995232Y-104418028D01*
X195085000Y-104201310D01*
X195085000Y-104060750D01*
X194926250Y-103902000D01*
X193827000Y-103902000D01*
X193827000Y-103922000D01*
X193573000Y-103922000D01*
X193573000Y-103902000D01*
X192473750Y-103902000D01*
X192315000Y-104060750D01*
X192315000Y-104201310D01*
X192404768Y-104418028D01*
X192351843Y-104497235D01*
X192302560Y-104745000D01*
X192302560Y-105345000D01*
X192351843Y-105592765D01*
X192492191Y-105802809D01*
X192544871Y-105838009D01*
X192451843Y-105977235D01*
X192402560Y-106225000D01*
X192402560Y-106975000D01*
X192451843Y-107222765D01*
X192592191Y-107432809D01*
X192715000Y-107514868D01*
X192715000Y-114115000D01*
X170235000Y-114115000D01*
X170235000Y-110739774D01*
X178769831Y-110739774D01*
X178834131Y-110977611D01*
X179342342Y-111157333D01*
X179880644Y-111128892D01*
X180245869Y-110977611D01*
X180310169Y-110739774D01*
X179540000Y-109969605D01*
X178769831Y-110739774D01*
X170235000Y-110739774D01*
X170235000Y-109592342D01*
X178172667Y-109592342D01*
X178201108Y-110130644D01*
X178352389Y-110495869D01*
X178590226Y-110560169D01*
X179360395Y-109790000D01*
X179719605Y-109790000D01*
X180489774Y-110560169D01*
X180727611Y-110495869D01*
X180907333Y-109987658D01*
X180878892Y-109449356D01*
X180727611Y-109084131D01*
X180489774Y-109019831D01*
X179719605Y-109790000D01*
X179360395Y-109790000D01*
X178590226Y-109019831D01*
X178352389Y-109084131D01*
X178172667Y-109592342D01*
X170235000Y-109592342D01*
X170235000Y-108793050D01*
X170257809Y-108777809D01*
X170274904Y-108752225D01*
X170414899Y-108845767D01*
X170964050Y-108955000D01*
X171835950Y-108955000D01*
X172385101Y-108845767D01*
X172393393Y-108840226D01*
X178769831Y-108840226D01*
X179540000Y-109610395D01*
X180310169Y-108840226D01*
X180245869Y-108602389D01*
X179737658Y-108422667D01*
X179199356Y-108451108D01*
X178834131Y-108602389D01*
X178769831Y-108840226D01*
X172393393Y-108840226D01*
X172820264Y-108555000D01*
X176609446Y-108555000D01*
X176729291Y-108604764D01*
X177268344Y-108605235D01*
X177766543Y-108399383D01*
X177966500Y-108199774D01*
X181309831Y-108199774D01*
X181374131Y-108437611D01*
X181882342Y-108617333D01*
X182420644Y-108588892D01*
X182785869Y-108437611D01*
X182850169Y-108199774D01*
X182080000Y-107429605D01*
X181309831Y-108199774D01*
X177966500Y-108199774D01*
X178148043Y-108018548D01*
X178354764Y-107520709D01*
X178355173Y-107052342D01*
X180712667Y-107052342D01*
X180741108Y-107590644D01*
X180892389Y-107955869D01*
X181130226Y-108020169D01*
X181900395Y-107250000D01*
X182259605Y-107250000D01*
X183029774Y-108020169D01*
X183267611Y-107955869D01*
X183447333Y-107447658D01*
X183418892Y-106909356D01*
X183267611Y-106544131D01*
X183029774Y-106479831D01*
X182259605Y-107250000D01*
X181900395Y-107250000D01*
X181130226Y-106479831D01*
X180892389Y-106544131D01*
X180712667Y-107052342D01*
X178355173Y-107052342D01*
X178355235Y-106981656D01*
X178149383Y-106483457D01*
X177966472Y-106300226D01*
X181309831Y-106300226D01*
X182080000Y-107070395D01*
X182850169Y-106300226D01*
X182785869Y-106062389D01*
X182277658Y-105882667D01*
X181739356Y-105911108D01*
X181374131Y-106062389D01*
X181309831Y-106300226D01*
X177966472Y-106300226D01*
X177935000Y-106268700D01*
X177935000Y-103875996D01*
X177863827Y-103518187D01*
X177661145Y-103214851D01*
X174131292Y-99684998D01*
X182762708Y-99684998D01*
X186243855Y-103166145D01*
X186243855Y-103166145D01*
G37*
X186243855Y-103166145D02*
X186547191Y-103368827D01*
X186905000Y-103440000D01*
X192315000Y-103440000D01*
X192315000Y-103489250D01*
X192473750Y-103648000D01*
X193573000Y-103648000D01*
X193573000Y-103628000D01*
X193827000Y-103628000D01*
X193827000Y-103648000D01*
X194926250Y-103648000D01*
X194978480Y-103595770D01*
X197088855Y-105706145D01*
X197392191Y-105908827D01*
X197750000Y-105980000D01*
X198287459Y-105980000D01*
X198350000Y-105992440D01*
X199850000Y-105992440D01*
X200097765Y-105943157D01*
X200307809Y-105802809D01*
X200448157Y-105592765D01*
X200497440Y-105345000D01*
X200497440Y-104745000D01*
X200448157Y-104497235D01*
X200389868Y-104410000D01*
X200448157Y-104322765D01*
X200497440Y-104075000D01*
X200497440Y-103475000D01*
X200490478Y-103440000D01*
X205895000Y-103440000D01*
X206252809Y-103368827D01*
X206556145Y-103166145D01*
X207765855Y-101956435D01*
X207701843Y-102052235D01*
X207652560Y-102300000D01*
X207652560Y-103200000D01*
X207665000Y-103262541D01*
X207665000Y-103644267D01*
X207614899Y-103654233D01*
X207149352Y-103965302D01*
X206838283Y-104430849D01*
X206729050Y-104980000D01*
X206838283Y-105529151D01*
X207149352Y-105994698D01*
X207296648Y-106093118D01*
X207152235Y-106121843D01*
X206942191Y-106262191D01*
X206801843Y-106472235D01*
X206752560Y-106720000D01*
X206752560Y-108320000D01*
X206801843Y-108567765D01*
X206942191Y-108777809D01*
X206965000Y-108793050D01*
X206965000Y-114115000D01*
X194585000Y-114115000D01*
X194585000Y-107514868D01*
X194589102Y-107512127D01*
X194590302Y-107513327D01*
X194823691Y-107610000D01*
X195264250Y-107610000D01*
X195423000Y-107451250D01*
X195423000Y-106727000D01*
X195677000Y-106727000D01*
X195677000Y-107451250D01*
X195835750Y-107610000D01*
X196276309Y-107610000D01*
X196509698Y-107513327D01*
X196688327Y-107334699D01*
X196785000Y-107101310D01*
X196785000Y-106885750D01*
X196626250Y-106727000D01*
X195677000Y-106727000D01*
X195423000Y-106727000D01*
X195403000Y-106727000D01*
X195403000Y-106473000D01*
X195423000Y-106473000D01*
X195423000Y-105748750D01*
X195677000Y-105748750D01*
X195677000Y-106473000D01*
X196626250Y-106473000D01*
X196785000Y-106314250D01*
X196785000Y-106098690D01*
X196688327Y-105865301D01*
X196509698Y-105686673D01*
X196276309Y-105590000D01*
X195835750Y-105590000D01*
X195677000Y-105748750D01*
X195423000Y-105748750D01*
X195264250Y-105590000D01*
X195048707Y-105590000D01*
X195097440Y-105345000D01*
X195097440Y-104745000D01*
X195048157Y-104497235D01*
X194995232Y-104418028D01*
X195085000Y-104201310D01*
X195085000Y-104060750D01*
X194926250Y-103902000D01*
X193827000Y-103902000D01*
X193827000Y-103922000D01*
X193573000Y-103922000D01*
X193573000Y-103902000D01*
X192473750Y-103902000D01*
X192315000Y-104060750D01*
X192315000Y-104201310D01*
X192404768Y-104418028D01*
X192351843Y-104497235D01*
X192302560Y-104745000D01*
X192302560Y-105345000D01*
X192351843Y-105592765D01*
X192492191Y-105802809D01*
X192544871Y-105838009D01*
X192451843Y-105977235D01*
X192402560Y-106225000D01*
X192402560Y-106975000D01*
X192451843Y-107222765D01*
X192592191Y-107432809D01*
X192715000Y-107514868D01*
X192715000Y-114115000D01*
X170235000Y-114115000D01*
X170235000Y-110739774D01*
X178769831Y-110739774D01*
X178834131Y-110977611D01*
X179342342Y-111157333D01*
X179880644Y-111128892D01*
X180245869Y-110977611D01*
X180310169Y-110739774D01*
X179540000Y-109969605D01*
X178769831Y-110739774D01*
X170235000Y-110739774D01*
X170235000Y-109592342D01*
X178172667Y-109592342D01*
X178201108Y-110130644D01*
X178352389Y-110495869D01*
X178590226Y-110560169D01*
X179360395Y-109790000D01*
X179719605Y-109790000D01*
X180489774Y-110560169D01*
X180727611Y-110495869D01*
X180907333Y-109987658D01*
X180878892Y-109449356D01*
X180727611Y-109084131D01*
X180489774Y-109019831D01*
X179719605Y-109790000D01*
X179360395Y-109790000D01*
X178590226Y-109019831D01*
X178352389Y-109084131D01*
X178172667Y-109592342D01*
X170235000Y-109592342D01*
X170235000Y-108793050D01*
X170257809Y-108777809D01*
X170274904Y-108752225D01*
X170414899Y-108845767D01*
X170964050Y-108955000D01*
X171835950Y-108955000D01*
X172385101Y-108845767D01*
X172393393Y-108840226D01*
X178769831Y-108840226D01*
X179540000Y-109610395D01*
X180310169Y-108840226D01*
X180245869Y-108602389D01*
X179737658Y-108422667D01*
X179199356Y-108451108D01*
X178834131Y-108602389D01*
X178769831Y-108840226D01*
X172393393Y-108840226D01*
X172820264Y-108555000D01*
X176609446Y-108555000D01*
X176729291Y-108604764D01*
X177268344Y-108605235D01*
X177766543Y-108399383D01*
X177966500Y-108199774D01*
X181309831Y-108199774D01*
X181374131Y-108437611D01*
X181882342Y-108617333D01*
X182420644Y-108588892D01*
X182785869Y-108437611D01*
X182850169Y-108199774D01*
X182080000Y-107429605D01*
X181309831Y-108199774D01*
X177966500Y-108199774D01*
X178148043Y-108018548D01*
X178354764Y-107520709D01*
X178355173Y-107052342D01*
X180712667Y-107052342D01*
X180741108Y-107590644D01*
X180892389Y-107955869D01*
X181130226Y-108020169D01*
X181900395Y-107250000D01*
X182259605Y-107250000D01*
X183029774Y-108020169D01*
X183267611Y-107955869D01*
X183447333Y-107447658D01*
X183418892Y-106909356D01*
X183267611Y-106544131D01*
X183029774Y-106479831D01*
X182259605Y-107250000D01*
X181900395Y-107250000D01*
X181130226Y-106479831D01*
X180892389Y-106544131D01*
X180712667Y-107052342D01*
X178355173Y-107052342D01*
X178355235Y-106981656D01*
X178149383Y-106483457D01*
X177966472Y-106300226D01*
X181309831Y-106300226D01*
X182080000Y-107070395D01*
X182850169Y-106300226D01*
X182785869Y-106062389D01*
X182277658Y-105882667D01*
X181739356Y-105911108D01*
X181374131Y-106062389D01*
X181309831Y-106300226D01*
X177966472Y-106300226D01*
X177935000Y-106268700D01*
X177935000Y-103875996D01*
X177863827Y-103518187D01*
X177661145Y-103214851D01*
X174131292Y-99684998D01*
X182762708Y-99684998D01*
X186243855Y-103166145D01*
G36*
X316985000Y-106268780D02*
X316771957Y-106481452D01*
X316565236Y-106979291D01*
X316564765Y-107518344D01*
X316770617Y-108016543D01*
X317151452Y-108398043D01*
X317649291Y-108604764D01*
X318188344Y-108605235D01*
X318686543Y-108399383D01*
X318886500Y-108199774D01*
X322229831Y-108199774D01*
X322294131Y-108437611D01*
X322802342Y-108617333D01*
X323340644Y-108588892D01*
X323705869Y-108437611D01*
X323770169Y-108199774D01*
X323000000Y-107429605D01*
X322229831Y-108199774D01*
X318886500Y-108199774D01*
X319068043Y-108018548D01*
X319274764Y-107520709D01*
X319275173Y-107052342D01*
X321632667Y-107052342D01*
X321661108Y-107590644D01*
X321812389Y-107955869D01*
X322050226Y-108020169D01*
X322820395Y-107250000D01*
X323179605Y-107250000D01*
X323949774Y-108020169D01*
X324187611Y-107955869D01*
X324367333Y-107447658D01*
X324338892Y-106909356D01*
X324187611Y-106544131D01*
X323949774Y-106479831D01*
X323179605Y-107250000D01*
X322820395Y-107250000D01*
X322050226Y-106479831D01*
X321812389Y-106544131D01*
X321632667Y-107052342D01*
X319275173Y-107052342D01*
X319275235Y-106981656D01*
X319069383Y-106483457D01*
X318886472Y-106300226D01*
X322229831Y-106300226D01*
X323000000Y-107070395D01*
X323770169Y-106300226D01*
X323705869Y-106062389D01*
X323197658Y-105882667D01*
X322659356Y-105911108D01*
X322294131Y-106062389D01*
X322229831Y-106300226D01*
X318886472Y-106300226D01*
X318855000Y-106268700D01*
X318855000Y-100435000D01*
X333112710Y-100435000D01*
X334065000Y-101387290D01*
X334065000Y-105612710D01*
X333092710Y-106585000D01*
X332903901Y-106585000D01*
X332850648Y-106505302D01*
X332468562Y-106250000D01*
X332850648Y-105994698D01*
X333161717Y-105529151D01*
X333270950Y-104980000D01*
X333161717Y-104430849D01*
X332850648Y-103965302D01*
X332385101Y-103654233D01*
X332183828Y-103614197D01*
X332238327Y-103559699D01*
X332335000Y-103326310D01*
X332335000Y-103035750D01*
X332176250Y-102877000D01*
X331227000Y-102877000D01*
X331227000Y-102897000D01*
X330973000Y-102897000D01*
X330973000Y-102877000D01*
X330953000Y-102877000D01*
X330953000Y-102623000D01*
X330973000Y-102623000D01*
X330973000Y-101823750D01*
X331227000Y-101823750D01*
X331227000Y-102623000D01*
X332176250Y-102623000D01*
X332335000Y-102464250D01*
X332335000Y-102173690D01*
X332238327Y-101940301D01*
X332059698Y-101761673D01*
X331826309Y-101665000D01*
X331385750Y-101665000D01*
X331227000Y-101823750D01*
X330973000Y-101823750D01*
X330814250Y-101665000D01*
X330373691Y-101665000D01*
X330140302Y-101761673D01*
X329998654Y-101903320D01*
X329957809Y-101842191D01*
X329747765Y-101701843D01*
X329500000Y-101652560D01*
X328300000Y-101652560D01*
X328052235Y-101701843D01*
X327842191Y-101842191D01*
X327701843Y-102052235D01*
X327652560Y-102300000D01*
X327652560Y-103200000D01*
X327665000Y-103262541D01*
X327665000Y-103644267D01*
X327614899Y-103654233D01*
X327149352Y-103965302D01*
X326838283Y-104430849D01*
X326729050Y-104980000D01*
X326838283Y-105529151D01*
X327149352Y-105994698D01*
X327296648Y-106093118D01*
X327152235Y-106121843D01*
X326942191Y-106262191D01*
X326801843Y-106472235D01*
X326752560Y-106720000D01*
X326752560Y-108320000D01*
X326801843Y-108567765D01*
X326942191Y-108777809D01*
X326965000Y-108793050D01*
X326965000Y-114115000D01*
X290235000Y-114115000D01*
X290235000Y-110446219D01*
X290282757Y-110561800D01*
X290686077Y-110965824D01*
X291213309Y-111184750D01*
X291784187Y-111185248D01*
X292311800Y-110967243D01*
X292539666Y-110739774D01*
X298769831Y-110739774D01*
X298834131Y-110977611D01*
X299342342Y-111157333D01*
X299880644Y-111128892D01*
X300245869Y-110977611D01*
X300310169Y-110739774D01*
X319689831Y-110739774D01*
X319754131Y-110977611D01*
X320262342Y-111157333D01*
X320800644Y-111128892D01*
X321165869Y-110977611D01*
X321230169Y-110739774D01*
X320460000Y-109969605D01*
X319689831Y-110739774D01*
X300310169Y-110739774D01*
X299540000Y-109969605D01*
X298769831Y-110739774D01*
X292539666Y-110739774D01*
X292715824Y-110563923D01*
X292934750Y-110036691D01*
X292935137Y-109592342D01*
X298172667Y-109592342D01*
X298201108Y-110130644D01*
X298352389Y-110495869D01*
X298590226Y-110560169D01*
X299360395Y-109790000D01*
X299719605Y-109790000D01*
X300489774Y-110560169D01*
X300727611Y-110495869D01*
X300907333Y-109987658D01*
X300886447Y-109592342D01*
X319092667Y-109592342D01*
X319121108Y-110130644D01*
X319272389Y-110495869D01*
X319510226Y-110560169D01*
X320280395Y-109790000D01*
X320639605Y-109790000D01*
X321409774Y-110560169D01*
X321647611Y-110495869D01*
X321827333Y-109987658D01*
X321798892Y-109449356D01*
X321647611Y-109084131D01*
X321409774Y-109019831D01*
X320639605Y-109790000D01*
X320280395Y-109790000D01*
X319510226Y-109019831D01*
X319272389Y-109084131D01*
X319092667Y-109592342D01*
X300886447Y-109592342D01*
X300878892Y-109449356D01*
X300727611Y-109084131D01*
X300489774Y-109019831D01*
X299719605Y-109790000D01*
X299360395Y-109790000D01*
X298590226Y-109019831D01*
X298352389Y-109084131D01*
X298172667Y-109592342D01*
X292935137Y-109592342D01*
X292935248Y-109465813D01*
X292717243Y-108938200D01*
X292619440Y-108840226D01*
X298769831Y-108840226D01*
X299540000Y-109610395D01*
X300310169Y-108840226D01*
X319689831Y-108840226D01*
X320460000Y-109610395D01*
X321230169Y-108840226D01*
X321165869Y-108602389D01*
X320657658Y-108422667D01*
X320119356Y-108451108D01*
X319754131Y-108602389D01*
X319689831Y-108840226D01*
X300310169Y-108840226D01*
X300245869Y-108602389D01*
X299737658Y-108422667D01*
X299199356Y-108451108D01*
X298834131Y-108602389D01*
X298769831Y-108840226D01*
X292619440Y-108840226D01*
X292528993Y-108749621D01*
X292820264Y-108555000D01*
X296609446Y-108555000D01*
X296729291Y-108604764D01*
X297268344Y-108605235D01*
X297766543Y-108399383D01*
X297966500Y-108199774D01*
X301309831Y-108199774D01*
X301374131Y-108437611D01*
X301882342Y-108617333D01*
X302420644Y-108588892D01*
X302785869Y-108437611D01*
X302850169Y-108199774D01*
X302080000Y-107429605D01*
X301309831Y-108199774D01*
X297966500Y-108199774D01*
X298148043Y-108018548D01*
X298354764Y-107520709D01*
X298355173Y-107052342D01*
X300712667Y-107052342D01*
X300741108Y-107590644D01*
X300892389Y-107955869D01*
X301130226Y-108020169D01*
X301900395Y-107250000D01*
X302259605Y-107250000D01*
X303029774Y-108020169D01*
X303267611Y-107955869D01*
X303447333Y-107447658D01*
X303418892Y-106909356D01*
X303267611Y-106544131D01*
X303029774Y-106479831D01*
X302259605Y-107250000D01*
X301900395Y-107250000D01*
X301130226Y-106479831D01*
X300892389Y-106544131D01*
X300712667Y-107052342D01*
X298355173Y-107052342D01*
X298355235Y-106981656D01*
X298149383Y-106483457D01*
X297966472Y-106300226D01*
X301309831Y-106300226D01*
X302080000Y-107070395D01*
X302850169Y-106300226D01*
X302785869Y-106062389D01*
X302277658Y-105882667D01*
X301739356Y-105911108D01*
X301374131Y-106062389D01*
X301309831Y-106300226D01*
X297966472Y-106300226D01*
X297935000Y-106268700D01*
X297935000Y-102250000D01*
X297863827Y-101892191D01*
X297661145Y-101588855D01*
X296507290Y-100435000D01*
X316985000Y-100435000D01*
X316985000Y-106268780D01*
X316985000Y-106268780D01*
G37*
X316985000Y-106268780D02*
X316771957Y-106481452D01*
X316565236Y-106979291D01*
X316564765Y-107518344D01*
X316770617Y-108016543D01*
X317151452Y-108398043D01*
X317649291Y-108604764D01*
X318188344Y-108605235D01*
X318686543Y-108399383D01*
X318886500Y-108199774D01*
X322229831Y-108199774D01*
X322294131Y-108437611D01*
X322802342Y-108617333D01*
X323340644Y-108588892D01*
X323705869Y-108437611D01*
X323770169Y-108199774D01*
X323000000Y-107429605D01*
X322229831Y-108199774D01*
X318886500Y-108199774D01*
X319068043Y-108018548D01*
X319274764Y-107520709D01*
X319275173Y-107052342D01*
X321632667Y-107052342D01*
X321661108Y-107590644D01*
X321812389Y-107955869D01*
X322050226Y-108020169D01*
X322820395Y-107250000D01*
X323179605Y-107250000D01*
X323949774Y-108020169D01*
X324187611Y-107955869D01*
X324367333Y-107447658D01*
X324338892Y-106909356D01*
X324187611Y-106544131D01*
X323949774Y-106479831D01*
X323179605Y-107250000D01*
X322820395Y-107250000D01*
X322050226Y-106479831D01*
X321812389Y-106544131D01*
X321632667Y-107052342D01*
X319275173Y-107052342D01*
X319275235Y-106981656D01*
X319069383Y-106483457D01*
X318886472Y-106300226D01*
X322229831Y-106300226D01*
X323000000Y-107070395D01*
X323770169Y-106300226D01*
X323705869Y-106062389D01*
X323197658Y-105882667D01*
X322659356Y-105911108D01*
X322294131Y-106062389D01*
X322229831Y-106300226D01*
X318886472Y-106300226D01*
X318855000Y-106268700D01*
X318855000Y-100435000D01*
X333112710Y-100435000D01*
X334065000Y-101387290D01*
X334065000Y-105612710D01*
X333092710Y-106585000D01*
X332903901Y-106585000D01*
X332850648Y-106505302D01*
X332468562Y-106250000D01*
X332850648Y-105994698D01*
X333161717Y-105529151D01*
X333270950Y-104980000D01*
X333161717Y-104430849D01*
X332850648Y-103965302D01*
X332385101Y-103654233D01*
X332183828Y-103614197D01*
X332238327Y-103559699D01*
X332335000Y-103326310D01*
X332335000Y-103035750D01*
X332176250Y-102877000D01*
X331227000Y-102877000D01*
X331227000Y-102897000D01*
X330973000Y-102897000D01*
X330973000Y-102877000D01*
X330953000Y-102877000D01*
X330953000Y-102623000D01*
X330973000Y-102623000D01*
X330973000Y-101823750D01*
X331227000Y-101823750D01*
X331227000Y-102623000D01*
X332176250Y-102623000D01*
X332335000Y-102464250D01*
X332335000Y-102173690D01*
X332238327Y-101940301D01*
X332059698Y-101761673D01*
X331826309Y-101665000D01*
X331385750Y-101665000D01*
X331227000Y-101823750D01*
X330973000Y-101823750D01*
X330814250Y-101665000D01*
X330373691Y-101665000D01*
X330140302Y-101761673D01*
X329998654Y-101903320D01*
X329957809Y-101842191D01*
X329747765Y-101701843D01*
X329500000Y-101652560D01*
X328300000Y-101652560D01*
X328052235Y-101701843D01*
X327842191Y-101842191D01*
X327701843Y-102052235D01*
X327652560Y-102300000D01*
X327652560Y-103200000D01*
X327665000Y-103262541D01*
X327665000Y-103644267D01*
X327614899Y-103654233D01*
X327149352Y-103965302D01*
X326838283Y-104430849D01*
X326729050Y-104980000D01*
X326838283Y-105529151D01*
X327149352Y-105994698D01*
X327296648Y-106093118D01*
X327152235Y-106121843D01*
X326942191Y-106262191D01*
X326801843Y-106472235D01*
X326752560Y-106720000D01*
X326752560Y-108320000D01*
X326801843Y-108567765D01*
X326942191Y-108777809D01*
X326965000Y-108793050D01*
X326965000Y-114115000D01*
X290235000Y-114115000D01*
X290235000Y-110446219D01*
X290282757Y-110561800D01*
X290686077Y-110965824D01*
X291213309Y-111184750D01*
X291784187Y-111185248D01*
X292311800Y-110967243D01*
X292539666Y-110739774D01*
X298769831Y-110739774D01*
X298834131Y-110977611D01*
X299342342Y-111157333D01*
X299880644Y-111128892D01*
X300245869Y-110977611D01*
X300310169Y-110739774D01*
X319689831Y-110739774D01*
X319754131Y-110977611D01*
X320262342Y-111157333D01*
X320800644Y-111128892D01*
X321165869Y-110977611D01*
X321230169Y-110739774D01*
X320460000Y-109969605D01*
X319689831Y-110739774D01*
X300310169Y-110739774D01*
X299540000Y-109969605D01*
X298769831Y-110739774D01*
X292539666Y-110739774D01*
X292715824Y-110563923D01*
X292934750Y-110036691D01*
X292935137Y-109592342D01*
X298172667Y-109592342D01*
X298201108Y-110130644D01*
X298352389Y-110495869D01*
X298590226Y-110560169D01*
X299360395Y-109790000D01*
X299719605Y-109790000D01*
X300489774Y-110560169D01*
X300727611Y-110495869D01*
X300907333Y-109987658D01*
X300886447Y-109592342D01*
X319092667Y-109592342D01*
X319121108Y-110130644D01*
X319272389Y-110495869D01*
X319510226Y-110560169D01*
X320280395Y-109790000D01*
X320639605Y-109790000D01*
X321409774Y-110560169D01*
X321647611Y-110495869D01*
X321827333Y-109987658D01*
X321798892Y-109449356D01*
X321647611Y-109084131D01*
X321409774Y-109019831D01*
X320639605Y-109790000D01*
X320280395Y-109790000D01*
X319510226Y-109019831D01*
X319272389Y-109084131D01*
X319092667Y-109592342D01*
X300886447Y-109592342D01*
X300878892Y-109449356D01*
X300727611Y-109084131D01*
X300489774Y-109019831D01*
X299719605Y-109790000D01*
X299360395Y-109790000D01*
X298590226Y-109019831D01*
X298352389Y-109084131D01*
X298172667Y-109592342D01*
X292935137Y-109592342D01*
X292935248Y-109465813D01*
X292717243Y-108938200D01*
X292619440Y-108840226D01*
X298769831Y-108840226D01*
X299540000Y-109610395D01*
X300310169Y-108840226D01*
X319689831Y-108840226D01*
X320460000Y-109610395D01*
X321230169Y-108840226D01*
X321165869Y-108602389D01*
X320657658Y-108422667D01*
X320119356Y-108451108D01*
X319754131Y-108602389D01*
X319689831Y-108840226D01*
X300310169Y-108840226D01*
X300245869Y-108602389D01*
X299737658Y-108422667D01*
X299199356Y-108451108D01*
X298834131Y-108602389D01*
X298769831Y-108840226D01*
X292619440Y-108840226D01*
X292528993Y-108749621D01*
X292820264Y-108555000D01*
X296609446Y-108555000D01*
X296729291Y-108604764D01*
X297268344Y-108605235D01*
X297766543Y-108399383D01*
X297966500Y-108199774D01*
X301309831Y-108199774D01*
X301374131Y-108437611D01*
X301882342Y-108617333D01*
X302420644Y-108588892D01*
X302785869Y-108437611D01*
X302850169Y-108199774D01*
X302080000Y-107429605D01*
X301309831Y-108199774D01*
X297966500Y-108199774D01*
X298148043Y-108018548D01*
X298354764Y-107520709D01*
X298355173Y-107052342D01*
X300712667Y-107052342D01*
X300741108Y-107590644D01*
X300892389Y-107955869D01*
X301130226Y-108020169D01*
X301900395Y-107250000D01*
X302259605Y-107250000D01*
X303029774Y-108020169D01*
X303267611Y-107955869D01*
X303447333Y-107447658D01*
X303418892Y-106909356D01*
X303267611Y-106544131D01*
X303029774Y-106479831D01*
X302259605Y-107250000D01*
X301900395Y-107250000D01*
X301130226Y-106479831D01*
X300892389Y-106544131D01*
X300712667Y-107052342D01*
X298355173Y-107052342D01*
X298355235Y-106981656D01*
X298149383Y-106483457D01*
X297966472Y-106300226D01*
X301309831Y-106300226D01*
X302080000Y-107070395D01*
X302850169Y-106300226D01*
X302785869Y-106062389D01*
X302277658Y-105882667D01*
X301739356Y-105911108D01*
X301374131Y-106062389D01*
X301309831Y-106300226D01*
X297966472Y-106300226D01*
X297935000Y-106268700D01*
X297935000Y-102250000D01*
X297863827Y-101892191D01*
X297661145Y-101588855D01*
X296507290Y-100435000D01*
X316985000Y-100435000D01*
X316985000Y-106268780D01*
G36*
X136065000Y-103963286D02*
X136065000Y-106268780D01*
X135851957Y-106481452D01*
X135808960Y-106585000D01*
X132903901Y-106585000D01*
X132850648Y-106505302D01*
X132468562Y-106250000D01*
X132850648Y-105994698D01*
X133161717Y-105529151D01*
X133270950Y-104980000D01*
X133161717Y-104430849D01*
X132850648Y-103965302D01*
X132385101Y-103654233D01*
X132183828Y-103614197D01*
X132238327Y-103559699D01*
X132335000Y-103326310D01*
X132335000Y-103035750D01*
X132176250Y-102877000D01*
X131227000Y-102877000D01*
X131227000Y-102897000D01*
X130973000Y-102897000D01*
X130973000Y-102877000D01*
X130953000Y-102877000D01*
X130953000Y-102623000D01*
X130973000Y-102623000D01*
X130973000Y-102603000D01*
X131227000Y-102603000D01*
X131227000Y-102623000D01*
X132176250Y-102623000D01*
X132335000Y-102464250D01*
X132335000Y-102173690D01*
X132318973Y-102134998D01*
X134236712Y-102134998D01*
X136065000Y-103963286D01*
X136065000Y-103963286D01*
G37*
X136065000Y-103963286D02*
X136065000Y-106268780D01*
X135851957Y-106481452D01*
X135808960Y-106585000D01*
X132903901Y-106585000D01*
X132850648Y-106505302D01*
X132468562Y-106250000D01*
X132850648Y-105994698D01*
X133161717Y-105529151D01*
X133270950Y-104980000D01*
X133161717Y-104430849D01*
X132850648Y-103965302D01*
X132385101Y-103654233D01*
X132183828Y-103614197D01*
X132238327Y-103559699D01*
X132335000Y-103326310D01*
X132335000Y-103035750D01*
X132176250Y-102877000D01*
X131227000Y-102877000D01*
X131227000Y-102897000D01*
X130973000Y-102897000D01*
X130973000Y-102877000D01*
X130953000Y-102877000D01*
X130953000Y-102623000D01*
X130973000Y-102623000D01*
X130973000Y-102603000D01*
X131227000Y-102603000D01*
X131227000Y-102623000D01*
X132176250Y-102623000D01*
X132335000Y-102464250D01*
X132335000Y-102173690D01*
X132318973Y-102134998D01*
X134236712Y-102134998D01*
X136065000Y-103963286D01*
G36*
X217032682Y-105895028D02*
X216731656Y-105894765D01*
X216233457Y-106100617D01*
X215851957Y-106481452D01*
X215850484Y-106485000D01*
X212820264Y-106485000D01*
X212468562Y-106250000D01*
X212850648Y-105994698D01*
X213161717Y-105529151D01*
X213270950Y-104980000D01*
X213161717Y-104430849D01*
X212850648Y-103965302D01*
X212385101Y-103654233D01*
X212183828Y-103614197D01*
X212238327Y-103559699D01*
X212335000Y-103326310D01*
X212335000Y-103035750D01*
X212176250Y-102877000D01*
X211227000Y-102877000D01*
X211227000Y-102897000D01*
X210973000Y-102897000D01*
X210973000Y-102877000D01*
X210953000Y-102877000D01*
X210953000Y-102623000D01*
X210973000Y-102623000D01*
X210973000Y-101823750D01*
X211227000Y-101823750D01*
X211227000Y-102623000D01*
X212176250Y-102623000D01*
X212335000Y-102464250D01*
X212335000Y-102173690D01*
X212238327Y-101940301D01*
X212059698Y-101761673D01*
X211826309Y-101665000D01*
X211385750Y-101665000D01*
X211227000Y-101823750D01*
X210973000Y-101823750D01*
X210814250Y-101665000D01*
X210373691Y-101665000D01*
X210140302Y-101761673D01*
X209998654Y-101903320D01*
X209957809Y-101842191D01*
X209747765Y-101701843D01*
X209500000Y-101652560D01*
X208300000Y-101652560D01*
X208052235Y-101701843D01*
X207956435Y-101765855D01*
X209746306Y-99975984D01*
X209786077Y-100015824D01*
X210313309Y-100234750D01*
X210884187Y-100235248D01*
X211411800Y-100017243D01*
X211815824Y-99613923D01*
X212034750Y-99086691D01*
X212034882Y-98935000D01*
X223992710Y-98935000D01*
X217032682Y-105895028D01*
X217032682Y-105895028D01*
G37*
X217032682Y-105895028D02*
X216731656Y-105894765D01*
X216233457Y-106100617D01*
X215851957Y-106481452D01*
X215850484Y-106485000D01*
X212820264Y-106485000D01*
X212468562Y-106250000D01*
X212850648Y-105994698D01*
X213161717Y-105529151D01*
X213270950Y-104980000D01*
X213161717Y-104430849D01*
X212850648Y-103965302D01*
X212385101Y-103654233D01*
X212183828Y-103614197D01*
X212238327Y-103559699D01*
X212335000Y-103326310D01*
X212335000Y-103035750D01*
X212176250Y-102877000D01*
X211227000Y-102877000D01*
X211227000Y-102897000D01*
X210973000Y-102897000D01*
X210973000Y-102877000D01*
X210953000Y-102877000D01*
X210953000Y-102623000D01*
X210973000Y-102623000D01*
X210973000Y-101823750D01*
X211227000Y-101823750D01*
X211227000Y-102623000D01*
X212176250Y-102623000D01*
X212335000Y-102464250D01*
X212335000Y-102173690D01*
X212238327Y-101940301D01*
X212059698Y-101761673D01*
X211826309Y-101665000D01*
X211385750Y-101665000D01*
X211227000Y-101823750D01*
X210973000Y-101823750D01*
X210814250Y-101665000D01*
X210373691Y-101665000D01*
X210140302Y-101761673D01*
X209998654Y-101903320D01*
X209957809Y-101842191D01*
X209747765Y-101701843D01*
X209500000Y-101652560D01*
X208300000Y-101652560D01*
X208052235Y-101701843D01*
X207956435Y-101765855D01*
X209746306Y-99975984D01*
X209786077Y-100015824D01*
X210313309Y-100234750D01*
X210884187Y-100235248D01*
X211411800Y-100017243D01*
X211815824Y-99613923D01*
X212034750Y-99086691D01*
X212034882Y-98935000D01*
X223992710Y-98935000D01*
X217032682Y-105895028D01*
G36*
X296065000Y-102637290D02*
X296065000Y-106268780D01*
X295851957Y-106481452D01*
X295850484Y-106485000D01*
X292820264Y-106485000D01*
X292468562Y-106250000D01*
X292850648Y-105994698D01*
X293161717Y-105529151D01*
X293270950Y-104980000D01*
X293161717Y-104430849D01*
X292850648Y-103965302D01*
X292385101Y-103654233D01*
X292183828Y-103614197D01*
X292238327Y-103559699D01*
X292335000Y-103326310D01*
X292335000Y-103035750D01*
X292176250Y-102877000D01*
X291227000Y-102877000D01*
X291227000Y-102897000D01*
X290973000Y-102897000D01*
X290973000Y-102877000D01*
X290953000Y-102877000D01*
X290953000Y-102623000D01*
X290973000Y-102623000D01*
X290973000Y-101823750D01*
X291227000Y-101823750D01*
X291227000Y-102623000D01*
X292176250Y-102623000D01*
X292335000Y-102464250D01*
X292335000Y-102173690D01*
X292238327Y-101940301D01*
X292059698Y-101761673D01*
X291826309Y-101665000D01*
X291385750Y-101665000D01*
X291227000Y-101823750D01*
X290973000Y-101823750D01*
X290814250Y-101665000D01*
X290373691Y-101665000D01*
X290140302Y-101761673D01*
X289998654Y-101903320D01*
X289957809Y-101842191D01*
X289747765Y-101701843D01*
X289500000Y-101652560D01*
X288659112Y-101652560D01*
X288569219Y-101435000D01*
X294862710Y-101435000D01*
X296065000Y-102637290D01*
X296065000Y-102637290D01*
G37*
X296065000Y-102637290D02*
X296065000Y-106268780D01*
X295851957Y-106481452D01*
X295850484Y-106485000D01*
X292820264Y-106485000D01*
X292468562Y-106250000D01*
X292850648Y-105994698D01*
X293161717Y-105529151D01*
X293270950Y-104980000D01*
X293161717Y-104430849D01*
X292850648Y-103965302D01*
X292385101Y-103654233D01*
X292183828Y-103614197D01*
X292238327Y-103559699D01*
X292335000Y-103326310D01*
X292335000Y-103035750D01*
X292176250Y-102877000D01*
X291227000Y-102877000D01*
X291227000Y-102897000D01*
X290973000Y-102897000D01*
X290973000Y-102877000D01*
X290953000Y-102877000D01*
X290953000Y-102623000D01*
X290973000Y-102623000D01*
X290973000Y-101823750D01*
X291227000Y-101823750D01*
X291227000Y-102623000D01*
X292176250Y-102623000D01*
X292335000Y-102464250D01*
X292335000Y-102173690D01*
X292238327Y-101940301D01*
X292059698Y-101761673D01*
X291826309Y-101665000D01*
X291385750Y-101665000D01*
X291227000Y-101823750D01*
X290973000Y-101823750D01*
X290814250Y-101665000D01*
X290373691Y-101665000D01*
X290140302Y-101761673D01*
X289998654Y-101903320D01*
X289957809Y-101842191D01*
X289747765Y-101701843D01*
X289500000Y-101652560D01*
X288659112Y-101652560D01*
X288569219Y-101435000D01*
X294862710Y-101435000D01*
X296065000Y-102637290D01*
G36*
X274815256Y-94213309D02*
X274814758Y-94784187D01*
X274877820Y-94936808D01*
X274802235Y-94951843D01*
X274750000Y-94986746D01*
X274697765Y-94951843D01*
X274450000Y-94902560D01*
X273550000Y-94902560D01*
X273302235Y-94951843D01*
X273092191Y-95092191D01*
X272951843Y-95302235D01*
X272902560Y-95550000D01*
X272902560Y-96750000D01*
X272951843Y-96997765D01*
X273092191Y-97207809D01*
X273155334Y-97250000D01*
X273092191Y-97292191D01*
X272951843Y-97502235D01*
X272902560Y-97750000D01*
X272902560Y-98950000D01*
X272951843Y-99197765D01*
X273065000Y-99367115D01*
X273065000Y-99550000D01*
X273112851Y-99790561D01*
X272161145Y-98838855D01*
X271857809Y-98636173D01*
X271500000Y-98565000D01*
X270069186Y-98565000D01*
X270184750Y-98286691D01*
X270185248Y-97715813D01*
X269967243Y-97188200D01*
X269563923Y-96784176D01*
X269036691Y-96565250D01*
X268465813Y-96564752D01*
X267938200Y-96782757D01*
X267655464Y-97065000D01*
X267569186Y-97065000D01*
X267684750Y-96786691D01*
X267685248Y-96215813D01*
X267467243Y-95688200D01*
X267063923Y-95284176D01*
X266536691Y-95065250D01*
X265965813Y-95064752D01*
X265438200Y-95282757D01*
X265155464Y-95565000D01*
X213294258Y-95565000D01*
X213013923Y-95284176D01*
X212486691Y-95065250D01*
X211915813Y-95064752D01*
X211388200Y-95282757D01*
X211105464Y-95565000D01*
X210957290Y-95565000D01*
X212444675Y-94077615D01*
X212582757Y-94411800D01*
X212986077Y-94815824D01*
X213513309Y-95034750D01*
X214084187Y-95035248D01*
X214611800Y-94817243D01*
X215015824Y-94413923D01*
X215214690Y-93935000D01*
X274930820Y-93935000D01*
X274815256Y-94213309D01*
X274815256Y-94213309D01*
G37*
X274815256Y-94213309D02*
X274814758Y-94784187D01*
X274877820Y-94936808D01*
X274802235Y-94951843D01*
X274750000Y-94986746D01*
X274697765Y-94951843D01*
X274450000Y-94902560D01*
X273550000Y-94902560D01*
X273302235Y-94951843D01*
X273092191Y-95092191D01*
X272951843Y-95302235D01*
X272902560Y-95550000D01*
X272902560Y-96750000D01*
X272951843Y-96997765D01*
X273092191Y-97207809D01*
X273155334Y-97250000D01*
X273092191Y-97292191D01*
X272951843Y-97502235D01*
X272902560Y-97750000D01*
X272902560Y-98950000D01*
X272951843Y-99197765D01*
X273065000Y-99367115D01*
X273065000Y-99550000D01*
X273112851Y-99790561D01*
X272161145Y-98838855D01*
X271857809Y-98636173D01*
X271500000Y-98565000D01*
X270069186Y-98565000D01*
X270184750Y-98286691D01*
X270185248Y-97715813D01*
X269967243Y-97188200D01*
X269563923Y-96784176D01*
X269036691Y-96565250D01*
X268465813Y-96564752D01*
X267938200Y-96782757D01*
X267655464Y-97065000D01*
X267569186Y-97065000D01*
X267684750Y-96786691D01*
X267685248Y-96215813D01*
X267467243Y-95688200D01*
X267063923Y-95284176D01*
X266536691Y-95065250D01*
X265965813Y-95064752D01*
X265438200Y-95282757D01*
X265155464Y-95565000D01*
X213294258Y-95565000D01*
X213013923Y-95284176D01*
X212486691Y-95065250D01*
X211915813Y-95064752D01*
X211388200Y-95282757D01*
X211105464Y-95565000D01*
X210957290Y-95565000D01*
X212444675Y-94077615D01*
X212582757Y-94411800D01*
X212986077Y-94815824D01*
X213513309Y-95034750D01*
X214084187Y-95035248D01*
X214611800Y-94817243D01*
X215015824Y-94413923D01*
X215214690Y-93935000D01*
X274930820Y-93935000D01*
X274815256Y-94213309D01*
G36*
X209493527Y-92934183D02*
X209086691Y-92765250D01*
X208515813Y-92764752D01*
X207988200Y-92982757D01*
X207584176Y-93386077D01*
X207365250Y-93913309D01*
X207364752Y-94484187D01*
X207533974Y-94893736D01*
X204667710Y-97760000D01*
X200490478Y-97760000D01*
X200497440Y-97725000D01*
X200497440Y-97125000D01*
X200448157Y-96877235D01*
X200395232Y-96798028D01*
X200485000Y-96581310D01*
X200485000Y-96440750D01*
X200326250Y-96282000D01*
X199227000Y-96282000D01*
X199227000Y-96302000D01*
X198973000Y-96302000D01*
X198973000Y-96282000D01*
X198953000Y-96282000D01*
X198953000Y-96028000D01*
X198973000Y-96028000D01*
X198973000Y-95378750D01*
X199227000Y-95378750D01*
X199227000Y-96028000D01*
X200326250Y-96028000D01*
X200485000Y-95869250D01*
X200485000Y-95728690D01*
X200388327Y-95495301D01*
X200209698Y-95316673D01*
X199976309Y-95220000D01*
X199385750Y-95220000D01*
X199227000Y-95378750D01*
X198973000Y-95378750D01*
X198814250Y-95220000D01*
X198223691Y-95220000D01*
X197990302Y-95316673D01*
X197935000Y-95371975D01*
X197935000Y-92577672D01*
X198313309Y-92734760D01*
X198884187Y-92735258D01*
X199411800Y-92517253D01*
X199815824Y-92113933D01*
X199890124Y-91935000D01*
X210492710Y-91935000D01*
X209493527Y-92934183D01*
X209493527Y-92934183D01*
G37*
X209493527Y-92934183D02*
X209086691Y-92765250D01*
X208515813Y-92764752D01*
X207988200Y-92982757D01*
X207584176Y-93386077D01*
X207365250Y-93913309D01*
X207364752Y-94484187D01*
X207533974Y-94893736D01*
X204667710Y-97760000D01*
X200490478Y-97760000D01*
X200497440Y-97725000D01*
X200497440Y-97125000D01*
X200448157Y-96877235D01*
X200395232Y-96798028D01*
X200485000Y-96581310D01*
X200485000Y-96440750D01*
X200326250Y-96282000D01*
X199227000Y-96282000D01*
X199227000Y-96302000D01*
X198973000Y-96302000D01*
X198973000Y-96282000D01*
X198953000Y-96282000D01*
X198953000Y-96028000D01*
X198973000Y-96028000D01*
X198973000Y-95378750D01*
X199227000Y-95378750D01*
X199227000Y-96028000D01*
X200326250Y-96028000D01*
X200485000Y-95869250D01*
X200485000Y-95728690D01*
X200388327Y-95495301D01*
X200209698Y-95316673D01*
X199976309Y-95220000D01*
X199385750Y-95220000D01*
X199227000Y-95378750D01*
X198973000Y-95378750D01*
X198814250Y-95220000D01*
X198223691Y-95220000D01*
X197990302Y-95316673D01*
X197935000Y-95371975D01*
X197935000Y-92577672D01*
X198313309Y-92734760D01*
X198884187Y-92735258D01*
X199411800Y-92517253D01*
X199815824Y-92113933D01*
X199890124Y-91935000D01*
X210492710Y-91935000D01*
X209493527Y-92934183D01*
G36*
X152538855Y-76338855D02*
X152336173Y-76642191D01*
X152271156Y-76969052D01*
X151881812Y-77357717D01*
X151870252Y-77385557D01*
X151859656Y-77359914D01*
X151442283Y-76941812D01*
X150896681Y-76715258D01*
X150305911Y-76714743D01*
X149759914Y-76940344D01*
X149341812Y-77357717D01*
X149115258Y-77903319D01*
X149114743Y-78494089D01*
X149340344Y-79040086D01*
X149757717Y-79458188D01*
X149785557Y-79469748D01*
X149759914Y-79480344D01*
X149341812Y-79897717D01*
X149115258Y-80443319D01*
X149114743Y-81034089D01*
X149340344Y-81580086D01*
X149757717Y-81998188D01*
X150303319Y-82224742D01*
X150894089Y-82225257D01*
X151440086Y-81999656D01*
X151858188Y-81582283D01*
X151869748Y-81554443D01*
X151880344Y-81580086D01*
X152297717Y-81998188D01*
X152843319Y-82224742D01*
X153302853Y-82225143D01*
X156538855Y-85461145D01*
X156842191Y-85663827D01*
X157200000Y-85735000D01*
X162200000Y-85735000D01*
X162557809Y-85663827D01*
X162861145Y-85461145D01*
X166987290Y-81335000D01*
X189742710Y-81335000D01*
X183512612Y-87565098D01*
X183115813Y-87564752D01*
X182588200Y-87782757D01*
X182184176Y-88186077D01*
X181965250Y-88713309D01*
X181964752Y-89284187D01*
X182122101Y-89665000D01*
X127964658Y-89665000D01*
X128015824Y-89613923D01*
X128234750Y-89086691D01*
X128235248Y-88515813D01*
X128017243Y-87988200D01*
X127613923Y-87584176D01*
X127086691Y-87365250D01*
X126515813Y-87364752D01*
X125988200Y-87582757D01*
X125584176Y-87986077D01*
X125365250Y-88513309D01*
X125365118Y-88665000D01*
X40200000Y-88665000D01*
X39842191Y-88736173D01*
X39538855Y-88938855D01*
X38872710Y-89605000D01*
X34680921Y-89605000D01*
X34604045Y-89489946D01*
X34558247Y-89459345D01*
X34729698Y-89388327D01*
X34908327Y-89209699D01*
X35005000Y-88976310D01*
X35005000Y-88285750D01*
X34846250Y-88127000D01*
X33397000Y-88127000D01*
X33397000Y-88147000D01*
X33143000Y-88147000D01*
X33143000Y-88127000D01*
X33123000Y-88127000D01*
X33123000Y-87873000D01*
X33143000Y-87873000D01*
X33143000Y-86673750D01*
X33397000Y-86673750D01*
X33397000Y-87873000D01*
X34846250Y-87873000D01*
X35005000Y-87714250D01*
X35005000Y-87023690D01*
X34908327Y-86790301D01*
X34729698Y-86611673D01*
X34496309Y-86515000D01*
X33555750Y-86515000D01*
X33397000Y-86673750D01*
X33143000Y-86673750D01*
X32984250Y-86515000D01*
X32710000Y-86515000D01*
X32710000Y-77442619D01*
X33764613Y-77442619D01*
X34104155Y-78264372D01*
X34732321Y-78893636D01*
X35553481Y-79234611D01*
X36442619Y-79235387D01*
X37264372Y-78895845D01*
X37893636Y-78267679D01*
X38234611Y-77446519D01*
X38234614Y-77442619D01*
X138764613Y-77442619D01*
X139104155Y-78264372D01*
X139732321Y-78893636D01*
X140553481Y-79234611D01*
X141442619Y-79235387D01*
X142264372Y-78895845D01*
X142893636Y-78267679D01*
X143234611Y-77446519D01*
X143235387Y-76557381D01*
X142895845Y-75735628D01*
X142267679Y-75106364D01*
X141446519Y-74765389D01*
X140557381Y-74764613D01*
X139735628Y-75104155D01*
X139106364Y-75732321D01*
X138765389Y-76553481D01*
X138764613Y-77442619D01*
X38234614Y-77442619D01*
X38235387Y-76557381D01*
X37895845Y-75735628D01*
X37267679Y-75106364D01*
X36446519Y-74765389D01*
X35557381Y-74764613D01*
X34735628Y-75104155D01*
X34106364Y-75732321D01*
X33765389Y-76553481D01*
X33764613Y-77442619D01*
X32710000Y-77442619D01*
X32710000Y-71710000D01*
X157167710Y-71710000D01*
X152538855Y-76338855D01*
X152538855Y-76338855D01*
G37*
X152538855Y-76338855D02*
X152336173Y-76642191D01*
X152271156Y-76969052D01*
X151881812Y-77357717D01*
X151870252Y-77385557D01*
X151859656Y-77359914D01*
X151442283Y-76941812D01*
X150896681Y-76715258D01*
X150305911Y-76714743D01*
X149759914Y-76940344D01*
X149341812Y-77357717D01*
X149115258Y-77903319D01*
X149114743Y-78494089D01*
X149340344Y-79040086D01*
X149757717Y-79458188D01*
X149785557Y-79469748D01*
X149759914Y-79480344D01*
X149341812Y-79897717D01*
X149115258Y-80443319D01*
X149114743Y-81034089D01*
X149340344Y-81580086D01*
X149757717Y-81998188D01*
X150303319Y-82224742D01*
X150894089Y-82225257D01*
X151440086Y-81999656D01*
X151858188Y-81582283D01*
X151869748Y-81554443D01*
X151880344Y-81580086D01*
X152297717Y-81998188D01*
X152843319Y-82224742D01*
X153302853Y-82225143D01*
X156538855Y-85461145D01*
X156842191Y-85663827D01*
X157200000Y-85735000D01*
X162200000Y-85735000D01*
X162557809Y-85663827D01*
X162861145Y-85461145D01*
X166987290Y-81335000D01*
X189742710Y-81335000D01*
X183512612Y-87565098D01*
X183115813Y-87564752D01*
X182588200Y-87782757D01*
X182184176Y-88186077D01*
X181965250Y-88713309D01*
X181964752Y-89284187D01*
X182122101Y-89665000D01*
X127964658Y-89665000D01*
X128015824Y-89613923D01*
X128234750Y-89086691D01*
X128235248Y-88515813D01*
X128017243Y-87988200D01*
X127613923Y-87584176D01*
X127086691Y-87365250D01*
X126515813Y-87364752D01*
X125988200Y-87582757D01*
X125584176Y-87986077D01*
X125365250Y-88513309D01*
X125365118Y-88665000D01*
X40200000Y-88665000D01*
X39842191Y-88736173D01*
X39538855Y-88938855D01*
X38872710Y-89605000D01*
X34680921Y-89605000D01*
X34604045Y-89489946D01*
X34558247Y-89459345D01*
X34729698Y-89388327D01*
X34908327Y-89209699D01*
X35005000Y-88976310D01*
X35005000Y-88285750D01*
X34846250Y-88127000D01*
X33397000Y-88127000D01*
X33397000Y-88147000D01*
X33143000Y-88147000D01*
X33143000Y-88127000D01*
X33123000Y-88127000D01*
X33123000Y-87873000D01*
X33143000Y-87873000D01*
X33143000Y-86673750D01*
X33397000Y-86673750D01*
X33397000Y-87873000D01*
X34846250Y-87873000D01*
X35005000Y-87714250D01*
X35005000Y-87023690D01*
X34908327Y-86790301D01*
X34729698Y-86611673D01*
X34496309Y-86515000D01*
X33555750Y-86515000D01*
X33397000Y-86673750D01*
X33143000Y-86673750D01*
X32984250Y-86515000D01*
X32710000Y-86515000D01*
X32710000Y-77442619D01*
X33764613Y-77442619D01*
X34104155Y-78264372D01*
X34732321Y-78893636D01*
X35553481Y-79234611D01*
X36442619Y-79235387D01*
X37264372Y-78895845D01*
X37893636Y-78267679D01*
X38234611Y-77446519D01*
X38234614Y-77442619D01*
X138764613Y-77442619D01*
X139104155Y-78264372D01*
X139732321Y-78893636D01*
X140553481Y-79234611D01*
X141442619Y-79235387D01*
X142264372Y-78895845D01*
X142893636Y-78267679D01*
X143234611Y-77446519D01*
X143235387Y-76557381D01*
X142895845Y-75735628D01*
X142267679Y-75106364D01*
X141446519Y-74765389D01*
X140557381Y-74764613D01*
X139735628Y-75104155D01*
X139106364Y-75732321D01*
X138765389Y-76553481D01*
X138764613Y-77442619D01*
X38234614Y-77442619D01*
X38235387Y-76557381D01*
X37895845Y-75735628D01*
X37267679Y-75106364D01*
X36446519Y-74765389D01*
X35557381Y-74764613D01*
X34735628Y-75104155D01*
X34106364Y-75732321D01*
X33765389Y-76553481D01*
X33764613Y-77442619D01*
X32710000Y-77442619D01*
X32710000Y-71710000D01*
X157167710Y-71710000D01*
X152538855Y-76338855D01*
G36*
X347290000Y-86515000D02*
X347015750Y-86515000D01*
X346857000Y-86673750D01*
X346857000Y-87873000D01*
X346877000Y-87873000D01*
X346877000Y-88127000D01*
X346857000Y-88127000D01*
X346857000Y-88147000D01*
X346603000Y-88147000D01*
X346603000Y-88127000D01*
X345153750Y-88127000D01*
X344995000Y-88285750D01*
X344995000Y-88672710D01*
X344661145Y-88338855D01*
X344357809Y-88136173D01*
X344000000Y-88065000D01*
X215877662Y-88065000D01*
X216034750Y-87686691D01*
X216035248Y-87115813D01*
X215997184Y-87023690D01*
X344995000Y-87023690D01*
X344995000Y-87714250D01*
X345153750Y-87873000D01*
X346603000Y-87873000D01*
X346603000Y-86673750D01*
X346444250Y-86515000D01*
X345503691Y-86515000D01*
X345270302Y-86611673D01*
X345091673Y-86790301D01*
X344995000Y-87023690D01*
X215997184Y-87023690D01*
X215817243Y-86588200D01*
X215413923Y-86184176D01*
X214886691Y-85965250D01*
X214487192Y-85964902D01*
X209861145Y-81338855D01*
X209557809Y-81136173D01*
X209200000Y-81065000D01*
X200600000Y-81065000D01*
X200242191Y-81136173D01*
X199938855Y-81338855D01*
X198678855Y-82598855D01*
X198476173Y-82902191D01*
X198424226Y-83163346D01*
X198370000Y-83152560D01*
X197770000Y-83152560D01*
X197522235Y-83201843D01*
X197435000Y-83260132D01*
X197347765Y-83201843D01*
X197100000Y-83152560D01*
X196500000Y-83152560D01*
X196457255Y-83161062D01*
X196393827Y-82842191D01*
X196191145Y-82538855D01*
X194987290Y-81335000D01*
X197210000Y-81335000D01*
X197567809Y-81263827D01*
X197871145Y-81061145D01*
X201271145Y-77661145D01*
X201417158Y-77442619D01*
X239764613Y-77442619D01*
X240104155Y-78264372D01*
X240732321Y-78893636D01*
X241553481Y-79234611D01*
X242442619Y-79235387D01*
X243264372Y-78895845D01*
X243893636Y-78267679D01*
X244234611Y-77446519D01*
X244234614Y-77442619D01*
X341764613Y-77442619D01*
X342104155Y-78264372D01*
X342732321Y-78893636D01*
X343553481Y-79234611D01*
X344442619Y-79235387D01*
X345264372Y-78895845D01*
X345893636Y-78267679D01*
X346234611Y-77446519D01*
X346235387Y-76557381D01*
X345895845Y-75735628D01*
X345267679Y-75106364D01*
X344446519Y-74765389D01*
X343557381Y-74764613D01*
X342735628Y-75104155D01*
X342106364Y-75732321D01*
X341765389Y-76553481D01*
X341764613Y-77442619D01*
X244234614Y-77442619D01*
X244235387Y-76557381D01*
X243895845Y-75735628D01*
X243267679Y-75106364D01*
X242446519Y-74765389D01*
X241557381Y-74764613D01*
X240735628Y-75104155D01*
X240106364Y-75732321D01*
X239765389Y-76553481D01*
X239764613Y-77442619D01*
X201417158Y-77442619D01*
X201473827Y-77357809D01*
X201537255Y-77038938D01*
X201580000Y-77047440D01*
X202180000Y-77047440D01*
X202427765Y-76998157D01*
X202637809Y-76857809D01*
X202778157Y-76647765D01*
X202827440Y-76400000D01*
X202827440Y-74400000D01*
X202778157Y-74152235D01*
X202637809Y-73942191D01*
X202427765Y-73801843D01*
X202180000Y-73752560D01*
X201580000Y-73752560D01*
X201332235Y-73801843D01*
X201245000Y-73860132D01*
X201157765Y-73801843D01*
X200910000Y-73752560D01*
X200310000Y-73752560D01*
X200267255Y-73761062D01*
X200203827Y-73442191D01*
X200001145Y-73138855D01*
X198572290Y-71710000D01*
X347290000Y-71710000D01*
X347290000Y-86515000D01*
X347290000Y-86515000D01*
G37*
X347290000Y-86515000D02*
X347015750Y-86515000D01*
X346857000Y-86673750D01*
X346857000Y-87873000D01*
X346877000Y-87873000D01*
X346877000Y-88127000D01*
X346857000Y-88127000D01*
X346857000Y-88147000D01*
X346603000Y-88147000D01*
X346603000Y-88127000D01*
X345153750Y-88127000D01*
X344995000Y-88285750D01*
X344995000Y-88672710D01*
X344661145Y-88338855D01*
X344357809Y-88136173D01*
X344000000Y-88065000D01*
X215877662Y-88065000D01*
X216034750Y-87686691D01*
X216035248Y-87115813D01*
X215997184Y-87023690D01*
X344995000Y-87023690D01*
X344995000Y-87714250D01*
X345153750Y-87873000D01*
X346603000Y-87873000D01*
X346603000Y-86673750D01*
X346444250Y-86515000D01*
X345503691Y-86515000D01*
X345270302Y-86611673D01*
X345091673Y-86790301D01*
X344995000Y-87023690D01*
X215997184Y-87023690D01*
X215817243Y-86588200D01*
X215413923Y-86184176D01*
X214886691Y-85965250D01*
X214487192Y-85964902D01*
X209861145Y-81338855D01*
X209557809Y-81136173D01*
X209200000Y-81065000D01*
X200600000Y-81065000D01*
X200242191Y-81136173D01*
X199938855Y-81338855D01*
X198678855Y-82598855D01*
X198476173Y-82902191D01*
X198424226Y-83163346D01*
X198370000Y-83152560D01*
X197770000Y-83152560D01*
X197522235Y-83201843D01*
X197435000Y-83260132D01*
X197347765Y-83201843D01*
X197100000Y-83152560D01*
X196500000Y-83152560D01*
X196457255Y-83161062D01*
X196393827Y-82842191D01*
X196191145Y-82538855D01*
X194987290Y-81335000D01*
X197210000Y-81335000D01*
X197567809Y-81263827D01*
X197871145Y-81061145D01*
X201271145Y-77661145D01*
X201417158Y-77442619D01*
X239764613Y-77442619D01*
X240104155Y-78264372D01*
X240732321Y-78893636D01*
X241553481Y-79234611D01*
X242442619Y-79235387D01*
X243264372Y-78895845D01*
X243893636Y-78267679D01*
X244234611Y-77446519D01*
X244234614Y-77442619D01*
X341764613Y-77442619D01*
X342104155Y-78264372D01*
X342732321Y-78893636D01*
X343553481Y-79234611D01*
X344442619Y-79235387D01*
X345264372Y-78895845D01*
X345893636Y-78267679D01*
X346234611Y-77446519D01*
X346235387Y-76557381D01*
X345895845Y-75735628D01*
X345267679Y-75106364D01*
X344446519Y-74765389D01*
X343557381Y-74764613D01*
X342735628Y-75104155D01*
X342106364Y-75732321D01*
X341765389Y-76553481D01*
X341764613Y-77442619D01*
X244234614Y-77442619D01*
X244235387Y-76557381D01*
X243895845Y-75735628D01*
X243267679Y-75106364D01*
X242446519Y-74765389D01*
X241557381Y-74764613D01*
X240735628Y-75104155D01*
X240106364Y-75732321D01*
X239765389Y-76553481D01*
X239764613Y-77442619D01*
X201417158Y-77442619D01*
X201473827Y-77357809D01*
X201537255Y-77038938D01*
X201580000Y-77047440D01*
X202180000Y-77047440D01*
X202427765Y-76998157D01*
X202637809Y-76857809D01*
X202778157Y-76647765D01*
X202827440Y-76400000D01*
X202827440Y-74400000D01*
X202778157Y-74152235D01*
X202637809Y-73942191D01*
X202427765Y-73801843D01*
X202180000Y-73752560D01*
X201580000Y-73752560D01*
X201332235Y-73801843D01*
X201245000Y-73860132D01*
X201157765Y-73801843D01*
X200910000Y-73752560D01*
X200310000Y-73752560D01*
X200267255Y-73761062D01*
X200203827Y-73442191D01*
X200001145Y-73138855D01*
X198572290Y-71710000D01*
X347290000Y-71710000D01*
X347290000Y-86515000D01*
G36*
X207365098Y-84687388D02*
X207364752Y-85084187D01*
X207582757Y-85611800D01*
X207986077Y-86015824D01*
X208104506Y-86065000D01*
X202757552Y-86065000D01*
X202815000Y-85926309D01*
X202815000Y-85085750D01*
X202656250Y-84927000D01*
X202007000Y-84927000D01*
X202007000Y-84947000D01*
X201753000Y-84947000D01*
X201753000Y-84927000D01*
X201733000Y-84927000D01*
X201733000Y-84673000D01*
X201753000Y-84673000D01*
X201753000Y-84653000D01*
X202007000Y-84653000D01*
X202007000Y-84673000D01*
X202656250Y-84673000D01*
X202815000Y-84514250D01*
X202815000Y-83935000D01*
X206612710Y-83935000D01*
X207365098Y-84687388D01*
X207365098Y-84687388D01*
G37*
X207365098Y-84687388D02*
X207364752Y-85084187D01*
X207582757Y-85611800D01*
X207986077Y-86015824D01*
X208104506Y-86065000D01*
X202757552Y-86065000D01*
X202815000Y-85926309D01*
X202815000Y-85085750D01*
X202656250Y-84927000D01*
X202007000Y-84927000D01*
X202007000Y-84947000D01*
X201753000Y-84947000D01*
X201753000Y-84927000D01*
X201733000Y-84927000D01*
X201733000Y-84673000D01*
X201753000Y-84673000D01*
X201753000Y-84653000D01*
X202007000Y-84653000D01*
X202007000Y-84673000D01*
X202656250Y-84673000D01*
X202815000Y-84514250D01*
X202815000Y-83935000D01*
X206612710Y-83935000D01*
X207365098Y-84687388D01*
M02*
