M48
;DRILL file {KiCad no-vcs-found-c20cf4a~58~ubuntu16.04.1} date Wed Mar 22 23:35:48 2017
;FORMAT={-:-/ absolute / metric / decimal}
FMAT,2
METRIC,TZ
T1C0.600
T2C0.800
T3C0.900
T4C1.000
T5C3.200
%
G90
G05
M71
T1
X101.5Y-132.5
X101.5Y-132.5
X102.Y-114.5
X105.Y-116.5
X105.Y-127.
X112.5Y-130.
X112.5Y-141.
X120.5Y-141.
X124.882Y-127.58
X126.006Y-142.6
X126.382Y-130.58
X130.5Y-145.5
X131.382Y-132.08
X133.382Y-132.08
X136.5Y-132.
X143.Y-104.5
X145.Y-138.5
X145.5Y-131.5
X145.5Y-134.
T2
X126.3Y-104.4
X129.8Y-104.4
T3
X149.5Y-129.
X149.5Y-131.5
X149.5Y-134.
X149.5Y-136.5
T4
X101.27Y-117.
X101.27Y-119.54
X101.27Y-122.08
X101.27Y-124.62
X101.27Y-127.16
X101.27Y-129.7
X120.66Y-103.46
X120.66Y-106.
X120.66Y-108.54
X130.842Y-124.62
X130.842Y-127.16
X130.842Y-129.7
X133.382Y-124.62
X133.382Y-127.16
X133.382Y-129.7
T5
X104.Y-106.
X104.Y-143.
X148.Y-106.
X148.Y-143.
T0
M30
