G04 #@! TF.GenerationSoftware,KiCad,Pcbnew,no-vcs-found-24a9003~58~ubuntu16.04.1*
G04 #@! TF.CreationDate,2017-03-06T17:54:42+02:00*
G04 #@! TF.ProjectId,line-interface,6C696E652D696E746572666163652E6B,rev?*
G04 #@! TF.FileFunction,Copper,L1,Top,Signal*
G04 #@! TF.FilePolarity,Positive*
%FSLAX46Y46*%
G04 Gerber Fmt 4.6, Leading zero omitted, Abs format (unit mm)*
G04 Created by KiCad (PCBNEW no-vcs-found-24a9003~58~ubuntu16.04.1) date Mon Mar  6 17:54:42 2017*
%MOMM*%
%LPD*%
G01*
G04 APERTURE LIST*
%ADD10C,0.100000*%
%ADD11O,2.200000X1.700000*%
%ADD12R,2.200000X1.700000*%
%ADD13C,1.600000*%
%ADD14R,1.600000X1.600000*%
%ADD15R,0.900000X1.200000*%
%ADD16R,0.800000X0.750000*%
%ADD17R,2.000000X2.500000*%
%ADD18R,2.100580X5.600700*%
%ADD19R,3.500000X2.300000*%
%ADD20R,4.500880X3.299460*%
%ADD21R,4.498340X3.299460*%
%ADD22R,0.910000X1.220000*%
%ADD23R,1.500000X0.600000*%
%ADD24R,1.550000X0.600000*%
%ADD25R,0.800000X0.800000*%
%ADD26O,1.700000X1.700000*%
%ADD27R,1.700000X1.700000*%
%ADD28R,0.900000X0.500000*%
%ADD29R,0.500000X0.900000*%
%ADD30R,1.500000X1.300000*%
%ADD31R,7.000000X7.000000*%
%ADD32R,2.000000X3.500000*%
%ADD33C,1.000000*%
%ADD34C,0.600000*%
%ADD35C,0.800000*%
%ADD36C,2.000000*%
%ADD37C,0.400000*%
%ADD38C,0.254000*%
G04 APERTURE END LIST*
D10*
D11*
X101270000Y-129700000D03*
X101270000Y-127160000D03*
X101270000Y-124620000D03*
X101270000Y-122080000D03*
X101270000Y-119540000D03*
D12*
X101270000Y-117000000D03*
D13*
X125500000Y-105000000D03*
D14*
X129000000Y-105000000D03*
D15*
X114000000Y-105900000D03*
X114000000Y-108100000D03*
X114000000Y-112200000D03*
X114000000Y-110000000D03*
D16*
X123132400Y-129080000D03*
X124632400Y-129080000D03*
X124632400Y-130580000D03*
X123132400Y-130580000D03*
X114382400Y-142580000D03*
X112882400Y-142580000D03*
X120250000Y-120500000D03*
X118750000Y-120500000D03*
X114632400Y-128580000D03*
X113132400Y-128580000D03*
X138151200Y-134580000D03*
X139651200Y-134580000D03*
D17*
X149000000Y-117000000D03*
X145000000Y-117000000D03*
X117000000Y-102000000D03*
X121000000Y-102000000D03*
D18*
X116882400Y-140428860D03*
X116882400Y-130731140D03*
D19*
X148700000Y-113000000D03*
X143300000Y-113000000D03*
D20*
X148399280Y-125000000D03*
D21*
X139600720Y-125000000D03*
D22*
X137635000Y-115500000D03*
X134365000Y-115500000D03*
D23*
X129582400Y-133770000D03*
X129582400Y-135040000D03*
X129582400Y-136310000D03*
X129582400Y-137580000D03*
X129582400Y-138850000D03*
X129582400Y-140120000D03*
X129582400Y-141390000D03*
X124182400Y-141390000D03*
X124182400Y-140120000D03*
X124182400Y-138850000D03*
X124182400Y-137580000D03*
X124182400Y-136310000D03*
X124182400Y-135040000D03*
X124182400Y-133770000D03*
D24*
X139582400Y-136175000D03*
X139582400Y-137445000D03*
X139582400Y-138715000D03*
X139582400Y-139985000D03*
X134182400Y-139985000D03*
X134182400Y-138715000D03*
X134182400Y-137445000D03*
X134182400Y-136175000D03*
D25*
X135702839Y-142080000D03*
X137302839Y-142080000D03*
X135700000Y-143580000D03*
X137300000Y-143580000D03*
X112000000Y-108200000D03*
X112000000Y-109800000D03*
D26*
X149080000Y-137620000D03*
X149080000Y-135080000D03*
X149080000Y-132540000D03*
D27*
X149080000Y-130000000D03*
D26*
X133382400Y-129700000D03*
X130842400Y-129700000D03*
X133382400Y-127160000D03*
X130842400Y-127160000D03*
X133382400Y-124620000D03*
D27*
X130842400Y-124620000D03*
D28*
X112000000Y-111250000D03*
X112000000Y-112750000D03*
D29*
X103750000Y-119500000D03*
X105250000Y-119500000D03*
X122882400Y-132080000D03*
X124382400Y-132080000D03*
D28*
X134002839Y-142202567D03*
X134002839Y-143702567D03*
X132500000Y-115000000D03*
X132500000Y-116500000D03*
D30*
X147650000Y-120000000D03*
X150350000Y-120000000D03*
D31*
X135720000Y-104600000D03*
D32*
X138000000Y-112000000D03*
X133420000Y-112000000D03*
X121290000Y-106300000D03*
X116710000Y-106300000D03*
D31*
X118990000Y-113700000D03*
D15*
X122000000Y-118500000D03*
X118700000Y-118500000D03*
D29*
X105250000Y-122000000D03*
X103750000Y-122000000D03*
X103750000Y-124500000D03*
X105250000Y-124500000D03*
D13*
X105000000Y-127000000D03*
X105000000Y-116500000D03*
X112000000Y-106000000D03*
X115000000Y-102000000D03*
X132500000Y-118000000D03*
X139000000Y-120500000D03*
X142500000Y-118500000D03*
X120500000Y-141000000D03*
X149000000Y-140000000D03*
X147000000Y-139000000D03*
X102000000Y-114500000D03*
X101500000Y-132500000D03*
X112500000Y-130000000D03*
X112500000Y-141000000D03*
X124882400Y-127580000D03*
X133382400Y-132080000D03*
X126382400Y-130580000D03*
X131382400Y-132080000D03*
X130500000Y-145500000D03*
X126006379Y-142599968D03*
D33*
X114000000Y-116500000D02*
X105000000Y-116500000D01*
X105000000Y-127000000D02*
X101430000Y-127000000D01*
X101430000Y-127000000D02*
X101270000Y-127160000D01*
X116800000Y-113700000D02*
X114000000Y-116500000D01*
X118990000Y-113700000D02*
X116800000Y-113700000D01*
X133382400Y-124620000D02*
X139651200Y-130888800D01*
X139651200Y-130888800D02*
X139651200Y-134580000D01*
X133000000Y-122000000D02*
X133382400Y-122382400D01*
X133382400Y-122382400D02*
X133382400Y-124620000D01*
X118750000Y-122000000D02*
X118750000Y-124722600D01*
X118750000Y-120500000D02*
X118750000Y-122000000D01*
X118750000Y-122000000D02*
X133000000Y-122000000D01*
X118750000Y-124722600D02*
X123107400Y-129080000D01*
X123107400Y-129080000D02*
X123132400Y-129080000D01*
X116190000Y-116500000D02*
X118990000Y-113700000D01*
D34*
X137302839Y-141080000D02*
X137302839Y-142080000D01*
D35*
X118700000Y-118500000D02*
X118700000Y-120450000D01*
X118700000Y-120450000D02*
X118750000Y-120500000D01*
X117000000Y-115690000D02*
X118990000Y-113700000D01*
D34*
X112000000Y-112750000D02*
X113450000Y-112750000D01*
X113450000Y-112750000D02*
X114000000Y-112200000D01*
D35*
X114000000Y-112200000D02*
X117490000Y-112200000D01*
X117490000Y-112200000D02*
X118990000Y-113700000D01*
D34*
X139582400Y-136175000D02*
X138207400Y-136175000D01*
X138207400Y-136175000D02*
X137302839Y-137079561D01*
X137302839Y-137079561D02*
X137302839Y-142080000D01*
X139582400Y-136175000D02*
X139582400Y-134630000D01*
X139582400Y-134630000D02*
X139632400Y-134580000D01*
D35*
X123132400Y-129080000D02*
X122777398Y-129080000D01*
X122777398Y-129080000D02*
X122132399Y-129724999D01*
X122132399Y-129724999D02*
X122132399Y-131329999D01*
X122132399Y-131329999D02*
X122882400Y-132080000D01*
X124182400Y-133770000D02*
X122882400Y-132470000D01*
X122882400Y-132470000D02*
X122882400Y-132080000D01*
D36*
X118990000Y-113700000D02*
X118190000Y-114500000D01*
D35*
X118640000Y-114050000D02*
X118990000Y-113700000D01*
X118700000Y-118500000D02*
X118700000Y-113990000D01*
X118700000Y-113990000D02*
X118990000Y-113700000D01*
D33*
X114000000Y-105900000D02*
X112100000Y-105900000D01*
X112100000Y-105900000D02*
X112000000Y-106000000D01*
X112000000Y-108200000D02*
X112000000Y-106000000D01*
X117000000Y-102000000D02*
X115000000Y-102000000D01*
X132500000Y-116500000D02*
X132500000Y-118000000D01*
X139600720Y-125000000D02*
X139600720Y-121100720D01*
X139600720Y-121100720D02*
X139000000Y-120500000D01*
X145000000Y-117000000D02*
X144000000Y-117000000D01*
X144000000Y-117000000D02*
X142500000Y-118500000D01*
X149080000Y-137620000D02*
X148380000Y-137620000D01*
X148380000Y-137620000D02*
X147000000Y-139000000D01*
X101270000Y-117000000D02*
X101270000Y-115230000D01*
X101270000Y-115230000D02*
X102000000Y-114500000D01*
X113132400Y-128580000D02*
X113132400Y-129367600D01*
X113132400Y-129367600D02*
X112500000Y-130000000D01*
X112882400Y-142580000D02*
X112882400Y-141382400D01*
X112882400Y-141382400D02*
X112500000Y-141000000D01*
D35*
X124632400Y-127830000D02*
X124882400Y-127580000D01*
X124632400Y-129080000D02*
X124632400Y-127830000D01*
X124632400Y-130580000D02*
X124632400Y-129080000D01*
D36*
X148700000Y-113000000D02*
X148700000Y-112200000D01*
X148700000Y-112200000D02*
X146500000Y-110000000D01*
X146500000Y-110000000D02*
X139250000Y-110000000D01*
X139250000Y-110000000D02*
X138000000Y-111250000D01*
X138000000Y-111250000D02*
X138000000Y-112000000D01*
X149000000Y-117000000D02*
X149000000Y-113300000D01*
X149000000Y-113300000D02*
X148700000Y-113000000D01*
X147650000Y-120000000D02*
X147650000Y-118350000D01*
X147650000Y-118350000D02*
X149000000Y-117000000D01*
D35*
X121290000Y-106300000D02*
X121290000Y-107050000D01*
X121290000Y-107050000D02*
X124000000Y-109760000D01*
X123000000Y-118500000D02*
X122000000Y-118500000D01*
X124000000Y-109760000D02*
X124000000Y-117500000D01*
X124000000Y-117500000D02*
X123000000Y-118500000D01*
X135720000Y-104600000D02*
X135720000Y-114840000D01*
X135720000Y-114840000D02*
X136380000Y-115500000D01*
X136380000Y-115500000D02*
X137635000Y-115500000D01*
D36*
X121290000Y-106300000D02*
X121290000Y-102290000D01*
X121290000Y-102290000D02*
X121000000Y-102000000D01*
X129000000Y-105000000D02*
X126000000Y-102000000D01*
X126000000Y-102000000D02*
X121000000Y-102000000D01*
X129000000Y-105000000D02*
X135320000Y-105000000D01*
X135320000Y-105000000D02*
X135720000Y-104600000D01*
D35*
X126382400Y-130685002D02*
X126382400Y-130580000D01*
X125432401Y-132280001D02*
X125432401Y-131635001D01*
X125432401Y-131635001D02*
X126382400Y-130685002D01*
D37*
X130842400Y-131540000D02*
X131382400Y-132080000D01*
X130842400Y-129700000D02*
X130842400Y-131540000D01*
D34*
X124182400Y-137580000D02*
X124862402Y-137580000D01*
X124862402Y-137580000D02*
X125432401Y-137010001D01*
X125432401Y-137010001D02*
X125432401Y-132280001D01*
X125232400Y-132080000D02*
X124382400Y-132080000D01*
X125432401Y-132280001D02*
X125232400Y-132080000D01*
X124382400Y-132080000D02*
X124382400Y-131830000D01*
X124382400Y-131830000D02*
X123132400Y-130580000D01*
X116882400Y-138678800D02*
X116882400Y-140428860D01*
X119251200Y-136310000D02*
X116882400Y-138678800D01*
X124182400Y-136310000D02*
X119251200Y-136310000D01*
X114382400Y-142580000D02*
X114731260Y-142580000D01*
X114731260Y-142580000D02*
X116882400Y-140428860D01*
X114632400Y-128580000D02*
X114731260Y-128580000D01*
X114731260Y-128580000D02*
X116882400Y-130731140D01*
X124182400Y-135040000D02*
X119441200Y-135040000D01*
X119441200Y-135040000D02*
X116882400Y-132481200D01*
X116882400Y-132481200D02*
X116882400Y-130731140D01*
D36*
X150350000Y-120000000D02*
X150350000Y-123049280D01*
X150350000Y-123049280D02*
X148399280Y-125000000D01*
X149080000Y-130000000D02*
X149080000Y-125680720D01*
X149080000Y-125680720D02*
X148399280Y-125000000D01*
D34*
X135582400Y-143580000D02*
X135582400Y-142200439D01*
X135582400Y-142200439D02*
X135702839Y-142080000D01*
X134002839Y-142202567D02*
X135580272Y-142202567D01*
X135580272Y-142202567D02*
X135702839Y-142080000D01*
D35*
X112000000Y-111250000D02*
X112000000Y-109800000D01*
D34*
X134182400Y-138715000D02*
X134182400Y-139080000D01*
X134182400Y-139080000D02*
X134182400Y-139985000D01*
X129582400Y-135040000D02*
X135022402Y-135040000D01*
X135022402Y-135040000D02*
X135457401Y-135474999D01*
X135457401Y-135474999D02*
X135457401Y-138145001D01*
X135457401Y-138145001D02*
X134522402Y-139080000D01*
X134522402Y-139080000D02*
X134182400Y-139080000D01*
X134182400Y-136175000D02*
X129717400Y-136175000D01*
X129717400Y-136175000D02*
X129582400Y-136310000D01*
X129582400Y-137580000D02*
X134047400Y-137580000D01*
X134047400Y-137580000D02*
X134182400Y-137445000D01*
X129582400Y-138850000D02*
X130770000Y-138850000D01*
X130770000Y-138850000D02*
X132382400Y-140462400D01*
X132382400Y-140462400D02*
X132382400Y-142882400D01*
X132382400Y-142882400D02*
X133202567Y-143702567D01*
X133202567Y-143702567D02*
X134002839Y-143702567D01*
X108000000Y-122000000D02*
X105250000Y-122000000D01*
X129582400Y-140120000D02*
X130262402Y-140120000D01*
X109500000Y-144500000D02*
X109500000Y-123500000D01*
X130262402Y-140120000D02*
X130832401Y-140689999D01*
X130832401Y-140689999D02*
X130832401Y-142667599D01*
X130832401Y-142667599D02*
X128000000Y-145500000D01*
X128000000Y-145500000D02*
X110500000Y-145500000D01*
X110500000Y-145500000D02*
X109500000Y-144500000D01*
X109500000Y-123500000D02*
X108000000Y-122000000D01*
X130842400Y-127160000D02*
X129382400Y-128620000D01*
X129382400Y-128620000D02*
X129382400Y-132029999D01*
X129382400Y-132029999D02*
X128332399Y-133080000D01*
X128332399Y-133080000D02*
X128332399Y-139550001D01*
X128332399Y-139550001D02*
X128902398Y-140120000D01*
X128902398Y-140120000D02*
X129582400Y-140120000D01*
X107500000Y-119500000D02*
X105250000Y-119500000D01*
X129582400Y-141390000D02*
X129132400Y-141390000D01*
X129132400Y-141390000D02*
X126022400Y-144500000D01*
X126022400Y-144500000D02*
X111000000Y-144500000D01*
X111000000Y-144500000D02*
X110500000Y-144000000D01*
X110500000Y-144000000D02*
X110500000Y-122500000D01*
X110500000Y-122500000D02*
X107500000Y-119500000D01*
X127382400Y-140540000D02*
X128232400Y-141390000D01*
X128232400Y-141390000D02*
X129582400Y-141390000D01*
X130842400Y-124620000D02*
X128382400Y-127080000D01*
X127382400Y-132580000D02*
X127382400Y-140540000D01*
X128382400Y-127080000D02*
X128382400Y-131580000D01*
X128382400Y-131580000D02*
X127382400Y-132580000D01*
D37*
X124632400Y-141390000D02*
X124182400Y-141390000D01*
X126382400Y-139640000D02*
X124632400Y-141390000D01*
X129672399Y-123369999D02*
X127582402Y-125459996D01*
X132012401Y-123369999D02*
X129672399Y-123369999D01*
X132092401Y-123449999D02*
X132012401Y-123369999D01*
X126382400Y-132356004D02*
X126382400Y-139640000D01*
X127582402Y-131156002D02*
X126382400Y-132356004D01*
X127582402Y-125459996D02*
X127582402Y-131156002D01*
X133382400Y-127160000D02*
X132092401Y-125870001D01*
X132092401Y-125870001D02*
X132092401Y-123449999D01*
D34*
X139582400Y-137445000D02*
X144175000Y-137445000D01*
X144175000Y-137445000D02*
X149080000Y-132540000D01*
X139582400Y-138715000D02*
X144785000Y-138715000D01*
X144785000Y-138715000D02*
X148420000Y-135080000D01*
X148420000Y-135080000D02*
X149080000Y-135080000D01*
D35*
X133420000Y-112000000D02*
X133420000Y-114555000D01*
X133420000Y-114555000D02*
X134365000Y-115500000D01*
X133420000Y-112000000D02*
X133420000Y-114080000D01*
X133420000Y-114080000D02*
X132500000Y-115000000D01*
X114000000Y-108100000D02*
X114910000Y-108100000D01*
X114910000Y-108100000D02*
X116710000Y-106300000D01*
X114000000Y-108100000D02*
X114000000Y-110000000D01*
X103750000Y-124500000D02*
X101390000Y-124500000D01*
X101390000Y-124500000D02*
X101270000Y-124620000D01*
X103750000Y-122000000D02*
X101350000Y-122000000D01*
X101350000Y-122000000D02*
X101270000Y-122080000D01*
X103750000Y-119500000D02*
X101310000Y-119500000D01*
X101310000Y-119500000D02*
X101270000Y-119540000D01*
D34*
X130500000Y-145500000D02*
X129500000Y-146500000D01*
X108500000Y-125500000D02*
X107500000Y-124500000D01*
X129500000Y-146500000D02*
X110000000Y-146500000D01*
X110000000Y-146500000D02*
X108500000Y-145000000D01*
X108500000Y-145000000D02*
X108500000Y-125500000D01*
X107500000Y-124500000D02*
X105250000Y-124500000D01*
X122832399Y-142170001D02*
X123262366Y-142599968D01*
X122832399Y-140120001D02*
X122832399Y-142170001D01*
X124182400Y-140120000D02*
X122832399Y-140120001D01*
X123262366Y-142599968D02*
X126006379Y-142599968D01*
D38*
G36*
X107565000Y-125887290D02*
X107565000Y-145000000D01*
X107636173Y-145357809D01*
X107838855Y-145661145D01*
X109338855Y-147161145D01*
X109642191Y-147363827D01*
X110000000Y-147435000D01*
X129500000Y-147435000D01*
X129857809Y-147363827D01*
X130161145Y-147161145D01*
X130387388Y-146934902D01*
X130784187Y-146935248D01*
X131311800Y-146717243D01*
X131715824Y-146313923D01*
X131934750Y-145786691D01*
X131935050Y-145442619D01*
X145764613Y-145442619D01*
X146104155Y-146264372D01*
X146732321Y-146893636D01*
X147553481Y-147234611D01*
X148442619Y-147235387D01*
X149264372Y-146895845D01*
X149893636Y-146267679D01*
X150234611Y-145446519D01*
X150235387Y-144557381D01*
X149895845Y-143735628D01*
X149267679Y-143106364D01*
X148446519Y-142765389D01*
X147557381Y-142764613D01*
X146735628Y-143104155D01*
X146106364Y-143732321D01*
X145765389Y-144553481D01*
X145764613Y-145442619D01*
X131935050Y-145442619D01*
X131935248Y-145215813D01*
X131717243Y-144688200D01*
X131313923Y-144284176D01*
X130786691Y-144065250D01*
X130757066Y-144065224D01*
X131493546Y-143328744D01*
X131535638Y-143265749D01*
X131721255Y-143543545D01*
X132541422Y-144363712D01*
X132844758Y-144566394D01*
X133202567Y-144637567D01*
X134002839Y-144637567D01*
X134191665Y-144600007D01*
X134452839Y-144600007D01*
X134700604Y-144550724D01*
X134855891Y-144446963D01*
X135052235Y-144578157D01*
X135300000Y-144627440D01*
X136100000Y-144627440D01*
X136347765Y-144578157D01*
X136499047Y-144477073D01*
X136540302Y-144518327D01*
X136773691Y-144615000D01*
X137014250Y-144615000D01*
X137173000Y-144456250D01*
X137173000Y-143707000D01*
X137427000Y-143707000D01*
X137427000Y-144456250D01*
X137585750Y-144615000D01*
X137826309Y-144615000D01*
X138059698Y-144518327D01*
X138238327Y-144339699D01*
X138335000Y-144106310D01*
X138335000Y-143865750D01*
X138176250Y-143707000D01*
X137427000Y-143707000D01*
X137173000Y-143707000D01*
X137153000Y-143707000D01*
X137153000Y-143453000D01*
X137173000Y-143453000D01*
X137173000Y-143433000D01*
X137427000Y-143433000D01*
X137427000Y-143453000D01*
X138176250Y-143453000D01*
X138335000Y-143294250D01*
X138335000Y-143053690D01*
X138238648Y-142821075D01*
X138300996Y-142727765D01*
X138350279Y-142480000D01*
X138350279Y-141680000D01*
X138300996Y-141432235D01*
X138237839Y-141337715D01*
X138237839Y-140569294D01*
X138269073Y-140644699D01*
X138447702Y-140823327D01*
X138681091Y-140920000D01*
X139296650Y-140920000D01*
X139455400Y-140761250D01*
X139455400Y-140112000D01*
X139709400Y-140112000D01*
X139709400Y-140761250D01*
X139868150Y-140920000D01*
X140483709Y-140920000D01*
X140717098Y-140823327D01*
X140895727Y-140644699D01*
X140992400Y-140411310D01*
X140992400Y-140270750D01*
X140833650Y-140112000D01*
X139709400Y-140112000D01*
X139455400Y-140112000D01*
X139435400Y-140112000D01*
X139435400Y-139858000D01*
X139455400Y-139858000D01*
X139455400Y-139838000D01*
X139709400Y-139838000D01*
X139709400Y-139858000D01*
X140833650Y-139858000D01*
X140992400Y-139699250D01*
X140992400Y-139650000D01*
X144785000Y-139650000D01*
X145142809Y-139578827D01*
X145446145Y-139376145D01*
X146845400Y-137976890D01*
X147638524Y-137976890D01*
X147808355Y-138386924D01*
X148198642Y-138815183D01*
X148723108Y-139061486D01*
X148953000Y-138940819D01*
X148953000Y-137747000D01*
X149207000Y-137747000D01*
X149207000Y-138940819D01*
X149436892Y-139061486D01*
X149961358Y-138815183D01*
X150351645Y-138386924D01*
X150521476Y-137976890D01*
X150400155Y-137747000D01*
X149207000Y-137747000D01*
X148953000Y-137747000D01*
X147759845Y-137747000D01*
X147638524Y-137976890D01*
X146845400Y-137976890D01*
X147694623Y-137127667D01*
X147638524Y-137263110D01*
X147759845Y-137493000D01*
X148953000Y-137493000D01*
X148953000Y-137473000D01*
X149207000Y-137473000D01*
X149207000Y-137493000D01*
X150400155Y-137493000D01*
X150521476Y-137263110D01*
X150351645Y-136853076D01*
X149961358Y-136424817D01*
X149818447Y-136357702D01*
X150159147Y-136130054D01*
X150481054Y-135648285D01*
X150594093Y-135080000D01*
X150481054Y-134511715D01*
X150159147Y-134029946D01*
X149829974Y-133810000D01*
X150159147Y-133590054D01*
X150481054Y-133108285D01*
X150594093Y-132540000D01*
X150481054Y-131971715D01*
X150159147Y-131489946D01*
X150115223Y-131460597D01*
X150177765Y-131448157D01*
X150387809Y-131307809D01*
X150528157Y-131097765D01*
X150577440Y-130850000D01*
X150577440Y-130645297D01*
X150590543Y-130625687D01*
X150715000Y-130000000D01*
X150715000Y-127284185D01*
X150897485Y-127247887D01*
X151107529Y-127107539D01*
X151247877Y-126897495D01*
X151290000Y-126685726D01*
X151290000Y-148290000D01*
X100710000Y-148290000D01*
X100710000Y-145442619D01*
X101764613Y-145442619D01*
X102104155Y-146264372D01*
X102732321Y-146893636D01*
X103553481Y-147234611D01*
X104442619Y-147235387D01*
X105264372Y-146895845D01*
X105893636Y-146267679D01*
X106234611Y-145446519D01*
X106235387Y-144557381D01*
X105895845Y-143735628D01*
X105267679Y-143106364D01*
X104446519Y-142765389D01*
X103557381Y-142764613D01*
X102735628Y-143104155D01*
X102106364Y-143732321D01*
X101765389Y-144553481D01*
X101764613Y-145442619D01*
X100710000Y-145442619D01*
X100710000Y-131136007D01*
X100908361Y-131191135D01*
X101143000Y-131031491D01*
X101143000Y-129827000D01*
X101397000Y-129827000D01*
X101397000Y-131031491D01*
X101631639Y-131191135D01*
X102193774Y-131034907D01*
X102653333Y-130675451D01*
X102940352Y-130167491D01*
X102961476Y-130056890D01*
X102840155Y-129827000D01*
X101397000Y-129827000D01*
X101143000Y-129827000D01*
X101123000Y-129827000D01*
X101123000Y-129573000D01*
X101143000Y-129573000D01*
X101143000Y-129553000D01*
X101397000Y-129553000D01*
X101397000Y-129573000D01*
X102840155Y-129573000D01*
X102961476Y-129343110D01*
X102940352Y-129232509D01*
X102653333Y-128724549D01*
X102275888Y-128429321D01*
X102604045Y-128210054D01*
X102654194Y-128135000D01*
X104105394Y-128135000D01*
X104186077Y-128215824D01*
X104713309Y-128434750D01*
X105284187Y-128435248D01*
X105811800Y-128217243D01*
X106215824Y-127813923D01*
X106434750Y-127286691D01*
X106435248Y-126715813D01*
X106217243Y-126188200D01*
X105813923Y-125784176D01*
X105364213Y-125597440D01*
X105500000Y-125597440D01*
X105747765Y-125548157D01*
X105917115Y-125435000D01*
X107112710Y-125435000D01*
X107565000Y-125887290D01*
X107565000Y-125887290D01*
G37*
X107565000Y-125887290D02*
X107565000Y-145000000D01*
X107636173Y-145357809D01*
X107838855Y-145661145D01*
X109338855Y-147161145D01*
X109642191Y-147363827D01*
X110000000Y-147435000D01*
X129500000Y-147435000D01*
X129857809Y-147363827D01*
X130161145Y-147161145D01*
X130387388Y-146934902D01*
X130784187Y-146935248D01*
X131311800Y-146717243D01*
X131715824Y-146313923D01*
X131934750Y-145786691D01*
X131935050Y-145442619D01*
X145764613Y-145442619D01*
X146104155Y-146264372D01*
X146732321Y-146893636D01*
X147553481Y-147234611D01*
X148442619Y-147235387D01*
X149264372Y-146895845D01*
X149893636Y-146267679D01*
X150234611Y-145446519D01*
X150235387Y-144557381D01*
X149895845Y-143735628D01*
X149267679Y-143106364D01*
X148446519Y-142765389D01*
X147557381Y-142764613D01*
X146735628Y-143104155D01*
X146106364Y-143732321D01*
X145765389Y-144553481D01*
X145764613Y-145442619D01*
X131935050Y-145442619D01*
X131935248Y-145215813D01*
X131717243Y-144688200D01*
X131313923Y-144284176D01*
X130786691Y-144065250D01*
X130757066Y-144065224D01*
X131493546Y-143328744D01*
X131535638Y-143265749D01*
X131721255Y-143543545D01*
X132541422Y-144363712D01*
X132844758Y-144566394D01*
X133202567Y-144637567D01*
X134002839Y-144637567D01*
X134191665Y-144600007D01*
X134452839Y-144600007D01*
X134700604Y-144550724D01*
X134855891Y-144446963D01*
X135052235Y-144578157D01*
X135300000Y-144627440D01*
X136100000Y-144627440D01*
X136347765Y-144578157D01*
X136499047Y-144477073D01*
X136540302Y-144518327D01*
X136773691Y-144615000D01*
X137014250Y-144615000D01*
X137173000Y-144456250D01*
X137173000Y-143707000D01*
X137427000Y-143707000D01*
X137427000Y-144456250D01*
X137585750Y-144615000D01*
X137826309Y-144615000D01*
X138059698Y-144518327D01*
X138238327Y-144339699D01*
X138335000Y-144106310D01*
X138335000Y-143865750D01*
X138176250Y-143707000D01*
X137427000Y-143707000D01*
X137173000Y-143707000D01*
X137153000Y-143707000D01*
X137153000Y-143453000D01*
X137173000Y-143453000D01*
X137173000Y-143433000D01*
X137427000Y-143433000D01*
X137427000Y-143453000D01*
X138176250Y-143453000D01*
X138335000Y-143294250D01*
X138335000Y-143053690D01*
X138238648Y-142821075D01*
X138300996Y-142727765D01*
X138350279Y-142480000D01*
X138350279Y-141680000D01*
X138300996Y-141432235D01*
X138237839Y-141337715D01*
X138237839Y-140569294D01*
X138269073Y-140644699D01*
X138447702Y-140823327D01*
X138681091Y-140920000D01*
X139296650Y-140920000D01*
X139455400Y-140761250D01*
X139455400Y-140112000D01*
X139709400Y-140112000D01*
X139709400Y-140761250D01*
X139868150Y-140920000D01*
X140483709Y-140920000D01*
X140717098Y-140823327D01*
X140895727Y-140644699D01*
X140992400Y-140411310D01*
X140992400Y-140270750D01*
X140833650Y-140112000D01*
X139709400Y-140112000D01*
X139455400Y-140112000D01*
X139435400Y-140112000D01*
X139435400Y-139858000D01*
X139455400Y-139858000D01*
X139455400Y-139838000D01*
X139709400Y-139838000D01*
X139709400Y-139858000D01*
X140833650Y-139858000D01*
X140992400Y-139699250D01*
X140992400Y-139650000D01*
X144785000Y-139650000D01*
X145142809Y-139578827D01*
X145446145Y-139376145D01*
X146845400Y-137976890D01*
X147638524Y-137976890D01*
X147808355Y-138386924D01*
X148198642Y-138815183D01*
X148723108Y-139061486D01*
X148953000Y-138940819D01*
X148953000Y-137747000D01*
X149207000Y-137747000D01*
X149207000Y-138940819D01*
X149436892Y-139061486D01*
X149961358Y-138815183D01*
X150351645Y-138386924D01*
X150521476Y-137976890D01*
X150400155Y-137747000D01*
X149207000Y-137747000D01*
X148953000Y-137747000D01*
X147759845Y-137747000D01*
X147638524Y-137976890D01*
X146845400Y-137976890D01*
X147694623Y-137127667D01*
X147638524Y-137263110D01*
X147759845Y-137493000D01*
X148953000Y-137493000D01*
X148953000Y-137473000D01*
X149207000Y-137473000D01*
X149207000Y-137493000D01*
X150400155Y-137493000D01*
X150521476Y-137263110D01*
X150351645Y-136853076D01*
X149961358Y-136424817D01*
X149818447Y-136357702D01*
X150159147Y-136130054D01*
X150481054Y-135648285D01*
X150594093Y-135080000D01*
X150481054Y-134511715D01*
X150159147Y-134029946D01*
X149829974Y-133810000D01*
X150159147Y-133590054D01*
X150481054Y-133108285D01*
X150594093Y-132540000D01*
X150481054Y-131971715D01*
X150159147Y-131489946D01*
X150115223Y-131460597D01*
X150177765Y-131448157D01*
X150387809Y-131307809D01*
X150528157Y-131097765D01*
X150577440Y-130850000D01*
X150577440Y-130645297D01*
X150590543Y-130625687D01*
X150715000Y-130000000D01*
X150715000Y-127284185D01*
X150897485Y-127247887D01*
X151107529Y-127107539D01*
X151247877Y-126897495D01*
X151290000Y-126685726D01*
X151290000Y-148290000D01*
X100710000Y-148290000D01*
X100710000Y-145442619D01*
X101764613Y-145442619D01*
X102104155Y-146264372D01*
X102732321Y-146893636D01*
X103553481Y-147234611D01*
X104442619Y-147235387D01*
X105264372Y-146895845D01*
X105893636Y-146267679D01*
X106234611Y-145446519D01*
X106235387Y-144557381D01*
X105895845Y-143735628D01*
X105267679Y-143106364D01*
X104446519Y-142765389D01*
X103557381Y-142764613D01*
X102735628Y-143104155D01*
X102106364Y-143732321D01*
X101765389Y-144553481D01*
X101764613Y-145442619D01*
X100710000Y-145442619D01*
X100710000Y-131136007D01*
X100908361Y-131191135D01*
X101143000Y-131031491D01*
X101143000Y-129827000D01*
X101397000Y-129827000D01*
X101397000Y-131031491D01*
X101631639Y-131191135D01*
X102193774Y-131034907D01*
X102653333Y-130675451D01*
X102940352Y-130167491D01*
X102961476Y-130056890D01*
X102840155Y-129827000D01*
X101397000Y-129827000D01*
X101143000Y-129827000D01*
X101123000Y-129827000D01*
X101123000Y-129573000D01*
X101143000Y-129573000D01*
X101143000Y-129553000D01*
X101397000Y-129553000D01*
X101397000Y-129573000D01*
X102840155Y-129573000D01*
X102961476Y-129343110D01*
X102940352Y-129232509D01*
X102653333Y-128724549D01*
X102275888Y-128429321D01*
X102604045Y-128210054D01*
X102654194Y-128135000D01*
X104105394Y-128135000D01*
X104186077Y-128215824D01*
X104713309Y-128434750D01*
X105284187Y-128435248D01*
X105811800Y-128217243D01*
X106215824Y-127813923D01*
X106434750Y-127286691D01*
X106435248Y-126715813D01*
X106217243Y-126188200D01*
X105813923Y-125784176D01*
X105364213Y-125597440D01*
X105500000Y-125597440D01*
X105747765Y-125548157D01*
X105917115Y-125435000D01*
X107112710Y-125435000D01*
X107565000Y-125887290D01*
G36*
X122784960Y-137280000D02*
X122784960Y-137880000D01*
X122834243Y-138127765D01*
X122892532Y-138215000D01*
X122834243Y-138302235D01*
X122784960Y-138550000D01*
X122784960Y-139150000D01*
X122793463Y-139192746D01*
X122474589Y-139256174D01*
X122295040Y-139376145D01*
X122171254Y-139458856D01*
X121968572Y-139762192D01*
X121897399Y-140120001D01*
X121897399Y-142170001D01*
X121968572Y-142527810D01*
X122171254Y-142831146D01*
X122601221Y-143261113D01*
X122904557Y-143463795D01*
X123262366Y-143534968D01*
X124912121Y-143534968D01*
X124942101Y-143565000D01*
X118472030Y-143565000D01*
X118530847Y-143476975D01*
X118580130Y-143229210D01*
X118580130Y-138303360D01*
X119638490Y-137245000D01*
X122791922Y-137245000D01*
X122784960Y-137280000D01*
X122784960Y-137280000D01*
G37*
X122784960Y-137280000D02*
X122784960Y-137880000D01*
X122834243Y-138127765D01*
X122892532Y-138215000D01*
X122834243Y-138302235D01*
X122784960Y-138550000D01*
X122784960Y-139150000D01*
X122793463Y-139192746D01*
X122474589Y-139256174D01*
X122295040Y-139376145D01*
X122171254Y-139458856D01*
X121968572Y-139762192D01*
X121897399Y-140120001D01*
X121897399Y-142170001D01*
X121968572Y-142527810D01*
X122171254Y-142831146D01*
X122601221Y-143261113D01*
X122904557Y-143463795D01*
X123262366Y-143534968D01*
X124912121Y-143534968D01*
X124942101Y-143565000D01*
X118472030Y-143565000D01*
X118530847Y-143476975D01*
X118580130Y-143229210D01*
X118580130Y-138303360D01*
X119638490Y-137245000D01*
X122791922Y-137245000D01*
X122784960Y-137280000D01*
G36*
X115365000Y-101714250D02*
X115523750Y-101873000D01*
X116873000Y-101873000D01*
X116873000Y-101853000D01*
X117127000Y-101853000D01*
X117127000Y-101873000D01*
X118476250Y-101873000D01*
X118635000Y-101714250D01*
X118635000Y-100710000D01*
X119360516Y-100710000D01*
X119352560Y-100750000D01*
X119352560Y-103250000D01*
X119401843Y-103497765D01*
X119542191Y-103707809D01*
X119655000Y-103783186D01*
X119655000Y-104487459D01*
X119642560Y-104550000D01*
X119642560Y-108050000D01*
X119691843Y-108297765D01*
X119832191Y-108507809D01*
X120042235Y-108648157D01*
X120290000Y-108697440D01*
X121473728Y-108697440D01*
X122328849Y-109552560D01*
X115490000Y-109552560D01*
X115242235Y-109601843D01*
X115097440Y-109698593D01*
X115097440Y-109400000D01*
X115048157Y-109152235D01*
X115035000Y-109132544D01*
X115035000Y-109110137D01*
X115306077Y-109056215D01*
X115641856Y-108831856D01*
X115776272Y-108697440D01*
X117710000Y-108697440D01*
X117957765Y-108648157D01*
X118167809Y-108507809D01*
X118308157Y-108297765D01*
X118357440Y-108050000D01*
X118357440Y-104550000D01*
X118308157Y-104302235D01*
X118167809Y-104092191D01*
X117957765Y-103951843D01*
X117710000Y-103902560D01*
X115710000Y-103902560D01*
X115462235Y-103951843D01*
X115252191Y-104092191D01*
X115111843Y-104302235D01*
X115062560Y-104550000D01*
X115062560Y-105119516D01*
X114988327Y-104940302D01*
X114809699Y-104761673D01*
X114576310Y-104665000D01*
X114285750Y-104665000D01*
X114127000Y-104823750D01*
X114127000Y-105773000D01*
X114147000Y-105773000D01*
X114147000Y-106027000D01*
X114127000Y-106027000D01*
X114127000Y-106047000D01*
X113873000Y-106047000D01*
X113873000Y-106027000D01*
X113073750Y-106027000D01*
X112915000Y-106185750D01*
X112915000Y-106626309D01*
X113011673Y-106859698D01*
X113153320Y-107001346D01*
X113092191Y-107042191D01*
X112951843Y-107252235D01*
X112918399Y-107420373D01*
X112759699Y-107261673D01*
X112526310Y-107165000D01*
X112285750Y-107165000D01*
X112127000Y-107323750D01*
X112127000Y-108073000D01*
X112147000Y-108073000D01*
X112147000Y-108327000D01*
X112127000Y-108327000D01*
X112127000Y-108347000D01*
X111873000Y-108347000D01*
X111873000Y-108327000D01*
X111123750Y-108327000D01*
X110965000Y-108485750D01*
X110965000Y-108726309D01*
X111061673Y-108959698D01*
X111102927Y-109000953D01*
X111001843Y-109152235D01*
X110952560Y-109400000D01*
X110952560Y-110200000D01*
X110965000Y-110262541D01*
X110965000Y-110732544D01*
X110951843Y-110752235D01*
X110902560Y-111000000D01*
X110902560Y-111500000D01*
X110951843Y-111747765D01*
X111092191Y-111957809D01*
X111155334Y-112000000D01*
X111092191Y-112042191D01*
X110951843Y-112252235D01*
X110902560Y-112500000D01*
X110902560Y-113000000D01*
X110951843Y-113247765D01*
X111092191Y-113457809D01*
X111302235Y-113598157D01*
X111550000Y-113647440D01*
X111811174Y-113647440D01*
X112000000Y-113685000D01*
X113450000Y-113685000D01*
X113807809Y-113613827D01*
X114056826Y-113447440D01*
X114450000Y-113447440D01*
X114697765Y-113398157D01*
X114842560Y-113301407D01*
X114842560Y-114052308D01*
X113529868Y-115365000D01*
X105894606Y-115365000D01*
X105813923Y-115284176D01*
X105286691Y-115065250D01*
X104715813Y-115064752D01*
X104188200Y-115282757D01*
X103784176Y-115686077D01*
X103565250Y-116213309D01*
X103564752Y-116784187D01*
X103782757Y-117311800D01*
X104186077Y-117715824D01*
X104713309Y-117934750D01*
X105284187Y-117935248D01*
X105811800Y-117717243D01*
X105894187Y-117635000D01*
X114000000Y-117635000D01*
X114434346Y-117548603D01*
X114802566Y-117302566D01*
X114852941Y-117252191D01*
X114891843Y-117447765D01*
X115032191Y-117657809D01*
X115242235Y-117798157D01*
X115490000Y-117847440D01*
X117613015Y-117847440D01*
X117602560Y-117900000D01*
X117602560Y-119100000D01*
X117651843Y-119347765D01*
X117665000Y-119367456D01*
X117665000Y-120248634D01*
X117615000Y-120500000D01*
X117615000Y-124722600D01*
X117701397Y-125156946D01*
X117878879Y-125422566D01*
X117947434Y-125525166D01*
X121407977Y-128985709D01*
X121400543Y-128993143D01*
X121176184Y-129328922D01*
X121097398Y-129724999D01*
X121097399Y-129725004D01*
X121097399Y-131329994D01*
X121097398Y-131329999D01*
X121176184Y-131726076D01*
X121400543Y-132061855D01*
X121857011Y-132518323D01*
X121926185Y-132866077D01*
X122150544Y-133201856D01*
X122784960Y-133836272D01*
X122784960Y-134070000D01*
X122791922Y-134105000D01*
X119828490Y-134105000D01*
X118580130Y-132856640D01*
X118580130Y-127930790D01*
X118530847Y-127683025D01*
X118390499Y-127472981D01*
X118180455Y-127332633D01*
X117932690Y-127283350D01*
X115832110Y-127283350D01*
X115584345Y-127332633D01*
X115374301Y-127472981D01*
X115283408Y-127609010D01*
X115280165Y-127606843D01*
X115032400Y-127557560D01*
X114232400Y-127557560D01*
X113984635Y-127606843D01*
X113893298Y-127667873D01*
X113892098Y-127666673D01*
X113658709Y-127570000D01*
X113418150Y-127570000D01*
X113259400Y-127728750D01*
X113259400Y-128453000D01*
X113279400Y-128453000D01*
X113279400Y-128707000D01*
X113259400Y-128707000D01*
X113259400Y-129431250D01*
X113418150Y-129590000D01*
X113658709Y-129590000D01*
X113892098Y-129493327D01*
X113893298Y-129492127D01*
X113984635Y-129553157D01*
X114232400Y-129602440D01*
X114431410Y-129602440D01*
X115184670Y-130355700D01*
X115184670Y-133531490D01*
X115233953Y-133779255D01*
X115374301Y-133989299D01*
X115584345Y-134129647D01*
X115832110Y-134178930D01*
X117257840Y-134178930D01*
X118672606Y-135593696D01*
X118590055Y-135648855D01*
X117257840Y-136981070D01*
X115832110Y-136981070D01*
X115584345Y-137030353D01*
X115374301Y-137170701D01*
X115233953Y-137380745D01*
X115184670Y-137628510D01*
X115184670Y-140804300D01*
X114431410Y-141557560D01*
X113982400Y-141557560D01*
X113734635Y-141606843D01*
X113643298Y-141667873D01*
X113642098Y-141666673D01*
X113408709Y-141570000D01*
X113168150Y-141570000D01*
X113009400Y-141728750D01*
X113009400Y-142453000D01*
X113029400Y-142453000D01*
X113029400Y-142707000D01*
X113009400Y-142707000D01*
X113009400Y-142727000D01*
X112755400Y-142727000D01*
X112755400Y-142707000D01*
X112006150Y-142707000D01*
X111847400Y-142865750D01*
X111847400Y-143081310D01*
X111944073Y-143314699D01*
X112122702Y-143493327D01*
X112295736Y-143565000D01*
X111435000Y-143565000D01*
X111435000Y-142078690D01*
X111847400Y-142078690D01*
X111847400Y-142294250D01*
X112006150Y-142453000D01*
X112755400Y-142453000D01*
X112755400Y-141728750D01*
X112596650Y-141570000D01*
X112356091Y-141570000D01*
X112122702Y-141666673D01*
X111944073Y-141845301D01*
X111847400Y-142078690D01*
X111435000Y-142078690D01*
X111435000Y-128865750D01*
X112097400Y-128865750D01*
X112097400Y-129081310D01*
X112194073Y-129314699D01*
X112372702Y-129493327D01*
X112606091Y-129590000D01*
X112846650Y-129590000D01*
X113005400Y-129431250D01*
X113005400Y-128707000D01*
X112256150Y-128707000D01*
X112097400Y-128865750D01*
X111435000Y-128865750D01*
X111435000Y-128078690D01*
X112097400Y-128078690D01*
X112097400Y-128294250D01*
X112256150Y-128453000D01*
X113005400Y-128453000D01*
X113005400Y-127728750D01*
X112846650Y-127570000D01*
X112606091Y-127570000D01*
X112372702Y-127666673D01*
X112194073Y-127845301D01*
X112097400Y-128078690D01*
X111435000Y-128078690D01*
X111435000Y-122500000D01*
X111363827Y-122142191D01*
X111161145Y-121838855D01*
X108161145Y-118838855D01*
X107857809Y-118636173D01*
X107500000Y-118565000D01*
X105917115Y-118565000D01*
X105747765Y-118451843D01*
X105500000Y-118402560D01*
X105000000Y-118402560D01*
X104752235Y-118451843D01*
X104542191Y-118592191D01*
X104500000Y-118655334D01*
X104457809Y-118592191D01*
X104247765Y-118451843D01*
X104000000Y-118402560D01*
X103500000Y-118402560D01*
X103252235Y-118451843D01*
X103232544Y-118465000D01*
X102566711Y-118465000D01*
X102558247Y-118459345D01*
X102729698Y-118388327D01*
X102908327Y-118209699D01*
X103005000Y-117976310D01*
X103005000Y-117285750D01*
X102846250Y-117127000D01*
X101397000Y-117127000D01*
X101397000Y-117147000D01*
X101143000Y-117147000D01*
X101143000Y-117127000D01*
X101123000Y-117127000D01*
X101123000Y-116873000D01*
X101143000Y-116873000D01*
X101143000Y-115673750D01*
X101397000Y-115673750D01*
X101397000Y-116873000D01*
X102846250Y-116873000D01*
X103005000Y-116714250D01*
X103005000Y-116023690D01*
X102908327Y-115790301D01*
X102729698Y-115611673D01*
X102496309Y-115515000D01*
X101555750Y-115515000D01*
X101397000Y-115673750D01*
X101143000Y-115673750D01*
X100984250Y-115515000D01*
X100710000Y-115515000D01*
X100710000Y-107673691D01*
X110965000Y-107673691D01*
X110965000Y-107914250D01*
X111123750Y-108073000D01*
X111873000Y-108073000D01*
X111873000Y-107323750D01*
X111714250Y-107165000D01*
X111473690Y-107165000D01*
X111240301Y-107261673D01*
X111061673Y-107440302D01*
X110965000Y-107673691D01*
X100710000Y-107673691D01*
X100710000Y-104442619D01*
X101764613Y-104442619D01*
X102104155Y-105264372D01*
X102732321Y-105893636D01*
X103553481Y-106234611D01*
X104442619Y-106235387D01*
X105264372Y-105895845D01*
X105893636Y-105267679D01*
X105932663Y-105173691D01*
X112915000Y-105173691D01*
X112915000Y-105614250D01*
X113073750Y-105773000D01*
X113873000Y-105773000D01*
X113873000Y-104823750D01*
X113714250Y-104665000D01*
X113423690Y-104665000D01*
X113190301Y-104761673D01*
X113011673Y-104940302D01*
X112915000Y-105173691D01*
X105932663Y-105173691D01*
X106234611Y-104446519D01*
X106235387Y-103557381D01*
X105895845Y-102735628D01*
X105446752Y-102285750D01*
X115365000Y-102285750D01*
X115365000Y-103376310D01*
X115461673Y-103609699D01*
X115640302Y-103788327D01*
X115873691Y-103885000D01*
X116714250Y-103885000D01*
X116873000Y-103726250D01*
X116873000Y-102127000D01*
X117127000Y-102127000D01*
X117127000Y-103726250D01*
X117285750Y-103885000D01*
X118126309Y-103885000D01*
X118359698Y-103788327D01*
X118538327Y-103609699D01*
X118635000Y-103376310D01*
X118635000Y-102285750D01*
X118476250Y-102127000D01*
X117127000Y-102127000D01*
X116873000Y-102127000D01*
X115523750Y-102127000D01*
X115365000Y-102285750D01*
X105446752Y-102285750D01*
X105267679Y-102106364D01*
X104446519Y-101765389D01*
X103557381Y-101764613D01*
X102735628Y-102104155D01*
X102106364Y-102732321D01*
X101765389Y-103553481D01*
X101764613Y-104442619D01*
X100710000Y-104442619D01*
X100710000Y-100710000D01*
X115365000Y-100710000D01*
X115365000Y-101714250D01*
X115365000Y-101714250D01*
G37*
X115365000Y-101714250D02*
X115523750Y-101873000D01*
X116873000Y-101873000D01*
X116873000Y-101853000D01*
X117127000Y-101853000D01*
X117127000Y-101873000D01*
X118476250Y-101873000D01*
X118635000Y-101714250D01*
X118635000Y-100710000D01*
X119360516Y-100710000D01*
X119352560Y-100750000D01*
X119352560Y-103250000D01*
X119401843Y-103497765D01*
X119542191Y-103707809D01*
X119655000Y-103783186D01*
X119655000Y-104487459D01*
X119642560Y-104550000D01*
X119642560Y-108050000D01*
X119691843Y-108297765D01*
X119832191Y-108507809D01*
X120042235Y-108648157D01*
X120290000Y-108697440D01*
X121473728Y-108697440D01*
X122328849Y-109552560D01*
X115490000Y-109552560D01*
X115242235Y-109601843D01*
X115097440Y-109698593D01*
X115097440Y-109400000D01*
X115048157Y-109152235D01*
X115035000Y-109132544D01*
X115035000Y-109110137D01*
X115306077Y-109056215D01*
X115641856Y-108831856D01*
X115776272Y-108697440D01*
X117710000Y-108697440D01*
X117957765Y-108648157D01*
X118167809Y-108507809D01*
X118308157Y-108297765D01*
X118357440Y-108050000D01*
X118357440Y-104550000D01*
X118308157Y-104302235D01*
X118167809Y-104092191D01*
X117957765Y-103951843D01*
X117710000Y-103902560D01*
X115710000Y-103902560D01*
X115462235Y-103951843D01*
X115252191Y-104092191D01*
X115111843Y-104302235D01*
X115062560Y-104550000D01*
X115062560Y-105119516D01*
X114988327Y-104940302D01*
X114809699Y-104761673D01*
X114576310Y-104665000D01*
X114285750Y-104665000D01*
X114127000Y-104823750D01*
X114127000Y-105773000D01*
X114147000Y-105773000D01*
X114147000Y-106027000D01*
X114127000Y-106027000D01*
X114127000Y-106047000D01*
X113873000Y-106047000D01*
X113873000Y-106027000D01*
X113073750Y-106027000D01*
X112915000Y-106185750D01*
X112915000Y-106626309D01*
X113011673Y-106859698D01*
X113153320Y-107001346D01*
X113092191Y-107042191D01*
X112951843Y-107252235D01*
X112918399Y-107420373D01*
X112759699Y-107261673D01*
X112526310Y-107165000D01*
X112285750Y-107165000D01*
X112127000Y-107323750D01*
X112127000Y-108073000D01*
X112147000Y-108073000D01*
X112147000Y-108327000D01*
X112127000Y-108327000D01*
X112127000Y-108347000D01*
X111873000Y-108347000D01*
X111873000Y-108327000D01*
X111123750Y-108327000D01*
X110965000Y-108485750D01*
X110965000Y-108726309D01*
X111061673Y-108959698D01*
X111102927Y-109000953D01*
X111001843Y-109152235D01*
X110952560Y-109400000D01*
X110952560Y-110200000D01*
X110965000Y-110262541D01*
X110965000Y-110732544D01*
X110951843Y-110752235D01*
X110902560Y-111000000D01*
X110902560Y-111500000D01*
X110951843Y-111747765D01*
X111092191Y-111957809D01*
X111155334Y-112000000D01*
X111092191Y-112042191D01*
X110951843Y-112252235D01*
X110902560Y-112500000D01*
X110902560Y-113000000D01*
X110951843Y-113247765D01*
X111092191Y-113457809D01*
X111302235Y-113598157D01*
X111550000Y-113647440D01*
X111811174Y-113647440D01*
X112000000Y-113685000D01*
X113450000Y-113685000D01*
X113807809Y-113613827D01*
X114056826Y-113447440D01*
X114450000Y-113447440D01*
X114697765Y-113398157D01*
X114842560Y-113301407D01*
X114842560Y-114052308D01*
X113529868Y-115365000D01*
X105894606Y-115365000D01*
X105813923Y-115284176D01*
X105286691Y-115065250D01*
X104715813Y-115064752D01*
X104188200Y-115282757D01*
X103784176Y-115686077D01*
X103565250Y-116213309D01*
X103564752Y-116784187D01*
X103782757Y-117311800D01*
X104186077Y-117715824D01*
X104713309Y-117934750D01*
X105284187Y-117935248D01*
X105811800Y-117717243D01*
X105894187Y-117635000D01*
X114000000Y-117635000D01*
X114434346Y-117548603D01*
X114802566Y-117302566D01*
X114852941Y-117252191D01*
X114891843Y-117447765D01*
X115032191Y-117657809D01*
X115242235Y-117798157D01*
X115490000Y-117847440D01*
X117613015Y-117847440D01*
X117602560Y-117900000D01*
X117602560Y-119100000D01*
X117651843Y-119347765D01*
X117665000Y-119367456D01*
X117665000Y-120248634D01*
X117615000Y-120500000D01*
X117615000Y-124722600D01*
X117701397Y-125156946D01*
X117878879Y-125422566D01*
X117947434Y-125525166D01*
X121407977Y-128985709D01*
X121400543Y-128993143D01*
X121176184Y-129328922D01*
X121097398Y-129724999D01*
X121097399Y-129725004D01*
X121097399Y-131329994D01*
X121097398Y-131329999D01*
X121176184Y-131726076D01*
X121400543Y-132061855D01*
X121857011Y-132518323D01*
X121926185Y-132866077D01*
X122150544Y-133201856D01*
X122784960Y-133836272D01*
X122784960Y-134070000D01*
X122791922Y-134105000D01*
X119828490Y-134105000D01*
X118580130Y-132856640D01*
X118580130Y-127930790D01*
X118530847Y-127683025D01*
X118390499Y-127472981D01*
X118180455Y-127332633D01*
X117932690Y-127283350D01*
X115832110Y-127283350D01*
X115584345Y-127332633D01*
X115374301Y-127472981D01*
X115283408Y-127609010D01*
X115280165Y-127606843D01*
X115032400Y-127557560D01*
X114232400Y-127557560D01*
X113984635Y-127606843D01*
X113893298Y-127667873D01*
X113892098Y-127666673D01*
X113658709Y-127570000D01*
X113418150Y-127570000D01*
X113259400Y-127728750D01*
X113259400Y-128453000D01*
X113279400Y-128453000D01*
X113279400Y-128707000D01*
X113259400Y-128707000D01*
X113259400Y-129431250D01*
X113418150Y-129590000D01*
X113658709Y-129590000D01*
X113892098Y-129493327D01*
X113893298Y-129492127D01*
X113984635Y-129553157D01*
X114232400Y-129602440D01*
X114431410Y-129602440D01*
X115184670Y-130355700D01*
X115184670Y-133531490D01*
X115233953Y-133779255D01*
X115374301Y-133989299D01*
X115584345Y-134129647D01*
X115832110Y-134178930D01*
X117257840Y-134178930D01*
X118672606Y-135593696D01*
X118590055Y-135648855D01*
X117257840Y-136981070D01*
X115832110Y-136981070D01*
X115584345Y-137030353D01*
X115374301Y-137170701D01*
X115233953Y-137380745D01*
X115184670Y-137628510D01*
X115184670Y-140804300D01*
X114431410Y-141557560D01*
X113982400Y-141557560D01*
X113734635Y-141606843D01*
X113643298Y-141667873D01*
X113642098Y-141666673D01*
X113408709Y-141570000D01*
X113168150Y-141570000D01*
X113009400Y-141728750D01*
X113009400Y-142453000D01*
X113029400Y-142453000D01*
X113029400Y-142707000D01*
X113009400Y-142707000D01*
X113009400Y-142727000D01*
X112755400Y-142727000D01*
X112755400Y-142707000D01*
X112006150Y-142707000D01*
X111847400Y-142865750D01*
X111847400Y-143081310D01*
X111944073Y-143314699D01*
X112122702Y-143493327D01*
X112295736Y-143565000D01*
X111435000Y-143565000D01*
X111435000Y-142078690D01*
X111847400Y-142078690D01*
X111847400Y-142294250D01*
X112006150Y-142453000D01*
X112755400Y-142453000D01*
X112755400Y-141728750D01*
X112596650Y-141570000D01*
X112356091Y-141570000D01*
X112122702Y-141666673D01*
X111944073Y-141845301D01*
X111847400Y-142078690D01*
X111435000Y-142078690D01*
X111435000Y-128865750D01*
X112097400Y-128865750D01*
X112097400Y-129081310D01*
X112194073Y-129314699D01*
X112372702Y-129493327D01*
X112606091Y-129590000D01*
X112846650Y-129590000D01*
X113005400Y-129431250D01*
X113005400Y-128707000D01*
X112256150Y-128707000D01*
X112097400Y-128865750D01*
X111435000Y-128865750D01*
X111435000Y-128078690D01*
X112097400Y-128078690D01*
X112097400Y-128294250D01*
X112256150Y-128453000D01*
X113005400Y-128453000D01*
X113005400Y-127728750D01*
X112846650Y-127570000D01*
X112606091Y-127570000D01*
X112372702Y-127666673D01*
X112194073Y-127845301D01*
X112097400Y-128078690D01*
X111435000Y-128078690D01*
X111435000Y-122500000D01*
X111363827Y-122142191D01*
X111161145Y-121838855D01*
X108161145Y-118838855D01*
X107857809Y-118636173D01*
X107500000Y-118565000D01*
X105917115Y-118565000D01*
X105747765Y-118451843D01*
X105500000Y-118402560D01*
X105000000Y-118402560D01*
X104752235Y-118451843D01*
X104542191Y-118592191D01*
X104500000Y-118655334D01*
X104457809Y-118592191D01*
X104247765Y-118451843D01*
X104000000Y-118402560D01*
X103500000Y-118402560D01*
X103252235Y-118451843D01*
X103232544Y-118465000D01*
X102566711Y-118465000D01*
X102558247Y-118459345D01*
X102729698Y-118388327D01*
X102908327Y-118209699D01*
X103005000Y-117976310D01*
X103005000Y-117285750D01*
X102846250Y-117127000D01*
X101397000Y-117127000D01*
X101397000Y-117147000D01*
X101143000Y-117147000D01*
X101143000Y-117127000D01*
X101123000Y-117127000D01*
X101123000Y-116873000D01*
X101143000Y-116873000D01*
X101143000Y-115673750D01*
X101397000Y-115673750D01*
X101397000Y-116873000D01*
X102846250Y-116873000D01*
X103005000Y-116714250D01*
X103005000Y-116023690D01*
X102908327Y-115790301D01*
X102729698Y-115611673D01*
X102496309Y-115515000D01*
X101555750Y-115515000D01*
X101397000Y-115673750D01*
X101143000Y-115673750D01*
X100984250Y-115515000D01*
X100710000Y-115515000D01*
X100710000Y-107673691D01*
X110965000Y-107673691D01*
X110965000Y-107914250D01*
X111123750Y-108073000D01*
X111873000Y-108073000D01*
X111873000Y-107323750D01*
X111714250Y-107165000D01*
X111473690Y-107165000D01*
X111240301Y-107261673D01*
X111061673Y-107440302D01*
X110965000Y-107673691D01*
X100710000Y-107673691D01*
X100710000Y-104442619D01*
X101764613Y-104442619D01*
X102104155Y-105264372D01*
X102732321Y-105893636D01*
X103553481Y-106234611D01*
X104442619Y-106235387D01*
X105264372Y-105895845D01*
X105893636Y-105267679D01*
X105932663Y-105173691D01*
X112915000Y-105173691D01*
X112915000Y-105614250D01*
X113073750Y-105773000D01*
X113873000Y-105773000D01*
X113873000Y-104823750D01*
X113714250Y-104665000D01*
X113423690Y-104665000D01*
X113190301Y-104761673D01*
X113011673Y-104940302D01*
X112915000Y-105173691D01*
X105932663Y-105173691D01*
X106234611Y-104446519D01*
X106235387Y-103557381D01*
X105895845Y-102735628D01*
X105446752Y-102285750D01*
X115365000Y-102285750D01*
X115365000Y-103376310D01*
X115461673Y-103609699D01*
X115640302Y-103788327D01*
X115873691Y-103885000D01*
X116714250Y-103885000D01*
X116873000Y-103726250D01*
X116873000Y-102127000D01*
X117127000Y-102127000D01*
X117127000Y-103726250D01*
X117285750Y-103885000D01*
X118126309Y-103885000D01*
X118359698Y-103788327D01*
X118538327Y-103609699D01*
X118635000Y-103376310D01*
X118635000Y-102285750D01*
X118476250Y-102127000D01*
X117127000Y-102127000D01*
X116873000Y-102127000D01*
X115523750Y-102127000D01*
X115365000Y-102285750D01*
X105446752Y-102285750D01*
X105267679Y-102106364D01*
X104446519Y-101765389D01*
X103557381Y-101764613D01*
X102735628Y-102104155D01*
X102106364Y-102732321D01*
X101765389Y-103553481D01*
X101764613Y-104442619D01*
X100710000Y-104442619D01*
X100710000Y-100710000D01*
X115365000Y-100710000D01*
X115365000Y-101714250D01*
G36*
X138516200Y-131358932D02*
X138516200Y-133570000D01*
X138436950Y-133570000D01*
X138278200Y-133728750D01*
X138278200Y-134453000D01*
X138298200Y-134453000D01*
X138298200Y-134707000D01*
X138278200Y-134707000D01*
X138278200Y-134727000D01*
X138024200Y-134727000D01*
X138024200Y-134707000D01*
X137274950Y-134707000D01*
X137116200Y-134865750D01*
X137116200Y-135081310D01*
X137212873Y-135314699D01*
X137391502Y-135493327D01*
X137515444Y-135544666D01*
X136641694Y-136418416D01*
X136439012Y-136721752D01*
X136392401Y-136956080D01*
X136392401Y-135474999D01*
X136321228Y-135117190D01*
X136118546Y-134813854D01*
X136118543Y-134813852D01*
X135683547Y-134378855D01*
X135380211Y-134176173D01*
X135022402Y-134105000D01*
X130967400Y-134105000D01*
X130967400Y-134078690D01*
X137116200Y-134078690D01*
X137116200Y-134294250D01*
X137274950Y-134453000D01*
X138024200Y-134453000D01*
X138024200Y-133728750D01*
X137865450Y-133570000D01*
X137624891Y-133570000D01*
X137391502Y-133666673D01*
X137212873Y-133845301D01*
X137116200Y-134078690D01*
X130967400Y-134078690D01*
X130967400Y-134055750D01*
X130808650Y-133897000D01*
X129709400Y-133897000D01*
X129709400Y-133917000D01*
X129455400Y-133917000D01*
X129455400Y-133897000D01*
X129435400Y-133897000D01*
X129435400Y-133643000D01*
X129455400Y-133643000D01*
X129455400Y-133623000D01*
X129709400Y-133623000D01*
X129709400Y-133643000D01*
X130808650Y-133643000D01*
X130967400Y-133484250D01*
X130967400Y-133461471D01*
X131095709Y-133514750D01*
X131666587Y-133515248D01*
X132194200Y-133297243D01*
X132598224Y-132893923D01*
X132817150Y-132366691D01*
X132817648Y-131795813D01*
X132599643Y-131268200D01*
X132196323Y-130864176D01*
X131921524Y-130750069D01*
X131921547Y-130750054D01*
X132110745Y-130466899D01*
X132110755Y-130466924D01*
X132501042Y-130895183D01*
X133025508Y-131141486D01*
X133255400Y-131020819D01*
X133255400Y-129827000D01*
X133509400Y-129827000D01*
X133509400Y-131020819D01*
X133739292Y-131141486D01*
X134263758Y-130895183D01*
X134654045Y-130466924D01*
X134823876Y-130056890D01*
X134702555Y-129827000D01*
X133509400Y-129827000D01*
X133255400Y-129827000D01*
X133235400Y-129827000D01*
X133235400Y-129573000D01*
X133255400Y-129573000D01*
X133255400Y-129553000D01*
X133509400Y-129553000D01*
X133509400Y-129573000D01*
X134702555Y-129573000D01*
X134823876Y-129343110D01*
X134654045Y-128933076D01*
X134263758Y-128504817D01*
X134120847Y-128437702D01*
X134461547Y-128210054D01*
X134783454Y-127728285D01*
X134800393Y-127643125D01*
X138516200Y-131358932D01*
X138516200Y-131358932D01*
G37*
X138516200Y-131358932D02*
X138516200Y-133570000D01*
X138436950Y-133570000D01*
X138278200Y-133728750D01*
X138278200Y-134453000D01*
X138298200Y-134453000D01*
X138298200Y-134707000D01*
X138278200Y-134707000D01*
X138278200Y-134727000D01*
X138024200Y-134727000D01*
X138024200Y-134707000D01*
X137274950Y-134707000D01*
X137116200Y-134865750D01*
X137116200Y-135081310D01*
X137212873Y-135314699D01*
X137391502Y-135493327D01*
X137515444Y-135544666D01*
X136641694Y-136418416D01*
X136439012Y-136721752D01*
X136392401Y-136956080D01*
X136392401Y-135474999D01*
X136321228Y-135117190D01*
X136118546Y-134813854D01*
X136118543Y-134813852D01*
X135683547Y-134378855D01*
X135380211Y-134176173D01*
X135022402Y-134105000D01*
X130967400Y-134105000D01*
X130967400Y-134078690D01*
X137116200Y-134078690D01*
X137116200Y-134294250D01*
X137274950Y-134453000D01*
X138024200Y-134453000D01*
X138024200Y-133728750D01*
X137865450Y-133570000D01*
X137624891Y-133570000D01*
X137391502Y-133666673D01*
X137212873Y-133845301D01*
X137116200Y-134078690D01*
X130967400Y-134078690D01*
X130967400Y-134055750D01*
X130808650Y-133897000D01*
X129709400Y-133897000D01*
X129709400Y-133917000D01*
X129455400Y-133917000D01*
X129455400Y-133897000D01*
X129435400Y-133897000D01*
X129435400Y-133643000D01*
X129455400Y-133643000D01*
X129455400Y-133623000D01*
X129709400Y-133623000D01*
X129709400Y-133643000D01*
X130808650Y-133643000D01*
X130967400Y-133484250D01*
X130967400Y-133461471D01*
X131095709Y-133514750D01*
X131666587Y-133515248D01*
X132194200Y-133297243D01*
X132598224Y-132893923D01*
X132817150Y-132366691D01*
X132817648Y-131795813D01*
X132599643Y-131268200D01*
X132196323Y-130864176D01*
X131921524Y-130750069D01*
X131921547Y-130750054D01*
X132110745Y-130466899D01*
X132110755Y-130466924D01*
X132501042Y-130895183D01*
X133025508Y-131141486D01*
X133255400Y-131020819D01*
X133255400Y-129827000D01*
X133509400Y-129827000D01*
X133509400Y-131020819D01*
X133739292Y-131141486D01*
X134263758Y-130895183D01*
X134654045Y-130466924D01*
X134823876Y-130056890D01*
X134702555Y-129827000D01*
X133509400Y-129827000D01*
X133255400Y-129827000D01*
X133235400Y-129827000D01*
X133235400Y-129573000D01*
X133255400Y-129573000D01*
X133255400Y-129553000D01*
X133509400Y-129553000D01*
X133509400Y-129573000D01*
X134702555Y-129573000D01*
X134823876Y-129343110D01*
X134654045Y-128933076D01*
X134263758Y-128504817D01*
X134120847Y-128437702D01*
X134461547Y-128210054D01*
X134783454Y-127728285D01*
X134800393Y-127643125D01*
X138516200Y-131358932D01*
G36*
X124745995Y-103746136D02*
X124671861Y-103992255D01*
X125500000Y-104820395D01*
X125514142Y-104806252D01*
X125693748Y-104985858D01*
X125679605Y-105000000D01*
X126507745Y-105828139D01*
X126753864Y-105754005D01*
X126935747Y-105247986D01*
X127568650Y-105880889D01*
X127601843Y-106047765D01*
X127742191Y-106257809D01*
X127952235Y-106398157D01*
X128200000Y-106447440D01*
X128279872Y-106447440D01*
X128374313Y-106510543D01*
X129000000Y-106635001D01*
X129000005Y-106635000D01*
X131572560Y-106635000D01*
X131572560Y-108100000D01*
X131621843Y-108347765D01*
X131762191Y-108557809D01*
X131972235Y-108698157D01*
X132220000Y-108747440D01*
X134685000Y-108747440D01*
X134685000Y-109663359D01*
X134667765Y-109651843D01*
X134420000Y-109602560D01*
X132420000Y-109602560D01*
X132172235Y-109651843D01*
X131962191Y-109792191D01*
X131821843Y-110002235D01*
X131772560Y-110250000D01*
X131772560Y-113750000D01*
X131821843Y-113997765D01*
X131908633Y-114127655D01*
X131904858Y-114131430D01*
X131802235Y-114151843D01*
X131592191Y-114292191D01*
X131451843Y-114502235D01*
X131402560Y-114750000D01*
X131402560Y-115250000D01*
X131451843Y-115497765D01*
X131592191Y-115707809D01*
X131653320Y-115748654D01*
X131511673Y-115890302D01*
X131415000Y-116123691D01*
X131415000Y-116216250D01*
X131573750Y-116375000D01*
X132373000Y-116375000D01*
X132373000Y-116353000D01*
X132627000Y-116353000D01*
X132627000Y-116375000D01*
X132647000Y-116375000D01*
X132647000Y-116625000D01*
X132627000Y-116625000D01*
X132627000Y-117226250D01*
X132785750Y-117385000D01*
X133076310Y-117385000D01*
X133309699Y-117288327D01*
X133312275Y-117285750D01*
X143365000Y-117285750D01*
X143365000Y-118376310D01*
X143461673Y-118609699D01*
X143640302Y-118788327D01*
X143873691Y-118885000D01*
X144714250Y-118885000D01*
X144873000Y-118726250D01*
X144873000Y-117127000D01*
X143523750Y-117127000D01*
X143365000Y-117285750D01*
X133312275Y-117285750D01*
X133488327Y-117109698D01*
X133585000Y-116876309D01*
X133585000Y-116783750D01*
X133428252Y-116627002D01*
X133540779Y-116627002D01*
X133662235Y-116708157D01*
X133910000Y-116757440D01*
X134820000Y-116757440D01*
X135067765Y-116708157D01*
X135277809Y-116567809D01*
X135418157Y-116357765D01*
X135467440Y-116110000D01*
X135467440Y-116051151D01*
X135648142Y-116231853D01*
X135648144Y-116231856D01*
X135932501Y-116421856D01*
X135983923Y-116456215D01*
X136380000Y-116535001D01*
X136380005Y-116535000D01*
X136700269Y-116535000D01*
X136722191Y-116567809D01*
X136932235Y-116708157D01*
X137180000Y-116757440D01*
X138090000Y-116757440D01*
X138337765Y-116708157D01*
X138547809Y-116567809D01*
X138688157Y-116357765D01*
X138737440Y-116110000D01*
X138737440Y-115623690D01*
X143365000Y-115623690D01*
X143365000Y-116714250D01*
X143523750Y-116873000D01*
X144873000Y-116873000D01*
X144873000Y-115273750D01*
X145127000Y-115273750D01*
X145127000Y-116873000D01*
X146476250Y-116873000D01*
X146635000Y-116714250D01*
X146635000Y-115623690D01*
X146538327Y-115390301D01*
X146359698Y-115211673D01*
X146126309Y-115115000D01*
X145285750Y-115115000D01*
X145127000Y-115273750D01*
X144873000Y-115273750D01*
X144714250Y-115115000D01*
X143873691Y-115115000D01*
X143640302Y-115211673D01*
X143461673Y-115390301D01*
X143365000Y-115623690D01*
X138737440Y-115623690D01*
X138737440Y-114890000D01*
X138688157Y-114642235D01*
X138547809Y-114432191D01*
X138495801Y-114397440D01*
X139000000Y-114397440D01*
X139247765Y-114348157D01*
X139457809Y-114207809D01*
X139598157Y-113997765D01*
X139647440Y-113750000D01*
X139647440Y-113285750D01*
X140915000Y-113285750D01*
X140915000Y-114276310D01*
X141011673Y-114509699D01*
X141190302Y-114688327D01*
X141423691Y-114785000D01*
X143014250Y-114785000D01*
X143173000Y-114626250D01*
X143173000Y-113127000D01*
X143427000Y-113127000D01*
X143427000Y-114626250D01*
X143585750Y-114785000D01*
X145176309Y-114785000D01*
X145409698Y-114688327D01*
X145588327Y-114509699D01*
X145685000Y-114276310D01*
X145685000Y-113285750D01*
X145526250Y-113127000D01*
X143427000Y-113127000D01*
X143173000Y-113127000D01*
X141073750Y-113127000D01*
X140915000Y-113285750D01*
X139647440Y-113285750D01*
X139647440Y-111914800D01*
X139927240Y-111635000D01*
X140951737Y-111635000D01*
X140915000Y-111723690D01*
X140915000Y-112714250D01*
X141073750Y-112873000D01*
X143173000Y-112873000D01*
X143173000Y-112853000D01*
X143427000Y-112853000D01*
X143427000Y-112873000D01*
X145526250Y-112873000D01*
X145685000Y-112714250D01*
X145685000Y-111723690D01*
X145648263Y-111635000D01*
X145822760Y-111635000D01*
X146302560Y-112114800D01*
X146302560Y-114150000D01*
X146351843Y-114397765D01*
X146492191Y-114607809D01*
X146702235Y-114748157D01*
X146950000Y-114797440D01*
X147365000Y-114797440D01*
X147365000Y-115687459D01*
X147352560Y-115750000D01*
X147352560Y-116335201D01*
X146518505Y-117169255D01*
X146476250Y-117127000D01*
X145127000Y-117127000D01*
X145127000Y-118726250D01*
X145285750Y-118885000D01*
X146015000Y-118885000D01*
X146015000Y-120000000D01*
X146139457Y-120625687D01*
X146293616Y-120856402D01*
X146301843Y-120897765D01*
X146442191Y-121107809D01*
X146477254Y-121131238D01*
X146493880Y-121156120D01*
X147024313Y-121510543D01*
X147650000Y-121635000D01*
X148275687Y-121510543D01*
X148715000Y-121217004D01*
X148715000Y-122372041D01*
X148384211Y-122702830D01*
X146148840Y-122702830D01*
X145901075Y-122752113D01*
X145691031Y-122892461D01*
X145550683Y-123102505D01*
X145501400Y-123350270D01*
X145501400Y-126649730D01*
X145550683Y-126897495D01*
X145691031Y-127107539D01*
X145901075Y-127247887D01*
X146148840Y-127297170D01*
X147445000Y-127297170D01*
X147445000Y-130000000D01*
X147569457Y-130625687D01*
X147582560Y-130645297D01*
X147582560Y-130850000D01*
X147631843Y-131097765D01*
X147772191Y-131307809D01*
X147982235Y-131448157D01*
X148044777Y-131460597D01*
X148000853Y-131489946D01*
X147678946Y-131971715D01*
X147565907Y-132540000D01*
X147597729Y-132699981D01*
X143787710Y-136510000D01*
X140997878Y-136510000D01*
X141004840Y-136475000D01*
X141004840Y-135875000D01*
X140955557Y-135627235D01*
X140815209Y-135417191D01*
X140605165Y-135276843D01*
X140600482Y-135275911D01*
X140649357Y-135202765D01*
X140681339Y-135041979D01*
X140699803Y-135014346D01*
X140786200Y-134580000D01*
X140786200Y-130888800D01*
X140699803Y-130454454D01*
X140453766Y-130086234D01*
X137652262Y-127284730D01*
X139314970Y-127284730D01*
X139473720Y-127125980D01*
X139473720Y-125127000D01*
X139727720Y-125127000D01*
X139727720Y-127125980D01*
X139886470Y-127284730D01*
X141976200Y-127284730D01*
X142209589Y-127188057D01*
X142388217Y-127009428D01*
X142484890Y-126776039D01*
X142484890Y-125285750D01*
X142326140Y-125127000D01*
X139727720Y-125127000D01*
X139473720Y-125127000D01*
X136875300Y-125127000D01*
X136716550Y-125285750D01*
X136716550Y-126349018D01*
X134873888Y-124506356D01*
X134783454Y-124051715D01*
X134517400Y-123653536D01*
X134517400Y-123223961D01*
X136716550Y-123223961D01*
X136716550Y-124714250D01*
X136875300Y-124873000D01*
X139473720Y-124873000D01*
X139473720Y-122874020D01*
X139727720Y-122874020D01*
X139727720Y-124873000D01*
X142326140Y-124873000D01*
X142484890Y-124714250D01*
X142484890Y-123223961D01*
X142388217Y-122990572D01*
X142209589Y-122811943D01*
X141976200Y-122715270D01*
X139886470Y-122715270D01*
X139727720Y-122874020D01*
X139473720Y-122874020D01*
X139314970Y-122715270D01*
X137225240Y-122715270D01*
X136991851Y-122811943D01*
X136813223Y-122990572D01*
X136716550Y-123223961D01*
X134517400Y-123223961D01*
X134517400Y-122382400D01*
X134431003Y-121948054D01*
X134184966Y-121579834D01*
X133802566Y-121197434D01*
X133740735Y-121156120D01*
X133434346Y-120951397D01*
X133000000Y-120865000D01*
X121285000Y-120865000D01*
X121285000Y-120785750D01*
X121126250Y-120627000D01*
X120377000Y-120627000D01*
X120377000Y-120647000D01*
X120123000Y-120647000D01*
X120123000Y-120627000D01*
X120103000Y-120627000D01*
X120103000Y-120373000D01*
X120123000Y-120373000D01*
X120123000Y-119648750D01*
X120377000Y-119648750D01*
X120377000Y-120373000D01*
X121126250Y-120373000D01*
X121285000Y-120214250D01*
X121285000Y-119998690D01*
X121188327Y-119765301D01*
X121009698Y-119586673D01*
X120776309Y-119490000D01*
X120535750Y-119490000D01*
X120377000Y-119648750D01*
X120123000Y-119648750D01*
X119964250Y-119490000D01*
X119735000Y-119490000D01*
X119735000Y-119367456D01*
X119748157Y-119347765D01*
X119797440Y-119100000D01*
X119797440Y-117900000D01*
X119786985Y-117847440D01*
X120913015Y-117847440D01*
X120902560Y-117900000D01*
X120902560Y-119100000D01*
X120951843Y-119347765D01*
X121092191Y-119557809D01*
X121302235Y-119698157D01*
X121550000Y-119747440D01*
X122450000Y-119747440D01*
X122697765Y-119698157D01*
X122907809Y-119557809D01*
X122923050Y-119535000D01*
X122999995Y-119535000D01*
X123000000Y-119535001D01*
X123396077Y-119456215D01*
X123731856Y-119231856D01*
X124731853Y-118231858D01*
X124731856Y-118231856D01*
X124956215Y-117896077D01*
X124981663Y-117768144D01*
X125035001Y-117500000D01*
X125035000Y-117499995D01*
X125035000Y-116783750D01*
X131415000Y-116783750D01*
X131415000Y-116876309D01*
X131511673Y-117109698D01*
X131690301Y-117288327D01*
X131923690Y-117385000D01*
X132214250Y-117385000D01*
X132373000Y-117226250D01*
X132373000Y-116625000D01*
X131573750Y-116625000D01*
X131415000Y-116783750D01*
X125035000Y-116783750D01*
X125035000Y-109760005D01*
X125035001Y-109760000D01*
X124956215Y-109363923D01*
X124870072Y-109235000D01*
X124731856Y-109028144D01*
X124731853Y-109028142D01*
X122937440Y-107233728D01*
X122937440Y-106007745D01*
X124671861Y-106007745D01*
X124745995Y-106253864D01*
X125283223Y-106446965D01*
X125853454Y-106419778D01*
X126254005Y-106253864D01*
X126328139Y-106007745D01*
X125500000Y-105179605D01*
X124671861Y-106007745D01*
X122937440Y-106007745D01*
X122937440Y-104783223D01*
X124053035Y-104783223D01*
X124080222Y-105353454D01*
X124246136Y-105754005D01*
X124492255Y-105828139D01*
X125320395Y-105000000D01*
X124492255Y-104171861D01*
X124246136Y-104245995D01*
X124053035Y-104783223D01*
X122937440Y-104783223D01*
X122937440Y-104550000D01*
X122925000Y-104487459D01*
X122925000Y-103635000D01*
X125014300Y-103635000D01*
X124745995Y-103746136D01*
X124745995Y-103746136D01*
G37*
X124745995Y-103746136D02*
X124671861Y-103992255D01*
X125500000Y-104820395D01*
X125514142Y-104806252D01*
X125693748Y-104985858D01*
X125679605Y-105000000D01*
X126507745Y-105828139D01*
X126753864Y-105754005D01*
X126935747Y-105247986D01*
X127568650Y-105880889D01*
X127601843Y-106047765D01*
X127742191Y-106257809D01*
X127952235Y-106398157D01*
X128200000Y-106447440D01*
X128279872Y-106447440D01*
X128374313Y-106510543D01*
X129000000Y-106635001D01*
X129000005Y-106635000D01*
X131572560Y-106635000D01*
X131572560Y-108100000D01*
X131621843Y-108347765D01*
X131762191Y-108557809D01*
X131972235Y-108698157D01*
X132220000Y-108747440D01*
X134685000Y-108747440D01*
X134685000Y-109663359D01*
X134667765Y-109651843D01*
X134420000Y-109602560D01*
X132420000Y-109602560D01*
X132172235Y-109651843D01*
X131962191Y-109792191D01*
X131821843Y-110002235D01*
X131772560Y-110250000D01*
X131772560Y-113750000D01*
X131821843Y-113997765D01*
X131908633Y-114127655D01*
X131904858Y-114131430D01*
X131802235Y-114151843D01*
X131592191Y-114292191D01*
X131451843Y-114502235D01*
X131402560Y-114750000D01*
X131402560Y-115250000D01*
X131451843Y-115497765D01*
X131592191Y-115707809D01*
X131653320Y-115748654D01*
X131511673Y-115890302D01*
X131415000Y-116123691D01*
X131415000Y-116216250D01*
X131573750Y-116375000D01*
X132373000Y-116375000D01*
X132373000Y-116353000D01*
X132627000Y-116353000D01*
X132627000Y-116375000D01*
X132647000Y-116375000D01*
X132647000Y-116625000D01*
X132627000Y-116625000D01*
X132627000Y-117226250D01*
X132785750Y-117385000D01*
X133076310Y-117385000D01*
X133309699Y-117288327D01*
X133312275Y-117285750D01*
X143365000Y-117285750D01*
X143365000Y-118376310D01*
X143461673Y-118609699D01*
X143640302Y-118788327D01*
X143873691Y-118885000D01*
X144714250Y-118885000D01*
X144873000Y-118726250D01*
X144873000Y-117127000D01*
X143523750Y-117127000D01*
X143365000Y-117285750D01*
X133312275Y-117285750D01*
X133488327Y-117109698D01*
X133585000Y-116876309D01*
X133585000Y-116783750D01*
X133428252Y-116627002D01*
X133540779Y-116627002D01*
X133662235Y-116708157D01*
X133910000Y-116757440D01*
X134820000Y-116757440D01*
X135067765Y-116708157D01*
X135277809Y-116567809D01*
X135418157Y-116357765D01*
X135467440Y-116110000D01*
X135467440Y-116051151D01*
X135648142Y-116231853D01*
X135648144Y-116231856D01*
X135932501Y-116421856D01*
X135983923Y-116456215D01*
X136380000Y-116535001D01*
X136380005Y-116535000D01*
X136700269Y-116535000D01*
X136722191Y-116567809D01*
X136932235Y-116708157D01*
X137180000Y-116757440D01*
X138090000Y-116757440D01*
X138337765Y-116708157D01*
X138547809Y-116567809D01*
X138688157Y-116357765D01*
X138737440Y-116110000D01*
X138737440Y-115623690D01*
X143365000Y-115623690D01*
X143365000Y-116714250D01*
X143523750Y-116873000D01*
X144873000Y-116873000D01*
X144873000Y-115273750D01*
X145127000Y-115273750D01*
X145127000Y-116873000D01*
X146476250Y-116873000D01*
X146635000Y-116714250D01*
X146635000Y-115623690D01*
X146538327Y-115390301D01*
X146359698Y-115211673D01*
X146126309Y-115115000D01*
X145285750Y-115115000D01*
X145127000Y-115273750D01*
X144873000Y-115273750D01*
X144714250Y-115115000D01*
X143873691Y-115115000D01*
X143640302Y-115211673D01*
X143461673Y-115390301D01*
X143365000Y-115623690D01*
X138737440Y-115623690D01*
X138737440Y-114890000D01*
X138688157Y-114642235D01*
X138547809Y-114432191D01*
X138495801Y-114397440D01*
X139000000Y-114397440D01*
X139247765Y-114348157D01*
X139457809Y-114207809D01*
X139598157Y-113997765D01*
X139647440Y-113750000D01*
X139647440Y-113285750D01*
X140915000Y-113285750D01*
X140915000Y-114276310D01*
X141011673Y-114509699D01*
X141190302Y-114688327D01*
X141423691Y-114785000D01*
X143014250Y-114785000D01*
X143173000Y-114626250D01*
X143173000Y-113127000D01*
X143427000Y-113127000D01*
X143427000Y-114626250D01*
X143585750Y-114785000D01*
X145176309Y-114785000D01*
X145409698Y-114688327D01*
X145588327Y-114509699D01*
X145685000Y-114276310D01*
X145685000Y-113285750D01*
X145526250Y-113127000D01*
X143427000Y-113127000D01*
X143173000Y-113127000D01*
X141073750Y-113127000D01*
X140915000Y-113285750D01*
X139647440Y-113285750D01*
X139647440Y-111914800D01*
X139927240Y-111635000D01*
X140951737Y-111635000D01*
X140915000Y-111723690D01*
X140915000Y-112714250D01*
X141073750Y-112873000D01*
X143173000Y-112873000D01*
X143173000Y-112853000D01*
X143427000Y-112853000D01*
X143427000Y-112873000D01*
X145526250Y-112873000D01*
X145685000Y-112714250D01*
X145685000Y-111723690D01*
X145648263Y-111635000D01*
X145822760Y-111635000D01*
X146302560Y-112114800D01*
X146302560Y-114150000D01*
X146351843Y-114397765D01*
X146492191Y-114607809D01*
X146702235Y-114748157D01*
X146950000Y-114797440D01*
X147365000Y-114797440D01*
X147365000Y-115687459D01*
X147352560Y-115750000D01*
X147352560Y-116335201D01*
X146518505Y-117169255D01*
X146476250Y-117127000D01*
X145127000Y-117127000D01*
X145127000Y-118726250D01*
X145285750Y-118885000D01*
X146015000Y-118885000D01*
X146015000Y-120000000D01*
X146139457Y-120625687D01*
X146293616Y-120856402D01*
X146301843Y-120897765D01*
X146442191Y-121107809D01*
X146477254Y-121131238D01*
X146493880Y-121156120D01*
X147024313Y-121510543D01*
X147650000Y-121635000D01*
X148275687Y-121510543D01*
X148715000Y-121217004D01*
X148715000Y-122372041D01*
X148384211Y-122702830D01*
X146148840Y-122702830D01*
X145901075Y-122752113D01*
X145691031Y-122892461D01*
X145550683Y-123102505D01*
X145501400Y-123350270D01*
X145501400Y-126649730D01*
X145550683Y-126897495D01*
X145691031Y-127107539D01*
X145901075Y-127247887D01*
X146148840Y-127297170D01*
X147445000Y-127297170D01*
X147445000Y-130000000D01*
X147569457Y-130625687D01*
X147582560Y-130645297D01*
X147582560Y-130850000D01*
X147631843Y-131097765D01*
X147772191Y-131307809D01*
X147982235Y-131448157D01*
X148044777Y-131460597D01*
X148000853Y-131489946D01*
X147678946Y-131971715D01*
X147565907Y-132540000D01*
X147597729Y-132699981D01*
X143787710Y-136510000D01*
X140997878Y-136510000D01*
X141004840Y-136475000D01*
X141004840Y-135875000D01*
X140955557Y-135627235D01*
X140815209Y-135417191D01*
X140605165Y-135276843D01*
X140600482Y-135275911D01*
X140649357Y-135202765D01*
X140681339Y-135041979D01*
X140699803Y-135014346D01*
X140786200Y-134580000D01*
X140786200Y-130888800D01*
X140699803Y-130454454D01*
X140453766Y-130086234D01*
X137652262Y-127284730D01*
X139314970Y-127284730D01*
X139473720Y-127125980D01*
X139473720Y-125127000D01*
X139727720Y-125127000D01*
X139727720Y-127125980D01*
X139886470Y-127284730D01*
X141976200Y-127284730D01*
X142209589Y-127188057D01*
X142388217Y-127009428D01*
X142484890Y-126776039D01*
X142484890Y-125285750D01*
X142326140Y-125127000D01*
X139727720Y-125127000D01*
X139473720Y-125127000D01*
X136875300Y-125127000D01*
X136716550Y-125285750D01*
X136716550Y-126349018D01*
X134873888Y-124506356D01*
X134783454Y-124051715D01*
X134517400Y-123653536D01*
X134517400Y-123223961D01*
X136716550Y-123223961D01*
X136716550Y-124714250D01*
X136875300Y-124873000D01*
X139473720Y-124873000D01*
X139473720Y-122874020D01*
X139727720Y-122874020D01*
X139727720Y-124873000D01*
X142326140Y-124873000D01*
X142484890Y-124714250D01*
X142484890Y-123223961D01*
X142388217Y-122990572D01*
X142209589Y-122811943D01*
X141976200Y-122715270D01*
X139886470Y-122715270D01*
X139727720Y-122874020D01*
X139473720Y-122874020D01*
X139314970Y-122715270D01*
X137225240Y-122715270D01*
X136991851Y-122811943D01*
X136813223Y-122990572D01*
X136716550Y-123223961D01*
X134517400Y-123223961D01*
X134517400Y-122382400D01*
X134431003Y-121948054D01*
X134184966Y-121579834D01*
X133802566Y-121197434D01*
X133740735Y-121156120D01*
X133434346Y-120951397D01*
X133000000Y-120865000D01*
X121285000Y-120865000D01*
X121285000Y-120785750D01*
X121126250Y-120627000D01*
X120377000Y-120627000D01*
X120377000Y-120647000D01*
X120123000Y-120647000D01*
X120123000Y-120627000D01*
X120103000Y-120627000D01*
X120103000Y-120373000D01*
X120123000Y-120373000D01*
X120123000Y-119648750D01*
X120377000Y-119648750D01*
X120377000Y-120373000D01*
X121126250Y-120373000D01*
X121285000Y-120214250D01*
X121285000Y-119998690D01*
X121188327Y-119765301D01*
X121009698Y-119586673D01*
X120776309Y-119490000D01*
X120535750Y-119490000D01*
X120377000Y-119648750D01*
X120123000Y-119648750D01*
X119964250Y-119490000D01*
X119735000Y-119490000D01*
X119735000Y-119367456D01*
X119748157Y-119347765D01*
X119797440Y-119100000D01*
X119797440Y-117900000D01*
X119786985Y-117847440D01*
X120913015Y-117847440D01*
X120902560Y-117900000D01*
X120902560Y-119100000D01*
X120951843Y-119347765D01*
X121092191Y-119557809D01*
X121302235Y-119698157D01*
X121550000Y-119747440D01*
X122450000Y-119747440D01*
X122697765Y-119698157D01*
X122907809Y-119557809D01*
X122923050Y-119535000D01*
X122999995Y-119535000D01*
X123000000Y-119535001D01*
X123396077Y-119456215D01*
X123731856Y-119231856D01*
X124731853Y-118231858D01*
X124731856Y-118231856D01*
X124956215Y-117896077D01*
X124981663Y-117768144D01*
X125035001Y-117500000D01*
X125035000Y-117499995D01*
X125035000Y-116783750D01*
X131415000Y-116783750D01*
X131415000Y-116876309D01*
X131511673Y-117109698D01*
X131690301Y-117288327D01*
X131923690Y-117385000D01*
X132214250Y-117385000D01*
X132373000Y-117226250D01*
X132373000Y-116625000D01*
X131573750Y-116625000D01*
X131415000Y-116783750D01*
X125035000Y-116783750D01*
X125035000Y-109760005D01*
X125035001Y-109760000D01*
X124956215Y-109363923D01*
X124870072Y-109235000D01*
X124731856Y-109028144D01*
X124731853Y-109028142D01*
X122937440Y-107233728D01*
X122937440Y-106007745D01*
X124671861Y-106007745D01*
X124745995Y-106253864D01*
X125283223Y-106446965D01*
X125853454Y-106419778D01*
X126254005Y-106253864D01*
X126328139Y-106007745D01*
X125500000Y-105179605D01*
X124671861Y-106007745D01*
X122937440Y-106007745D01*
X122937440Y-104783223D01*
X124053035Y-104783223D01*
X124080222Y-105353454D01*
X124246136Y-105754005D01*
X124492255Y-105828139D01*
X125320395Y-105000000D01*
X124492255Y-104171861D01*
X124246136Y-104245995D01*
X124053035Y-104783223D01*
X122937440Y-104783223D01*
X122937440Y-104550000D01*
X122925000Y-104487459D01*
X122925000Y-103635000D01*
X125014300Y-103635000D01*
X124745995Y-103746136D01*
G36*
X126991968Y-124869562D02*
X126810963Y-125140455D01*
X126747402Y-125459996D01*
X126747402Y-129177768D01*
X126669091Y-129145250D01*
X126098213Y-129144752D01*
X125636980Y-129335330D01*
X125508650Y-129207000D01*
X124759400Y-129207000D01*
X124759400Y-130453000D01*
X124779400Y-130453000D01*
X124779400Y-130707000D01*
X124759400Y-130707000D01*
X124759400Y-130727000D01*
X124601690Y-130727000D01*
X124485400Y-130610710D01*
X124485400Y-130453000D01*
X124505400Y-130453000D01*
X124505400Y-129207000D01*
X124485400Y-129207000D01*
X124485400Y-128953000D01*
X124505400Y-128953000D01*
X124505400Y-128228750D01*
X124759400Y-128228750D01*
X124759400Y-128953000D01*
X125508650Y-128953000D01*
X125667400Y-128794250D01*
X125667400Y-128578690D01*
X125570727Y-128345301D01*
X125392098Y-128166673D01*
X125158709Y-128070000D01*
X124918150Y-128070000D01*
X124759400Y-128228750D01*
X124505400Y-128228750D01*
X124346650Y-128070000D01*
X124106091Y-128070000D01*
X123872702Y-128166673D01*
X123871502Y-128167873D01*
X123780165Y-128106843D01*
X123729247Y-128096715D01*
X119885000Y-124252468D01*
X119885000Y-123135000D01*
X128726530Y-123135000D01*
X126991968Y-124869562D01*
X126991968Y-124869562D01*
G37*
X126991968Y-124869562D02*
X126810963Y-125140455D01*
X126747402Y-125459996D01*
X126747402Y-129177768D01*
X126669091Y-129145250D01*
X126098213Y-129144752D01*
X125636980Y-129335330D01*
X125508650Y-129207000D01*
X124759400Y-129207000D01*
X124759400Y-130453000D01*
X124779400Y-130453000D01*
X124779400Y-130707000D01*
X124759400Y-130707000D01*
X124759400Y-130727000D01*
X124601690Y-130727000D01*
X124485400Y-130610710D01*
X124485400Y-130453000D01*
X124505400Y-130453000D01*
X124505400Y-129207000D01*
X124485400Y-129207000D01*
X124485400Y-128953000D01*
X124505400Y-128953000D01*
X124505400Y-128228750D01*
X124759400Y-128228750D01*
X124759400Y-128953000D01*
X125508650Y-128953000D01*
X125667400Y-128794250D01*
X125667400Y-128578690D01*
X125570727Y-128345301D01*
X125392098Y-128166673D01*
X125158709Y-128070000D01*
X124918150Y-128070000D01*
X124759400Y-128228750D01*
X124505400Y-128228750D01*
X124346650Y-128070000D01*
X124106091Y-128070000D01*
X123872702Y-128166673D01*
X123871502Y-128167873D01*
X123780165Y-128106843D01*
X123729247Y-128096715D01*
X119885000Y-124252468D01*
X119885000Y-123135000D01*
X128726530Y-123135000D01*
X126991968Y-124869562D01*
M02*
