G04 #@! TF.GenerationSoftware,KiCad,Pcbnew,no-vcs-found-996cba7~58~ubuntu16.04.1*
G04 #@! TF.CreationDate,2017-03-20T11:59:52+02:00*
G04 #@! TF.ProjectId,line-interface,6C696E652D696E746572666163652E6B,rev?*
G04 #@! TF.FileFunction,Copper,L1,Top,Signal*
G04 #@! TF.FilePolarity,Positive*
%FSLAX46Y46*%
G04 Gerber Fmt 4.6, Leading zero omitted, Abs format (unit mm)*
G04 Created by KiCad (PCBNEW no-vcs-found-996cba7~58~ubuntu16.04.1) date Mon Mar 20 11:59:52 2017*
%MOMM*%
%LPD*%
G01*
G04 APERTURE LIST*
%ADD10C,0.100000*%
%ADD11R,1.800000X1.800000*%
%ADD12O,1.800000X1.800000*%
%ADD13R,1.550000X0.600000*%
%ADD14R,7.000000X7.000000*%
%ADD15R,2.000000X3.500000*%
%ADD16O,2.200000X1.700000*%
%ADD17R,2.200000X1.700000*%
%ADD18C,1.600000*%
%ADD19R,1.600000X1.600000*%
%ADD20R,0.800000X0.750000*%
%ADD21R,2.000000X2.500000*%
%ADD22R,2.500000X2.000000*%
%ADD23R,2.100580X5.600700*%
%ADD24R,3.500000X2.300000*%
%ADD25R,4.500880X3.299460*%
%ADD26R,4.498340X3.299460*%
%ADD27R,1.220000X0.910000*%
%ADD28R,1.500000X0.600000*%
%ADD29R,0.800000X0.800000*%
%ADD30O,1.700000X1.700000*%
%ADD31R,1.700000X1.700000*%
%ADD32R,0.900000X0.500000*%
%ADD33R,0.500000X0.900000*%
%ADD34R,1.500000X1.300000*%
%ADD35R,1.200000X0.900000*%
%ADD36C,0.600000*%
%ADD37C,1.000000*%
%ADD38C,2.000000*%
%ADD39C,0.800000*%
%ADD40C,0.400000*%
%ADD41C,0.254000*%
G04 APERTURE END LIST*
D10*
D11*
X120660000Y-103460000D03*
D12*
X120660000Y-106000000D03*
X120660000Y-108540000D03*
D13*
X139582400Y-133975000D03*
X139582400Y-135245000D03*
X139582400Y-136515000D03*
X139582400Y-137785000D03*
X134182400Y-137785000D03*
X134182400Y-136515000D03*
X134182400Y-135245000D03*
X134182400Y-133975000D03*
D14*
X135890000Y-109600000D03*
D15*
X133610000Y-102200000D03*
X138190000Y-102200000D03*
D16*
X101270000Y-129700000D03*
X101270000Y-127160000D03*
X101270000Y-124620000D03*
X101270000Y-122080000D03*
X101270000Y-119540000D03*
D17*
X101270000Y-117000000D03*
D18*
X126300000Y-104400000D03*
D19*
X129800000Y-104400000D03*
D20*
X123132400Y-129080000D03*
X124632400Y-129080000D03*
X124632400Y-130580000D03*
X123132400Y-130580000D03*
X114382400Y-142580000D03*
X112882400Y-142580000D03*
X120250000Y-120500000D03*
X118750000Y-120500000D03*
X114632400Y-128580000D03*
X113132400Y-128580000D03*
X138151200Y-132380000D03*
X139651200Y-132380000D03*
D21*
X149000000Y-117000000D03*
X145000000Y-117000000D03*
D22*
X123500000Y-106200000D03*
X123500000Y-102200000D03*
D23*
X116882400Y-140428860D03*
X116882400Y-130731140D03*
D24*
X147700000Y-113000000D03*
X142300000Y-113000000D03*
D25*
X148399280Y-125000000D03*
D26*
X139600720Y-125000000D03*
D27*
X129700000Y-106265000D03*
X129700000Y-109535000D03*
D28*
X129582400Y-133770000D03*
X129582400Y-135040000D03*
X129582400Y-136310000D03*
X129582400Y-137580000D03*
X129582400Y-138850000D03*
X129582400Y-140120000D03*
X129582400Y-141390000D03*
X124182400Y-141390000D03*
X124182400Y-140120000D03*
X124182400Y-138850000D03*
X124182400Y-137580000D03*
X124182400Y-136310000D03*
X124182400Y-135040000D03*
X124182400Y-133770000D03*
D29*
X136300000Y-140500000D03*
X137900000Y-140500000D03*
X120671330Y-115011040D03*
X120671330Y-113411040D03*
D30*
X149080000Y-137620000D03*
X149080000Y-135080000D03*
X149080000Y-132540000D03*
D31*
X149080000Y-130000000D03*
D30*
X133382400Y-129700000D03*
X130842400Y-129700000D03*
X133382400Y-127160000D03*
X130842400Y-127160000D03*
X133382400Y-124620000D03*
D31*
X130842400Y-124620000D03*
D32*
X120671330Y-111961040D03*
X120671330Y-110461040D03*
D33*
X103750000Y-119500000D03*
X105250000Y-119500000D03*
X122882400Y-132080000D03*
X124382400Y-132080000D03*
X134850000Y-140500000D03*
X133350000Y-140500000D03*
D32*
X127900000Y-109650000D03*
X127900000Y-108150000D03*
D34*
X147650000Y-120000000D03*
X150350000Y-120000000D03*
D35*
X118200000Y-104250000D03*
X118200000Y-107550000D03*
D33*
X105250000Y-122000000D03*
X103750000Y-122000000D03*
X103750000Y-124500000D03*
X105250000Y-124500000D03*
D18*
X105000000Y-127000000D03*
X105000000Y-116500000D03*
X150700000Y-138800000D03*
X146999998Y-137400000D03*
X139000000Y-120500000D03*
X142500000Y-118500000D03*
X120500000Y-141000000D03*
X102000000Y-114500000D03*
X101500000Y-132500000D03*
X112500000Y-130000000D03*
X112500000Y-141000000D03*
X124882400Y-127580000D03*
X133382400Y-132080000D03*
X126382400Y-130580000D03*
X131382400Y-132080000D03*
X130500000Y-145500000D03*
X126006379Y-142599968D03*
D36*
X139582400Y-133975000D02*
X139582400Y-132448800D01*
X139582400Y-132448800D02*
X139651200Y-132380000D01*
D37*
X139651200Y-130888800D02*
X139651200Y-132380000D01*
X120671330Y-110461040D02*
X118761040Y-110461040D01*
X118761040Y-110461040D02*
X118750000Y-110450000D01*
X120660000Y-108540000D02*
X119190000Y-108540000D01*
X119190000Y-108540000D02*
X118200000Y-107550000D01*
X118750000Y-120500000D02*
X118750000Y-110450000D01*
X118750000Y-110450000D02*
X120660000Y-108540000D01*
D38*
X120660000Y-108540000D02*
X112960000Y-108540000D01*
X112960000Y-108540000D02*
X105000000Y-116500000D01*
D37*
X105000000Y-127000000D02*
X101430000Y-127000000D01*
X101430000Y-127000000D02*
X101270000Y-127160000D01*
X133382400Y-124620000D02*
X139651200Y-130888800D01*
X133000000Y-122000000D02*
X133382400Y-122382400D01*
X133382400Y-122382400D02*
X133382400Y-124620000D01*
X118750000Y-122000000D02*
X118750000Y-124722600D01*
X118750000Y-120500000D02*
X118750000Y-122000000D01*
X118750000Y-122000000D02*
X133000000Y-122000000D01*
X118750000Y-124722600D02*
X123107400Y-129080000D01*
X123107400Y-129080000D02*
X123132400Y-129080000D01*
D39*
X118700000Y-120450000D02*
X118750000Y-120500000D01*
D36*
X139582400Y-132430000D02*
X139632400Y-132380000D01*
D39*
X123132400Y-129080000D02*
X122777398Y-129080000D01*
X122777398Y-129080000D02*
X122132399Y-129724999D01*
X122132399Y-129724999D02*
X122132399Y-131329999D01*
X122132399Y-131329999D02*
X122882400Y-132080000D01*
X124182400Y-133770000D02*
X122882400Y-132470000D01*
X122882400Y-132470000D02*
X122882400Y-132080000D01*
D37*
X147219998Y-137620000D02*
X146999998Y-137400000D01*
X149080000Y-137620000D02*
X147219998Y-137620000D01*
X139600720Y-125000000D02*
X139600720Y-121100720D01*
X139600720Y-121100720D02*
X139000000Y-120500000D01*
X145000000Y-117000000D02*
X144000000Y-117000000D01*
X144000000Y-117000000D02*
X142500000Y-118500000D01*
X101270000Y-117000000D02*
X101270000Y-115230000D01*
X101270000Y-115230000D02*
X102000000Y-114500000D01*
X113132400Y-128580000D02*
X113132400Y-129367600D01*
X113132400Y-129367600D02*
X112500000Y-130000000D01*
X112882400Y-142580000D02*
X112882400Y-141382400D01*
X112882400Y-141382400D02*
X112500000Y-141000000D01*
D39*
X124632400Y-127830000D02*
X124882400Y-127580000D01*
X124632400Y-129080000D02*
X124632400Y-127830000D01*
X124632400Y-130580000D02*
X124632400Y-129080000D01*
D38*
X135890000Y-109600000D02*
X144300000Y-109600000D01*
X144300000Y-109600000D02*
X147700000Y-113000000D01*
X149000000Y-117000000D02*
X149000000Y-114300000D01*
X149000000Y-114300000D02*
X147700000Y-113000000D01*
X147650000Y-120000000D02*
X147650000Y-118350000D01*
X147650000Y-118350000D02*
X149000000Y-117000000D01*
D39*
X129700000Y-106265000D02*
X129700000Y-104500000D01*
X129700000Y-104500000D02*
X129800000Y-104400000D01*
D37*
X133610000Y-102950000D02*
X133610000Y-102200000D01*
X120660000Y-103460000D02*
X118990000Y-103460000D01*
X118990000Y-103460000D02*
X118200000Y-104250000D01*
D38*
X133610000Y-102200000D02*
X129800000Y-102200000D01*
X129800000Y-102200000D02*
X123500000Y-102200000D01*
X129800000Y-104400000D02*
X129800000Y-102200000D01*
X123500000Y-102200000D02*
X121920000Y-102200000D01*
X121920000Y-102200000D02*
X120660000Y-103460000D01*
D39*
X126382400Y-130685002D02*
X126382400Y-130580000D01*
X125432401Y-132280001D02*
X125432401Y-131635001D01*
X125432401Y-131635001D02*
X126382400Y-130685002D01*
D40*
X130842400Y-131540000D02*
X131382400Y-132080000D01*
X130842400Y-129700000D02*
X130842400Y-131540000D01*
D36*
X124182400Y-137580000D02*
X124862402Y-137580000D01*
X124862402Y-137580000D02*
X125432401Y-137010001D01*
X125432401Y-137010001D02*
X125432401Y-132280001D01*
X125232400Y-132080000D02*
X124382400Y-132080000D01*
X125432401Y-132280001D02*
X125232400Y-132080000D01*
X124382400Y-132080000D02*
X124382400Y-131830000D01*
X124382400Y-131830000D02*
X123132400Y-130580000D01*
X116882400Y-138678800D02*
X116882400Y-140428860D01*
X119251200Y-136310000D02*
X116882400Y-138678800D01*
X124182400Y-136310000D02*
X119251200Y-136310000D01*
X114382400Y-142580000D02*
X114731260Y-142580000D01*
X114731260Y-142580000D02*
X116882400Y-140428860D01*
X114632400Y-128580000D02*
X114731260Y-128580000D01*
X114731260Y-128580000D02*
X116882400Y-130731140D01*
X124182400Y-135040000D02*
X119441200Y-135040000D01*
X119441200Y-135040000D02*
X116882400Y-132481200D01*
X116882400Y-132481200D02*
X116882400Y-130731140D01*
D38*
X150350000Y-120000000D02*
X150350000Y-123049280D01*
X150350000Y-123049280D02*
X148399280Y-125000000D01*
X149080000Y-130000000D02*
X149080000Y-125680720D01*
X149080000Y-125680720D02*
X148399280Y-125000000D01*
D36*
X134850000Y-140500000D02*
X136300000Y-140500000D01*
D39*
X120671330Y-111961040D02*
X120671330Y-113411040D01*
D36*
X129582400Y-135040000D02*
X131640000Y-135040000D01*
X131640000Y-135040000D02*
X133115000Y-136515000D01*
X133115000Y-136515000D02*
X134182400Y-136515000D01*
X133477398Y-135245000D02*
X134182400Y-135245000D01*
X134182400Y-136515000D02*
X134182400Y-135245000D01*
X129582400Y-136310000D02*
X131310000Y-136310000D01*
X131310000Y-136310000D02*
X132785000Y-137785000D01*
X132785000Y-137785000D02*
X132807400Y-137785000D01*
X132807400Y-137785000D02*
X134182400Y-137785000D01*
X133477398Y-137785000D02*
X134182400Y-137785000D01*
X129582400Y-137580000D02*
X130932400Y-137580000D01*
X130932400Y-137580000D02*
X132252400Y-138900000D01*
X132252400Y-138900000D02*
X135042402Y-138900000D01*
X135042402Y-138900000D02*
X135700000Y-138242402D01*
X134887402Y-133975000D02*
X134182400Y-133975000D01*
X135700000Y-138242402D02*
X135700000Y-134787598D01*
X135700000Y-134787598D02*
X134887402Y-133975000D01*
X130950000Y-138850000D02*
X130950000Y-138950000D01*
X130950000Y-138950000D02*
X132500000Y-140500000D01*
X132500000Y-140500000D02*
X133350000Y-140500000D01*
X129582400Y-138850000D02*
X130950000Y-138850000D01*
X108000000Y-122000000D02*
X105250000Y-122000000D01*
X129582400Y-140120000D02*
X130262402Y-140120000D01*
X109500000Y-144500000D02*
X109500000Y-123500000D01*
X130262402Y-140120000D02*
X130832401Y-140689999D01*
X130832401Y-140689999D02*
X130832401Y-142667599D01*
X130832401Y-142667599D02*
X128000000Y-145500000D01*
X128000000Y-145500000D02*
X110500000Y-145500000D01*
X110500000Y-145500000D02*
X109500000Y-144500000D01*
X109500000Y-123500000D02*
X108000000Y-122000000D01*
X130842400Y-127160000D02*
X129382400Y-128620000D01*
X129382400Y-128620000D02*
X129382400Y-132029999D01*
X129382400Y-132029999D02*
X128332399Y-133080000D01*
X128332399Y-133080000D02*
X128332399Y-139550001D01*
X128332399Y-139550001D02*
X128902398Y-140120000D01*
X128902398Y-140120000D02*
X129582400Y-140120000D01*
X107500000Y-119500000D02*
X105250000Y-119500000D01*
X129582400Y-141390000D02*
X129132400Y-141390000D01*
X129132400Y-141390000D02*
X126022400Y-144500000D01*
X126022400Y-144500000D02*
X111000000Y-144500000D01*
X111000000Y-144500000D02*
X110500000Y-144000000D01*
X110500000Y-144000000D02*
X110500000Y-122500000D01*
X110500000Y-122500000D02*
X107500000Y-119500000D01*
X127382400Y-140540000D02*
X128232400Y-141390000D01*
X128232400Y-141390000D02*
X129582400Y-141390000D01*
X130842400Y-124620000D02*
X128382400Y-127080000D01*
X127382400Y-132580000D02*
X127382400Y-140540000D01*
X128382400Y-127080000D02*
X128382400Y-131580000D01*
X128382400Y-131580000D02*
X127382400Y-132580000D01*
D40*
X124632400Y-141390000D02*
X124182400Y-141390000D01*
X126382400Y-139640000D02*
X124632400Y-141390000D01*
X129672399Y-123369999D02*
X127582402Y-125459996D01*
X132012401Y-123369999D02*
X129672399Y-123369999D01*
X132092401Y-123449999D02*
X132012401Y-123369999D01*
X126382400Y-132356004D02*
X126382400Y-139640000D01*
X127582402Y-131156002D02*
X126382400Y-132356004D01*
X127582402Y-125459996D02*
X127582402Y-131156002D01*
X133382400Y-127160000D02*
X132092401Y-125870001D01*
X132092401Y-125870001D02*
X132092401Y-123449999D01*
D36*
X144355000Y-135245000D02*
X147060000Y-132540000D01*
X147060000Y-132540000D02*
X149080000Y-132540000D01*
X139582400Y-135245000D02*
X144355000Y-135245000D01*
X145200000Y-136500000D02*
X146620000Y-135080000D01*
X146620000Y-135080000D02*
X149080000Y-135080000D01*
X140972400Y-136500000D02*
X145200000Y-136500000D01*
X139582400Y-136515000D02*
X140957400Y-136515000D01*
X140957400Y-136515000D02*
X140972400Y-136500000D01*
X148420000Y-135080000D02*
X149080000Y-135080000D01*
D39*
X129700000Y-109535000D02*
X130865000Y-109535000D01*
X130865000Y-109535000D02*
X131300000Y-109100000D01*
X131300000Y-109100000D02*
X131300000Y-105500000D01*
X131300000Y-105500000D02*
X131700000Y-105100000D01*
X131700000Y-105100000D02*
X136040000Y-105100000D01*
X136040000Y-105100000D02*
X138190000Y-102950000D01*
X138190000Y-102950000D02*
X138190000Y-102200000D01*
X127900000Y-109650000D02*
X129585000Y-109650000D01*
X129585000Y-109650000D02*
X129700000Y-109535000D01*
X103750000Y-124500000D02*
X101390000Y-124500000D01*
X101390000Y-124500000D02*
X101270000Y-124620000D01*
X103750000Y-122000000D02*
X101350000Y-122000000D01*
X101350000Y-122000000D02*
X101270000Y-122080000D01*
X103750000Y-119500000D02*
X101310000Y-119500000D01*
X101310000Y-119500000D02*
X101270000Y-119540000D01*
D36*
X130500000Y-145500000D02*
X129500000Y-146500000D01*
X108500000Y-125500000D02*
X107500000Y-124500000D01*
X129500000Y-146500000D02*
X110000000Y-146500000D01*
X110000000Y-146500000D02*
X108500000Y-145000000D01*
X108500000Y-145000000D02*
X108500000Y-125500000D01*
X107500000Y-124500000D02*
X105250000Y-124500000D01*
X122832399Y-142170001D02*
X123262366Y-142599968D01*
X122832399Y-140120001D02*
X122832399Y-142170001D01*
X124182400Y-140120000D02*
X122832399Y-140120001D01*
X123262366Y-142599968D02*
X126006379Y-142599968D01*
D41*
G36*
X107565000Y-125887290D02*
X107565000Y-145000000D01*
X107636173Y-145357809D01*
X107838855Y-145661145D01*
X109338855Y-147161145D01*
X109642191Y-147363827D01*
X110000000Y-147435000D01*
X129500000Y-147435000D01*
X129857809Y-147363827D01*
X130161145Y-147161145D01*
X130387388Y-146934902D01*
X130784187Y-146935248D01*
X131311800Y-146717243D01*
X131715824Y-146313923D01*
X131934750Y-145786691D01*
X131935248Y-145215813D01*
X131717243Y-144688200D01*
X131313923Y-144284176D01*
X130786691Y-144065250D01*
X130757066Y-144065224D01*
X131379671Y-143442619D01*
X145764613Y-143442619D01*
X146104155Y-144264372D01*
X146732321Y-144893636D01*
X147553481Y-145234611D01*
X148442619Y-145235387D01*
X149264372Y-144895845D01*
X149893636Y-144267679D01*
X150234611Y-143446519D01*
X150235387Y-142557381D01*
X149895845Y-141735628D01*
X149267679Y-141106364D01*
X148446519Y-140765389D01*
X147557381Y-140764613D01*
X146735628Y-141104155D01*
X146106364Y-141732321D01*
X145765389Y-142553481D01*
X145764613Y-143442619D01*
X131379671Y-143442619D01*
X131493546Y-143328744D01*
X131696228Y-143025408D01*
X131767401Y-142667599D01*
X131767401Y-141089691D01*
X131838855Y-141161145D01*
X132142191Y-141363827D01*
X132500000Y-141435000D01*
X132682885Y-141435000D01*
X132852235Y-141548157D01*
X133100000Y-141597440D01*
X133600000Y-141597440D01*
X133847765Y-141548157D01*
X134057809Y-141407809D01*
X134100000Y-141344666D01*
X134142191Y-141407809D01*
X134352235Y-141548157D01*
X134600000Y-141597440D01*
X135100000Y-141597440D01*
X135347765Y-141548157D01*
X135517115Y-141435000D01*
X135557715Y-141435000D01*
X135652235Y-141498157D01*
X135900000Y-141547440D01*
X136700000Y-141547440D01*
X136947765Y-141498157D01*
X137099047Y-141397073D01*
X137140302Y-141438327D01*
X137373691Y-141535000D01*
X137614250Y-141535000D01*
X137773000Y-141376250D01*
X137773000Y-140627000D01*
X138027000Y-140627000D01*
X138027000Y-141376250D01*
X138185750Y-141535000D01*
X138426309Y-141535000D01*
X138659698Y-141438327D01*
X138838327Y-141259699D01*
X138935000Y-141026310D01*
X138935000Y-140785750D01*
X138776250Y-140627000D01*
X138027000Y-140627000D01*
X137773000Y-140627000D01*
X137753000Y-140627000D01*
X137753000Y-140373000D01*
X137773000Y-140373000D01*
X137773000Y-139623750D01*
X138027000Y-139623750D01*
X138027000Y-140373000D01*
X138776250Y-140373000D01*
X138935000Y-140214250D01*
X138935000Y-139973690D01*
X138838327Y-139740301D01*
X138659698Y-139561673D01*
X138426309Y-139465000D01*
X138185750Y-139465000D01*
X138027000Y-139623750D01*
X137773000Y-139623750D01*
X137614250Y-139465000D01*
X137373691Y-139465000D01*
X137140302Y-139561673D01*
X137099047Y-139602927D01*
X136947765Y-139501843D01*
X136700000Y-139452560D01*
X135900000Y-139452560D01*
X135790314Y-139474378D01*
X136361145Y-138903547D01*
X136563827Y-138600211D01*
X136635000Y-138242402D01*
X136635000Y-138070750D01*
X138172400Y-138070750D01*
X138172400Y-138211310D01*
X138269073Y-138444699D01*
X138447702Y-138623327D01*
X138681091Y-138720000D01*
X139296650Y-138720000D01*
X139455400Y-138561250D01*
X139455400Y-137912000D01*
X139709400Y-137912000D01*
X139709400Y-138561250D01*
X139868150Y-138720000D01*
X140483709Y-138720000D01*
X140717098Y-138623327D01*
X140895727Y-138444699D01*
X140992400Y-138211310D01*
X140992400Y-138070750D01*
X140898540Y-137976890D01*
X147638524Y-137976890D01*
X147808355Y-138386924D01*
X148198642Y-138815183D01*
X148723108Y-139061486D01*
X148953000Y-138940819D01*
X148953000Y-137747000D01*
X149207000Y-137747000D01*
X149207000Y-138940819D01*
X149436892Y-139061486D01*
X149961358Y-138815183D01*
X150351645Y-138386924D01*
X150521476Y-137976890D01*
X150400155Y-137747000D01*
X149207000Y-137747000D01*
X148953000Y-137747000D01*
X147759845Y-137747000D01*
X147638524Y-137976890D01*
X140898540Y-137976890D01*
X140833650Y-137912000D01*
X139709400Y-137912000D01*
X139455400Y-137912000D01*
X138331150Y-137912000D01*
X138172400Y-138070750D01*
X136635000Y-138070750D01*
X136635000Y-134787598D01*
X136563827Y-134429789D01*
X136361145Y-134126453D01*
X135548547Y-133313855D01*
X135424348Y-133230868D01*
X135415209Y-133217191D01*
X135205165Y-133076843D01*
X134957400Y-133027560D01*
X133407400Y-133027560D01*
X133159635Y-133076843D01*
X132949591Y-133217191D01*
X132809243Y-133427235D01*
X132759960Y-133675000D01*
X132759960Y-134275000D01*
X132809243Y-134522765D01*
X132839627Y-134568237D01*
X132816253Y-134583855D01*
X132692041Y-134769751D01*
X132301145Y-134378855D01*
X131997809Y-134176173D01*
X131640000Y-134105000D01*
X130967400Y-134105000D01*
X130967400Y-134055750D01*
X130808650Y-133897000D01*
X129709400Y-133897000D01*
X129709400Y-133917000D01*
X129455400Y-133917000D01*
X129455400Y-133897000D01*
X129435400Y-133897000D01*
X129435400Y-133643000D01*
X129455400Y-133643000D01*
X129455400Y-133623000D01*
X129709400Y-133623000D01*
X129709400Y-133643000D01*
X130808650Y-133643000D01*
X130967400Y-133484250D01*
X130967400Y-133461471D01*
X131095709Y-133514750D01*
X131666587Y-133515248D01*
X132194200Y-133297243D01*
X132598224Y-132893923D01*
X132692969Y-132665750D01*
X137116200Y-132665750D01*
X137116200Y-132881310D01*
X137212873Y-133114699D01*
X137391502Y-133293327D01*
X137624891Y-133390000D01*
X137865450Y-133390000D01*
X138024200Y-133231250D01*
X138024200Y-132507000D01*
X137274950Y-132507000D01*
X137116200Y-132665750D01*
X132692969Y-132665750D01*
X132817150Y-132366691D01*
X132817575Y-131878690D01*
X137116200Y-131878690D01*
X137116200Y-132094250D01*
X137274950Y-132253000D01*
X138024200Y-132253000D01*
X138024200Y-131528750D01*
X137865450Y-131370000D01*
X137624891Y-131370000D01*
X137391502Y-131466673D01*
X137212873Y-131645301D01*
X137116200Y-131878690D01*
X132817575Y-131878690D01*
X132817648Y-131795813D01*
X132599643Y-131268200D01*
X132196323Y-130864176D01*
X131921524Y-130750069D01*
X131921547Y-130750054D01*
X132110745Y-130466899D01*
X132110755Y-130466924D01*
X132501042Y-130895183D01*
X133025508Y-131141486D01*
X133255400Y-131020819D01*
X133255400Y-129827000D01*
X133509400Y-129827000D01*
X133509400Y-131020819D01*
X133739292Y-131141486D01*
X134263758Y-130895183D01*
X134654045Y-130466924D01*
X134823876Y-130056890D01*
X134702555Y-129827000D01*
X133509400Y-129827000D01*
X133255400Y-129827000D01*
X133235400Y-129827000D01*
X133235400Y-129573000D01*
X133255400Y-129573000D01*
X133255400Y-129553000D01*
X133509400Y-129553000D01*
X133509400Y-129573000D01*
X134702555Y-129573000D01*
X134823876Y-129343110D01*
X134654045Y-128933076D01*
X134263758Y-128504817D01*
X134120847Y-128437702D01*
X134461547Y-128210054D01*
X134783454Y-127728285D01*
X134800393Y-127643125D01*
X138516200Y-131358932D01*
X138516200Y-131370000D01*
X138436950Y-131370000D01*
X138278200Y-131528750D01*
X138278200Y-132253000D01*
X138298200Y-132253000D01*
X138298200Y-132507000D01*
X138278200Y-132507000D01*
X138278200Y-133231250D01*
X138315364Y-133268414D01*
X138209243Y-133427235D01*
X138159960Y-133675000D01*
X138159960Y-134275000D01*
X138209243Y-134522765D01*
X138267532Y-134610000D01*
X138209243Y-134697235D01*
X138159960Y-134945000D01*
X138159960Y-135545000D01*
X138209243Y-135792765D01*
X138267532Y-135880000D01*
X138209243Y-135967235D01*
X138159960Y-136215000D01*
X138159960Y-136815000D01*
X138209243Y-137062765D01*
X138262168Y-137141972D01*
X138172400Y-137358690D01*
X138172400Y-137499250D01*
X138331150Y-137658000D01*
X139455400Y-137658000D01*
X139455400Y-137638000D01*
X139709400Y-137638000D01*
X139709400Y-137658000D01*
X140833650Y-137658000D01*
X140992400Y-137499250D01*
X140992400Y-137443038D01*
X141032810Y-137435000D01*
X145200000Y-137435000D01*
X145557809Y-137363827D01*
X145861145Y-137161145D01*
X147007290Y-136015000D01*
X147923977Y-136015000D01*
X148000853Y-136130054D01*
X148341553Y-136357702D01*
X148198642Y-136424817D01*
X147808355Y-136853076D01*
X147638524Y-137263110D01*
X147759845Y-137493000D01*
X148953000Y-137493000D01*
X148953000Y-137473000D01*
X149207000Y-137473000D01*
X149207000Y-137493000D01*
X150400155Y-137493000D01*
X150521476Y-137263110D01*
X150351645Y-136853076D01*
X149961358Y-136424817D01*
X149818447Y-136357702D01*
X150159147Y-136130054D01*
X150481054Y-135648285D01*
X150594093Y-135080000D01*
X150481054Y-134511715D01*
X150159147Y-134029946D01*
X149829974Y-133810000D01*
X150159147Y-133590054D01*
X150481054Y-133108285D01*
X150594093Y-132540000D01*
X150481054Y-131971715D01*
X150159147Y-131489946D01*
X150115223Y-131460597D01*
X150177765Y-131448157D01*
X150387809Y-131307809D01*
X150528157Y-131097765D01*
X150577440Y-130850000D01*
X150577440Y-130645297D01*
X150590543Y-130625687D01*
X150715000Y-130000000D01*
X150715000Y-127284185D01*
X150897485Y-127247887D01*
X151107529Y-127107539D01*
X151247877Y-126897495D01*
X151290000Y-126685726D01*
X151290000Y-148290000D01*
X100710000Y-148290000D01*
X100710000Y-143442619D01*
X101764613Y-143442619D01*
X102104155Y-144264372D01*
X102732321Y-144893636D01*
X103553481Y-145234611D01*
X104442619Y-145235387D01*
X105264372Y-144895845D01*
X105893636Y-144267679D01*
X106234611Y-143446519D01*
X106235387Y-142557381D01*
X105895845Y-141735628D01*
X105267679Y-141106364D01*
X104446519Y-140765389D01*
X103557381Y-140764613D01*
X102735628Y-141104155D01*
X102106364Y-141732321D01*
X101765389Y-142553481D01*
X101764613Y-143442619D01*
X100710000Y-143442619D01*
X100710000Y-131136007D01*
X100908361Y-131191135D01*
X101143000Y-131031491D01*
X101143000Y-129827000D01*
X101397000Y-129827000D01*
X101397000Y-131031491D01*
X101631639Y-131191135D01*
X102193774Y-131034907D01*
X102653333Y-130675451D01*
X102940352Y-130167491D01*
X102961476Y-130056890D01*
X102840155Y-129827000D01*
X101397000Y-129827000D01*
X101143000Y-129827000D01*
X101123000Y-129827000D01*
X101123000Y-129573000D01*
X101143000Y-129573000D01*
X101143000Y-129553000D01*
X101397000Y-129553000D01*
X101397000Y-129573000D01*
X102840155Y-129573000D01*
X102961476Y-129343110D01*
X102940352Y-129232509D01*
X102653333Y-128724549D01*
X102275888Y-128429321D01*
X102604045Y-128210054D01*
X102654194Y-128135000D01*
X104105394Y-128135000D01*
X104186077Y-128215824D01*
X104713309Y-128434750D01*
X105284187Y-128435248D01*
X105811800Y-128217243D01*
X106215824Y-127813923D01*
X106434750Y-127286691D01*
X106435248Y-126715813D01*
X106217243Y-126188200D01*
X105813923Y-125784176D01*
X105364213Y-125597440D01*
X105500000Y-125597440D01*
X105747765Y-125548157D01*
X105917115Y-125435000D01*
X107112710Y-125435000D01*
X107565000Y-125887290D01*
X107565000Y-125887290D01*
G37*
X107565000Y-125887290D02*
X107565000Y-145000000D01*
X107636173Y-145357809D01*
X107838855Y-145661145D01*
X109338855Y-147161145D01*
X109642191Y-147363827D01*
X110000000Y-147435000D01*
X129500000Y-147435000D01*
X129857809Y-147363827D01*
X130161145Y-147161145D01*
X130387388Y-146934902D01*
X130784187Y-146935248D01*
X131311800Y-146717243D01*
X131715824Y-146313923D01*
X131934750Y-145786691D01*
X131935248Y-145215813D01*
X131717243Y-144688200D01*
X131313923Y-144284176D01*
X130786691Y-144065250D01*
X130757066Y-144065224D01*
X131379671Y-143442619D01*
X145764613Y-143442619D01*
X146104155Y-144264372D01*
X146732321Y-144893636D01*
X147553481Y-145234611D01*
X148442619Y-145235387D01*
X149264372Y-144895845D01*
X149893636Y-144267679D01*
X150234611Y-143446519D01*
X150235387Y-142557381D01*
X149895845Y-141735628D01*
X149267679Y-141106364D01*
X148446519Y-140765389D01*
X147557381Y-140764613D01*
X146735628Y-141104155D01*
X146106364Y-141732321D01*
X145765389Y-142553481D01*
X145764613Y-143442619D01*
X131379671Y-143442619D01*
X131493546Y-143328744D01*
X131696228Y-143025408D01*
X131767401Y-142667599D01*
X131767401Y-141089691D01*
X131838855Y-141161145D01*
X132142191Y-141363827D01*
X132500000Y-141435000D01*
X132682885Y-141435000D01*
X132852235Y-141548157D01*
X133100000Y-141597440D01*
X133600000Y-141597440D01*
X133847765Y-141548157D01*
X134057809Y-141407809D01*
X134100000Y-141344666D01*
X134142191Y-141407809D01*
X134352235Y-141548157D01*
X134600000Y-141597440D01*
X135100000Y-141597440D01*
X135347765Y-141548157D01*
X135517115Y-141435000D01*
X135557715Y-141435000D01*
X135652235Y-141498157D01*
X135900000Y-141547440D01*
X136700000Y-141547440D01*
X136947765Y-141498157D01*
X137099047Y-141397073D01*
X137140302Y-141438327D01*
X137373691Y-141535000D01*
X137614250Y-141535000D01*
X137773000Y-141376250D01*
X137773000Y-140627000D01*
X138027000Y-140627000D01*
X138027000Y-141376250D01*
X138185750Y-141535000D01*
X138426309Y-141535000D01*
X138659698Y-141438327D01*
X138838327Y-141259699D01*
X138935000Y-141026310D01*
X138935000Y-140785750D01*
X138776250Y-140627000D01*
X138027000Y-140627000D01*
X137773000Y-140627000D01*
X137753000Y-140627000D01*
X137753000Y-140373000D01*
X137773000Y-140373000D01*
X137773000Y-139623750D01*
X138027000Y-139623750D01*
X138027000Y-140373000D01*
X138776250Y-140373000D01*
X138935000Y-140214250D01*
X138935000Y-139973690D01*
X138838327Y-139740301D01*
X138659698Y-139561673D01*
X138426309Y-139465000D01*
X138185750Y-139465000D01*
X138027000Y-139623750D01*
X137773000Y-139623750D01*
X137614250Y-139465000D01*
X137373691Y-139465000D01*
X137140302Y-139561673D01*
X137099047Y-139602927D01*
X136947765Y-139501843D01*
X136700000Y-139452560D01*
X135900000Y-139452560D01*
X135790314Y-139474378D01*
X136361145Y-138903547D01*
X136563827Y-138600211D01*
X136635000Y-138242402D01*
X136635000Y-138070750D01*
X138172400Y-138070750D01*
X138172400Y-138211310D01*
X138269073Y-138444699D01*
X138447702Y-138623327D01*
X138681091Y-138720000D01*
X139296650Y-138720000D01*
X139455400Y-138561250D01*
X139455400Y-137912000D01*
X139709400Y-137912000D01*
X139709400Y-138561250D01*
X139868150Y-138720000D01*
X140483709Y-138720000D01*
X140717098Y-138623327D01*
X140895727Y-138444699D01*
X140992400Y-138211310D01*
X140992400Y-138070750D01*
X140898540Y-137976890D01*
X147638524Y-137976890D01*
X147808355Y-138386924D01*
X148198642Y-138815183D01*
X148723108Y-139061486D01*
X148953000Y-138940819D01*
X148953000Y-137747000D01*
X149207000Y-137747000D01*
X149207000Y-138940819D01*
X149436892Y-139061486D01*
X149961358Y-138815183D01*
X150351645Y-138386924D01*
X150521476Y-137976890D01*
X150400155Y-137747000D01*
X149207000Y-137747000D01*
X148953000Y-137747000D01*
X147759845Y-137747000D01*
X147638524Y-137976890D01*
X140898540Y-137976890D01*
X140833650Y-137912000D01*
X139709400Y-137912000D01*
X139455400Y-137912000D01*
X138331150Y-137912000D01*
X138172400Y-138070750D01*
X136635000Y-138070750D01*
X136635000Y-134787598D01*
X136563827Y-134429789D01*
X136361145Y-134126453D01*
X135548547Y-133313855D01*
X135424348Y-133230868D01*
X135415209Y-133217191D01*
X135205165Y-133076843D01*
X134957400Y-133027560D01*
X133407400Y-133027560D01*
X133159635Y-133076843D01*
X132949591Y-133217191D01*
X132809243Y-133427235D01*
X132759960Y-133675000D01*
X132759960Y-134275000D01*
X132809243Y-134522765D01*
X132839627Y-134568237D01*
X132816253Y-134583855D01*
X132692041Y-134769751D01*
X132301145Y-134378855D01*
X131997809Y-134176173D01*
X131640000Y-134105000D01*
X130967400Y-134105000D01*
X130967400Y-134055750D01*
X130808650Y-133897000D01*
X129709400Y-133897000D01*
X129709400Y-133917000D01*
X129455400Y-133917000D01*
X129455400Y-133897000D01*
X129435400Y-133897000D01*
X129435400Y-133643000D01*
X129455400Y-133643000D01*
X129455400Y-133623000D01*
X129709400Y-133623000D01*
X129709400Y-133643000D01*
X130808650Y-133643000D01*
X130967400Y-133484250D01*
X130967400Y-133461471D01*
X131095709Y-133514750D01*
X131666587Y-133515248D01*
X132194200Y-133297243D01*
X132598224Y-132893923D01*
X132692969Y-132665750D01*
X137116200Y-132665750D01*
X137116200Y-132881310D01*
X137212873Y-133114699D01*
X137391502Y-133293327D01*
X137624891Y-133390000D01*
X137865450Y-133390000D01*
X138024200Y-133231250D01*
X138024200Y-132507000D01*
X137274950Y-132507000D01*
X137116200Y-132665750D01*
X132692969Y-132665750D01*
X132817150Y-132366691D01*
X132817575Y-131878690D01*
X137116200Y-131878690D01*
X137116200Y-132094250D01*
X137274950Y-132253000D01*
X138024200Y-132253000D01*
X138024200Y-131528750D01*
X137865450Y-131370000D01*
X137624891Y-131370000D01*
X137391502Y-131466673D01*
X137212873Y-131645301D01*
X137116200Y-131878690D01*
X132817575Y-131878690D01*
X132817648Y-131795813D01*
X132599643Y-131268200D01*
X132196323Y-130864176D01*
X131921524Y-130750069D01*
X131921547Y-130750054D01*
X132110745Y-130466899D01*
X132110755Y-130466924D01*
X132501042Y-130895183D01*
X133025508Y-131141486D01*
X133255400Y-131020819D01*
X133255400Y-129827000D01*
X133509400Y-129827000D01*
X133509400Y-131020819D01*
X133739292Y-131141486D01*
X134263758Y-130895183D01*
X134654045Y-130466924D01*
X134823876Y-130056890D01*
X134702555Y-129827000D01*
X133509400Y-129827000D01*
X133255400Y-129827000D01*
X133235400Y-129827000D01*
X133235400Y-129573000D01*
X133255400Y-129573000D01*
X133255400Y-129553000D01*
X133509400Y-129553000D01*
X133509400Y-129573000D01*
X134702555Y-129573000D01*
X134823876Y-129343110D01*
X134654045Y-128933076D01*
X134263758Y-128504817D01*
X134120847Y-128437702D01*
X134461547Y-128210054D01*
X134783454Y-127728285D01*
X134800393Y-127643125D01*
X138516200Y-131358932D01*
X138516200Y-131370000D01*
X138436950Y-131370000D01*
X138278200Y-131528750D01*
X138278200Y-132253000D01*
X138298200Y-132253000D01*
X138298200Y-132507000D01*
X138278200Y-132507000D01*
X138278200Y-133231250D01*
X138315364Y-133268414D01*
X138209243Y-133427235D01*
X138159960Y-133675000D01*
X138159960Y-134275000D01*
X138209243Y-134522765D01*
X138267532Y-134610000D01*
X138209243Y-134697235D01*
X138159960Y-134945000D01*
X138159960Y-135545000D01*
X138209243Y-135792765D01*
X138267532Y-135880000D01*
X138209243Y-135967235D01*
X138159960Y-136215000D01*
X138159960Y-136815000D01*
X138209243Y-137062765D01*
X138262168Y-137141972D01*
X138172400Y-137358690D01*
X138172400Y-137499250D01*
X138331150Y-137658000D01*
X139455400Y-137658000D01*
X139455400Y-137638000D01*
X139709400Y-137638000D01*
X139709400Y-137658000D01*
X140833650Y-137658000D01*
X140992400Y-137499250D01*
X140992400Y-137443038D01*
X141032810Y-137435000D01*
X145200000Y-137435000D01*
X145557809Y-137363827D01*
X145861145Y-137161145D01*
X147007290Y-136015000D01*
X147923977Y-136015000D01*
X148000853Y-136130054D01*
X148341553Y-136357702D01*
X148198642Y-136424817D01*
X147808355Y-136853076D01*
X147638524Y-137263110D01*
X147759845Y-137493000D01*
X148953000Y-137493000D01*
X148953000Y-137473000D01*
X149207000Y-137473000D01*
X149207000Y-137493000D01*
X150400155Y-137493000D01*
X150521476Y-137263110D01*
X150351645Y-136853076D01*
X149961358Y-136424817D01*
X149818447Y-136357702D01*
X150159147Y-136130054D01*
X150481054Y-135648285D01*
X150594093Y-135080000D01*
X150481054Y-134511715D01*
X150159147Y-134029946D01*
X149829974Y-133810000D01*
X150159147Y-133590054D01*
X150481054Y-133108285D01*
X150594093Y-132540000D01*
X150481054Y-131971715D01*
X150159147Y-131489946D01*
X150115223Y-131460597D01*
X150177765Y-131448157D01*
X150387809Y-131307809D01*
X150528157Y-131097765D01*
X150577440Y-130850000D01*
X150577440Y-130645297D01*
X150590543Y-130625687D01*
X150715000Y-130000000D01*
X150715000Y-127284185D01*
X150897485Y-127247887D01*
X151107529Y-127107539D01*
X151247877Y-126897495D01*
X151290000Y-126685726D01*
X151290000Y-148290000D01*
X100710000Y-148290000D01*
X100710000Y-143442619D01*
X101764613Y-143442619D01*
X102104155Y-144264372D01*
X102732321Y-144893636D01*
X103553481Y-145234611D01*
X104442619Y-145235387D01*
X105264372Y-144895845D01*
X105893636Y-144267679D01*
X106234611Y-143446519D01*
X106235387Y-142557381D01*
X105895845Y-141735628D01*
X105267679Y-141106364D01*
X104446519Y-140765389D01*
X103557381Y-140764613D01*
X102735628Y-141104155D01*
X102106364Y-141732321D01*
X101765389Y-142553481D01*
X101764613Y-143442619D01*
X100710000Y-143442619D01*
X100710000Y-131136007D01*
X100908361Y-131191135D01*
X101143000Y-131031491D01*
X101143000Y-129827000D01*
X101397000Y-129827000D01*
X101397000Y-131031491D01*
X101631639Y-131191135D01*
X102193774Y-131034907D01*
X102653333Y-130675451D01*
X102940352Y-130167491D01*
X102961476Y-130056890D01*
X102840155Y-129827000D01*
X101397000Y-129827000D01*
X101143000Y-129827000D01*
X101123000Y-129827000D01*
X101123000Y-129573000D01*
X101143000Y-129573000D01*
X101143000Y-129553000D01*
X101397000Y-129553000D01*
X101397000Y-129573000D01*
X102840155Y-129573000D01*
X102961476Y-129343110D01*
X102940352Y-129232509D01*
X102653333Y-128724549D01*
X102275888Y-128429321D01*
X102604045Y-128210054D01*
X102654194Y-128135000D01*
X104105394Y-128135000D01*
X104186077Y-128215824D01*
X104713309Y-128434750D01*
X105284187Y-128435248D01*
X105811800Y-128217243D01*
X106215824Y-127813923D01*
X106434750Y-127286691D01*
X106435248Y-126715813D01*
X106217243Y-126188200D01*
X105813923Y-125784176D01*
X105364213Y-125597440D01*
X105500000Y-125597440D01*
X105747765Y-125548157D01*
X105917115Y-125435000D01*
X107112710Y-125435000D01*
X107565000Y-125887290D01*
G36*
X120763880Y-101043880D02*
X119895200Y-101912560D01*
X119760000Y-101912560D01*
X119512235Y-101961843D01*
X119302191Y-102102191D01*
X119161843Y-102312235D01*
X119159304Y-102325000D01*
X118990000Y-102325000D01*
X118555654Y-102411397D01*
X118187434Y-102657434D01*
X117692308Y-103152560D01*
X117600000Y-103152560D01*
X117352235Y-103201843D01*
X117142191Y-103342191D01*
X117001843Y-103552235D01*
X116952560Y-103800000D01*
X116952560Y-104700000D01*
X117001843Y-104947765D01*
X117142191Y-105157809D01*
X117352235Y-105298157D01*
X117600000Y-105347440D01*
X118011174Y-105347440D01*
X118200000Y-105385000D01*
X118388826Y-105347440D01*
X118800000Y-105347440D01*
X119047765Y-105298157D01*
X119257809Y-105157809D01*
X119398157Y-104947765D01*
X119409716Y-104889655D01*
X119512235Y-104958157D01*
X119558498Y-104967359D01*
X119422034Y-105092424D01*
X119168954Y-105635258D01*
X119289003Y-105873000D01*
X120533000Y-105873000D01*
X120533000Y-105853000D01*
X120787000Y-105853000D01*
X120787000Y-105873000D01*
X120807000Y-105873000D01*
X120807000Y-106127000D01*
X120787000Y-106127000D01*
X120787000Y-106147000D01*
X120533000Y-106147000D01*
X120533000Y-106127000D01*
X119289003Y-106127000D01*
X119168954Y-106364742D01*
X119391791Y-106842708D01*
X119257809Y-106642191D01*
X119047765Y-106501843D01*
X118800000Y-106452560D01*
X118388826Y-106452560D01*
X118200000Y-106415000D01*
X118011174Y-106452560D01*
X117600000Y-106452560D01*
X117352235Y-106501843D01*
X117142191Y-106642191D01*
X117001843Y-106852235D01*
X116991348Y-106905000D01*
X112960005Y-106905000D01*
X112960000Y-106904999D01*
X112334312Y-107029457D01*
X111803880Y-107383880D01*
X103843880Y-115343880D01*
X103489457Y-115874312D01*
X103364999Y-116500000D01*
X103489457Y-117125688D01*
X103843880Y-117656120D01*
X104374312Y-118010543D01*
X105000000Y-118135001D01*
X105625688Y-118010543D01*
X106156120Y-117656120D01*
X113637240Y-110175000D01*
X117669701Y-110175000D01*
X117615000Y-110450000D01*
X117615000Y-124722600D01*
X117701397Y-125156946D01*
X117878879Y-125422566D01*
X117947434Y-125525166D01*
X121407977Y-128985709D01*
X121400543Y-128993143D01*
X121176184Y-129328922D01*
X121097398Y-129724999D01*
X121097399Y-129725004D01*
X121097399Y-131329994D01*
X121097398Y-131329999D01*
X121176184Y-131726076D01*
X121400543Y-132061855D01*
X121857011Y-132518323D01*
X121926185Y-132866077D01*
X122150544Y-133201856D01*
X122784960Y-133836272D01*
X122784960Y-134070000D01*
X122791922Y-134105000D01*
X119828490Y-134105000D01*
X118580130Y-132856640D01*
X118580130Y-127930790D01*
X118530847Y-127683025D01*
X118390499Y-127472981D01*
X118180455Y-127332633D01*
X117932690Y-127283350D01*
X115832110Y-127283350D01*
X115584345Y-127332633D01*
X115374301Y-127472981D01*
X115283408Y-127609010D01*
X115280165Y-127606843D01*
X115032400Y-127557560D01*
X114232400Y-127557560D01*
X113984635Y-127606843D01*
X113893298Y-127667873D01*
X113892098Y-127666673D01*
X113658709Y-127570000D01*
X113418150Y-127570000D01*
X113259400Y-127728750D01*
X113259400Y-128453000D01*
X113279400Y-128453000D01*
X113279400Y-128707000D01*
X113259400Y-128707000D01*
X113259400Y-129431250D01*
X113418150Y-129590000D01*
X113658709Y-129590000D01*
X113892098Y-129493327D01*
X113893298Y-129492127D01*
X113984635Y-129553157D01*
X114232400Y-129602440D01*
X114431410Y-129602440D01*
X115184670Y-130355700D01*
X115184670Y-133531490D01*
X115233953Y-133779255D01*
X115374301Y-133989299D01*
X115584345Y-134129647D01*
X115832110Y-134178930D01*
X117257840Y-134178930D01*
X118672606Y-135593696D01*
X118590055Y-135648855D01*
X117257840Y-136981070D01*
X115832110Y-136981070D01*
X115584345Y-137030353D01*
X115374301Y-137170701D01*
X115233953Y-137380745D01*
X115184670Y-137628510D01*
X115184670Y-140804300D01*
X114431410Y-141557560D01*
X113982400Y-141557560D01*
X113734635Y-141606843D01*
X113643298Y-141667873D01*
X113642098Y-141666673D01*
X113408709Y-141570000D01*
X113168150Y-141570000D01*
X113009400Y-141728750D01*
X113009400Y-142453000D01*
X113029400Y-142453000D01*
X113029400Y-142707000D01*
X113009400Y-142707000D01*
X113009400Y-142727000D01*
X112755400Y-142727000D01*
X112755400Y-142707000D01*
X112006150Y-142707000D01*
X111847400Y-142865750D01*
X111847400Y-143081310D01*
X111944073Y-143314699D01*
X112122702Y-143493327D01*
X112295736Y-143565000D01*
X111435000Y-143565000D01*
X111435000Y-142078690D01*
X111847400Y-142078690D01*
X111847400Y-142294250D01*
X112006150Y-142453000D01*
X112755400Y-142453000D01*
X112755400Y-141728750D01*
X112596650Y-141570000D01*
X112356091Y-141570000D01*
X112122702Y-141666673D01*
X111944073Y-141845301D01*
X111847400Y-142078690D01*
X111435000Y-142078690D01*
X111435000Y-128865750D01*
X112097400Y-128865750D01*
X112097400Y-129081310D01*
X112194073Y-129314699D01*
X112372702Y-129493327D01*
X112606091Y-129590000D01*
X112846650Y-129590000D01*
X113005400Y-129431250D01*
X113005400Y-128707000D01*
X112256150Y-128707000D01*
X112097400Y-128865750D01*
X111435000Y-128865750D01*
X111435000Y-128078690D01*
X112097400Y-128078690D01*
X112097400Y-128294250D01*
X112256150Y-128453000D01*
X113005400Y-128453000D01*
X113005400Y-127728750D01*
X112846650Y-127570000D01*
X112606091Y-127570000D01*
X112372702Y-127666673D01*
X112194073Y-127845301D01*
X112097400Y-128078690D01*
X111435000Y-128078690D01*
X111435000Y-122500000D01*
X111363827Y-122142191D01*
X111161145Y-121838855D01*
X108161145Y-118838855D01*
X107857809Y-118636173D01*
X107500000Y-118565000D01*
X105917115Y-118565000D01*
X105747765Y-118451843D01*
X105500000Y-118402560D01*
X105000000Y-118402560D01*
X104752235Y-118451843D01*
X104542191Y-118592191D01*
X104500000Y-118655334D01*
X104457809Y-118592191D01*
X104247765Y-118451843D01*
X104000000Y-118402560D01*
X103500000Y-118402560D01*
X103252235Y-118451843D01*
X103232544Y-118465000D01*
X102566711Y-118465000D01*
X102558247Y-118459345D01*
X102729698Y-118388327D01*
X102908327Y-118209699D01*
X103005000Y-117976310D01*
X103005000Y-117285750D01*
X102846250Y-117127000D01*
X101397000Y-117127000D01*
X101397000Y-117147000D01*
X101143000Y-117147000D01*
X101143000Y-117127000D01*
X101123000Y-117127000D01*
X101123000Y-116873000D01*
X101143000Y-116873000D01*
X101143000Y-115673750D01*
X101397000Y-115673750D01*
X101397000Y-116873000D01*
X102846250Y-116873000D01*
X103005000Y-116714250D01*
X103005000Y-116023690D01*
X102908327Y-115790301D01*
X102729698Y-115611673D01*
X102496309Y-115515000D01*
X101555750Y-115515000D01*
X101397000Y-115673750D01*
X101143000Y-115673750D01*
X100984250Y-115515000D01*
X100710000Y-115515000D01*
X100710000Y-105953275D01*
X101615000Y-105953275D01*
X101615000Y-106046725D01*
X101796547Y-106959425D01*
X102313550Y-107733175D01*
X103087300Y-108250178D01*
X104000000Y-108431725D01*
X104912700Y-108250178D01*
X105686450Y-107733175D01*
X106203453Y-106959425D01*
X106385000Y-106046725D01*
X106385000Y-105953275D01*
X106203453Y-105040575D01*
X105686450Y-104266825D01*
X104912700Y-103749822D01*
X104000000Y-103568275D01*
X103087300Y-103749822D01*
X102313550Y-104266825D01*
X101796547Y-105040575D01*
X101615000Y-105953275D01*
X100710000Y-105953275D01*
X100710000Y-100710000D01*
X121263567Y-100710000D01*
X120763880Y-101043880D01*
X120763880Y-101043880D01*
G37*
X120763880Y-101043880D02*
X119895200Y-101912560D01*
X119760000Y-101912560D01*
X119512235Y-101961843D01*
X119302191Y-102102191D01*
X119161843Y-102312235D01*
X119159304Y-102325000D01*
X118990000Y-102325000D01*
X118555654Y-102411397D01*
X118187434Y-102657434D01*
X117692308Y-103152560D01*
X117600000Y-103152560D01*
X117352235Y-103201843D01*
X117142191Y-103342191D01*
X117001843Y-103552235D01*
X116952560Y-103800000D01*
X116952560Y-104700000D01*
X117001843Y-104947765D01*
X117142191Y-105157809D01*
X117352235Y-105298157D01*
X117600000Y-105347440D01*
X118011174Y-105347440D01*
X118200000Y-105385000D01*
X118388826Y-105347440D01*
X118800000Y-105347440D01*
X119047765Y-105298157D01*
X119257809Y-105157809D01*
X119398157Y-104947765D01*
X119409716Y-104889655D01*
X119512235Y-104958157D01*
X119558498Y-104967359D01*
X119422034Y-105092424D01*
X119168954Y-105635258D01*
X119289003Y-105873000D01*
X120533000Y-105873000D01*
X120533000Y-105853000D01*
X120787000Y-105853000D01*
X120787000Y-105873000D01*
X120807000Y-105873000D01*
X120807000Y-106127000D01*
X120787000Y-106127000D01*
X120787000Y-106147000D01*
X120533000Y-106147000D01*
X120533000Y-106127000D01*
X119289003Y-106127000D01*
X119168954Y-106364742D01*
X119391791Y-106842708D01*
X119257809Y-106642191D01*
X119047765Y-106501843D01*
X118800000Y-106452560D01*
X118388826Y-106452560D01*
X118200000Y-106415000D01*
X118011174Y-106452560D01*
X117600000Y-106452560D01*
X117352235Y-106501843D01*
X117142191Y-106642191D01*
X117001843Y-106852235D01*
X116991348Y-106905000D01*
X112960005Y-106905000D01*
X112960000Y-106904999D01*
X112334312Y-107029457D01*
X111803880Y-107383880D01*
X103843880Y-115343880D01*
X103489457Y-115874312D01*
X103364999Y-116500000D01*
X103489457Y-117125688D01*
X103843880Y-117656120D01*
X104374312Y-118010543D01*
X105000000Y-118135001D01*
X105625688Y-118010543D01*
X106156120Y-117656120D01*
X113637240Y-110175000D01*
X117669701Y-110175000D01*
X117615000Y-110450000D01*
X117615000Y-124722600D01*
X117701397Y-125156946D01*
X117878879Y-125422566D01*
X117947434Y-125525166D01*
X121407977Y-128985709D01*
X121400543Y-128993143D01*
X121176184Y-129328922D01*
X121097398Y-129724999D01*
X121097399Y-129725004D01*
X121097399Y-131329994D01*
X121097398Y-131329999D01*
X121176184Y-131726076D01*
X121400543Y-132061855D01*
X121857011Y-132518323D01*
X121926185Y-132866077D01*
X122150544Y-133201856D01*
X122784960Y-133836272D01*
X122784960Y-134070000D01*
X122791922Y-134105000D01*
X119828490Y-134105000D01*
X118580130Y-132856640D01*
X118580130Y-127930790D01*
X118530847Y-127683025D01*
X118390499Y-127472981D01*
X118180455Y-127332633D01*
X117932690Y-127283350D01*
X115832110Y-127283350D01*
X115584345Y-127332633D01*
X115374301Y-127472981D01*
X115283408Y-127609010D01*
X115280165Y-127606843D01*
X115032400Y-127557560D01*
X114232400Y-127557560D01*
X113984635Y-127606843D01*
X113893298Y-127667873D01*
X113892098Y-127666673D01*
X113658709Y-127570000D01*
X113418150Y-127570000D01*
X113259400Y-127728750D01*
X113259400Y-128453000D01*
X113279400Y-128453000D01*
X113279400Y-128707000D01*
X113259400Y-128707000D01*
X113259400Y-129431250D01*
X113418150Y-129590000D01*
X113658709Y-129590000D01*
X113892098Y-129493327D01*
X113893298Y-129492127D01*
X113984635Y-129553157D01*
X114232400Y-129602440D01*
X114431410Y-129602440D01*
X115184670Y-130355700D01*
X115184670Y-133531490D01*
X115233953Y-133779255D01*
X115374301Y-133989299D01*
X115584345Y-134129647D01*
X115832110Y-134178930D01*
X117257840Y-134178930D01*
X118672606Y-135593696D01*
X118590055Y-135648855D01*
X117257840Y-136981070D01*
X115832110Y-136981070D01*
X115584345Y-137030353D01*
X115374301Y-137170701D01*
X115233953Y-137380745D01*
X115184670Y-137628510D01*
X115184670Y-140804300D01*
X114431410Y-141557560D01*
X113982400Y-141557560D01*
X113734635Y-141606843D01*
X113643298Y-141667873D01*
X113642098Y-141666673D01*
X113408709Y-141570000D01*
X113168150Y-141570000D01*
X113009400Y-141728750D01*
X113009400Y-142453000D01*
X113029400Y-142453000D01*
X113029400Y-142707000D01*
X113009400Y-142707000D01*
X113009400Y-142727000D01*
X112755400Y-142727000D01*
X112755400Y-142707000D01*
X112006150Y-142707000D01*
X111847400Y-142865750D01*
X111847400Y-143081310D01*
X111944073Y-143314699D01*
X112122702Y-143493327D01*
X112295736Y-143565000D01*
X111435000Y-143565000D01*
X111435000Y-142078690D01*
X111847400Y-142078690D01*
X111847400Y-142294250D01*
X112006150Y-142453000D01*
X112755400Y-142453000D01*
X112755400Y-141728750D01*
X112596650Y-141570000D01*
X112356091Y-141570000D01*
X112122702Y-141666673D01*
X111944073Y-141845301D01*
X111847400Y-142078690D01*
X111435000Y-142078690D01*
X111435000Y-128865750D01*
X112097400Y-128865750D01*
X112097400Y-129081310D01*
X112194073Y-129314699D01*
X112372702Y-129493327D01*
X112606091Y-129590000D01*
X112846650Y-129590000D01*
X113005400Y-129431250D01*
X113005400Y-128707000D01*
X112256150Y-128707000D01*
X112097400Y-128865750D01*
X111435000Y-128865750D01*
X111435000Y-128078690D01*
X112097400Y-128078690D01*
X112097400Y-128294250D01*
X112256150Y-128453000D01*
X113005400Y-128453000D01*
X113005400Y-127728750D01*
X112846650Y-127570000D01*
X112606091Y-127570000D01*
X112372702Y-127666673D01*
X112194073Y-127845301D01*
X112097400Y-128078690D01*
X111435000Y-128078690D01*
X111435000Y-122500000D01*
X111363827Y-122142191D01*
X111161145Y-121838855D01*
X108161145Y-118838855D01*
X107857809Y-118636173D01*
X107500000Y-118565000D01*
X105917115Y-118565000D01*
X105747765Y-118451843D01*
X105500000Y-118402560D01*
X105000000Y-118402560D01*
X104752235Y-118451843D01*
X104542191Y-118592191D01*
X104500000Y-118655334D01*
X104457809Y-118592191D01*
X104247765Y-118451843D01*
X104000000Y-118402560D01*
X103500000Y-118402560D01*
X103252235Y-118451843D01*
X103232544Y-118465000D01*
X102566711Y-118465000D01*
X102558247Y-118459345D01*
X102729698Y-118388327D01*
X102908327Y-118209699D01*
X103005000Y-117976310D01*
X103005000Y-117285750D01*
X102846250Y-117127000D01*
X101397000Y-117127000D01*
X101397000Y-117147000D01*
X101143000Y-117147000D01*
X101143000Y-117127000D01*
X101123000Y-117127000D01*
X101123000Y-116873000D01*
X101143000Y-116873000D01*
X101143000Y-115673750D01*
X101397000Y-115673750D01*
X101397000Y-116873000D01*
X102846250Y-116873000D01*
X103005000Y-116714250D01*
X103005000Y-116023690D01*
X102908327Y-115790301D01*
X102729698Y-115611673D01*
X102496309Y-115515000D01*
X101555750Y-115515000D01*
X101397000Y-115673750D01*
X101143000Y-115673750D01*
X100984250Y-115515000D01*
X100710000Y-115515000D01*
X100710000Y-105953275D01*
X101615000Y-105953275D01*
X101615000Y-106046725D01*
X101796547Y-106959425D01*
X102313550Y-107733175D01*
X103087300Y-108250178D01*
X104000000Y-108431725D01*
X104912700Y-108250178D01*
X105686450Y-107733175D01*
X106203453Y-106959425D01*
X106385000Y-106046725D01*
X106385000Y-105953275D01*
X106203453Y-105040575D01*
X105686450Y-104266825D01*
X104912700Y-103749822D01*
X104000000Y-103568275D01*
X103087300Y-103749822D01*
X102313550Y-104266825D01*
X101796547Y-105040575D01*
X101615000Y-105953275D01*
X100710000Y-105953275D01*
X100710000Y-100710000D01*
X121263567Y-100710000D01*
X120763880Y-101043880D01*
G36*
X122784960Y-137280000D02*
X122784960Y-137880000D01*
X122834243Y-138127765D01*
X122892532Y-138215000D01*
X122834243Y-138302235D01*
X122784960Y-138550000D01*
X122784960Y-139150000D01*
X122793463Y-139192746D01*
X122474589Y-139256174D01*
X122262683Y-139397765D01*
X122171254Y-139458856D01*
X121968572Y-139762192D01*
X121897399Y-140120001D01*
X121897399Y-142170001D01*
X121968572Y-142527810D01*
X122171254Y-142831146D01*
X122601221Y-143261113D01*
X122904557Y-143463795D01*
X123262366Y-143534968D01*
X124912121Y-143534968D01*
X124942101Y-143565000D01*
X118472030Y-143565000D01*
X118530847Y-143476975D01*
X118580130Y-143229210D01*
X118580130Y-138303360D01*
X119638490Y-137245000D01*
X122791922Y-137245000D01*
X122784960Y-137280000D01*
X122784960Y-137280000D01*
G37*
X122784960Y-137280000D02*
X122784960Y-137880000D01*
X122834243Y-138127765D01*
X122892532Y-138215000D01*
X122834243Y-138302235D01*
X122784960Y-138550000D01*
X122784960Y-139150000D01*
X122793463Y-139192746D01*
X122474589Y-139256174D01*
X122262683Y-139397765D01*
X122171254Y-139458856D01*
X121968572Y-139762192D01*
X121897399Y-140120001D01*
X121897399Y-142170001D01*
X121968572Y-142527810D01*
X122171254Y-142831146D01*
X122601221Y-143261113D01*
X122904557Y-143463795D01*
X123262366Y-143534968D01*
X124912121Y-143534968D01*
X124942101Y-143565000D01*
X118472030Y-143565000D01*
X118530847Y-143476975D01*
X118580130Y-143229210D01*
X118580130Y-138303360D01*
X119638490Y-137245000D01*
X122791922Y-137245000D01*
X122784960Y-137280000D01*
G36*
X124853035Y-104183223D02*
X124871237Y-104565000D01*
X123785750Y-104565000D01*
X123627000Y-104723750D01*
X123627000Y-106073000D01*
X125226250Y-106073000D01*
X125385000Y-105914250D01*
X125385000Y-105494608D01*
X125471861Y-105407747D01*
X125545995Y-105653864D01*
X126083223Y-105846965D01*
X126653454Y-105819778D01*
X127054005Y-105653864D01*
X127128139Y-105407745D01*
X126300000Y-104579605D01*
X126285858Y-104593748D01*
X126106252Y-104414142D01*
X126120395Y-104400000D01*
X126106252Y-104385858D01*
X126285858Y-104206253D01*
X126300000Y-104220395D01*
X126314143Y-104206253D01*
X126493748Y-104385858D01*
X126479605Y-104400000D01*
X127307745Y-105228139D01*
X127553864Y-105154005D01*
X127746965Y-104616777D01*
X127719778Y-104046546D01*
X127632153Y-103835000D01*
X128165000Y-103835000D01*
X128165000Y-104400000D01*
X128289457Y-105025687D01*
X128352560Y-105120128D01*
X128352560Y-105200000D01*
X128401843Y-105447765D01*
X128488743Y-105577819D01*
X128442560Y-105810000D01*
X128442560Y-106720000D01*
X128491843Y-106967765D01*
X128632191Y-107177809D01*
X128842235Y-107318157D01*
X129090000Y-107367440D01*
X130265000Y-107367440D01*
X130265000Y-108432560D01*
X129090000Y-108432560D01*
X128985000Y-108453446D01*
X128985000Y-108433750D01*
X128826250Y-108275000D01*
X128027000Y-108275000D01*
X128027000Y-108297000D01*
X127773000Y-108297000D01*
X127773000Y-108275000D01*
X126973750Y-108275000D01*
X126815000Y-108433750D01*
X126815000Y-108526309D01*
X126911673Y-108759698D01*
X127053320Y-108901346D01*
X126992191Y-108942191D01*
X126851843Y-109152235D01*
X126802560Y-109400000D01*
X126802560Y-109900000D01*
X126851843Y-110147765D01*
X126992191Y-110357809D01*
X127202235Y-110498157D01*
X127401530Y-110537799D01*
X127503923Y-110606215D01*
X127900000Y-110685000D01*
X129584995Y-110685000D01*
X129585000Y-110685001D01*
X129824101Y-110637440D01*
X130310000Y-110637440D01*
X130557765Y-110588157D01*
X130584939Y-110570000D01*
X130864995Y-110570000D01*
X130865000Y-110570001D01*
X131261077Y-110491215D01*
X131596856Y-110266856D01*
X131742560Y-110121152D01*
X131742560Y-113100000D01*
X131791843Y-113347765D01*
X131932191Y-113557809D01*
X132142235Y-113698157D01*
X132390000Y-113747440D01*
X139390000Y-113747440D01*
X139637765Y-113698157D01*
X139847809Y-113557809D01*
X139915000Y-113457251D01*
X139915000Y-114276310D01*
X140011673Y-114509699D01*
X140190302Y-114688327D01*
X140423691Y-114785000D01*
X142014250Y-114785000D01*
X142173000Y-114626250D01*
X142173000Y-113127000D01*
X142427000Y-113127000D01*
X142427000Y-114626250D01*
X142585750Y-114785000D01*
X144176309Y-114785000D01*
X144409698Y-114688327D01*
X144588327Y-114509699D01*
X144685000Y-114276310D01*
X144685000Y-113285750D01*
X144526250Y-113127000D01*
X142427000Y-113127000D01*
X142173000Y-113127000D01*
X142153000Y-113127000D01*
X142153000Y-112873000D01*
X142173000Y-112873000D01*
X142173000Y-112853000D01*
X142427000Y-112853000D01*
X142427000Y-112873000D01*
X144526250Y-112873000D01*
X144685000Y-112714250D01*
X144685000Y-112297240D01*
X145302560Y-112914800D01*
X145302560Y-114150000D01*
X145351843Y-114397765D01*
X145492191Y-114607809D01*
X145702235Y-114748157D01*
X145950000Y-114797440D01*
X147185200Y-114797440D01*
X147365000Y-114977239D01*
X147365000Y-115687459D01*
X147352560Y-115750000D01*
X147352560Y-116335201D01*
X146518505Y-117169255D01*
X146476250Y-117127000D01*
X145127000Y-117127000D01*
X145127000Y-118726250D01*
X145285750Y-118885000D01*
X146015000Y-118885000D01*
X146015000Y-120000000D01*
X146139457Y-120625687D01*
X146293616Y-120856402D01*
X146301843Y-120897765D01*
X146442191Y-121107809D01*
X146477254Y-121131238D01*
X146493880Y-121156120D01*
X147024313Y-121510543D01*
X147650000Y-121635000D01*
X148275687Y-121510543D01*
X148715000Y-121217004D01*
X148715000Y-122372041D01*
X148384211Y-122702830D01*
X146148840Y-122702830D01*
X145901075Y-122752113D01*
X145691031Y-122892461D01*
X145550683Y-123102505D01*
X145501400Y-123350270D01*
X145501400Y-126649730D01*
X145550683Y-126897495D01*
X145691031Y-127107539D01*
X145901075Y-127247887D01*
X146148840Y-127297170D01*
X147445000Y-127297170D01*
X147445000Y-130000000D01*
X147569457Y-130625687D01*
X147582560Y-130645297D01*
X147582560Y-130850000D01*
X147631843Y-131097765D01*
X147772191Y-131307809D01*
X147982235Y-131448157D01*
X148044777Y-131460597D01*
X148000853Y-131489946D01*
X147923977Y-131605000D01*
X147060000Y-131605000D01*
X146702191Y-131676173D01*
X146398855Y-131878855D01*
X143967710Y-134310000D01*
X140997878Y-134310000D01*
X141004840Y-134275000D01*
X141004840Y-133675000D01*
X140955557Y-133427235D01*
X140815209Y-133217191D01*
X140605165Y-133076843D01*
X140600482Y-133075911D01*
X140649357Y-133002765D01*
X140681339Y-132841979D01*
X140699803Y-132814346D01*
X140786200Y-132380000D01*
X140786200Y-130888800D01*
X140699803Y-130454454D01*
X140453766Y-130086234D01*
X137652262Y-127284730D01*
X139314970Y-127284730D01*
X139473720Y-127125980D01*
X139473720Y-125127000D01*
X139727720Y-125127000D01*
X139727720Y-127125980D01*
X139886470Y-127284730D01*
X141976200Y-127284730D01*
X142209589Y-127188057D01*
X142388217Y-127009428D01*
X142484890Y-126776039D01*
X142484890Y-125285750D01*
X142326140Y-125127000D01*
X139727720Y-125127000D01*
X139473720Y-125127000D01*
X136875300Y-125127000D01*
X136716550Y-125285750D01*
X136716550Y-126349018D01*
X134873888Y-124506356D01*
X134783454Y-124051715D01*
X134517400Y-123653536D01*
X134517400Y-123223961D01*
X136716550Y-123223961D01*
X136716550Y-124714250D01*
X136875300Y-124873000D01*
X139473720Y-124873000D01*
X139473720Y-122874020D01*
X139727720Y-122874020D01*
X139727720Y-124873000D01*
X142326140Y-124873000D01*
X142484890Y-124714250D01*
X142484890Y-123223961D01*
X142388217Y-122990572D01*
X142209589Y-122811943D01*
X141976200Y-122715270D01*
X139886470Y-122715270D01*
X139727720Y-122874020D01*
X139473720Y-122874020D01*
X139314970Y-122715270D01*
X137225240Y-122715270D01*
X136991851Y-122811943D01*
X136813223Y-122990572D01*
X136716550Y-123223961D01*
X134517400Y-123223961D01*
X134517400Y-122382400D01*
X134431003Y-121948054D01*
X134184966Y-121579834D01*
X133802566Y-121197434D01*
X133740735Y-121156120D01*
X133434346Y-120951397D01*
X133000000Y-120865000D01*
X121285000Y-120865000D01*
X121285000Y-120785750D01*
X121126250Y-120627000D01*
X120377000Y-120627000D01*
X120377000Y-120647000D01*
X120123000Y-120647000D01*
X120123000Y-120627000D01*
X120103000Y-120627000D01*
X120103000Y-120373000D01*
X120123000Y-120373000D01*
X120123000Y-119648750D01*
X120377000Y-119648750D01*
X120377000Y-120373000D01*
X121126250Y-120373000D01*
X121285000Y-120214250D01*
X121285000Y-119998690D01*
X121188327Y-119765301D01*
X121009698Y-119586673D01*
X120776309Y-119490000D01*
X120535750Y-119490000D01*
X120377000Y-119648750D01*
X120123000Y-119648750D01*
X119964250Y-119490000D01*
X119885000Y-119490000D01*
X119885000Y-117285750D01*
X143365000Y-117285750D01*
X143365000Y-118376310D01*
X143461673Y-118609699D01*
X143640302Y-118788327D01*
X143873691Y-118885000D01*
X144714250Y-118885000D01*
X144873000Y-118726250D01*
X144873000Y-117127000D01*
X143523750Y-117127000D01*
X143365000Y-117285750D01*
X119885000Y-117285750D01*
X119885000Y-115922736D01*
X119911631Y-115949367D01*
X120145020Y-116046040D01*
X120385580Y-116046040D01*
X120544330Y-115887290D01*
X120544330Y-115138040D01*
X120798330Y-115138040D01*
X120798330Y-115887290D01*
X120957080Y-116046040D01*
X121197640Y-116046040D01*
X121431029Y-115949367D01*
X121609657Y-115770738D01*
X121670566Y-115623690D01*
X143365000Y-115623690D01*
X143365000Y-116714250D01*
X143523750Y-116873000D01*
X144873000Y-116873000D01*
X144873000Y-115273750D01*
X145127000Y-115273750D01*
X145127000Y-116873000D01*
X146476250Y-116873000D01*
X146635000Y-116714250D01*
X146635000Y-115623690D01*
X146538327Y-115390301D01*
X146359698Y-115211673D01*
X146126309Y-115115000D01*
X145285750Y-115115000D01*
X145127000Y-115273750D01*
X144873000Y-115273750D01*
X144714250Y-115115000D01*
X143873691Y-115115000D01*
X143640302Y-115211673D01*
X143461673Y-115390301D01*
X143365000Y-115623690D01*
X121670566Y-115623690D01*
X121706330Y-115537349D01*
X121706330Y-115296790D01*
X121547580Y-115138040D01*
X120798330Y-115138040D01*
X120544330Y-115138040D01*
X120524330Y-115138040D01*
X120524330Y-114884040D01*
X120544330Y-114884040D01*
X120544330Y-114864040D01*
X120798330Y-114864040D01*
X120798330Y-114884040D01*
X121547580Y-114884040D01*
X121706330Y-114725290D01*
X121706330Y-114484731D01*
X121609657Y-114251342D01*
X121568403Y-114210087D01*
X121669487Y-114058805D01*
X121718770Y-113811040D01*
X121718770Y-113011040D01*
X121706330Y-112948499D01*
X121706330Y-112478496D01*
X121719487Y-112458805D01*
X121768770Y-112211040D01*
X121768770Y-111711040D01*
X121719487Y-111463275D01*
X121579139Y-111253231D01*
X121515996Y-111211040D01*
X121579139Y-111168849D01*
X121719487Y-110958805D01*
X121768770Y-110711040D01*
X121768770Y-110649866D01*
X121806330Y-110461040D01*
X121768770Y-110272214D01*
X121768770Y-110211040D01*
X121719487Y-109963275D01*
X121625903Y-109823218D01*
X121816120Y-109696120D01*
X122170543Y-109165687D01*
X122295000Y-108540000D01*
X122170543Y-107914313D01*
X122115197Y-107831482D01*
X122123690Y-107835000D01*
X123214250Y-107835000D01*
X123373000Y-107676250D01*
X123373000Y-106327000D01*
X123627000Y-106327000D01*
X123627000Y-107676250D01*
X123785750Y-107835000D01*
X124876310Y-107835000D01*
X125024322Y-107773691D01*
X126815000Y-107773691D01*
X126815000Y-107866250D01*
X126973750Y-108025000D01*
X127773000Y-108025000D01*
X127773000Y-107423750D01*
X128027000Y-107423750D01*
X128027000Y-108025000D01*
X128826250Y-108025000D01*
X128985000Y-107866250D01*
X128985000Y-107773691D01*
X128888327Y-107540302D01*
X128709699Y-107361673D01*
X128476310Y-107265000D01*
X128185750Y-107265000D01*
X128027000Y-107423750D01*
X127773000Y-107423750D01*
X127614250Y-107265000D01*
X127323690Y-107265000D01*
X127090301Y-107361673D01*
X126911673Y-107540302D01*
X126815000Y-107773691D01*
X125024322Y-107773691D01*
X125109699Y-107738327D01*
X125288327Y-107559698D01*
X125385000Y-107326309D01*
X125385000Y-106485750D01*
X125226250Y-106327000D01*
X123627000Y-106327000D01*
X123373000Y-106327000D01*
X123353000Y-106327000D01*
X123353000Y-106073000D01*
X123373000Y-106073000D01*
X123373000Y-104723750D01*
X123214250Y-104565000D01*
X122166663Y-104565000D01*
X122207440Y-104360000D01*
X122207440Y-104224800D01*
X122584800Y-103847440D01*
X124750000Y-103847440D01*
X124812541Y-103835000D01*
X124978200Y-103835000D01*
X124853035Y-104183223D01*
X124853035Y-104183223D01*
G37*
X124853035Y-104183223D02*
X124871237Y-104565000D01*
X123785750Y-104565000D01*
X123627000Y-104723750D01*
X123627000Y-106073000D01*
X125226250Y-106073000D01*
X125385000Y-105914250D01*
X125385000Y-105494608D01*
X125471861Y-105407747D01*
X125545995Y-105653864D01*
X126083223Y-105846965D01*
X126653454Y-105819778D01*
X127054005Y-105653864D01*
X127128139Y-105407745D01*
X126300000Y-104579605D01*
X126285858Y-104593748D01*
X126106252Y-104414142D01*
X126120395Y-104400000D01*
X126106252Y-104385858D01*
X126285858Y-104206253D01*
X126300000Y-104220395D01*
X126314143Y-104206253D01*
X126493748Y-104385858D01*
X126479605Y-104400000D01*
X127307745Y-105228139D01*
X127553864Y-105154005D01*
X127746965Y-104616777D01*
X127719778Y-104046546D01*
X127632153Y-103835000D01*
X128165000Y-103835000D01*
X128165000Y-104400000D01*
X128289457Y-105025687D01*
X128352560Y-105120128D01*
X128352560Y-105200000D01*
X128401843Y-105447765D01*
X128488743Y-105577819D01*
X128442560Y-105810000D01*
X128442560Y-106720000D01*
X128491843Y-106967765D01*
X128632191Y-107177809D01*
X128842235Y-107318157D01*
X129090000Y-107367440D01*
X130265000Y-107367440D01*
X130265000Y-108432560D01*
X129090000Y-108432560D01*
X128985000Y-108453446D01*
X128985000Y-108433750D01*
X128826250Y-108275000D01*
X128027000Y-108275000D01*
X128027000Y-108297000D01*
X127773000Y-108297000D01*
X127773000Y-108275000D01*
X126973750Y-108275000D01*
X126815000Y-108433750D01*
X126815000Y-108526309D01*
X126911673Y-108759698D01*
X127053320Y-108901346D01*
X126992191Y-108942191D01*
X126851843Y-109152235D01*
X126802560Y-109400000D01*
X126802560Y-109900000D01*
X126851843Y-110147765D01*
X126992191Y-110357809D01*
X127202235Y-110498157D01*
X127401530Y-110537799D01*
X127503923Y-110606215D01*
X127900000Y-110685000D01*
X129584995Y-110685000D01*
X129585000Y-110685001D01*
X129824101Y-110637440D01*
X130310000Y-110637440D01*
X130557765Y-110588157D01*
X130584939Y-110570000D01*
X130864995Y-110570000D01*
X130865000Y-110570001D01*
X131261077Y-110491215D01*
X131596856Y-110266856D01*
X131742560Y-110121152D01*
X131742560Y-113100000D01*
X131791843Y-113347765D01*
X131932191Y-113557809D01*
X132142235Y-113698157D01*
X132390000Y-113747440D01*
X139390000Y-113747440D01*
X139637765Y-113698157D01*
X139847809Y-113557809D01*
X139915000Y-113457251D01*
X139915000Y-114276310D01*
X140011673Y-114509699D01*
X140190302Y-114688327D01*
X140423691Y-114785000D01*
X142014250Y-114785000D01*
X142173000Y-114626250D01*
X142173000Y-113127000D01*
X142427000Y-113127000D01*
X142427000Y-114626250D01*
X142585750Y-114785000D01*
X144176309Y-114785000D01*
X144409698Y-114688327D01*
X144588327Y-114509699D01*
X144685000Y-114276310D01*
X144685000Y-113285750D01*
X144526250Y-113127000D01*
X142427000Y-113127000D01*
X142173000Y-113127000D01*
X142153000Y-113127000D01*
X142153000Y-112873000D01*
X142173000Y-112873000D01*
X142173000Y-112853000D01*
X142427000Y-112853000D01*
X142427000Y-112873000D01*
X144526250Y-112873000D01*
X144685000Y-112714250D01*
X144685000Y-112297240D01*
X145302560Y-112914800D01*
X145302560Y-114150000D01*
X145351843Y-114397765D01*
X145492191Y-114607809D01*
X145702235Y-114748157D01*
X145950000Y-114797440D01*
X147185200Y-114797440D01*
X147365000Y-114977239D01*
X147365000Y-115687459D01*
X147352560Y-115750000D01*
X147352560Y-116335201D01*
X146518505Y-117169255D01*
X146476250Y-117127000D01*
X145127000Y-117127000D01*
X145127000Y-118726250D01*
X145285750Y-118885000D01*
X146015000Y-118885000D01*
X146015000Y-120000000D01*
X146139457Y-120625687D01*
X146293616Y-120856402D01*
X146301843Y-120897765D01*
X146442191Y-121107809D01*
X146477254Y-121131238D01*
X146493880Y-121156120D01*
X147024313Y-121510543D01*
X147650000Y-121635000D01*
X148275687Y-121510543D01*
X148715000Y-121217004D01*
X148715000Y-122372041D01*
X148384211Y-122702830D01*
X146148840Y-122702830D01*
X145901075Y-122752113D01*
X145691031Y-122892461D01*
X145550683Y-123102505D01*
X145501400Y-123350270D01*
X145501400Y-126649730D01*
X145550683Y-126897495D01*
X145691031Y-127107539D01*
X145901075Y-127247887D01*
X146148840Y-127297170D01*
X147445000Y-127297170D01*
X147445000Y-130000000D01*
X147569457Y-130625687D01*
X147582560Y-130645297D01*
X147582560Y-130850000D01*
X147631843Y-131097765D01*
X147772191Y-131307809D01*
X147982235Y-131448157D01*
X148044777Y-131460597D01*
X148000853Y-131489946D01*
X147923977Y-131605000D01*
X147060000Y-131605000D01*
X146702191Y-131676173D01*
X146398855Y-131878855D01*
X143967710Y-134310000D01*
X140997878Y-134310000D01*
X141004840Y-134275000D01*
X141004840Y-133675000D01*
X140955557Y-133427235D01*
X140815209Y-133217191D01*
X140605165Y-133076843D01*
X140600482Y-133075911D01*
X140649357Y-133002765D01*
X140681339Y-132841979D01*
X140699803Y-132814346D01*
X140786200Y-132380000D01*
X140786200Y-130888800D01*
X140699803Y-130454454D01*
X140453766Y-130086234D01*
X137652262Y-127284730D01*
X139314970Y-127284730D01*
X139473720Y-127125980D01*
X139473720Y-125127000D01*
X139727720Y-125127000D01*
X139727720Y-127125980D01*
X139886470Y-127284730D01*
X141976200Y-127284730D01*
X142209589Y-127188057D01*
X142388217Y-127009428D01*
X142484890Y-126776039D01*
X142484890Y-125285750D01*
X142326140Y-125127000D01*
X139727720Y-125127000D01*
X139473720Y-125127000D01*
X136875300Y-125127000D01*
X136716550Y-125285750D01*
X136716550Y-126349018D01*
X134873888Y-124506356D01*
X134783454Y-124051715D01*
X134517400Y-123653536D01*
X134517400Y-123223961D01*
X136716550Y-123223961D01*
X136716550Y-124714250D01*
X136875300Y-124873000D01*
X139473720Y-124873000D01*
X139473720Y-122874020D01*
X139727720Y-122874020D01*
X139727720Y-124873000D01*
X142326140Y-124873000D01*
X142484890Y-124714250D01*
X142484890Y-123223961D01*
X142388217Y-122990572D01*
X142209589Y-122811943D01*
X141976200Y-122715270D01*
X139886470Y-122715270D01*
X139727720Y-122874020D01*
X139473720Y-122874020D01*
X139314970Y-122715270D01*
X137225240Y-122715270D01*
X136991851Y-122811943D01*
X136813223Y-122990572D01*
X136716550Y-123223961D01*
X134517400Y-123223961D01*
X134517400Y-122382400D01*
X134431003Y-121948054D01*
X134184966Y-121579834D01*
X133802566Y-121197434D01*
X133740735Y-121156120D01*
X133434346Y-120951397D01*
X133000000Y-120865000D01*
X121285000Y-120865000D01*
X121285000Y-120785750D01*
X121126250Y-120627000D01*
X120377000Y-120627000D01*
X120377000Y-120647000D01*
X120123000Y-120647000D01*
X120123000Y-120627000D01*
X120103000Y-120627000D01*
X120103000Y-120373000D01*
X120123000Y-120373000D01*
X120123000Y-119648750D01*
X120377000Y-119648750D01*
X120377000Y-120373000D01*
X121126250Y-120373000D01*
X121285000Y-120214250D01*
X121285000Y-119998690D01*
X121188327Y-119765301D01*
X121009698Y-119586673D01*
X120776309Y-119490000D01*
X120535750Y-119490000D01*
X120377000Y-119648750D01*
X120123000Y-119648750D01*
X119964250Y-119490000D01*
X119885000Y-119490000D01*
X119885000Y-117285750D01*
X143365000Y-117285750D01*
X143365000Y-118376310D01*
X143461673Y-118609699D01*
X143640302Y-118788327D01*
X143873691Y-118885000D01*
X144714250Y-118885000D01*
X144873000Y-118726250D01*
X144873000Y-117127000D01*
X143523750Y-117127000D01*
X143365000Y-117285750D01*
X119885000Y-117285750D01*
X119885000Y-115922736D01*
X119911631Y-115949367D01*
X120145020Y-116046040D01*
X120385580Y-116046040D01*
X120544330Y-115887290D01*
X120544330Y-115138040D01*
X120798330Y-115138040D01*
X120798330Y-115887290D01*
X120957080Y-116046040D01*
X121197640Y-116046040D01*
X121431029Y-115949367D01*
X121609657Y-115770738D01*
X121670566Y-115623690D01*
X143365000Y-115623690D01*
X143365000Y-116714250D01*
X143523750Y-116873000D01*
X144873000Y-116873000D01*
X144873000Y-115273750D01*
X145127000Y-115273750D01*
X145127000Y-116873000D01*
X146476250Y-116873000D01*
X146635000Y-116714250D01*
X146635000Y-115623690D01*
X146538327Y-115390301D01*
X146359698Y-115211673D01*
X146126309Y-115115000D01*
X145285750Y-115115000D01*
X145127000Y-115273750D01*
X144873000Y-115273750D01*
X144714250Y-115115000D01*
X143873691Y-115115000D01*
X143640302Y-115211673D01*
X143461673Y-115390301D01*
X143365000Y-115623690D01*
X121670566Y-115623690D01*
X121706330Y-115537349D01*
X121706330Y-115296790D01*
X121547580Y-115138040D01*
X120798330Y-115138040D01*
X120544330Y-115138040D01*
X120524330Y-115138040D01*
X120524330Y-114884040D01*
X120544330Y-114884040D01*
X120544330Y-114864040D01*
X120798330Y-114864040D01*
X120798330Y-114884040D01*
X121547580Y-114884040D01*
X121706330Y-114725290D01*
X121706330Y-114484731D01*
X121609657Y-114251342D01*
X121568403Y-114210087D01*
X121669487Y-114058805D01*
X121718770Y-113811040D01*
X121718770Y-113011040D01*
X121706330Y-112948499D01*
X121706330Y-112478496D01*
X121719487Y-112458805D01*
X121768770Y-112211040D01*
X121768770Y-111711040D01*
X121719487Y-111463275D01*
X121579139Y-111253231D01*
X121515996Y-111211040D01*
X121579139Y-111168849D01*
X121719487Y-110958805D01*
X121768770Y-110711040D01*
X121768770Y-110649866D01*
X121806330Y-110461040D01*
X121768770Y-110272214D01*
X121768770Y-110211040D01*
X121719487Y-109963275D01*
X121625903Y-109823218D01*
X121816120Y-109696120D01*
X122170543Y-109165687D01*
X122295000Y-108540000D01*
X122170543Y-107914313D01*
X122115197Y-107831482D01*
X122123690Y-107835000D01*
X123214250Y-107835000D01*
X123373000Y-107676250D01*
X123373000Y-106327000D01*
X123627000Y-106327000D01*
X123627000Y-107676250D01*
X123785750Y-107835000D01*
X124876310Y-107835000D01*
X125024322Y-107773691D01*
X126815000Y-107773691D01*
X126815000Y-107866250D01*
X126973750Y-108025000D01*
X127773000Y-108025000D01*
X127773000Y-107423750D01*
X128027000Y-107423750D01*
X128027000Y-108025000D01*
X128826250Y-108025000D01*
X128985000Y-107866250D01*
X128985000Y-107773691D01*
X128888327Y-107540302D01*
X128709699Y-107361673D01*
X128476310Y-107265000D01*
X128185750Y-107265000D01*
X128027000Y-107423750D01*
X127773000Y-107423750D01*
X127614250Y-107265000D01*
X127323690Y-107265000D01*
X127090301Y-107361673D01*
X126911673Y-107540302D01*
X126815000Y-107773691D01*
X125024322Y-107773691D01*
X125109699Y-107738327D01*
X125288327Y-107559698D01*
X125385000Y-107326309D01*
X125385000Y-106485750D01*
X125226250Y-106327000D01*
X123627000Y-106327000D01*
X123373000Y-106327000D01*
X123353000Y-106327000D01*
X123353000Y-106073000D01*
X123373000Y-106073000D01*
X123373000Y-104723750D01*
X123214250Y-104565000D01*
X122166663Y-104565000D01*
X122207440Y-104360000D01*
X122207440Y-104224800D01*
X122584800Y-103847440D01*
X124750000Y-103847440D01*
X124812541Y-103835000D01*
X124978200Y-103835000D01*
X124853035Y-104183223D01*
G36*
X126991968Y-124869562D02*
X126810963Y-125140455D01*
X126747402Y-125459996D01*
X126747402Y-129177768D01*
X126669091Y-129145250D01*
X126098213Y-129144752D01*
X125636980Y-129335330D01*
X125508650Y-129207000D01*
X124759400Y-129207000D01*
X124759400Y-130453000D01*
X124779400Y-130453000D01*
X124779400Y-130707000D01*
X124759400Y-130707000D01*
X124759400Y-130727000D01*
X124601690Y-130727000D01*
X124485400Y-130610710D01*
X124485400Y-130453000D01*
X124505400Y-130453000D01*
X124505400Y-129207000D01*
X124485400Y-129207000D01*
X124485400Y-128953000D01*
X124505400Y-128953000D01*
X124505400Y-128228750D01*
X124759400Y-128228750D01*
X124759400Y-128953000D01*
X125508650Y-128953000D01*
X125667400Y-128794250D01*
X125667400Y-128578690D01*
X125570727Y-128345301D01*
X125392098Y-128166673D01*
X125158709Y-128070000D01*
X124918150Y-128070000D01*
X124759400Y-128228750D01*
X124505400Y-128228750D01*
X124346650Y-128070000D01*
X124106091Y-128070000D01*
X123872702Y-128166673D01*
X123871502Y-128167873D01*
X123780165Y-128106843D01*
X123729247Y-128096715D01*
X119885000Y-124252468D01*
X119885000Y-123135000D01*
X128726530Y-123135000D01*
X126991968Y-124869562D01*
X126991968Y-124869562D01*
G37*
X126991968Y-124869562D02*
X126810963Y-125140455D01*
X126747402Y-125459996D01*
X126747402Y-129177768D01*
X126669091Y-129145250D01*
X126098213Y-129144752D01*
X125636980Y-129335330D01*
X125508650Y-129207000D01*
X124759400Y-129207000D01*
X124759400Y-130453000D01*
X124779400Y-130453000D01*
X124779400Y-130707000D01*
X124759400Y-130707000D01*
X124759400Y-130727000D01*
X124601690Y-130727000D01*
X124485400Y-130610710D01*
X124485400Y-130453000D01*
X124505400Y-130453000D01*
X124505400Y-129207000D01*
X124485400Y-129207000D01*
X124485400Y-128953000D01*
X124505400Y-128953000D01*
X124505400Y-128228750D01*
X124759400Y-128228750D01*
X124759400Y-128953000D01*
X125508650Y-128953000D01*
X125667400Y-128794250D01*
X125667400Y-128578690D01*
X125570727Y-128345301D01*
X125392098Y-128166673D01*
X125158709Y-128070000D01*
X124918150Y-128070000D01*
X124759400Y-128228750D01*
X124505400Y-128228750D01*
X124346650Y-128070000D01*
X124106091Y-128070000D01*
X123872702Y-128166673D01*
X123871502Y-128167873D01*
X123780165Y-128106843D01*
X123729247Y-128096715D01*
X119885000Y-124252468D01*
X119885000Y-123135000D01*
X128726530Y-123135000D01*
X126991968Y-124869562D01*
M02*
