G04 #@! TF.GenerationSoftware,KiCad,Pcbnew,no-vcs-found-24a9003~58~ubuntu16.04.1*
G04 #@! TF.CreationDate,2017-03-06T17:54:42+02:00*
G04 #@! TF.ProjectId,line-interface,6C696E652D696E746572666163652E6B,rev?*
G04 #@! TF.FileFunction,Copper,L2,Bot,Signal*
G04 #@! TF.FilePolarity,Positive*
%FSLAX46Y46*%
G04 Gerber Fmt 4.6, Leading zero omitted, Abs format (unit mm)*
G04 Created by KiCad (PCBNEW no-vcs-found-24a9003~58~ubuntu16.04.1) date Mon Mar  6 17:54:42 2017*
%MOMM*%
%LPD*%
G01*
G04 APERTURE LIST*
%ADD10C,0.100000*%
%ADD11O,2.200000X1.700000*%
%ADD12R,2.200000X1.700000*%
%ADD13C,1.600000*%
%ADD14R,1.600000X1.600000*%
%ADD15O,1.700000X1.700000*%
%ADD16R,1.700000X1.700000*%
%ADD17C,1.000000*%
%ADD18C,0.600000*%
%ADD19C,0.800000*%
%ADD20C,0.254000*%
G04 APERTURE END LIST*
D10*
D11*
X101270000Y-129700000D03*
X101270000Y-127160000D03*
X101270000Y-124620000D03*
X101270000Y-122080000D03*
X101270000Y-119540000D03*
D12*
X101270000Y-117000000D03*
D13*
X125500000Y-105000000D03*
D14*
X129000000Y-105000000D03*
D15*
X149080000Y-137620000D03*
X149080000Y-135080000D03*
X149080000Y-132540000D03*
D16*
X149080000Y-130000000D03*
D15*
X133382400Y-129700000D03*
X130842400Y-129700000D03*
X133382400Y-127160000D03*
X130842400Y-127160000D03*
X133382400Y-124620000D03*
D16*
X130842400Y-124620000D03*
D13*
X105000000Y-127000000D03*
X105000000Y-116500000D03*
X112000000Y-106000000D03*
X115000000Y-102000000D03*
X132500000Y-118000000D03*
X139000000Y-120500000D03*
X142500000Y-118500000D03*
X120500000Y-141000000D03*
X149000000Y-140000000D03*
X147000000Y-139000000D03*
X102000000Y-114500000D03*
X101500000Y-132500000D03*
X112500000Y-130000000D03*
X112500000Y-141000000D03*
X124882400Y-127580000D03*
X133382400Y-132080000D03*
X126382400Y-130580000D03*
X131382400Y-132080000D03*
X130500000Y-145500000D03*
X126006379Y-142599968D03*
D17*
X105000000Y-116500000D02*
X105000000Y-127000000D01*
X112500000Y-141000000D02*
X120500000Y-141000000D01*
X149080000Y-137620000D02*
X149080000Y-139920000D01*
X149080000Y-139920000D02*
X149000000Y-140000000D01*
X101270000Y-129700000D02*
X101270000Y-132270000D01*
X101270000Y-132270000D02*
X101500000Y-132500000D01*
D18*
X133382400Y-129700000D02*
X133382400Y-132080000D01*
D19*
X131382400Y-132080000D02*
X127882400Y-132080000D01*
X127882400Y-132080000D02*
X126382400Y-130580000D01*
D18*
X129368630Y-145500000D02*
X130500000Y-145500000D01*
X128906411Y-145500000D02*
X129368630Y-145500000D01*
X126006379Y-142599968D02*
X128906411Y-145500000D01*
D20*
G36*
X151290000Y-148290000D02*
X100710000Y-148290000D01*
X100710000Y-145442619D01*
X101764613Y-145442619D01*
X102104155Y-146264372D01*
X102732321Y-146893636D01*
X103553481Y-147234611D01*
X104442619Y-147235387D01*
X105264372Y-146895845D01*
X105893636Y-146267679D01*
X106234611Y-145446519D01*
X106235387Y-144557381D01*
X105895845Y-143735628D01*
X105267679Y-143106364D01*
X104732540Y-142884155D01*
X124571131Y-142884155D01*
X124789136Y-143411768D01*
X125192456Y-143815792D01*
X125719688Y-144034718D01*
X126119187Y-144035066D01*
X128245266Y-146161145D01*
X128548602Y-146363827D01*
X128607967Y-146375636D01*
X128906411Y-146435001D01*
X128906416Y-146435000D01*
X129405742Y-146435000D01*
X129686077Y-146715824D01*
X130213309Y-146934750D01*
X130784187Y-146935248D01*
X131311800Y-146717243D01*
X131715824Y-146313923D01*
X131934750Y-145786691D01*
X131935050Y-145442619D01*
X145764613Y-145442619D01*
X146104155Y-146264372D01*
X146732321Y-146893636D01*
X147553481Y-147234611D01*
X148442619Y-147235387D01*
X149264372Y-146895845D01*
X149893636Y-146267679D01*
X150234611Y-145446519D01*
X150235387Y-144557381D01*
X149895845Y-143735628D01*
X149267679Y-143106364D01*
X148446519Y-142765389D01*
X147557381Y-142764613D01*
X146735628Y-143104155D01*
X146106364Y-143732321D01*
X145765389Y-144553481D01*
X145764613Y-145442619D01*
X131935050Y-145442619D01*
X131935248Y-145215813D01*
X131717243Y-144688200D01*
X131313923Y-144284176D01*
X130786691Y-144065250D01*
X130215813Y-144064752D01*
X129688200Y-144282757D01*
X129405464Y-144565000D01*
X129293701Y-144565000D01*
X127441281Y-142712580D01*
X127441627Y-142315781D01*
X127223622Y-141788168D01*
X126820302Y-141384144D01*
X126293070Y-141165218D01*
X125722192Y-141164720D01*
X125194579Y-141382725D01*
X124790555Y-141786045D01*
X124571629Y-142313277D01*
X124571131Y-142884155D01*
X104732540Y-142884155D01*
X104446519Y-142765389D01*
X103557381Y-142764613D01*
X102735628Y-143104155D01*
X102106364Y-143732321D01*
X101765389Y-144553481D01*
X101764613Y-145442619D01*
X100710000Y-145442619D01*
X100710000Y-137976890D01*
X147638524Y-137976890D01*
X147808355Y-138386924D01*
X148198642Y-138815183D01*
X148723108Y-139061486D01*
X148953000Y-138940819D01*
X148953000Y-137747000D01*
X149207000Y-137747000D01*
X149207000Y-138940819D01*
X149436892Y-139061486D01*
X149961358Y-138815183D01*
X150351645Y-138386924D01*
X150521476Y-137976890D01*
X150400155Y-137747000D01*
X149207000Y-137747000D01*
X148953000Y-137747000D01*
X147759845Y-137747000D01*
X147638524Y-137976890D01*
X100710000Y-137976890D01*
X100710000Y-131136007D01*
X100908361Y-131191135D01*
X101143000Y-131031491D01*
X101143000Y-129827000D01*
X101397000Y-129827000D01*
X101397000Y-131031491D01*
X101631639Y-131191135D01*
X102193774Y-131034907D01*
X102412036Y-130864187D01*
X124947152Y-130864187D01*
X125165157Y-131391800D01*
X125568477Y-131795824D01*
X126095709Y-132014750D01*
X126353663Y-132014975D01*
X127150542Y-132811853D01*
X127150544Y-132811856D01*
X127273367Y-132893923D01*
X127486322Y-133036215D01*
X127882400Y-133115000D01*
X130387968Y-133115000D01*
X130568477Y-133295824D01*
X131095709Y-133514750D01*
X131666587Y-133515248D01*
X132194200Y-133297243D01*
X132598224Y-132893923D01*
X132745185Y-132540000D01*
X147565907Y-132540000D01*
X147678946Y-133108285D01*
X148000853Y-133590054D01*
X148330026Y-133810000D01*
X148000853Y-134029946D01*
X147678946Y-134511715D01*
X147565907Y-135080000D01*
X147678946Y-135648285D01*
X148000853Y-136130054D01*
X148341553Y-136357702D01*
X148198642Y-136424817D01*
X147808355Y-136853076D01*
X147638524Y-137263110D01*
X147759845Y-137493000D01*
X148953000Y-137493000D01*
X148953000Y-137473000D01*
X149207000Y-137473000D01*
X149207000Y-137493000D01*
X150400155Y-137493000D01*
X150521476Y-137263110D01*
X150351645Y-136853076D01*
X149961358Y-136424817D01*
X149818447Y-136357702D01*
X150159147Y-136130054D01*
X150481054Y-135648285D01*
X150594093Y-135080000D01*
X150481054Y-134511715D01*
X150159147Y-134029946D01*
X149829974Y-133810000D01*
X150159147Y-133590054D01*
X150481054Y-133108285D01*
X150594093Y-132540000D01*
X150481054Y-131971715D01*
X150159147Y-131489946D01*
X150115223Y-131460597D01*
X150177765Y-131448157D01*
X150387809Y-131307809D01*
X150528157Y-131097765D01*
X150577440Y-130850000D01*
X150577440Y-129150000D01*
X150528157Y-128902235D01*
X150387809Y-128692191D01*
X150177765Y-128551843D01*
X149930000Y-128502560D01*
X148230000Y-128502560D01*
X147982235Y-128551843D01*
X147772191Y-128692191D01*
X147631843Y-128902235D01*
X147582560Y-129150000D01*
X147582560Y-130850000D01*
X147631843Y-131097765D01*
X147772191Y-131307809D01*
X147982235Y-131448157D01*
X148044777Y-131460597D01*
X148000853Y-131489946D01*
X147678946Y-131971715D01*
X147565907Y-132540000D01*
X132745185Y-132540000D01*
X132817150Y-132366691D01*
X132817648Y-131795813D01*
X132599643Y-131268200D01*
X132196323Y-130864176D01*
X131921524Y-130750069D01*
X131921547Y-130750054D01*
X132110745Y-130466899D01*
X132110755Y-130466924D01*
X132501042Y-130895183D01*
X133025508Y-131141486D01*
X133255400Y-131020819D01*
X133255400Y-129827000D01*
X133509400Y-129827000D01*
X133509400Y-131020819D01*
X133739292Y-131141486D01*
X134263758Y-130895183D01*
X134654045Y-130466924D01*
X134823876Y-130056890D01*
X134702555Y-129827000D01*
X133509400Y-129827000D01*
X133255400Y-129827000D01*
X133235400Y-129827000D01*
X133235400Y-129573000D01*
X133255400Y-129573000D01*
X133255400Y-129553000D01*
X133509400Y-129553000D01*
X133509400Y-129573000D01*
X134702555Y-129573000D01*
X134823876Y-129343110D01*
X134654045Y-128933076D01*
X134263758Y-128504817D01*
X134120847Y-128437702D01*
X134461547Y-128210054D01*
X134783454Y-127728285D01*
X134896493Y-127160000D01*
X134783454Y-126591715D01*
X134461547Y-126109946D01*
X134132374Y-125890000D01*
X134461547Y-125670054D01*
X134783454Y-125188285D01*
X134896493Y-124620000D01*
X134783454Y-124051715D01*
X134461547Y-123569946D01*
X133979778Y-123248039D01*
X133411493Y-123135000D01*
X133353307Y-123135000D01*
X132785022Y-123248039D01*
X132303253Y-123569946D01*
X132300783Y-123573643D01*
X132290557Y-123522235D01*
X132150209Y-123312191D01*
X131940165Y-123171843D01*
X131692400Y-123122560D01*
X129992400Y-123122560D01*
X129744635Y-123171843D01*
X129534591Y-123312191D01*
X129394243Y-123522235D01*
X129344960Y-123770000D01*
X129344960Y-125470000D01*
X129394243Y-125717765D01*
X129534591Y-125927809D01*
X129744635Y-126068157D01*
X129807177Y-126080597D01*
X129763253Y-126109946D01*
X129441346Y-126591715D01*
X129328307Y-127160000D01*
X129441346Y-127728285D01*
X129763253Y-128210054D01*
X130092426Y-128430000D01*
X129763253Y-128649946D01*
X129441346Y-129131715D01*
X129328307Y-129700000D01*
X129441346Y-130268285D01*
X129763253Y-130750054D01*
X130204672Y-131045000D01*
X128311111Y-131045000D01*
X127817425Y-130551314D01*
X127817648Y-130295813D01*
X127599643Y-129768200D01*
X127196323Y-129364176D01*
X126669091Y-129145250D01*
X126098213Y-129144752D01*
X125570600Y-129362757D01*
X125166576Y-129766077D01*
X124947650Y-130293309D01*
X124947152Y-130864187D01*
X102412036Y-130864187D01*
X102653333Y-130675451D01*
X102940352Y-130167491D01*
X102961476Y-130056890D01*
X102840155Y-129827000D01*
X101397000Y-129827000D01*
X101143000Y-129827000D01*
X101123000Y-129827000D01*
X101123000Y-129573000D01*
X101143000Y-129573000D01*
X101143000Y-129553000D01*
X101397000Y-129553000D01*
X101397000Y-129573000D01*
X102840155Y-129573000D01*
X102961476Y-129343110D01*
X102940352Y-129232509D01*
X102653333Y-128724549D01*
X102275888Y-128429321D01*
X102604045Y-128210054D01*
X102925952Y-127728285D01*
X103038991Y-127160000D01*
X102925952Y-126591715D01*
X102604045Y-126109946D01*
X102274872Y-125890000D01*
X102604045Y-125670054D01*
X102925952Y-125188285D01*
X103038991Y-124620000D01*
X102925952Y-124051715D01*
X102604045Y-123569946D01*
X102274872Y-123350000D01*
X102604045Y-123130054D01*
X102925952Y-122648285D01*
X103038991Y-122080000D01*
X102925952Y-121511715D01*
X102604045Y-121029946D01*
X102274872Y-120810000D01*
X102604045Y-120590054D01*
X102925952Y-120108285D01*
X103038991Y-119540000D01*
X102925952Y-118971715D01*
X102604045Y-118489946D01*
X102558247Y-118459345D01*
X102729698Y-118388327D01*
X102908327Y-118209699D01*
X103005000Y-117976310D01*
X103005000Y-117285750D01*
X102846250Y-117127000D01*
X101397000Y-117127000D01*
X101397000Y-117147000D01*
X101143000Y-117147000D01*
X101143000Y-117127000D01*
X101123000Y-117127000D01*
X101123000Y-116873000D01*
X101143000Y-116873000D01*
X101143000Y-115673750D01*
X101397000Y-115673750D01*
X101397000Y-116873000D01*
X102846250Y-116873000D01*
X102935063Y-116784187D01*
X103564752Y-116784187D01*
X103782757Y-117311800D01*
X103865000Y-117394187D01*
X103865000Y-126105394D01*
X103784176Y-126186077D01*
X103565250Y-126713309D01*
X103564752Y-127284187D01*
X103782757Y-127811800D01*
X104186077Y-128215824D01*
X104713309Y-128434750D01*
X105284187Y-128435248D01*
X105811800Y-128217243D01*
X106215824Y-127813923D01*
X106434750Y-127286691D01*
X106435248Y-126715813D01*
X106217243Y-126188200D01*
X106135000Y-126105813D01*
X106135000Y-117394606D01*
X106215824Y-117313923D01*
X106434750Y-116786691D01*
X106435248Y-116215813D01*
X106217243Y-115688200D01*
X105813923Y-115284176D01*
X105286691Y-115065250D01*
X104715813Y-115064752D01*
X104188200Y-115282757D01*
X103784176Y-115686077D01*
X103565250Y-116213309D01*
X103564752Y-116784187D01*
X102935063Y-116784187D01*
X103005000Y-116714250D01*
X103005000Y-116023690D01*
X102908327Y-115790301D01*
X102729698Y-115611673D01*
X102496309Y-115515000D01*
X101555750Y-115515000D01*
X101397000Y-115673750D01*
X101143000Y-115673750D01*
X100984250Y-115515000D01*
X100710000Y-115515000D01*
X100710000Y-104442619D01*
X101764613Y-104442619D01*
X102104155Y-105264372D01*
X102732321Y-105893636D01*
X103553481Y-106234611D01*
X104442619Y-106235387D01*
X104993553Y-106007745D01*
X124671861Y-106007745D01*
X124745995Y-106253864D01*
X125283223Y-106446965D01*
X125853454Y-106419778D01*
X126254005Y-106253864D01*
X126328139Y-106007745D01*
X125500000Y-105179605D01*
X124671861Y-106007745D01*
X104993553Y-106007745D01*
X105264372Y-105895845D01*
X105893636Y-105267679D01*
X106094799Y-104783223D01*
X124053035Y-104783223D01*
X124080222Y-105353454D01*
X124246136Y-105754005D01*
X124492255Y-105828139D01*
X125320395Y-105000000D01*
X125679605Y-105000000D01*
X126507745Y-105828139D01*
X126753864Y-105754005D01*
X126946965Y-105216777D01*
X126919778Y-104646546D01*
X126753864Y-104245995D01*
X126601165Y-104200000D01*
X127552560Y-104200000D01*
X127552560Y-105800000D01*
X127601843Y-106047765D01*
X127742191Y-106257809D01*
X127952235Y-106398157D01*
X128200000Y-106447440D01*
X129800000Y-106447440D01*
X130047765Y-106398157D01*
X130257809Y-106257809D01*
X130398157Y-106047765D01*
X130447440Y-105800000D01*
X130447440Y-104442619D01*
X145764613Y-104442619D01*
X146104155Y-105264372D01*
X146732321Y-105893636D01*
X147553481Y-106234611D01*
X148442619Y-106235387D01*
X149264372Y-105895845D01*
X149893636Y-105267679D01*
X150234611Y-104446519D01*
X150235387Y-103557381D01*
X149895845Y-102735628D01*
X149267679Y-102106364D01*
X148446519Y-101765389D01*
X147557381Y-101764613D01*
X146735628Y-102104155D01*
X146106364Y-102732321D01*
X145765389Y-103553481D01*
X145764613Y-104442619D01*
X130447440Y-104442619D01*
X130447440Y-104200000D01*
X130398157Y-103952235D01*
X130257809Y-103742191D01*
X130047765Y-103601843D01*
X129800000Y-103552560D01*
X128200000Y-103552560D01*
X127952235Y-103601843D01*
X127742191Y-103742191D01*
X127601843Y-103952235D01*
X127552560Y-104200000D01*
X126601165Y-104200000D01*
X126507745Y-104171861D01*
X125679605Y-105000000D01*
X125320395Y-105000000D01*
X124492255Y-104171861D01*
X124246136Y-104245995D01*
X124053035Y-104783223D01*
X106094799Y-104783223D01*
X106234611Y-104446519D01*
X106235007Y-103992255D01*
X124671861Y-103992255D01*
X125500000Y-104820395D01*
X126328139Y-103992255D01*
X126254005Y-103746136D01*
X125716777Y-103553035D01*
X125146546Y-103580222D01*
X124745995Y-103746136D01*
X124671861Y-103992255D01*
X106235007Y-103992255D01*
X106235387Y-103557381D01*
X105895845Y-102735628D01*
X105267679Y-102106364D01*
X104446519Y-101765389D01*
X103557381Y-101764613D01*
X102735628Y-102104155D01*
X102106364Y-102732321D01*
X101765389Y-103553481D01*
X101764613Y-104442619D01*
X100710000Y-104442619D01*
X100710000Y-100710000D01*
X151290000Y-100710000D01*
X151290000Y-148290000D01*
X151290000Y-148290000D01*
G37*
X151290000Y-148290000D02*
X100710000Y-148290000D01*
X100710000Y-145442619D01*
X101764613Y-145442619D01*
X102104155Y-146264372D01*
X102732321Y-146893636D01*
X103553481Y-147234611D01*
X104442619Y-147235387D01*
X105264372Y-146895845D01*
X105893636Y-146267679D01*
X106234611Y-145446519D01*
X106235387Y-144557381D01*
X105895845Y-143735628D01*
X105267679Y-143106364D01*
X104732540Y-142884155D01*
X124571131Y-142884155D01*
X124789136Y-143411768D01*
X125192456Y-143815792D01*
X125719688Y-144034718D01*
X126119187Y-144035066D01*
X128245266Y-146161145D01*
X128548602Y-146363827D01*
X128607967Y-146375636D01*
X128906411Y-146435001D01*
X128906416Y-146435000D01*
X129405742Y-146435000D01*
X129686077Y-146715824D01*
X130213309Y-146934750D01*
X130784187Y-146935248D01*
X131311800Y-146717243D01*
X131715824Y-146313923D01*
X131934750Y-145786691D01*
X131935050Y-145442619D01*
X145764613Y-145442619D01*
X146104155Y-146264372D01*
X146732321Y-146893636D01*
X147553481Y-147234611D01*
X148442619Y-147235387D01*
X149264372Y-146895845D01*
X149893636Y-146267679D01*
X150234611Y-145446519D01*
X150235387Y-144557381D01*
X149895845Y-143735628D01*
X149267679Y-143106364D01*
X148446519Y-142765389D01*
X147557381Y-142764613D01*
X146735628Y-143104155D01*
X146106364Y-143732321D01*
X145765389Y-144553481D01*
X145764613Y-145442619D01*
X131935050Y-145442619D01*
X131935248Y-145215813D01*
X131717243Y-144688200D01*
X131313923Y-144284176D01*
X130786691Y-144065250D01*
X130215813Y-144064752D01*
X129688200Y-144282757D01*
X129405464Y-144565000D01*
X129293701Y-144565000D01*
X127441281Y-142712580D01*
X127441627Y-142315781D01*
X127223622Y-141788168D01*
X126820302Y-141384144D01*
X126293070Y-141165218D01*
X125722192Y-141164720D01*
X125194579Y-141382725D01*
X124790555Y-141786045D01*
X124571629Y-142313277D01*
X124571131Y-142884155D01*
X104732540Y-142884155D01*
X104446519Y-142765389D01*
X103557381Y-142764613D01*
X102735628Y-143104155D01*
X102106364Y-143732321D01*
X101765389Y-144553481D01*
X101764613Y-145442619D01*
X100710000Y-145442619D01*
X100710000Y-137976890D01*
X147638524Y-137976890D01*
X147808355Y-138386924D01*
X148198642Y-138815183D01*
X148723108Y-139061486D01*
X148953000Y-138940819D01*
X148953000Y-137747000D01*
X149207000Y-137747000D01*
X149207000Y-138940819D01*
X149436892Y-139061486D01*
X149961358Y-138815183D01*
X150351645Y-138386924D01*
X150521476Y-137976890D01*
X150400155Y-137747000D01*
X149207000Y-137747000D01*
X148953000Y-137747000D01*
X147759845Y-137747000D01*
X147638524Y-137976890D01*
X100710000Y-137976890D01*
X100710000Y-131136007D01*
X100908361Y-131191135D01*
X101143000Y-131031491D01*
X101143000Y-129827000D01*
X101397000Y-129827000D01*
X101397000Y-131031491D01*
X101631639Y-131191135D01*
X102193774Y-131034907D01*
X102412036Y-130864187D01*
X124947152Y-130864187D01*
X125165157Y-131391800D01*
X125568477Y-131795824D01*
X126095709Y-132014750D01*
X126353663Y-132014975D01*
X127150542Y-132811853D01*
X127150544Y-132811856D01*
X127273367Y-132893923D01*
X127486322Y-133036215D01*
X127882400Y-133115000D01*
X130387968Y-133115000D01*
X130568477Y-133295824D01*
X131095709Y-133514750D01*
X131666587Y-133515248D01*
X132194200Y-133297243D01*
X132598224Y-132893923D01*
X132745185Y-132540000D01*
X147565907Y-132540000D01*
X147678946Y-133108285D01*
X148000853Y-133590054D01*
X148330026Y-133810000D01*
X148000853Y-134029946D01*
X147678946Y-134511715D01*
X147565907Y-135080000D01*
X147678946Y-135648285D01*
X148000853Y-136130054D01*
X148341553Y-136357702D01*
X148198642Y-136424817D01*
X147808355Y-136853076D01*
X147638524Y-137263110D01*
X147759845Y-137493000D01*
X148953000Y-137493000D01*
X148953000Y-137473000D01*
X149207000Y-137473000D01*
X149207000Y-137493000D01*
X150400155Y-137493000D01*
X150521476Y-137263110D01*
X150351645Y-136853076D01*
X149961358Y-136424817D01*
X149818447Y-136357702D01*
X150159147Y-136130054D01*
X150481054Y-135648285D01*
X150594093Y-135080000D01*
X150481054Y-134511715D01*
X150159147Y-134029946D01*
X149829974Y-133810000D01*
X150159147Y-133590054D01*
X150481054Y-133108285D01*
X150594093Y-132540000D01*
X150481054Y-131971715D01*
X150159147Y-131489946D01*
X150115223Y-131460597D01*
X150177765Y-131448157D01*
X150387809Y-131307809D01*
X150528157Y-131097765D01*
X150577440Y-130850000D01*
X150577440Y-129150000D01*
X150528157Y-128902235D01*
X150387809Y-128692191D01*
X150177765Y-128551843D01*
X149930000Y-128502560D01*
X148230000Y-128502560D01*
X147982235Y-128551843D01*
X147772191Y-128692191D01*
X147631843Y-128902235D01*
X147582560Y-129150000D01*
X147582560Y-130850000D01*
X147631843Y-131097765D01*
X147772191Y-131307809D01*
X147982235Y-131448157D01*
X148044777Y-131460597D01*
X148000853Y-131489946D01*
X147678946Y-131971715D01*
X147565907Y-132540000D01*
X132745185Y-132540000D01*
X132817150Y-132366691D01*
X132817648Y-131795813D01*
X132599643Y-131268200D01*
X132196323Y-130864176D01*
X131921524Y-130750069D01*
X131921547Y-130750054D01*
X132110745Y-130466899D01*
X132110755Y-130466924D01*
X132501042Y-130895183D01*
X133025508Y-131141486D01*
X133255400Y-131020819D01*
X133255400Y-129827000D01*
X133509400Y-129827000D01*
X133509400Y-131020819D01*
X133739292Y-131141486D01*
X134263758Y-130895183D01*
X134654045Y-130466924D01*
X134823876Y-130056890D01*
X134702555Y-129827000D01*
X133509400Y-129827000D01*
X133255400Y-129827000D01*
X133235400Y-129827000D01*
X133235400Y-129573000D01*
X133255400Y-129573000D01*
X133255400Y-129553000D01*
X133509400Y-129553000D01*
X133509400Y-129573000D01*
X134702555Y-129573000D01*
X134823876Y-129343110D01*
X134654045Y-128933076D01*
X134263758Y-128504817D01*
X134120847Y-128437702D01*
X134461547Y-128210054D01*
X134783454Y-127728285D01*
X134896493Y-127160000D01*
X134783454Y-126591715D01*
X134461547Y-126109946D01*
X134132374Y-125890000D01*
X134461547Y-125670054D01*
X134783454Y-125188285D01*
X134896493Y-124620000D01*
X134783454Y-124051715D01*
X134461547Y-123569946D01*
X133979778Y-123248039D01*
X133411493Y-123135000D01*
X133353307Y-123135000D01*
X132785022Y-123248039D01*
X132303253Y-123569946D01*
X132300783Y-123573643D01*
X132290557Y-123522235D01*
X132150209Y-123312191D01*
X131940165Y-123171843D01*
X131692400Y-123122560D01*
X129992400Y-123122560D01*
X129744635Y-123171843D01*
X129534591Y-123312191D01*
X129394243Y-123522235D01*
X129344960Y-123770000D01*
X129344960Y-125470000D01*
X129394243Y-125717765D01*
X129534591Y-125927809D01*
X129744635Y-126068157D01*
X129807177Y-126080597D01*
X129763253Y-126109946D01*
X129441346Y-126591715D01*
X129328307Y-127160000D01*
X129441346Y-127728285D01*
X129763253Y-128210054D01*
X130092426Y-128430000D01*
X129763253Y-128649946D01*
X129441346Y-129131715D01*
X129328307Y-129700000D01*
X129441346Y-130268285D01*
X129763253Y-130750054D01*
X130204672Y-131045000D01*
X128311111Y-131045000D01*
X127817425Y-130551314D01*
X127817648Y-130295813D01*
X127599643Y-129768200D01*
X127196323Y-129364176D01*
X126669091Y-129145250D01*
X126098213Y-129144752D01*
X125570600Y-129362757D01*
X125166576Y-129766077D01*
X124947650Y-130293309D01*
X124947152Y-130864187D01*
X102412036Y-130864187D01*
X102653333Y-130675451D01*
X102940352Y-130167491D01*
X102961476Y-130056890D01*
X102840155Y-129827000D01*
X101397000Y-129827000D01*
X101143000Y-129827000D01*
X101123000Y-129827000D01*
X101123000Y-129573000D01*
X101143000Y-129573000D01*
X101143000Y-129553000D01*
X101397000Y-129553000D01*
X101397000Y-129573000D01*
X102840155Y-129573000D01*
X102961476Y-129343110D01*
X102940352Y-129232509D01*
X102653333Y-128724549D01*
X102275888Y-128429321D01*
X102604045Y-128210054D01*
X102925952Y-127728285D01*
X103038991Y-127160000D01*
X102925952Y-126591715D01*
X102604045Y-126109946D01*
X102274872Y-125890000D01*
X102604045Y-125670054D01*
X102925952Y-125188285D01*
X103038991Y-124620000D01*
X102925952Y-124051715D01*
X102604045Y-123569946D01*
X102274872Y-123350000D01*
X102604045Y-123130054D01*
X102925952Y-122648285D01*
X103038991Y-122080000D01*
X102925952Y-121511715D01*
X102604045Y-121029946D01*
X102274872Y-120810000D01*
X102604045Y-120590054D01*
X102925952Y-120108285D01*
X103038991Y-119540000D01*
X102925952Y-118971715D01*
X102604045Y-118489946D01*
X102558247Y-118459345D01*
X102729698Y-118388327D01*
X102908327Y-118209699D01*
X103005000Y-117976310D01*
X103005000Y-117285750D01*
X102846250Y-117127000D01*
X101397000Y-117127000D01*
X101397000Y-117147000D01*
X101143000Y-117147000D01*
X101143000Y-117127000D01*
X101123000Y-117127000D01*
X101123000Y-116873000D01*
X101143000Y-116873000D01*
X101143000Y-115673750D01*
X101397000Y-115673750D01*
X101397000Y-116873000D01*
X102846250Y-116873000D01*
X102935063Y-116784187D01*
X103564752Y-116784187D01*
X103782757Y-117311800D01*
X103865000Y-117394187D01*
X103865000Y-126105394D01*
X103784176Y-126186077D01*
X103565250Y-126713309D01*
X103564752Y-127284187D01*
X103782757Y-127811800D01*
X104186077Y-128215824D01*
X104713309Y-128434750D01*
X105284187Y-128435248D01*
X105811800Y-128217243D01*
X106215824Y-127813923D01*
X106434750Y-127286691D01*
X106435248Y-126715813D01*
X106217243Y-126188200D01*
X106135000Y-126105813D01*
X106135000Y-117394606D01*
X106215824Y-117313923D01*
X106434750Y-116786691D01*
X106435248Y-116215813D01*
X106217243Y-115688200D01*
X105813923Y-115284176D01*
X105286691Y-115065250D01*
X104715813Y-115064752D01*
X104188200Y-115282757D01*
X103784176Y-115686077D01*
X103565250Y-116213309D01*
X103564752Y-116784187D01*
X102935063Y-116784187D01*
X103005000Y-116714250D01*
X103005000Y-116023690D01*
X102908327Y-115790301D01*
X102729698Y-115611673D01*
X102496309Y-115515000D01*
X101555750Y-115515000D01*
X101397000Y-115673750D01*
X101143000Y-115673750D01*
X100984250Y-115515000D01*
X100710000Y-115515000D01*
X100710000Y-104442619D01*
X101764613Y-104442619D01*
X102104155Y-105264372D01*
X102732321Y-105893636D01*
X103553481Y-106234611D01*
X104442619Y-106235387D01*
X104993553Y-106007745D01*
X124671861Y-106007745D01*
X124745995Y-106253864D01*
X125283223Y-106446965D01*
X125853454Y-106419778D01*
X126254005Y-106253864D01*
X126328139Y-106007745D01*
X125500000Y-105179605D01*
X124671861Y-106007745D01*
X104993553Y-106007745D01*
X105264372Y-105895845D01*
X105893636Y-105267679D01*
X106094799Y-104783223D01*
X124053035Y-104783223D01*
X124080222Y-105353454D01*
X124246136Y-105754005D01*
X124492255Y-105828139D01*
X125320395Y-105000000D01*
X125679605Y-105000000D01*
X126507745Y-105828139D01*
X126753864Y-105754005D01*
X126946965Y-105216777D01*
X126919778Y-104646546D01*
X126753864Y-104245995D01*
X126601165Y-104200000D01*
X127552560Y-104200000D01*
X127552560Y-105800000D01*
X127601843Y-106047765D01*
X127742191Y-106257809D01*
X127952235Y-106398157D01*
X128200000Y-106447440D01*
X129800000Y-106447440D01*
X130047765Y-106398157D01*
X130257809Y-106257809D01*
X130398157Y-106047765D01*
X130447440Y-105800000D01*
X130447440Y-104442619D01*
X145764613Y-104442619D01*
X146104155Y-105264372D01*
X146732321Y-105893636D01*
X147553481Y-106234611D01*
X148442619Y-106235387D01*
X149264372Y-105895845D01*
X149893636Y-105267679D01*
X150234611Y-104446519D01*
X150235387Y-103557381D01*
X149895845Y-102735628D01*
X149267679Y-102106364D01*
X148446519Y-101765389D01*
X147557381Y-101764613D01*
X146735628Y-102104155D01*
X146106364Y-102732321D01*
X145765389Y-103553481D01*
X145764613Y-104442619D01*
X130447440Y-104442619D01*
X130447440Y-104200000D01*
X130398157Y-103952235D01*
X130257809Y-103742191D01*
X130047765Y-103601843D01*
X129800000Y-103552560D01*
X128200000Y-103552560D01*
X127952235Y-103601843D01*
X127742191Y-103742191D01*
X127601843Y-103952235D01*
X127552560Y-104200000D01*
X126601165Y-104200000D01*
X126507745Y-104171861D01*
X125679605Y-105000000D01*
X125320395Y-105000000D01*
X124492255Y-104171861D01*
X124246136Y-104245995D01*
X124053035Y-104783223D01*
X106094799Y-104783223D01*
X106234611Y-104446519D01*
X106235007Y-103992255D01*
X124671861Y-103992255D01*
X125500000Y-104820395D01*
X126328139Y-103992255D01*
X126254005Y-103746136D01*
X125716777Y-103553035D01*
X125146546Y-103580222D01*
X124745995Y-103746136D01*
X124671861Y-103992255D01*
X106235007Y-103992255D01*
X106235387Y-103557381D01*
X105895845Y-102735628D01*
X105267679Y-102106364D01*
X104446519Y-101765389D01*
X103557381Y-101764613D01*
X102735628Y-102104155D01*
X102106364Y-102732321D01*
X101765389Y-103553481D01*
X101764613Y-104442619D01*
X100710000Y-104442619D01*
X100710000Y-100710000D01*
X151290000Y-100710000D01*
X151290000Y-148290000D01*
M02*
