M48
;DRILL file {KiCad no-vcs-found-24a9003~58~ubuntu16.04.1} date Mon Mar  6 17:54:44 2017
;FORMAT={-:-/ absolute / metric / decimal}
FMAT,2
METRIC,TZ
T1C0.600
T2C0.800
T3C1.000
T4C3.200
%
G90
G05
M71
T1
X101.5Y-132.5
X101.5Y-132.5
X102.Y-114.5
X105.Y-116.5
X105.Y-127.
X112.Y-106.
X112.5Y-130.
X112.5Y-141.
X115.Y-102.
X120.5Y-141.
X124.882Y-127.58
X126.006Y-142.6
X126.382Y-130.58
X130.5Y-145.5
X131.382Y-132.08
X132.5Y-118.
X133.382Y-132.08
X139.Y-120.5
X142.5Y-118.5
X147.Y-139.
X149.Y-140.
T2
X125.5Y-105.
X129.Y-105.
T3
X101.27Y-117.
X101.27Y-119.54
X101.27Y-122.08
X101.27Y-124.62
X101.27Y-127.16
X101.27Y-129.7
X130.842Y-124.62
X130.842Y-127.16
X130.842Y-129.7
X133.382Y-124.62
X133.382Y-127.16
X133.382Y-129.7
X149.08Y-130.
X149.08Y-132.54
X149.08Y-135.08
X149.08Y-137.62
T4
X104.Y-104.
X104.Y-145.
X148.Y-104.
X148.Y-145.
T0
M30
